<svg xmlns="http://www.w3.org/2000/svg" xmlns:xlink="http://www.w3.org/1999/xlink" id="Layer_1" width="100%" x="0" y="0" enable-background="new 0 0 512 512" version="1.1" viewBox="0 0 512 512" xml:space="preserve"><path fill="#000" stroke="none" d="M292.000000,513.000000 C194.690292,513.000000 97.880577,513.000000 1.035435,513.000000 C1.035435,342.398590 1.035435,171.797195 1.035435,1.097890 C171.559723,1.097890 342.119537,1.097890 512.839661,1.097890 C512.839661,171.666550 512.839661,342.333252 512.839661,513.000000 C439.463837,513.000000 365.981903,513.000000 292.000000,513.000000 M450.974609,330.534210 C451.434967,329.645264 451.906311,328.761810 452.354034,327.866547 C469.180908,294.218231 475.920776,258.856506 470.813965,221.369812 C468.389038,203.569183 462.233521,186.869217 456.667358,169.959579 C453.813721,161.290283 449.604614,152.973450 448.716309,143.755127 C447.748718,133.713943 443.384338,128.746643 433.385315,129.533936 C419.640808,130.616165 408.179352,126.524017 398.177704,117.393768 C396.462921,115.828384 394.484253,114.546608 392.595001,113.178680 C383.161255,106.348053 363.447754,112.371269 359.237274,123.362785 C358.998993,123.984795 358.737671,124.605537 358.580109,125.249626 C357.750244,128.641922 356.961304,132.044174 356.137878,135.438065 C353.909821,144.620911 349.236786,152.103119 340.546265,156.342880 C335.328949,158.888168 331.119171,162.495178 327.187714,166.624893 C323.511658,170.486328 319.679779,174.200089 315.894775,177.957016 C311.531586,182.287827 306.399536,185.215805 300.331573,186.439087 C293.809418,187.753967 287.289703,189.081757 280.777313,190.444077 C275.073334,191.637329 271.111145,194.706512 269.841980,200.683990 C269.393097,202.798096 268.749329,204.870010 268.242584,206.972778 C265.676666,217.620316 259.344635,225.043304 249.202927,229.176544 C242.725967,231.816223 236.230881,234.412064 229.726715,236.984055 C226.868820,238.114151 224.164108,239.577576 222.700272,242.322769 C219.249756,248.793732 215.739243,255.420151 214.608627,262.663727 C211.387802,283.298706 210.872772,304.041718 213.229797,324.855225 C216.394394,352.799835 224.766815,379.071442 237.489670,404.099304 C245.754562,420.357635 257.036804,433.342468 273.934692,441.042389 C279.155701,443.421478 280.775421,448.159729 278.648834,452.587433 C276.541504,456.975128 271.821808,458.452698 266.700409,456.185394 C253.483658,450.334198 242.204453,441.841583 233.727325,430.144714 C220.789734,412.293213 211.974747,392.287170 205.905380,371.238373 C202.664169,359.997803 198.866028,349.575073 190.079147,341.428101 C187.804810,339.319397 186.176331,336.448975 184.497009,333.774139 C172.467941,314.614105 167.271240,293.869141 170.589325,271.322662 C171.451309,265.465576 175.184860,262.815369 180.186768,263.590912 C184.896469,264.321136 188.026443,268.560120 187.073044,274.043121 C185.522659,282.959412 186.682373,291.658020 188.535828,300.295319 C189.573059,305.128937 190.703415,310.087921 194.084274,314.657043 C195.232529,311.955688 194.703049,309.947388 194.725769,307.980072 C194.992645,284.856537 194.572754,261.712921 204.793747,239.963516 C209.092621,230.815918 215.208252,224.308060 224.642410,220.776138 C230.724396,218.499191 236.709122,215.963577 242.752655,213.582520 C247.620575,211.664658 250.669632,208.266830 251.745514,203.079697 C252.251709,200.639114 252.976151,198.240646 253.668457,195.842361 C256.889709,184.683182 263.995331,177.408066 275.323975,174.523880 C279.832733,173.375961 284.422699,172.550125 288.965820,171.533447 C292.029816,170.847778 293.049805,169.204819 291.829285,166.064423 C289.295959,159.546310 286.990692,152.939804 284.567474,146.378586 C283.797821,144.294601 282.726318,141.833466 280.440674,141.766968 C272.897217,141.547485 265.063019,139.371872 257.915009,143.359406 C242.369263,152.031647 225.955002,153.656967 208.585617,150.907089 C193.457367,148.512024 179.086899,142.733719 163.652237,141.660110 C157.021896,141.198883 151.888016,142.903458 147.545166,147.621201 C144.826111,150.574951 142.653320,153.926422 140.585907,157.364090 C138.823059,160.295303 139.007004,162.341202 142.154709,164.366043 C150.333054,169.627014 156.195679,176.986526 160.672623,185.583801 C167.876587,199.417938 172.605286,214.123337 176.336365,229.185181 C178.052032,236.111053 180.423889,242.952240 180.352005,250.193436 C180.297379,255.695129 175.017838,259.560028 170.078262,257.906982 C165.939026,256.521759 164.424057,253.187210 163.610077,249.177155 C160.293594,232.838547 155.839020,216.838120 149.687698,201.300934 C144.468155,188.117233 136.068710,178.148758 122.758553,172.682419 C110.726570,167.741028 101.131699,159.798279 93.365295,149.392227 C87.689178,141.786896 82.024544,134.128510 75.270966,127.406494 C68.792984,120.958763 64.237877,119.624825 59.538414,122.513458 C54.526398,125.594215 52.799507,132.327240 55.045250,140.069183 C55.277065,140.868347 55.495426,141.681458 55.830925,142.438995 C60.956017,154.010956 59.563431,165.164673 55.087467,176.780823 C41.100960,213.079010 37.145638,250.283188 46.911125,288.395416 C58.197906,332.444885 83.346420,367.151184 118.813095,394.877960 C119.859840,395.696228 120.986633,396.430145 122.143768,397.083557 C123.117821,397.633514 123.748322,399.135498 125.386536,398.283600 C100.507988,367.988953 84.605026,333.252258 74.441452,295.682983 C72.094864,287.008942 70.193253,278.227142 68.846291,269.341370 C68.047691,264.073029 71.089096,259.653473 75.803284,258.834656 C79.977463,258.109619 83.971069,261.032593 85.295113,265.841949 C85.691902,267.283234 86.003036,268.754364 86.253387,270.228790 C90.661018,296.186981 98.934250,320.880310 110.591034,344.456360 C111.262215,345.813843 111.618629,347.667114 114.233856,348.101349 C118.423340,329.773376 123.462608,311.653717 120.969925,292.570801 C120.177422,286.503693 122.639442,281.978088 127.704971,280.991913 C132.281204,280.100922 136.225433,283.412872 137.475815,289.397034 C139.199936,297.648438 138.790024,306.028076 137.919357,314.273163 C136.099350,331.508301 132.304001,348.398926 127.352333,364.997681 C126.130981,369.091888 126.750168,372.274048 129.179825,375.679688 C149.838684,404.636780 177.067078,424.430664 211.114975,434.794250 C217.006439,436.587463 222.984131,437.967804 229.069656,439.015015 C233.972198,439.858643 236.847580,444.048340 236.204880,448.361206 C235.554169,452.727997 232.211533,455.515442 227.375717,455.448151 C224.892441,455.413574 222.419479,454.861694 219.933228,454.764282 C216.189072,454.617645 212.574982,452.576324 208.654755,453.815582 C207.598022,457.343140 209.420563,460.469574 209.462402,463.769196 C209.595215,474.242035 216.034439,480.550354 226.423721,480.599274 C243.422653,480.679352 260.422485,480.672333 277.421478,480.599365 C289.550415,480.547302 295.167267,475.839172 296.699036,463.707703 C298.942657,445.938293 308.790131,435.064270 325.720490,430.127319 C328.435944,429.335480 331.102234,428.368744 333.772980,427.430786 C384.479706,409.622681 424.236755,378.519257 450.974609,330.534210 M390.987122,86.489052 C383.590240,78.138191 376.445343,69.553154 367.582184,62.624271 C362.353485,58.536686 356.822021,57.089687 350.303223,59.129631 C345.209869,60.723492 340.147949,62.354290 335.306549,64.587708 C316.259338,73.374428 299.407471,85.562355 282.981964,98.416168 C277.859985,102.424347 272.860779,102.405136 269.687134,98.575241 C266.226685,94.399284 267.167603,89.556541 272.435120,85.260658 C280.570770,78.625702 289.032379,72.425056 297.702332,66.503311 C299.099457,65.549026 301.212616,64.990685 300.877350,62.581665 C299.640869,60.882694 297.838684,61.489189 296.248016,61.318581 C291.621704,60.822376 286.980438,60.437836 282.371094,59.816441 C266.619629,57.692963 251.905502,51.489319 236.488129,48.063625 C229.207703,46.445942 221.924500,44.842770 214.292572,45.914818 C201.117905,47.765442 190.963593,55.166279 181.123276,63.263836 C176.785736,66.833183 176.964249,68.256950 182.155701,70.219330 C189.175201,72.872719 193.798782,77.720947 196.138428,84.825600 C198.185303,91.041183 199.406601,91.787613 205.952652,91.003998 C226.212646,88.578705 240.434998,95.802734 250.350830,113.566406 C251.487305,115.602379 252.666489,117.621323 253.672501,119.721634 C255.034393,122.564865 257.227020,123.947983 260.336670,124.197868 C265.330505,124.599152 270.309265,124.568016 275.309692,124.267380 C287.738342,123.520149 296.052124,128.986252 300.355377,140.575714 C302.151001,145.411545 303.880249,150.273407 305.763092,155.075043 C307.827576,160.339859 309.424591,160.724442 313.507935,156.681839 C319.437927,150.811005 325.315704,144.994904 333.097839,141.437912 C336.759247,139.764404 338.642395,136.281906 339.549469,132.369675 C340.300476,129.130600 341.042389,125.889389 341.800171,122.651894 C344.182312,112.474686 349.837494,104.885391 359.378967,100.331940 C362.233673,98.969589 365.029419,97.483269 367.847809,96.045273 C375.908508,91.932549 384.206970,90.622971 392.910004,93.869896 C393.802460,94.202850 394.731873,94.881935 395.943512,93.687096 C395.644073,90.787102 392.871582,89.320595 390.987122,86.489052 M139.151474,132.589310 C146.312897,126.216606 154.755707,123.946167 164.156189,124.861824 C173.772552,125.798508 183.241699,127.398407 192.583603,130.038666 C204.430191,133.386841 216.503571,136.553406 228.919327,135.017731 C241.896255,133.412643 241.842224,132.975861 235.423264,121.592384 C228.985184,110.174988 221.700027,106.523964 208.659790,108.002579 C205.857025,108.320381 202.980957,108.497139 200.182175,108.248711 C192.143143,107.535164 184.727615,103.990356 182.551666,96.348068 C179.727386,86.428734 173.698837,85.236450 165.388260,86.342926 C164.239944,86.495804 163.020111,86.213242 161.898117,86.445290 C155.304840,87.808876 148.286331,86.034920 141.984863,89.917397 C126.529594,99.439713 111.752640,110.063225 95.661499,118.551720 C92.809425,120.056259 92.938347,121.707397 94.855019,124.052925 C99.914192,130.244095 104.820679,136.561096 109.733391,142.870468 C112.318642,146.190704 115.398804,148.942368 118.768829,151.433762 C121.664696,153.574615 123.677849,153.357666 125.502136,149.962402 C128.911713,143.616684 133.253479,137.925735 139.151474,132.589310 M463.507050,391.240387 C466.242493,389.767914 468.040955,387.439453 469.663269,384.852264 C472.559509,380.233490 476.398315,376.682251 481.592651,374.658905 C492.670593,370.343719 498.358948,357.902039 494.602966,346.413177 C492.663605,340.480988 490.054169,339.026062 484.077454,340.536163 C481.765259,341.120361 479.677856,342.133698 478.086487,343.940948 C476.100159,346.196716 473.657379,346.857056 470.863037,346.020264 C466.882782,344.828339 463.284180,345.896454 460.869476,348.865234 C454.965576,356.123840 447.968689,362.286499 441.608185,369.071747 C437.587402,373.361023 436.873993,380.782471 439.348877,384.442413 C445.072327,392.906433 453.021210,395.328613 463.507050,391.240387 z" opacity="1"/><path fill="#000" stroke="none" d="M370.884308,323.016479 C373.167297,314.737732 373.157654,314.750244 366.845947,309.894928 C346.751831,294.437531 326.947693,278.649231 310.137238,259.500305 C305.728790,254.478607 301.763916,249.126068 298.735260,243.137756 C297.527191,240.749207 296.539368,238.283447 296.506409,235.533798 C296.453064,231.081711 298.631989,228.137650 302.846130,227.110977 C306.883514,226.127380 310.565002,227.768799 311.978760,231.483200 C316.481537,243.313461 325.320770,251.695511 333.995972,260.190765 C346.153748,272.096344 359.262787,282.921631 372.801147,293.222595 C373.829346,294.004944 374.737640,295.116791 376.549744,295.043365 C379.343109,292.344940 378.942505,288.380768 379.403351,284.977173 C383.138763,257.388824 382.441620,229.882095 377.178558,202.515228 C375.923431,195.988800 378.018951,191.790009 383.043396,190.588181 C388.296570,189.331619 392.062042,192.325226 393.576477,199.071777 C398.652557,221.684372 398.832977,244.636932 398.283203,267.637848 C398.255310,268.804047 398.183502,269.970673 398.200653,271.136108 C398.239044,273.745361 399.432800,275.075470 401.993866,273.800690 C416.704651,266.478455 430.924591,258.498596 439.972717,243.959152 C440.677032,242.827438 441.264069,241.614059 442.045990,240.540894 C444.861481,236.676682 449.207855,235.631638 453.021210,237.831741 C456.862183,240.047745 458.319122,244.245529 456.386871,248.600998 C451.647888,259.282990 443.532593,267.120331 434.397064,274.017456 C424.094452,281.795654 412.777130,287.841339 400.900909,292.769928 C396.638184,294.538940 394.351715,296.846344 393.522064,301.610748 C391.264313,314.576324 387.651581,327.229828 383.195892,339.627899 C382.812469,340.694824 382.128479,341.726379 382.643738,342.985870 C384.254913,343.978271 385.595581,342.865662 386.807343,342.256714 C401.676910,334.784027 416.973633,328.010101 429.087616,316.049011 C432.394775,312.783630 437.257721,312.770691 440.421722,315.538391 C443.973450,318.645233 444.309998,322.999512 441.074036,327.122559 C437.221710,332.030914 432.210297,335.674042 427.092041,339.115967 C411.540070,349.574524 394.755310,357.717407 377.502045,364.885773 C373.090881,366.718567 370.146790,369.269592 367.953796,373.602844 C359.877502,389.561066 349.864868,404.300293 338.574127,418.167603 C337.734406,419.198914 336.823242,420.184662 335.856873,421.098053 C332.227020,424.528870 328.141418,424.865845 324.608246,422.079803 C321.212891,419.402435 320.373718,414.221588 323.125793,410.390045 C326.816437,405.251770 330.935150,400.422058 334.657715,395.305359 C337.889526,390.863129 340.642365,386.067291 343.950378,381.687195 C346.652649,378.109100 345.706482,375.994873 342.354004,373.565094 C324.809631,360.849457 307.623627,347.656097 291.061951,333.677979 C277.429321,322.172028 264.011017,310.421204 252.702637,296.506042 C248.688263,291.566315 245.021469,286.406921 243.295609,280.170502 C242.076584,275.765533 244.294281,271.398132 248.261505,270.010284 C252.507736,268.524811 257.225281,270.051239 258.742798,274.332367 C262.118378,283.855408 269.041870,290.618378 275.916748,297.356201 C299.304932,320.278046 325.197784,340.178406 351.628021,359.405792 C352.540985,360.069946 353.442261,360.929260 355.437469,360.665070 C361.968353,349.099182 366.536774,336.320374 370.884308,323.016479 z" opacity="1"/></svg>