0
SECTION
2
HEADER
9
$INSUNITS
70
4
9
$ACADVER
1
AC1014
9
$HANDSEED
5
FFFF
0
ENDSEC
0
SECTION
2
TABLES
0
TABLE
2
VPORT
5
8
100
AcDbSymbolTable
0
ENDTAB
0
TABLE
2
LTYPE
5
5
100
AcDbSymbolTable
0
LTYPE
5
14
100
AcDbSymbolTableRecord
100
AcDbLinetypeTableRecord
2
BYBLOCK
70
0
0
LTYPE
5
15
100
AcDbSymbolTableRecord
100
AcDbLinetypeTableRecord
2
BYLAYER
70
0
0
LTYPE
5
16
100
AcDbSymbolTableRecord
100
AcDbLinetypeTableRecord
2
DASHED
70
0
3
Dashed __ __ __ __ __ __ __ __ __ __ __ __ __ _
72
65
73
2
40
0.75
49
0.5
74
0
49
-0.25
74
0
0
ENDTAB
0
TABLE
2
LAYER
5
2
100
AcDbSymbolTable
70
2
0
LAYER
5
50
100
AcDbSymbolTableRecord
100
AcDbLayerTableRecord
2
0
70
0
62
7
6
CONTINUOUS
0
ENDTAB
0
TABLE
2
STYLE
5
3
100
AcDbSymbolTable
70
1
0
STYLE
5
11
100
AcDbSymbolTableRecord
100
AcDbTextStyleTableRecord
2
STANDARD
70
0
0
ENDTAB
0
TABLE
2
VIEW
5
6
100
AcDbSymbolTable
70
0
0
ENDTAB
0
TABLE
2
UCS
5
7
100
AcDbSymbolTable
70
0
0
ENDTAB
0
TABLE
2
APPID
5
9
100
AcDbSymbolTable
70
2
0
APPID
5
12
100
AcDbSymbolTableRecord
100
AcDbRegAppTableRecord
2
ACAD
70
0
0
ENDTAB
0
TABLE
2
DIMSTYLE
5
A
100
AcDbSymbolTable
70
1
0
ENDTAB
0
TABLE
2
BLOCK_RECORD
5
1
100
AcDbSymbolTable
70
1
0
BLOCK_RECORD
5
1F
100
AcDbSymbolTableRecord
100
AcDbBlockTableRecord
2
*MODEL_SPACE
0
BLOCK_RECORD
5
1B
100
AcDbSymbolTableRecord
100
AcDbBlockTableRecord
2
*PAPER_SPACE
0
ENDTAB
0
ENDSEC
0
SECTION
2
BLOCKS
0
BLOCK
5
20
100
AcDbEntity
100
AcDbBlockBegin
2
*MODEL_SPACE
0
ENDBLK
5
21
100
AcDbEntity
100
AcDbBlockEnd
0
BLOCK
5
1C
100
AcDbEntity
100
AcDbBlockBegin
2
*PAPER_SPACE
0
ENDBLK
5
1D
100
AcDbEntity
100
AcDbBlockEnd
0
ENDSEC
0
SECTION
2
ENTITIES
0
POINT
5
100
100
AcDbEntity
8
0
100
AcDbPoint
10
133.44400000000002
20
-73.769999999999996
30
0
0
POINT
5
101
100
AcDbEntity
8
0
100
AcDbPoint
10
109.7
20
-72.340000000000003
30
0
0
LWPOLYLINE
5
102
100
AcDbEntity
8
0
100
AcDbPolyline
90
8
70
1
43
0.0
10
85.5
20
-61.5
10
390
20
-61.499999999989981
42
-0.41421359999991492
10
405
20
-76.5
10
405.00000000009004
20
-182
42
-0.4142135999979657
10
390
20
-197.00000000000003
10
85.5
20
-196.999999999903
42
-0.41421359999810137
10
70.5
20
-182
10
70.500000000003013
20
-76.5
42
-0.41421360000005431
0
LINE
5
103
100
AcDbEntity
8
0
100
AcDbLine
10
393.44999999999999
20
-77.549999999999997
30
0
11
371.55000000000001
21
-77.549999999999997
31
0
0
LINE
5
104
100
AcDbEntity
8
0
100
AcDbLine
10
393.5
20
-94.549999999999997
30
0
11
360
21
-94.549999999999997
31
0
0
LINE
5
105
100
AcDbEntity
8
0
100
AcDbLine
10
294
20
-78.450000000000003
30
0
11
327.5
21
-78.450000000000003
31
0
0
LINE
5
106
100
AcDbEntity
8
0
100
AcDbLine
10
327.5
20
-95.549999999999997
30
0
11
294
21
-95.549999999999997
31
0
0
LINE
5
107
100
AcDbEntity
8
0
100
AcDbLine
10
329
20
-127.45000000000002
30
0
11
354.22688200000005
21
-127.45000000000002
31
0
0
LINE
5
108
100
AcDbEntity
8
0
100
AcDbLine
10
362.5
20
-144.55000000000001
30
0
11
329
21
-144.55000000000001
31
0
0
LWPOLYLINE
5
109
100
AcDbEntity
8
0
100
AcDbPolyline
90
4
70
1
43
0.0
10
87.200000000000003
20
-73.160000000000011
10
87.200000000000003
20
-72.840000000000003
10
86.88000000000001
20
-72.840000000000003
10
86.88000000000001
20
-73.160000000000011
0
LINE
5
110
100
AcDbEntity
8
0
100
AcDbLine
10
110.5
20
-123.45
30
0
11
144
21
-123.45
31
0
0
LINE
5
111
100
AcDbEntity
8
0
100
AcDbLine
10
144
20
-140.55000000000001
30
0
11
110.5
21
-140.55000000000001
31
0
0
LINE
5
112
100
AcDbEntity
8
0
100
AcDbLine
10
142.5
20
-169.44999999999999
30
0
11
176
21
-169.44999999999999
31
0
0
LINE
5
113
100
AcDbEntity
8
0
100
AcDbLine
10
176
20
-186.55000000000001
30
0
11
142.5
21
-186.55000000000001
31
0
0
LINE
5
114
100
AcDbEntity
8
0
100
AcDbLine
10
83.5
20
-169.44999999999999
30
0
11
117.00000000000001
21
-169.44999999999999
31
0
0
LINE
5
115
100
AcDbEntity
8
0
100
AcDbLine
10
117.00000000000001
20
-186.55000000000001
30
0
11
83.5
21
-186.55000000000001
31
0
0
LWPOLYLINE
5
116
100
AcDbEntity
8
0
100
AcDbPolyline
90
8
70
1
43
0.0
10
241.76999999999998
20
-95.159999999999997
10
218.37
20
-95.159999999999997
42
0.41421356237309503
10
217.36999999999998
20
-96.159999999999997
10
217.37
20
-156.90000000000001
42
0.41421356237309503
10
218.37000000000003
20
-157.90000000000001
10
241.77000000000004
20
-157.90000000000001
42
0.41421356237309503
10
242.77000000000004
20
-156.90000000000001
10
242.77000000000001
20
-96.159999999999997
42
0.41421356237309503
0
LWPOLYLINE
5
117
100
AcDbEntity
8
0
100
AcDbPolyline
90
4
70
1
43
0.0
10
218.32250000000002
20
-150.21749999998801
10
218.32250000000002
20
-149.58249999998802
10
218.95750000000004
20
-149.58249999998802
10
218.95750000000004
20
-150.21749999998801
0
LWPOLYLINE
5
118
100
AcDbEntity
8
0
100
AcDbPolyline
90
4
70
1
43
0.0
10
218.32250000000002
20
-147.67749999998901
10
218.32250000000002
20
-147.04249999998899
10
218.95750000000004
20
-147.04249999998899
10
218.95750000000004
20
-147.67749999998901
0
LWPOLYLINE
5
119
100
AcDbEntity
8
0
100
AcDbPolyline
90
4
70
1
43
0.0
10
218.32250000000002
20
-145.13749999998902
10
218.32250000000002
20
-144.502499999989
10
218.95750000000004
20
-144.502499999989
10
218.95750000000004
20
-145.13749999998902
0
LWPOLYLINE
5
120
100
AcDbEntity
8
0
100
AcDbPolyline
90
4
70
1
43
0.0
10
218.32250000000002
20
-142.59749999998999
10
218.32250000000002
20
-141.96249999999
10
218.95750000000004
20
-141.96249999999
10
218.95750000000004
20
-142.59749999998999
0
LWPOLYLINE
5
121
100
AcDbEntity
8
0
100
AcDbPolyline
90
4
70
1
43
0.0
10
218.32250000000002
20
-140.05749999999
10
218.32250000000002
20
-139.42249999999001
10
218.95750000000004
20
-139.42249999999001
10
218.95750000000004
20
-140.05749999999
0
LWPOLYLINE
5
122
100
AcDbEntity
8
0
100
AcDbPolyline
90
4
70
1
43
0.0
10
218.32250000000002
20
-137.517499999991
10
218.32250000000002
20
-136.88249999999101
10
218.95750000000004
20
-136.88249999999101
10
218.95750000000004
20
-137.517499999991
0
LWPOLYLINE
5
123
100
AcDbEntity
8
0
100
AcDbPolyline
90
4
70
1
43
0.0
10
218.32250000000002
20
-134.97749999999201
10
218.32250000000002
20
-134.34249999999201
10
218.95750000000004
20
-134.34249999999201
10
218.95749999999998
20
-134.97749999999201
0
LWPOLYLINE
5
124
100
AcDbEntity
8
0
100
AcDbPolyline
90
4
70
1
43
0.0
10
218.32250000000002
20
-132.43749999999201
10
218.32250000000002
20
-131.80249999999202
10
218.95750000000004
20
-131.80249999999202
10
218.95749999999998
20
-132.43749999999201
0
LWPOLYLINE
5
125
100
AcDbEntity
8
0
100
AcDbPolyline
90
4
70
1
43
0.0
10
218.32250000000002
20
-129.89749999999302
10
218.32250000000002
20
-129.26249999999303
10
218.95750000000004
20
-129.26249999999303
10
218.95749999999998
20
-129.89749999999302
0
LWPOLYLINE
5
126
100
AcDbEntity
8
0
100
AcDbPolyline
90
4
70
1
43
0.0
10
218.32250000000002
20
-127.35749999999301
10
218.32250000000002
20
-126.72249999999302
10
218.95750000000004
20
-126.722499999993
10
218.95749999999998
20
-127.357499999993
0
LWPOLYLINE
5
127
100
AcDbEntity
8
0
100
AcDbPolyline
90
4
70
1
43
0.0
10
218.32250000000002
20
-124.81749999999401
10
218.32250000000002
20
-124.18249999999402
10
218.95750000000004
20
-124.18249999999401
10
218.95749999999998
20
-124.817499999994
0
LWPOLYLINE
5
128
100
AcDbEntity
8
0
100
AcDbPolyline
90
4
70
1
43
0.0
10
218.32250000000002
20
-122.27749999999401
10
218.32250000000002
20
-121.642499999994
10
218.95750000000004
20
-121.642499999994
10
218.95749999999998
20
-122.27749999999401
0
LWPOLYLINE
5
129
100
AcDbEntity
8
0
100
AcDbPolyline
90
4
70
1
43
0.0
10
218.32250000000002
20
-119.73749999999499
10
218.32250000000002
20
-119.102499999995
10
218.95750000000004
20
-119.102499999995
10
218.95749999999998
20
-119.73749999999499
0
LWPOLYLINE
5
130
100
AcDbEntity
8
0
100
AcDbPolyline
90
4
70
1
43
0.0
10
218.32250000000002
20
-117.197499999995
10
218.32250000000002
20
-116.56249999999501
10
218.95750000000004
20
-116.56249999999501
10
218.95749999999998
20
-117.197499999995
0
LWPOLYLINE
5
131
100
AcDbEntity
8
0
100
AcDbPolyline
90
4
70
1
43
0.0
10
218.32250000000002
20
-114.6575
10
218.32250000000002
20
-114.02250000000001
10
218.95750000000004
20
-114.02250000000001
10
218.95749999999998
20
-114.6575
0
LWPOLYLINE
5
132
100
AcDbEntity
8
0
100
AcDbPolyline
90
4
70
1
43
0.0
10
218.32250000000002
20
-112.11750000000001
10
218.32250000000002
20
-111.48250000000002
10
218.95750000000004
20
-111.48250000000002
10
218.95749999999998
20
-112.11750000000001
0
LWPOLYLINE
5
133
100
AcDbEntity
8
0
100
AcDbPolyline
90
4
70
1
43
0.0
10
218.32250000000002
20
-109.57750000000001
10
218.32250000000002
20
-108.94250000000001
10
218.95750000000004
20
-108.94250000000001
10
218.95749999999998
20
-109.57750000000001
0
LWPOLYLINE
5
134
100
AcDbEntity
8
0
100
AcDbPolyline
90
4
70
1
43
0.0
10
218.32250000000002
20
-107.03750000000001
10
218.32250000000002
20
-106.40250000000002
10
218.95750000000004
20
-106.4025
10
218.95749999999998
20
-107.03749999999999
0
LWPOLYLINE
5
135
100
AcDbEntity
8
0
100
AcDbPolyline
90
4
70
1
43
0.0
10
218.32250000000002
20
-104.4975
10
218.32250000000002
20
-103.86250000000001
10
218.95750000000004
20
-103.86250000000001
10
218.95749999999998
20
-104.4975
0
LWPOLYLINE
5
136
100
AcDbEntity
8
0
100
AcDbPolyline
90
4
70
1
43
0.0
10
218.32250000000002
20
-101.95750000000001
10
218.32250000000002
20
-101.32250000000001
10
218.95750000000004
20
-101.32250000000001
10
218.95749999999998
20
-101.95750000000001
0
LWPOLYLINE
5
137
100
AcDbEntity
8
0
100
AcDbPolyline
90
4
70
1
43
0.0
10
218.32250000000002
20
-99.417500000000004
10
218.32250000000002
20
-98.782500000000013
10
218.95750000000004
20
-98.782500000000013
10
218.95749999999998
20
-99.417500000000004
0
LWPOLYLINE
5
138
100
AcDbEntity
8
0
100
AcDbPolyline
90
4
70
1
43
0.0
10
241.18250000000003
20
-150.21749999998801
10
241.18250000000003
20
-149.58249999998802
10
241.81750000000005
20
-149.58249999998802
10
241.8175
20
-150.21749999998801
0
LWPOLYLINE
5
139
100
AcDbEntity
8
0
100
AcDbPolyline
90
4
70
1
43
0.0
10
241.18250000000003
20
-147.67749999998901
10
241.18250000000003
20
-147.04249999998899
10
241.81750000000005
20
-147.04249999998899
10
241.8175
20
-147.67749999998901
0
LWPOLYLINE
5
140
100
AcDbEntity
8
0
100
AcDbPolyline
90
4
70
1
43
0.0
10
241.18250000000003
20
-145.13749999998902
10
241.18250000000003
20
-144.502499999989
10
241.81750000000005
20
-144.502499999989
10
241.8175
20
-145.13749999998902
0
LWPOLYLINE
5
141
100
AcDbEntity
8
0
100
AcDbPolyline
90
4
70
1
43
0.0
10
241.18250000000003
20
-142.59749999998999
10
241.18250000000003
20
-141.96249999999
10
241.81750000000005
20
-141.96249999999
10
241.8175
20
-142.59749999998999
0
LWPOLYLINE
5
142
100
AcDbEntity
8
0
100
AcDbPolyline
90
4
70
1
43
0.0
10
241.18250000000003
20
-140.05749999999
10
241.18250000000003
20
-139.42249999999001
10
241.81750000000005
20
-139.42249999999001
10
241.8175
20
-140.05749999999
0
LWPOLYLINE
5
143
100
AcDbEntity
8
0
100
AcDbPolyline
90
4
70
1
43
0.0
10
241.18250000000003
20
-137.517499999991
10
241.18250000000003
20
-136.88249999999101
10
241.81750000000005
20
-136.88249999999101
10
241.8175
20
-137.517499999991
0
LWPOLYLINE
5
144
100
AcDbEntity
8
0
100
AcDbPolyline
90
4
70
1
43
0.0
10
241.18250000000003
20
-134.97749999999201
10
241.18250000000003
20
-134.34249999999201
10
241.81750000000005
20
-134.34249999999201
10
241.8175
20
-134.97749999999201
0
LWPOLYLINE
5
145
100
AcDbEntity
8
0
100
AcDbPolyline
90
4
70
1
43
0.0
10
241.18250000000003
20
-132.43749999999201
10
241.18250000000003
20
-131.80249999999202
10
241.81750000000005
20
-131.80249999999199
10
241.8175
20
-132.43749999999199
0
LWPOLYLINE
5
146
100
AcDbEntity
8
0
100
AcDbPolyline
90
4
70
1
43
0.0
10
241.18250000000003
20
-129.89749999999302
10
241.18250000000003
20
-129.26249999999303
10
241.81750000000005
20
-129.262499999993
10
241.8175
20
-129.89749999999299
0
LWPOLYLINE
5
147
100
AcDbEntity
8
0
100
AcDbPolyline
90
4
70
1
43
0.0
10
241.18250000000003
20
-127.357499999993
10
241.18250000000003
20
-126.722499999993
10
241.81750000000005
20
-126.722499999993
10
241.8175
20
-127.357499999993
0
LWPOLYLINE
5
148
100
AcDbEntity
8
0
100
AcDbPolyline
90
4
70
1
43
0.0
10
241.18250000000003
20
-124.81749999999401
10
241.18250000000003
20
-124.18249999999402
10
241.81750000000005
20
-124.18249999999401
10
241.8175
20
-124.817499999994
0
LWPOLYLINE
5
149
100
AcDbEntity
8
0
100
AcDbPolyline
90
4
70
1
43
0.0
10
241.18250000000003
20
-122.27749999999401
10
241.18250000000003
20
-121.642499999994
10
241.81750000000005
20
-121.642499999994
10
241.8175
20
-122.27749999999401
0
LWPOLYLINE
5
150
100
AcDbEntity
8
0
100
AcDbPolyline
90
4
70
1
43
0.0
10
241.18250000000003
20
-119.73749999999499
10
241.18250000000003
20
-119.102499999995
10
241.81750000000005
20
-119.102499999995
10
241.8175
20
-119.73749999999499
0
LWPOLYLINE
5
151
100
AcDbEntity
8
0
100
AcDbPolyline
90
4
70
1
43
0.0
10
241.1825
20
-117.197499999995
10
241.1825
20
-116.56249999999501
10
241.8175
20
-116.56249999999501
10
241.8175
20
-117.197499999995
0
LWPOLYLINE
5
152
100
AcDbEntity
8
0
100
AcDbPolyline
90
4
70
1
43
0.0
10
241.1825
20
-114.6575
10
241.1825
20
-114.02250000000001
10
241.8175
20
-114.02250000000001
10
241.8175
20
-114.6575
0
LWPOLYLINE
5
153
100
AcDbEntity
8
0
100
AcDbPolyline
90
4
70
1
43
0.0
10
241.1825
20
-112.11750000000001
10
241.1825
20
-111.48250000000002
10
241.8175
20
-111.48250000000002
10
241.8175
20
-112.11750000000001
0
LWPOLYLINE
5
154
100
AcDbEntity
8
0
100
AcDbPolyline
90
4
70
1
43
0.0
10
241.1825
20
-109.57750000000001
10
241.1825
20
-108.94250000000001
10
241.8175
20
-108.9425
10
241.8175
20
-109.57749999999999
0
LWPOLYLINE
5
155
100
AcDbEntity
8
0
100
AcDbPolyline
90
4
70
1
43
0.0
10
241.1825
20
-107.03749999999999
10
241.1825
20
-106.4025
10
241.8175
20
-106.4025
10
241.8175
20
-107.03749999999999
0
LWPOLYLINE
5
156
100
AcDbEntity
8
0
100
AcDbPolyline
90
4
70
1
43
0.0
10
241.1825
20
-104.4975
10
241.1825
20
-103.86250000000001
10
241.8175
20
-103.86250000000001
10
241.8175
20
-104.4975
0
LWPOLYLINE
5
157
100
AcDbEntity
8
0
100
AcDbPolyline
90
4
70
1
43
0.0
10
241.1825
20
-101.95750000000001
10
241.1825
20
-101.32250000000001
10
241.8175
20
-101.32250000000001
10
241.8175
20
-101.95750000000001
0
LWPOLYLINE
5
158
100
AcDbEntity
8
0
100
AcDbPolyline
90
4
70
1
43
0.0
10
241.1825
20
-99.417500000000004
10
241.1825
20
-98.782500000000013
10
241.8175
20
-98.782500000000013
10
241.8175
20
-99.417500000000004
0
LWPOLYLINE
5
159
100
AcDbEntity
8
0
100
AcDbPolyline
90
4
70
1
43
0.0
10
241.1825
20
-96.877500000000012
10
241.1825
20
-96.242500000000007
10
241.8175
20
-96.242500000000007
10
241.8175
20
-96.877500000000012
0
LWPOLYLINE
5
160
100
AcDbEntity
8
0
100
AcDbPolyline
90
4
70
1
43
0.0
10
218.32250000000002
20
-96.877500000000012
10
218.32250000000002
20
-96.242500000000007
10
218.95750000000004
20
-96.242500000000007
10
218.95749999999998
20
-96.877500000000012
0
LWPOLYLINE
5
161
100
AcDbEntity
8
0
100
AcDbPolyline
90
4
70
1
43
0.0
10
336.88
20
-188.30000000000001
10
347.04000000000002
20
-188.30000000000001
10
347.04000000000002
20
-185.30000000000001
10
336.88
20
-185.30000000000001
0
ENDSEC
0
SECTION
2
OBJECTS
0
DICTIONARY
5
C
100
AcDbDictionary
3
ACAD_GROUP
350
D
3
ACAD_MLINESTYLE
350
17
0
DICTIONARY
5
D
100
AcDbDictionary
0
DICTIONARY
5
1A
330
C
100
AcDbDictionary
0
DICTIONARY
5
17
100
AcDbDictionary
0
ENDSEC
0
EOF
