%TF.GenerationSoftware,KiCad,Pcbnew,9.0.7*%
%TF.CreationDate,2026-07-08T10:31:36+03:00*%
%TF.ProjectId,C.L.A.S,432e4c2e-412e-4532-9e6b-696361645f70,rev?*%
%TF.SameCoordinates,Original*%
%TF.FileFunction,Copper,L2,Bot*%
%TF.FilePolarity,Positive*%
%FSLAX46Y46*%
G04 Gerber Fmt 4.6, Leading zero omitted, Abs format (unit mm)*
G04 Created by KiCad (PCBNEW 9.0.7) date 2026-07-08 10:31:36*
%MOMM*%
%LPD*%
G01*
G04 APERTURE LIST*
G04 Aperture macros list*
%AMRoundRect*
0 Rectangle with rounded corners*
0 $1 Rounding radius*
0 $2 $3 $4 $5 $6 $7 $8 $9 X,Y pos of 4 corners*
0 Add a 4 corners polygon primitive as box body*
4,1,4,$2,$3,$4,$5,$6,$7,$8,$9,$2,$3,0*
0 Add four circle primitives for the rounded corners*
1,1,$1+$1,$2,$3*
1,1,$1+$1,$4,$5*
1,1,$1+$1,$6,$7*
1,1,$1+$1,$8,$9*
0 Add four rect primitives between the rounded corners*
20,1,$1+$1,$2,$3,$4,$5,0*
20,1,$1+$1,$4,$5,$6,$7,0*
20,1,$1+$1,$6,$7,$8,$9,0*
20,1,$1+$1,$8,$9,$2,$3,0*%
G04 Aperture macros list end*
%TA.AperFunction,ComponentPad*%
%ADD10C,1.530000*%
%TD*%
%TA.AperFunction,ComponentPad*%
%ADD11R,1.530000X1.530000*%
%TD*%
%TA.AperFunction,ComponentPad*%
%ADD12R,1.700000X1.700000*%
%TD*%
%TA.AperFunction,ComponentPad*%
%ADD13C,1.700000*%
%TD*%
%TA.AperFunction,ComponentPad*%
%ADD14RoundRect,0.250000X-1.050000X-1.050000X1.050000X-1.050000X1.050000X1.050000X-1.050000X1.050000X0*%
%TD*%
%TA.AperFunction,ComponentPad*%
%ADD15C,2.600000*%
%TD*%
%TA.AperFunction,ViaPad*%
%ADD16C,0.600000*%
%TD*%
%TA.AperFunction,Conductor*%
%ADD17C,0.200000*%
%TD*%
G04 APERTURE END LIST*
D10*
%TO.P,Fan1,2,PMW*%
%TO.N,Fan*%
X392000000Y-83500000D03*
%TO.P,Fan1,1,GND*%
%TO.N,GND*%
X392000000Y-88500000D03*
%TD*%
%TO.P,Waterpump1,1,GND*%
%TO.N,GND*%
X115500000Y-180500000D03*
%TO.P,Waterpump1,2,PMW*%
%TO.N,Waterpump*%
X115500000Y-175500000D03*
%TD*%
D11*
%TO.P,U1,J1_1,3V3*%
%TO.N,VCC_3v*%
X218640000Y-96560000D03*
D10*
%TO.P,U1,J1_2,3V3*%
X218640000Y-99100000D03*
%TO.P,U1,J1_3,RST*%
%TO.N,unconnected-(U1-RST-PadJ1_3)*%
X218640000Y-101640000D03*
%TO.P,U1,J1_4,GPIO4*%
%TO.N,Dht22*%
X218640000Y-104180000D03*
%TO.P,U1,J1_5,GPIO5*%
%TO.N,unconnected-(U1-GPIO5-PadJ1_5)*%
X218640000Y-106720000D03*
%TO.P,U1,J1_6,GPIO6*%
%TO.N,Peltier1*%
X218640000Y-109260000D03*
%TO.P,U1,J1_7,GPIO7*%
%TO.N,unconnected-(U1-GPIO7-PadJ1_7)*%
X218640000Y-111800000D03*
%TO.P,U1,J1_8,GPIO15*%
%TO.N,unconnected-(U1-GPIO15-PadJ1_8)*%
X218640000Y-114340000D03*
%TO.P,U1,J1_9,GPIO16*%
%TO.N,Fan*%
X218640000Y-116880000D03*
%TO.P,U1,J1_10,GPIO17*%
%TO.N,unconnected-(U1-GPIO17-PadJ1_10)*%
X218640000Y-119420000D03*
%TO.P,U1,J1_11,GPIO18*%
%TO.N,unconnected-(U1-GPIO18-PadJ1_11)*%
X218640000Y-121960000D03*
%TO.P,U1,J1_12,GPIO8*%
%TO.N,Peltier2*%
X218640000Y-124500000D03*
%TO.P,U1,J1_13,GPIO3*%
%TO.N,unconnected-(U1-GPIO3-PadJ1_13)*%
X218640000Y-127040000D03*
%TO.P,U1,J1_14,GPIO46*%
%TO.N,unconnected-(U1-GPIO46-PadJ1_14)*%
X218640000Y-129580000D03*
%TO.P,U1,J1_15,GPIO9*%
%TO.N,unconnected-(U1-GPIO9-PadJ1_15)*%
X218640000Y-132120000D03*
%TO.P,U1,J1_16,GPIO10*%
%TO.N,Heatlamp*%
X218640000Y-134660000D03*
%TO.P,U1,J1_17,GPIO11*%
%TO.N,unconnected-(U1-GPIO11-PadJ1_17)*%
X218640000Y-137200000D03*
%TO.P,U1,J1_18,GPIO12*%
%TO.N,Humidifier*%
X218640000Y-139740000D03*
%TO.P,U1,J1_19,GPIO13*%
%TO.N,unconnected-(U1-GPIO13-PadJ1_19)*%
X218640000Y-142280000D03*
%TO.P,U1,J1_20,GPIO14*%
%TO.N,Waterpump*%
X218640000Y-144820000D03*
%TO.P,U1,J1_21,5V0*%
%TO.N,VCC*%
X218640000Y-147360000D03*
%TO.P,U1,J1_22,GND*%
%TO.N,GND*%
X218640000Y-149900000D03*
%TO.P,U1,J3_1,GND*%
X241500000Y-96560000D03*
%TO.P,U1,J3_2,U0TXD/GPIO43*%
%TO.N,unconnected-(U1-U0TXD{slash}GPIO43-PadJ3_2)*%
X241500000Y-99100000D03*
%TO.P,U1,J3_3,U0RXD/GPIO44*%
%TO.N,unconnected-(U1-U0RXD{slash}GPIO44-PadJ3_3)*%
X241500000Y-101640000D03*
%TO.P,U1,J3_4,GPIO1*%
%TO.N,unconnected-(U1-GPIO1-PadJ3_4)*%
X241500000Y-104180000D03*
%TO.P,U1,J3_5,GPIO2*%
%TO.N,LDR*%
X241500000Y-106720000D03*
%TO.P,U1,J3_6,MTMS/GPIO42*%
%TO.N,unconnected-(U1-MTMS{slash}GPIO42-PadJ3_6)*%
X241500000Y-109260000D03*
%TO.P,U1,J3_7,MTDI/GPIO41*%
%TO.N,unconnected-(U1-MTDI{slash}GPIO41-PadJ3_7)*%
X241500000Y-111800000D03*
%TO.P,U1,J3_8,MTDO/GPIO40*%
%TO.N,unconnected-(U1-MTDO{slash}GPIO40-PadJ3_8)*%
X241500000Y-114340000D03*
%TO.P,U1,J3_9,MTCK/GPIO39*%
%TO.N,unconnected-(U1-MTCK{slash}GPIO39-PadJ3_9)*%
X241500000Y-116880000D03*
%TO.P,U1,J3_10,GPIO38*%
%TO.N,unconnected-(U1-GPIO38-PadJ3_10)*%
X241500000Y-119420000D03*
%TO.P,U1,J3_11,GPIO37*%
%TO.N,unconnected-(U1-GPIO37-PadJ3_11)*%
X241500000Y-121960000D03*
%TO.P,U1,J3_12,GPIO36*%
%TO.N,unconnected-(U1-GPIO36-PadJ3_12)*%
X241500000Y-124500000D03*
%TO.P,U1,J3_13,GPIO35*%
%TO.N,unconnected-(U1-GPIO35-PadJ3_13)*%
X241500000Y-127040000D03*
%TO.P,U1,J3_14,GPIO0*%
%TO.N,Soil*%
X241500000Y-129580000D03*
%TO.P,U1,J3_15,GPIO45*%
%TO.N,unconnected-(U1-GPIO45-PadJ3_15)*%
X241500000Y-132120000D03*
%TO.P,U1,J3_16,GPIO48*%
%TO.N,unconnected-(U1-GPIO48-PadJ3_16)*%
X241500000Y-134660000D03*
%TO.P,U1,J3_17,GPIO47*%
%TO.N,unconnected-(U1-GPIO47-PadJ3_17)*%
X241500000Y-137200000D03*
%TO.P,U1,J3_18,GPIO21*%
%TO.N,unconnected-(U1-GPIO21-PadJ3_18)*%
X241500000Y-139740000D03*
%TO.P,U1,J3_19,USB_D+/GPIO20*%
%TO.N,unconnected-(U1-USB_D+{slash}GPIO20-PadJ3_19)*%
X241500000Y-142280000D03*
%TO.P,U1,J3_20,USB_D-/GPIO19*%
%TO.N,unconnected-(U1-USB_D-{slash}GPIO19-PadJ3_20)*%
X241500000Y-144820000D03*
%TO.P,U1,J3_21,GND*%
%TO.N,GND*%
X241500000Y-147360000D03*
%TO.P,U1,J3_22,GND*%
X241500000Y-149900000D03*
%TD*%
%TO.P,peltier2,1,GND*%
%TO.N,GND*%
X174500000Y-180500000D03*
%TO.P,peltier2,2,PMW*%
%TO.N,Peltier2*%
X174500000Y-175500000D03*
%TD*%
%TO.P,Peltier1,1,GND*%
%TO.N,GND*%
X142500000Y-134500000D03*
%TO.P,Peltier1,2,PMW*%
%TO.N,Peltier1*%
X142500000Y-129500000D03*
%TD*%
D12*
%TO.P,J5,1,Pin_1*%
%TO.N,LDR*%
X131920000Y-72500000D03*
D13*
%TO.P,J5,2,Pin_2*%
%TO.N,GND*%
X134460000Y-72500000D03*
%TO.P,J5,3,Pin_3*%
%TO.N,VCC_3v*%
X137000000Y-72500000D03*
%TD*%
D12*
%TO.P,J4,1,Pin_1*%
%TO.N,GND*%
X107000000Y-72500000D03*
D13*
%TO.P,J4,2,Pin_2*%
%TO.N,Dht22*%
X109540000Y-72500000D03*
%TO.P,J4,3,Pin_3*%
%TO.N,VCC_3v*%
X112080000Y-72500000D03*
%TD*%
D12*
%TO.P,J3,1,Pin_1*%
%TO.N,GND*%
X84500000Y-73000000D03*
D13*
%TO.P,J3,2,Pin_2*%
%TO.N,VCC*%
X87040000Y-73000000D03*
%TO.P,J3,3,Pin_3*%
%TO.N,Soil*%
X89580000Y-73000000D03*
%TD*%
D14*
%TO.P,J1,1,Pin_1*%
%TO.N,VCC*%
X339420000Y-190500000D03*
D15*
%TO.P,J1,2,Pin_2*%
%TO.N,GND*%
X344500000Y-190500000D03*
%TD*%
D10*
%TO.P,Humidifer1,1,GND*%
%TO.N,GND*%
X326000000Y-89500000D03*
%TO.P,Humidifer1,2,PMW*%
%TO.N,Humidifier*%
X326000000Y-84500000D03*
%TD*%
%TO.P,Heatlamp1,1,GND*%
%TO.N,GND*%
X361000000Y-138500000D03*
%TO.P,Heatlamp1,2,PMW*%
%TO.N,Heatlamp*%
X361000000Y-133500000D03*
%TD*%
D16*
%TO.N,Heatlamp*%
X234500000Y-134000000D03*
%TD*%
D17*
%TO.N,VCC_3v*%
X218640000Y-96560000D02*
X218640000Y-99100000D01*
%TO.N,Fan*%
X219706000Y-115814000D02*
X218640000Y-116880000D01*
X359686000Y-115814000D02*
X219706000Y-115814000D01*
X392000000Y-83500000D02*
X359686000Y-115814000D01*
%TO.N,*%
X390934000Y-82566000D02*
X390934000Y-83500000D01*
X391000000Y-82500000D02*
X390934000Y-82566000D01*
%TO.N,Heatlamp*%
X235000000Y-133500000D02*
X234500000Y-134000000D01*
X245500000Y-133500000D02*
X235000000Y-133500000D01*
X258500000Y-120500000D02*
X245500000Y-133500000D01*
X361000000Y-120500000D02*
X258500000Y-120500000D01*
X361000000Y-133500000D02*
X361000000Y-120500000D01*
%TO.N,Peltier2*%
X220000000Y-124500000D02*
X218640000Y-124500000D01*
X227500000Y-132000000D02*
X220000000Y-124500000D01*
X227500000Y-137467552D02*
X227500000Y-132000000D01*
X219081552Y-145886000D02*
X227500000Y-137467552D01*
X204114000Y-145886000D02*
X219081552Y-145886000D01*
X174500000Y-175500000D02*
X204114000Y-145886000D01*
%TO.N,Waterpump*%
X157680000Y-144820000D02*
X218640000Y-144820000D01*
X127000000Y-175500000D02*
X157680000Y-144820000D01*
X115500000Y-175500000D02*
X127000000Y-175500000D01*
%TO.N,Peltier1*%
X162740000Y-109260000D02*
X218640000Y-109260000D01*
X142500000Y-129500000D02*
X162740000Y-109260000D01*
%TO.N,VCC_3v*%
X137000000Y-72500000D02*
X163600000Y-99100000D01*
X163600000Y-99100000D02*
X218640000Y-99100000D01*
X138680000Y-99100000D02*
X218640000Y-99100000D01*
X112080000Y-72500000D02*
X138680000Y-99100000D01*
%TD*%
%TA.AperFunction,Conductor*%
%TO.N,GND*%
G36*
X390001578Y-62000540D02*
G01*
X390731250Y-62019030D01*
X390737507Y-62019347D01*
X391463765Y-62074654D01*
X391470014Y-62075289D01*
X392192507Y-62167306D01*
X392198708Y-62168256D01*
X392915668Y-62296757D01*
X392921768Y-62298011D01*
X393631277Y-62462656D01*
X393637327Y-62464222D01*
X394337611Y-62664598D01*
X394343585Y-62666473D01*
X395032791Y-62902050D01*
X395038654Y-62904221D01*
X395715068Y-63174414D01*
X395720815Y-63176881D01*
X396207288Y-63400402D01*
X396382622Y-63480963D01*
X396388263Y-63483729D01*
X397033852Y-63820957D01*
X397039345Y-63824006D01*
X397667008Y-64193490D01*
X397672338Y-64196812D01*
X398280483Y-64597613D01*
X398285622Y-64601189D01*
X398872713Y-65032298D01*
X398877672Y-65036137D01*
X399442135Y-65496398D01*
X399446902Y-65500490D01*
X399987355Y-65988770D01*
X399991908Y-65993099D01*
X400506900Y-66508091D01*
X400511229Y-66512644D01*
X400999509Y-67053097D01*
X401003601Y-67057864D01*
X401463862Y-67622327D01*
X401467708Y-67627295D01*
X401898803Y-68214368D01*
X401902392Y-68219525D01*
X402303186Y-68827660D01*
X402306509Y-68832991D01*
X402675993Y-69460654D01*
X402679042Y-69466147D01*
X403016270Y-70111736D01*
X403019036Y-70117377D01*
X403323112Y-70779171D01*
X403325590Y-70784944D01*
X403595772Y-71461331D01*
X403597954Y-71467223D01*
X403833523Y-72156404D01*
X403835404Y-72162398D01*
X404035773Y-72862656D01*
X404037347Y-72868738D01*
X404201982Y-73578204D01*
X404203247Y-73584358D01*
X404331742Y-74301286D01*
X404332693Y-74307496D01*
X404424709Y-75029984D01*
X404425345Y-75036234D01*
X404480651Y-75762483D01*
X404480969Y-75768758D01*
X404499460Y-76498421D01*
X404499500Y-76501562D01*
X404499500Y-181998437D01*
X404499460Y-182001578D01*
X404480969Y-182731241D01*
X404480651Y-182737516D01*
X404425345Y-183463765D01*
X404424709Y-183470015D01*
X404332693Y-184192503D01*
X404331742Y-184198713D01*
X404203247Y-184915641D01*
X404201982Y-184921795D01*
X404037347Y-185631261D01*
X404035773Y-185637343D01*
X403835404Y-186337601D01*
X403833523Y-186343595D01*
X403597954Y-187032776D01*
X403595772Y-187038668D01*
X403325590Y-187715055D01*
X403323112Y-187720828D01*
X403019036Y-188382622D01*
X403016270Y-188388263D01*
X402679042Y-189033852D01*
X402675993Y-189039345D01*
X402306509Y-189667008D01*
X402303186Y-189672339D01*
X401902392Y-190280474D01*
X401898803Y-190285631D01*
X401467708Y-190872704D01*
X401463862Y-190877672D01*
X401003601Y-191442135D01*
X400999509Y-191446902D01*
X400511229Y-191987355D01*
X400506900Y-191991908D01*
X399991908Y-192506900D01*
X399987355Y-192511229D01*
X399446902Y-192999509D01*
X399442135Y-193003601D01*
X398877672Y-193463862D01*
X398872704Y-193467708D01*
X398285631Y-193898803D01*
X398280474Y-193902392D01*
X397672339Y-194303186D01*
X397667008Y-194306509D01*
X397039345Y-194675993D01*
X397033852Y-194679042D01*
X396388263Y-195016270D01*
X396382622Y-195019036D01*
X395720828Y-195323112D01*
X395715055Y-195325590D01*
X395038668Y-195595772D01*
X395032776Y-195597954D01*
X394343595Y-195833523D01*
X394337601Y-195835404D01*
X393637343Y-196035773D01*
X393631261Y-196037347D01*
X392921795Y-196201982D01*
X392915641Y-196203247D01*
X392198713Y-196331742D01*
X392192503Y-196332693D01*
X391470015Y-196424709D01*
X391463765Y-196425345D01*
X390737516Y-196480651D01*
X390731241Y-196480969D01*
X390001578Y-196499460D01*
X389998437Y-196499500D01*
X85501563Y-196499500D01*
X85498422Y-196499460D01*
X84768758Y-196480969D01*
X84762483Y-196480651D01*
X84036234Y-196425345D01*
X84029984Y-196424709D01*
X83307496Y-196332693D01*
X83301286Y-196331742D01*
X82584358Y-196203247D01*
X82578204Y-196201982D01*
X81868738Y-196037347D01*
X81862656Y-196035773D01*
X81162398Y-195835404D01*
X81156404Y-195833523D01*
X80467223Y-195597954D01*
X80461331Y-195595772D01*
X79784944Y-195325590D01*
X79779171Y-195323112D01*
X79117377Y-195019036D01*
X79111736Y-195016270D01*
X78466147Y-194679042D01*
X78460654Y-194675993D01*
X77832991Y-194306509D01*
X77827660Y-194303186D01*
X77219525Y-193902392D01*
X77214368Y-193898803D01*
X76627295Y-193467708D01*
X76622327Y-193463862D01*
X76057864Y-193003601D01*
X76053097Y-192999509D01*
X75512644Y-192511229D01*
X75508091Y-192506900D01*
X74993099Y-191991908D01*
X74988770Y-191987355D01*
X74500490Y-191446902D01*
X74496398Y-191442135D01*
X74197871Y-191076022D01*
X74036129Y-190877662D01*
X74032291Y-190872704D01*
X73984697Y-190807890D01*
X73601189Y-190285622D01*
X73597607Y-190280474D01*
X73539370Y-190192110D01*
X73196812Y-189672338D01*
X73193490Y-189667008D01*
X73071478Y-189459739D01*
X73036302Y-189399983D01*
X337619500Y-189399983D01*
X337619500Y-191600001D01*
X337619501Y-191600018D01*
X337630000Y-191702796D01*
X337630001Y-191702799D01*
X337678885Y-191850319D01*
X337685186Y-191869334D01*
X337777288Y-192018656D01*
X337901344Y-192142712D01*
X338050666Y-192234814D01*
X338217203Y-192289999D01*
X338319991Y-192300500D01*
X340520008Y-192300499D01*
X340622797Y-192289999D01*
X340789334Y-192234814D01*
X340938656Y-192142712D01*
X341062712Y-192018656D01*
X341154814Y-191869334D01*
X341209999Y-191702797D01*
X341220500Y-191600009D01*
X341220499Y-190382014D01*
X342700000Y-190382014D01*
X342700000Y-190617985D01*
X342730799Y-190851914D01*
X342791870Y-191079837D01*
X342882160Y-191297819D01*
X342882165Y-191297828D01*
X343000144Y-191502171D01*
X343000145Y-191502172D01*
X343062721Y-191583723D01*
X343898958Y-190747487D01*
X343923978Y-190807890D01*
X343995112Y-190914351D01*
X344085649Y-191004888D01*
X344192110Y-191076022D01*
X344252511Y-191101041D01*
X343416275Y-191937277D01*
X343497827Y-191999854D01*
X343497828Y-191999855D01*
X343702171Y-192117834D01*
X343702180Y-192117839D01*
X343920163Y-192208129D01*
X343920161Y-192208129D01*
X344148085Y-192269200D01*
X344382014Y-192299999D01*
X344382029Y-192300000D01*
X344617971Y-192300000D01*
X344617985Y-192299999D01*
X344851914Y-192269200D01*
X345079837Y-192208129D01*
X345297819Y-192117839D01*
X345297828Y-192117834D01*
X345502181Y-191999850D01*
X345583723Y-191937279D01*
X345583723Y-191937276D01*
X344747487Y-191101041D01*
X344807890Y-191076022D01*
X344914351Y-191004888D01*
X345004888Y-190914351D01*
X345076022Y-190807890D01*
X345101041Y-190747487D01*
X345937276Y-191583723D01*
X345937279Y-191583723D01*
X345999850Y-191502181D01*
X346117834Y-191297828D01*
X346117839Y-191297819D01*
X346208129Y-191079837D01*
X346269200Y-190851914D01*
X346299999Y-190617985D01*
X346300000Y-190617971D01*
X346300000Y-190382028D01*
X346299999Y-190382014D01*
X346269200Y-190148085D01*
X346208129Y-189920162D01*
X346117839Y-189702180D01*
X346117834Y-189702171D01*
X345999855Y-189497828D01*
X345999854Y-189497827D01*
X345937277Y-189416275D01*
X345101041Y-190252511D01*
X345076022Y-190192110D01*
X345004888Y-190085649D01*
X344914351Y-189995112D01*
X344807890Y-189923978D01*
X344747488Y-189898958D01*
X345583723Y-189062721D01*
X345502172Y-189000145D01*
X345502171Y-189000144D01*
X345297828Y-188882165D01*
X345297819Y-188882160D01*
X345079836Y-188791870D01*
X345079838Y-188791870D01*
X344851914Y-188730799D01*
X344617985Y-188700000D01*
X344382014Y-188700000D01*
X344148085Y-188730799D01*
X343920162Y-188791870D01*
X343702180Y-188882160D01*
X343702171Y-188882165D01*
X343497828Y-189000144D01*
X343497818Y-189000150D01*
X343416275Y-189062720D01*
X343416275Y-189062721D01*
X344252512Y-189898958D01*
X344192110Y-189923978D01*
X344085649Y-189995112D01*
X343995112Y-190085649D01*
X343923978Y-190192110D01*
X343898958Y-190252512D01*
X343062721Y-189416275D01*
X343062720Y-189416275D01*
X343000150Y-189497818D01*
X343000144Y-189497828D01*
X342882165Y-189702171D01*
X342882160Y-189702180D01*
X342791870Y-189920162D01*
X342730799Y-190148085D01*
X342700000Y-190382014D01*
X341220499Y-190382014D01*
X341220499Y-189399992D01*
X341209999Y-189297203D01*
X341154814Y-189130666D01*
X341062712Y-188981344D01*
X340938656Y-188857288D01*
X340789334Y-188765186D01*
X340622797Y-188710001D01*
X340622795Y-188710000D01*
X340520010Y-188699500D01*
X338319998Y-188699500D01*
X338319981Y-188699501D01*
X338217203Y-188710000D01*
X338217200Y-188710001D01*
X338050668Y-188765185D01*
X338050663Y-188765187D01*
X337901342Y-188857289D01*
X337777289Y-188981342D01*
X337685187Y-189130663D01*
X337685185Y-189130668D01*
X337678886Y-189149678D01*
X337630001Y-189297203D01*
X337630001Y-189297204D01*
X337630000Y-189297204D01*
X337619500Y-189399983D01*
X73036302Y-189399983D01*
X72824006Y-189039345D01*
X72820957Y-189033852D01*
X72483729Y-188388263D01*
X72480963Y-188382622D01*
X72176887Y-187720828D01*
X72174409Y-187715055D01*
X71904227Y-187038668D01*
X71902045Y-187032776D01*
X71844249Y-186863689D01*
X71666473Y-186343585D01*
X71664595Y-186337601D01*
X71464226Y-185637343D01*
X71462652Y-185631261D01*
X71298011Y-184921768D01*
X71296757Y-184915668D01*
X71168256Y-184198708D01*
X71167306Y-184192503D01*
X71075290Y-183470015D01*
X71074654Y-183463765D01*
X71019348Y-182737516D01*
X71019030Y-182731241D01*
X71010142Y-182380516D01*
X71000540Y-182001578D01*
X71000500Y-181998437D01*
X71000500Y-180400436D01*
X114235000Y-180400436D01*
X114235000Y-180599563D01*
X114266147Y-180796222D01*
X114327679Y-180985594D01*
X114418077Y-181163008D01*
X114445580Y-181200863D01*
X114445581Y-181200864D01*
X115008871Y-180637574D01*
X115024755Y-180696853D01*
X115091898Y-180813147D01*
X115186853Y-180908102D01*
X115303147Y-180975245D01*
X115362425Y-180991128D01*
X114799134Y-181554417D01*
X114836994Y-181581924D01*
X115014405Y-181672320D01*
X115203777Y-181733852D01*
X115400437Y-181765000D01*
X115599563Y-181765000D01*
X115796222Y-181733852D01*
X115985594Y-181672320D01*
X116163005Y-181581924D01*
X116200863Y-181554418D01*
X116200863Y-181554417D01*
X115637574Y-180991128D01*
X115696853Y-180975245D01*
X115813147Y-180908102D01*
X115908102Y-180813147D01*
X115975245Y-180696853D01*
X115991128Y-180637574D01*
X116554417Y-181200863D01*
X116554418Y-181200863D01*
X116581924Y-181163005D01*
X116672320Y-180985594D01*
X116733852Y-180796222D01*
X116765000Y-180599563D01*
X116765000Y-180400436D01*
X173235000Y-180400436D01*
X173235000Y-180599563D01*
X173266147Y-180796222D01*
X173327679Y-180985594D01*
X173418077Y-181163008D01*
X173445580Y-181200863D01*
X173445581Y-181200864D01*
X174008871Y-180637574D01*
X174024755Y-180696853D01*
X174091898Y-180813147D01*
X174186853Y-180908102D01*
X174303147Y-180975245D01*
X174362425Y-180991128D01*
X173799134Y-181554417D01*
X173836994Y-181581924D01*
X174014405Y-181672320D01*
X174203777Y-181733852D01*
X174400437Y-181765000D01*
X174599563Y-181765000D01*
X174796222Y-181733852D01*
X174985594Y-181672320D01*
X175163005Y-181581924D01*
X175200863Y-181554418D01*
X175200863Y-181554417D01*
X174637574Y-180991128D01*
X174696853Y-180975245D01*
X174813147Y-180908102D01*
X174908102Y-180813147D01*
X174975245Y-180696853D01*
X174991128Y-180637574D01*
X175554417Y-181200863D01*
X175554418Y-181200863D01*
X175581924Y-181163005D01*
X175672320Y-180985594D01*
X175733852Y-180796222D01*
X175765000Y-180599563D01*
X175765000Y-180400436D01*
X175733852Y-180203777D01*
X175672320Y-180014405D01*
X175581924Y-179836994D01*
X175554417Y-179799135D01*
X175554417Y-179799134D01*
X174991128Y-180362424D01*
X174975245Y-180303147D01*
X174908102Y-180186853D01*
X174813147Y-180091898D01*
X174696853Y-180024755D01*
X174637574Y-180008871D01*
X175200864Y-179445581D01*
X175200863Y-179445580D01*
X175163008Y-179418077D01*
X174985594Y-179327679D01*
X174796222Y-179266147D01*
X174599563Y-179235000D01*
X174400437Y-179235000D01*
X174203777Y-179266147D01*
X174014405Y-179327679D01*
X173836990Y-179418077D01*
X173799135Y-179445580D01*
X173799135Y-179445581D01*
X174362425Y-180008871D01*
X174303147Y-180024755D01*
X174186853Y-180091898D01*
X174091898Y-180186853D01*
X174024755Y-180303147D01*
X174008871Y-180362425D01*
X173445581Y-179799135D01*
X173445580Y-179799135D01*
X173418077Y-179836990D01*
X173327679Y-180014405D01*
X173266147Y-180203777D01*
X173235000Y-180400436D01*
X116765000Y-180400436D01*
X116733852Y-180203777D01*
X116672320Y-180014405D01*
X116581924Y-179836994D01*
X116554417Y-179799135D01*
X116554417Y-179799134D01*
X115991128Y-180362424D01*
X115975245Y-180303147D01*
X115908102Y-180186853D01*
X115813147Y-180091898D01*
X115696853Y-180024755D01*
X115637574Y-180008871D01*
X116200864Y-179445581D01*
X116200863Y-179445580D01*
X116163008Y-179418077D01*
X115985594Y-179327679D01*
X115796222Y-179266147D01*
X115599563Y-179235000D01*
X115400437Y-179235000D01*
X115203777Y-179266147D01*
X115014405Y-179327679D01*
X114836990Y-179418077D01*
X114799135Y-179445580D01*
X114799135Y-179445581D01*
X115362425Y-180008871D01*
X115303147Y-180024755D01*
X115186853Y-180091898D01*
X115091898Y-180186853D01*
X115024755Y-180303147D01*
X115008871Y-180362425D01*
X114445581Y-179799135D01*
X114445580Y-179799135D01*
X114418077Y-179836990D01*
X114327679Y-180014405D01*
X114266147Y-180203777D01*
X114235000Y-180400436D01*
X71000500Y-180400436D01*
X71000500Y-134400436D01*
X141235000Y-134400436D01*
X141235000Y-134599563D01*
X141266147Y-134796222D01*
X141327679Y-134985594D01*
X141418077Y-135163008D01*
X141445580Y-135200863D01*
X141445581Y-135200864D01*
X142008871Y-134637574D01*
X142024755Y-134696853D01*
X142091898Y-134813147D01*
X142186853Y-134908102D01*
X142303147Y-134975245D01*
X142362425Y-134991128D01*
X141799134Y-135554417D01*
X141836994Y-135581924D01*
X142014405Y-135672320D01*
X142203777Y-135733852D01*
X142400437Y-135765000D01*
X142599563Y-135765000D01*
X142796222Y-135733852D01*
X142985594Y-135672320D01*
X143163005Y-135581924D01*
X143200863Y-135554418D01*
X143200863Y-135554417D01*
X142637574Y-134991128D01*
X142696853Y-134975245D01*
X142813147Y-134908102D01*
X142908102Y-134813147D01*
X142975245Y-134696853D01*
X142991128Y-134637574D01*
X143554417Y-135200863D01*
X143554418Y-135200863D01*
X143581924Y-135163005D01*
X143672320Y-134985594D01*
X143733852Y-134796222D01*
X143765000Y-134599563D01*
X143765000Y-134400436D01*
X143733852Y-134203777D01*
X143672320Y-134014405D01*
X143581924Y-133836994D01*
X143554417Y-133799135D01*
X143554417Y-133799134D01*
X142991128Y-134362424D01*
X142975245Y-134303147D01*
X142908102Y-134186853D01*
X142813147Y-134091898D01*
X142696853Y-134024755D01*
X142637574Y-134008871D01*
X143200864Y-133445581D01*
X143200863Y-133445580D01*
X143163008Y-133418077D01*
X142985594Y-133327679D01*
X142796222Y-133266147D01*
X142599563Y-133235000D01*
X142400437Y-133235000D01*
X142203777Y-133266147D01*
X142014405Y-133327679D01*
X141836990Y-133418077D01*
X141799135Y-133445580D01*
X141799135Y-133445581D01*
X142362425Y-134008871D01*
X142303147Y-134024755D01*
X142186853Y-134091898D01*
X142091898Y-134186853D01*
X142024755Y-134303147D01*
X142008871Y-134362425D01*
X141445581Y-133799135D01*
X141445580Y-133799135D01*
X141418077Y-133836990D01*
X141327679Y-134014405D01*
X141266147Y-134203777D01*
X141235000Y-134400436D01*
X71000500Y-134400436D01*
X71000500Y-76501562D01*
X71000540Y-76498421D01*
X71002170Y-76434108D01*
X71019030Y-75768747D01*
X71019348Y-75762483D01*
X71074654Y-75036234D01*
X71075290Y-75029984D01*
X71162708Y-74343598D01*
X71167307Y-74307486D01*
X71168257Y-74301286D01*
X71169679Y-74293354D01*
X71296758Y-73584324D01*
X71298009Y-73578239D01*
X71462658Y-72868713D01*
X71464219Y-72862681D01*
X71664601Y-72162376D01*
X71666469Y-72156425D01*
X71685019Y-72102155D01*
X83150000Y-72102155D01*
X83150000Y-72750000D01*
X84066988Y-72750000D01*
X84034075Y-72807007D01*
X84000000Y-72934174D01*
X84000000Y-73065826D01*
X84034075Y-73192993D01*
X84066988Y-73250000D01*
X83150000Y-73250000D01*
X83150000Y-73897844D01*
X83156401Y-73957372D01*
X83156403Y-73957379D01*
X83206645Y-74092086D01*
X83206649Y-74092093D01*
X83292809Y-74207187D01*
X83292812Y-74207190D01*
X83407906Y-74293350D01*
X83407913Y-74293354D01*
X83542620Y-74343596D01*
X83542627Y-74343598D01*
X83602155Y-74349999D01*
X83602172Y-74350000D01*
X84250000Y-74350000D01*
X84250000Y-73433012D01*
X84307007Y-73465925D01*
X84434174Y-73500000D01*
X84565826Y-73500000D01*
X84692993Y-73465925D01*
X84750000Y-73433012D01*
X84750000Y-74350000D01*
X85397828Y-74350000D01*
X85397844Y-74349999D01*
X85457372Y-74343598D01*
X85457379Y-74343596D01*
X85592086Y-74293354D01*
X85592093Y-74293350D01*
X85707187Y-74207190D01*
X85707190Y-74207187D01*
X85793350Y-74092093D01*
X85793354Y-74092086D01*
X85842422Y-73960529D01*
X85884293Y-73904595D01*
X85949757Y-73880178D01*
X86018030Y-73895030D01*
X86046285Y-73916181D01*
X86160213Y-74030109D01*
X86332179Y-74155048D01*
X86332181Y-74155049D01*
X86332184Y-74155051D01*
X86521588Y-74251557D01*
X86723757Y-74317246D01*
X86933713Y-74350500D01*
X86933714Y-74350500D01*
X87146286Y-74350500D01*
X87146287Y-74350500D01*
X87356243Y-74317246D01*
X87558412Y-74251557D01*
X87747816Y-74155051D01*
X87834471Y-74092093D01*
X87919786Y-74030109D01*
X87919788Y-74030106D01*
X87919792Y-74030104D01*
X88070104Y-73879792D01*
X88070106Y-73879788D01*
X88070109Y-73879786D01*
X88195048Y-73707820D01*
X88195047Y-73707820D01*
X88195051Y-73707816D01*
X88199514Y-73699054D01*
X88247488Y-73648259D01*
X88315308Y-73631463D01*
X88381444Y-73653999D01*
X88420486Y-73699056D01*
X88424951Y-73707820D01*
X88549890Y-73879786D01*
X88700213Y-74030109D01*
X88872179Y-74155048D01*
X88872181Y-74155049D01*
X88872184Y-74155051D01*
X89061588Y-74251557D01*
X89263757Y-74317246D01*
X89473713Y-74350500D01*
X89473714Y-74350500D01*
X89686286Y-74350500D01*
X89686287Y-74350500D01*
X89896243Y-74317246D01*
X90098412Y-74251557D01*
X90287816Y-74155051D01*
X90374471Y-74092093D01*
X90459786Y-74030109D01*
X90459788Y-74030106D01*
X90459792Y-74030104D01*
X90610104Y-73879792D01*
X90610106Y-73879788D01*
X90610109Y-73879786D01*
X90735048Y-73707820D01*
X90735047Y-73707820D01*
X90735051Y-73707816D01*
X90831557Y-73518412D01*
X90897246Y-73316243D01*
X90930500Y-73106287D01*
X90930500Y-72893713D01*
X90897246Y-72683757D01*
X90831557Y-72481588D01*
X90735051Y-72292184D01*
X90735049Y-72292181D01*
X90735048Y-72292179D01*
X90610109Y-72120213D01*
X90459786Y-71969890D01*
X90287820Y-71844951D01*
X90098414Y-71748444D01*
X90098413Y-71748443D01*
X90098412Y-71748443D01*
X89896243Y-71682754D01*
X89896241Y-71682753D01*
X89896240Y-71682753D01*
X89734957Y-71657208D01*
X89686287Y-71649500D01*
X89473713Y-71649500D01*
X89425042Y-71657208D01*
X89263760Y-71682753D01*
X89061585Y-71748444D01*
X88872179Y-71844951D01*
X88700213Y-71969890D01*
X88549890Y-72120213D01*
X88424949Y-72292182D01*
X88420484Y-72300946D01*
X88372509Y-72351742D01*
X88304688Y-72368536D01*
X88238553Y-72345998D01*
X88199516Y-72300946D01*
X88195050Y-72292182D01*
X88070109Y-72120213D01*
X87919786Y-71969890D01*
X87747820Y-71844951D01*
X87558414Y-71748444D01*
X87558413Y-71748443D01*
X87558412Y-71748443D01*
X87356243Y-71682754D01*
X87356241Y-71682753D01*
X87356240Y-71682753D01*
X87194957Y-71657208D01*
X87146287Y-71649500D01*
X86933713Y-71649500D01*
X86885042Y-71657208D01*
X86723760Y-71682753D01*
X86521585Y-71748444D01*
X86332179Y-71844951D01*
X86160215Y-71969889D01*
X86046285Y-72083819D01*
X85984962Y-72117303D01*
X85915270Y-72112319D01*
X85859337Y-72070447D01*
X85842422Y-72039470D01*
X85793354Y-71907913D01*
X85793350Y-71907906D01*
X85707190Y-71792812D01*
X85707187Y-71792809D01*
X85592093Y-71706649D01*
X85592086Y-71706645D01*
X85457379Y-71656403D01*
X85457372Y-71656401D01*
X85397844Y-71650000D01*
X84750000Y-71650000D01*
X84750000Y-72566988D01*
X84692993Y-72534075D01*
X84565826Y-72500000D01*
X84434174Y-72500000D01*
X84307007Y-72534075D01*
X84250000Y-72566988D01*
X84250000Y-71650000D01*
X83602155Y-71650000D01*
X83542627Y-71656401D01*
X83542620Y-71656403D01*
X83407913Y-71706645D01*
X83407906Y-71706649D01*
X83292812Y-71792809D01*
X83292809Y-71792812D01*
X83206649Y-71907906D01*
X83206645Y-71907913D01*
X83156403Y-72042620D01*
X83156401Y-72042627D01*
X83150000Y-72102155D01*
X71685019Y-72102155D01*
X71855924Y-71602155D01*
X105650000Y-71602155D01*
X105650000Y-72250000D01*
X106566988Y-72250000D01*
X106534075Y-72307007D01*
X106500000Y-72434174D01*
X106500000Y-72565826D01*
X106534075Y-72692993D01*
X106566988Y-72750000D01*
X105650000Y-72750000D01*
X105650000Y-73397844D01*
X105656401Y-73457372D01*
X105656403Y-73457379D01*
X105706645Y-73592086D01*
X105706649Y-73592093D01*
X105792809Y-73707187D01*
X105792812Y-73707190D01*
X105907906Y-73793350D01*
X105907913Y-73793354D01*
X106042620Y-73843596D01*
X106042627Y-73843598D01*
X106102155Y-73849999D01*
X106102172Y-73850000D01*
X106750000Y-73850000D01*
X106750000Y-72933012D01*
X106807007Y-72965925D01*
X106934174Y-73000000D01*
X107065826Y-73000000D01*
X107192993Y-72965925D01*
X107250000Y-72933012D01*
X107250000Y-73850000D01*
X107897828Y-73850000D01*
X107897844Y-73849999D01*
X107957372Y-73843598D01*
X107957379Y-73843596D01*
X108092086Y-73793354D01*
X108092093Y-73793350D01*
X108207187Y-73707190D01*
X108207190Y-73707187D01*
X108293350Y-73592093D01*
X108293354Y-73592086D01*
X108342422Y-73460529D01*
X108384293Y-73404595D01*
X108449757Y-73380178D01*
X108518030Y-73395030D01*
X108546285Y-73416181D01*
X108660213Y-73530109D01*
X108832179Y-73655048D01*
X108832181Y-73655049D01*
X108832184Y-73655051D01*
X109021588Y-73751557D01*
X109223757Y-73817246D01*
X109433713Y-73850500D01*
X109433714Y-73850500D01*
X109646286Y-73850500D01*
X109646287Y-73850500D01*
X109856243Y-73817246D01*
X110058412Y-73751557D01*
X110247816Y-73655051D01*
X110334138Y-73592335D01*
X110419786Y-73530109D01*
X110419788Y-73530106D01*
X110419792Y-73530104D01*
X110570104Y-73379792D01*
X110570106Y-73379788D01*
X110570109Y-73379786D01*
X110695048Y-73207820D01*
X110695050Y-73207817D01*
X110695051Y-73207816D01*
X110699514Y-73199054D01*
X110747488Y-73148259D01*
X110815308Y-73131463D01*
X110881444Y-73153999D01*
X110920486Y-73199056D01*
X110924951Y-73207820D01*
X111049890Y-73379786D01*
X111200213Y-73530109D01*
X111372179Y-73655048D01*
X111372181Y-73655049D01*
X111372184Y-73655051D01*
X111561588Y-73751557D01*
X111763757Y-73817246D01*
X111973713Y-73850500D01*
X111973714Y-73850500D01*
X112186286Y-73850500D01*
X112186287Y-73850500D01*
X112396243Y-73817246D01*
X112438523Y-73803507D01*
X112508362Y-73801511D01*
X112564521Y-73833756D01*
X138311284Y-99580520D01*
X138311286Y-99580521D01*
X138311290Y-99580524D01*
X138448209Y-99659573D01*
X138448216Y-99659577D01*
X138600943Y-99700501D01*
X138600945Y-99700501D01*
X138766654Y-99700501D01*
X138766670Y-99700500D01*
X163520939Y-99700500D01*
X163520943Y-99700501D01*
X163679058Y-99700501D01*
X163679062Y-99700500D01*
X217449740Y-99700500D01*
X217516779Y-99720185D01*
X217555466Y-99759707D01*
X217557647Y-99763266D01*
X217674731Y-99924418D01*
X217815582Y-100065269D01*
X217976734Y-100182353D01*
X218046453Y-100217877D01*
X218128172Y-100259515D01*
X218178968Y-100307490D01*
X218195763Y-100375311D01*
X218173225Y-100441446D01*
X218128172Y-100480485D01*
X217976733Y-100557647D01*
X217884790Y-100624447D01*
X217815582Y-100674731D01*
X217815580Y-100674733D01*
X217815579Y-100674733D01*
X217674733Y-100815579D01*
X217674733Y-100815580D01*
X217674731Y-100815582D01*
X217624447Y-100884790D01*
X217557647Y-100976733D01*
X217467213Y-101154219D01*
X217405661Y-101343656D01*
X217405661Y-101343659D01*
X217374500Y-101540403D01*
X217374500Y-101739596D01*
X217405661Y-101936340D01*
X217405661Y-101936343D01*
X217467213Y-102125780D01*
X217467215Y-102125783D01*
X217557647Y-102303266D01*
X217674731Y-102464418D01*
X217815582Y-102605269D01*
X217976734Y-102722353D01*
X218046453Y-102757877D01*
X218128172Y-102799515D01*
X218178968Y-102847490D01*
X218195763Y-102915311D01*
X218173225Y-102981446D01*
X218128172Y-103020485D01*
X217976733Y-103097647D01*
X217884790Y-103164447D01*
X217815582Y-103214731D01*
X217815580Y-103214733D01*
X217815579Y-103214733D01*
X217674733Y-103355579D01*
X217674733Y-103355580D01*
X217674731Y-103355582D01*
X217624447Y-103424790D01*
X217557647Y-103516733D01*
X217467213Y-103694219D01*
X217405661Y-103883656D01*
X217405661Y-103883659D01*
X217374500Y-104080403D01*
X217374500Y-104279596D01*
X217405661Y-104476340D01*
X217405661Y-104476343D01*
X217467213Y-104665780D01*
X217467215Y-104665783D01*
X217557647Y-104843266D01*
X217674731Y-105004418D01*
X217815582Y-105145269D01*
X217976734Y-105262353D01*
X218046453Y-105297877D01*
X218128172Y-105339515D01*
X218178968Y-105387490D01*
X218195763Y-105455311D01*
X218173225Y-105521446D01*
X218128172Y-105560485D01*
X217976733Y-105637647D01*
X217884790Y-105704447D01*
X217815582Y-105754731D01*
X217815580Y-105754733D01*
X217815579Y-105754733D01*
X217674733Y-105895579D01*
X217674733Y-105895580D01*
X217674731Y-105895582D01*
X217624447Y-105964790D01*
X217557647Y-106056733D01*
X217467213Y-106234219D01*
X217405661Y-106423656D01*
X217405661Y-106423659D01*
X217374500Y-106620403D01*
X217374500Y-106819596D01*
X217405661Y-107016340D01*
X217405661Y-107016343D01*
X217467213Y-107205780D01*
X217467215Y-107205783D01*
X217557647Y-107383266D01*
X217674731Y-107544418D01*
X217815582Y-107685269D01*
X217976734Y-107802353D01*
X218046453Y-107837877D01*
X218128172Y-107879515D01*
X218178968Y-107927490D01*
X218195763Y-107995311D01*
X218173225Y-108061446D01*
X218128172Y-108100485D01*
X217976733Y-108177647D01*
X217884790Y-108244447D01*
X217815582Y-108294731D01*
X217815580Y-108294733D01*
X217815579Y-108294733D01*
X217674733Y-108435579D01*
X217674733Y-108435580D01*
X217674731Y-108435582D01*
X217624447Y-108504790D01*
X217557647Y-108596733D01*
X217555466Y-108600293D01*
X217503652Y-108647167D01*
X217449740Y-108659500D01*
X162826670Y-108659500D01*
X162826654Y-108659499D01*
X162819058Y-108659499D01*
X162660943Y-108659499D01*
X162584579Y-108679961D01*
X162508214Y-108700423D01*
X162508209Y-108700426D01*
X162371290Y-108779475D01*
X162371282Y-108779481D01*
X142917022Y-128233741D01*
X142855699Y-128267226D01*
X142800404Y-128266636D01*
X142796344Y-128265661D01*
X142625193Y-128238554D01*
X142599597Y-128234500D01*
X142400403Y-128234500D01*
X142334822Y-128244887D01*
X142203659Y-128265661D01*
X142203656Y-128265661D01*
X142014219Y-128327213D01*
X141836733Y-128417647D01*
X141744790Y-128484447D01*
X141675582Y-128534731D01*
X141675580Y-128534733D01*
X141675579Y-128534733D01*
X141534733Y-128675579D01*
X141534733Y-128675580D01*
X141534731Y-128675582D01*
X141484447Y-128744790D01*
X141417647Y-128836733D01*
X141327213Y-129014219D01*
X141265661Y-129203656D01*
X141265661Y-129203659D01*
X141234500Y-129400403D01*
X141234500Y-129599596D01*
X141265661Y-129796340D01*
X141265661Y-129796343D01*
X141327213Y-129985780D01*
X141327215Y-129985783D01*
X141417647Y-130163266D01*
X141534731Y-130324418D01*
X141675582Y-130465269D01*
X141836734Y-130582353D01*
X141993741Y-130662352D01*
X142014219Y-130672786D01*
X142203657Y-130734338D01*
X142203658Y-130734338D01*
X142203661Y-130734339D01*
X142400403Y-130765500D01*
X142400404Y-130765500D01*
X142599596Y-130765500D01*
X142599597Y-130765500D01*
X142796339Y-130734339D01*
X142796342Y-130734338D01*
X142796343Y-130734338D01*
X142985780Y-130672786D01*
X142985780Y-130672785D01*
X142985783Y-130672785D01*
X143163266Y-130582353D01*
X143324418Y-130465269D01*
X143465269Y-130324418D01*
X143582353Y-130163266D01*
X143672785Y-129985783D01*
X143708345Y-129876340D01*
X143734338Y-129796343D01*
X143734338Y-129796342D01*
X143734339Y-129796339D01*
X143765500Y-129599597D01*
X143765500Y-129400403D01*
X143734339Y-129203661D01*
X143734333Y-129203644D01*
X143733366Y-129199614D01*
X143736851Y-129129831D01*
X143766255Y-129082978D01*
X162952417Y-109896819D01*
X163013740Y-109863334D01*
X163040098Y-109860500D01*
X217449740Y-109860500D01*
X217516779Y-109880185D01*
X217555466Y-109919707D01*
X217557647Y-109923266D01*
X217674731Y-110084418D01*
X217815582Y-110225269D01*
X217976734Y-110342353D01*
X218046453Y-110377877D01*
X218128172Y-110419515D01*
X218178968Y-110467490D01*
X218195763Y-110535311D01*
X218173225Y-110601446D01*
X218128172Y-110640485D01*
X217976733Y-110717647D01*
X217884790Y-110784447D01*
X217815582Y-110834731D01*
X217815580Y-110834733D01*
X217815579Y-110834733D01*
X217674733Y-110975579D01*
X217674733Y-110975580D01*
X217674731Y-110975582D01*
X217624447Y-111044790D01*
X217557647Y-111136733D01*
X217467213Y-111314219D01*
X217405661Y-111503656D01*
X217405661Y-111503659D01*
X217374500Y-111700403D01*
X217374500Y-111899596D01*
X217405661Y-112096340D01*
X217405661Y-112096343D01*
X217467213Y-112285780D01*
X217467215Y-112285783D01*
X217557647Y-112463266D01*
X217674731Y-112624418D01*
X217815582Y-112765269D01*
X217976734Y-112882353D01*
X218046453Y-112917877D01*
X218128172Y-112959515D01*
X218178968Y-113007490D01*
X218195763Y-113075311D01*
X218173225Y-113141446D01*
X218128172Y-113180485D01*
X217976733Y-113257647D01*
X217884790Y-113324447D01*
X217815582Y-113374731D01*
X217815580Y-113374733D01*
X217815579Y-113374733D01*
X217674733Y-113515579D01*
X217674733Y-113515580D01*
X217674731Y-113515582D01*
X217624447Y-113584790D01*
X217557647Y-113676733D01*
X217467213Y-113854219D01*
X217405661Y-114043656D01*
X217405661Y-114043659D01*
X217374500Y-114240403D01*
X217374500Y-114439596D01*
X217405661Y-114636340D01*
X217405661Y-114636343D01*
X217467213Y-114825780D01*
X217467215Y-114825783D01*
X217557647Y-115003266D01*
X217674731Y-115164418D01*
X217815582Y-115305269D01*
X217976734Y-115422353D01*
X218046453Y-115457877D01*
X218128172Y-115499515D01*
X218178968Y-115547490D01*
X218195763Y-115615311D01*
X218173225Y-115681446D01*
X218128172Y-115720485D01*
X217976733Y-115797647D01*
X217884790Y-115864447D01*
X217815582Y-115914731D01*
X217815580Y-115914733D01*
X217815579Y-115914733D01*
X217674733Y-116055579D01*
X217674733Y-116055580D01*
X217674731Y-116055582D01*
X217624447Y-116124790D01*
X217557647Y-116216733D01*
X217467213Y-116394219D01*
X217405661Y-116583656D01*
X217405661Y-116583659D01*
X217374500Y-116780403D01*
X217374500Y-116979596D01*
X217405661Y-117176340D01*
X217405661Y-117176343D01*
X217467213Y-117365780D01*
X217467215Y-117365783D01*
X217557647Y-117543266D01*
X217674731Y-117704418D01*
X217815582Y-117845269D01*
X217976734Y-117962353D01*
X218046453Y-117997877D01*
X218128172Y-118039515D01*
X218178968Y-118087490D01*
X218195763Y-118155311D01*
X218173225Y-118221446D01*
X218128172Y-118260485D01*
X217976733Y-118337647D01*
X217884790Y-118404447D01*
X217815582Y-118454731D01*
X217815580Y-118454733D01*
X217815579Y-118454733D01*
X217674733Y-118595579D01*
X217674733Y-118595580D01*
X217674731Y-118595582D01*
X217624447Y-118664790D01*
X217557647Y-118756733D01*
X217467213Y-118934219D01*
X217405661Y-119123656D01*
X217405661Y-119123659D01*
X217374500Y-119320403D01*
X217374500Y-119519596D01*
X217405661Y-119716340D01*
X217405661Y-119716343D01*
X217467213Y-119905780D01*
X217525144Y-120019475D01*
X217557647Y-120083266D01*
X217674731Y-120244418D01*
X217815582Y-120385269D01*
X217976734Y-120502353D01*
X218046453Y-120537877D01*
X218128172Y-120579515D01*
X218178968Y-120627490D01*
X218195763Y-120695311D01*
X218173225Y-120761446D01*
X218128172Y-120800485D01*
X217976733Y-120877647D01*
X217884790Y-120944447D01*
X217815582Y-120994731D01*
X217815580Y-120994733D01*
X217815579Y-120994733D01*
X217674733Y-121135579D01*
X217674733Y-121135580D01*
X217674731Y-121135582D01*
X217647553Y-121172989D01*
X217557647Y-121296733D01*
X217467213Y-121474219D01*
X217405661Y-121663656D01*
X217405661Y-121663659D01*
X217374500Y-121860403D01*
X217374500Y-122059596D01*
X217405661Y-122256340D01*
X217405661Y-122256343D01*
X217467213Y-122445780D01*
X217467215Y-122445783D01*
X217557647Y-122623266D01*
X217674731Y-122784418D01*
X217815582Y-122925269D01*
X217976734Y-123042353D01*
X218046453Y-123077877D01*
X218128172Y-123119515D01*
X218178968Y-123167490D01*
X218195763Y-123235311D01*
X218173225Y-123301446D01*
X218128172Y-123340485D01*
X217976733Y-123417647D01*
X217884790Y-123484447D01*
X217815582Y-123534731D01*
X217815580Y-123534733D01*
X217815579Y-123534733D01*
X217674733Y-123675579D01*
X217674733Y-123675580D01*
X217674731Y-123675582D01*
X217624447Y-123744790D01*
X217557647Y-123836733D01*
X217467213Y-124014219D01*
X217405661Y-124203656D01*
X217405661Y-124203659D01*
X217374500Y-124400403D01*
X217374500Y-124599596D01*
X217405661Y-124796340D01*
X217405661Y-124796343D01*
X217467213Y-124985780D01*
X217467215Y-124985783D01*
X217557647Y-125163266D01*
X217674731Y-125324418D01*
X217815582Y-125465269D01*
X217976734Y-125582353D01*
X218046453Y-125617877D01*
X218128172Y-125659515D01*
X218178968Y-125707490D01*
X218195763Y-125775311D01*
X218173225Y-125841446D01*
X218128172Y-125880485D01*
X217976733Y-125957647D01*
X217884790Y-126024447D01*
X217815582Y-126074731D01*
X217815580Y-126074733D01*
X217815579Y-126074733D01*
X217674733Y-126215579D01*
X217674733Y-126215580D01*
X217674731Y-126215582D01*
X217624447Y-126284790D01*
X217557647Y-126376733D01*
X217467213Y-126554219D01*
X217405661Y-126743656D01*
X217405661Y-126743659D01*
X217374500Y-126940403D01*
X217374500Y-127139596D01*
X217405661Y-127336340D01*
X217405661Y-127336343D01*
X217467213Y-127525780D01*
X217467215Y-127525783D01*
X217557647Y-127703266D01*
X217674731Y-127864418D01*
X217815582Y-128005269D01*
X217976734Y-128122353D01*
X218046453Y-128157877D01*
X218128172Y-128199515D01*
X218178968Y-128247490D01*
X218195763Y-128315311D01*
X218173225Y-128381446D01*
X218128172Y-128420485D01*
X217976733Y-128497647D01*
X217884790Y-128564447D01*
X217815582Y-128614731D01*
X217815580Y-128614733D01*
X217815579Y-128614733D01*
X217674733Y-128755579D01*
X217674733Y-128755580D01*
X217674731Y-128755582D01*
X217624447Y-128824790D01*
X217557647Y-128916733D01*
X217467213Y-129094219D01*
X217405661Y-129283656D01*
X217405661Y-129283659D01*
X217374500Y-129480403D01*
X217374500Y-129679596D01*
X217405661Y-129876340D01*
X217405661Y-129876343D01*
X217467213Y-130065780D01*
X217467215Y-130065783D01*
X217557647Y-130243266D01*
X217674731Y-130404418D01*
X217815582Y-130545269D01*
X217976734Y-130662353D01*
X218046453Y-130697877D01*
X218128172Y-130739515D01*
X218178968Y-130787490D01*
X218195763Y-130855311D01*
X218173225Y-130921446D01*
X218128172Y-130960485D01*
X217976733Y-131037647D01*
X217884790Y-131104447D01*
X217815582Y-131154731D01*
X217815580Y-131154733D01*
X217815579Y-131154733D01*
X217674733Y-131295579D01*
X217674733Y-131295580D01*
X217674731Y-131295582D01*
X217624447Y-131364790D01*
X217557647Y-131456733D01*
X217467213Y-131634219D01*
X217405661Y-131823656D01*
X217405661Y-131823659D01*
X217374500Y-132020403D01*
X217374500Y-132219596D01*
X217405661Y-132416340D01*
X217405661Y-132416343D01*
X217467213Y-132605780D01*
X217467215Y-132605783D01*
X217557647Y-132783266D01*
X217674731Y-132944418D01*
X217815582Y-133085269D01*
X217976734Y-133202353D01*
X218040807Y-133235000D01*
X218128172Y-133279515D01*
X218178968Y-133327490D01*
X218195763Y-133395311D01*
X218173225Y-133461446D01*
X218128172Y-133500485D01*
X217976733Y-133577647D01*
X217917310Y-133620821D01*
X217815582Y-133694731D01*
X217815580Y-133694733D01*
X217815579Y-133694733D01*
X217674733Y-133835579D01*
X217674733Y-133835580D01*
X217674731Y-133835582D01*
X217658072Y-133858511D01*
X217557647Y-133996733D01*
X217467213Y-134174219D01*
X217405661Y-134363656D01*
X217405661Y-134363659D01*
X217405661Y-134363660D01*
X217405661Y-134363661D01*
X217374500Y-134560403D01*
X217374500Y-134759597D01*
X217382982Y-134813147D01*
X217405661Y-134956340D01*
X217405661Y-134956343D01*
X217467213Y-135145780D01*
X217495280Y-135200864D01*
X217557647Y-135323266D01*
X217674731Y-135484418D01*
X217815582Y-135625269D01*
X217976734Y-135742353D01*
X218046453Y-135777877D01*
X218128172Y-135819515D01*
X218178968Y-135867490D01*
X218195763Y-135935311D01*
X218173225Y-136001446D01*
X218128172Y-136040485D01*
X217976733Y-136117647D01*
X217884790Y-136184447D01*
X217815582Y-136234731D01*
X217815580Y-136234733D01*
X217815579Y-136234733D01*
X217674733Y-136375579D01*
X217674733Y-136375580D01*
X217674731Y-136375582D01*
X217624447Y-136444790D01*
X217557647Y-136536733D01*
X217467213Y-136714219D01*
X217405661Y-136903656D01*
X217405661Y-136903659D01*
X217374500Y-137100403D01*
X217374500Y-137299596D01*
X217405661Y-137496340D01*
X217405661Y-137496343D01*
X217467213Y-137685780D01*
X217543887Y-137836261D01*
X217557647Y-137863266D01*
X217674731Y-138024418D01*
X217815582Y-138165269D01*
X217976734Y-138282353D01*
X218017545Y-138303147D01*
X218128172Y-138359515D01*
X218178968Y-138407490D01*
X218195763Y-138475311D01*
X218173225Y-138541446D01*
X218128172Y-138580485D01*
X217976733Y-138657647D01*
X217884790Y-138724447D01*
X217815582Y-138774731D01*
X217815580Y-138774733D01*
X217815579Y-138774733D01*
X217674733Y-138915579D01*
X217674733Y-138915580D01*
X217674731Y-138915582D01*
X217631383Y-138975245D01*
X217557647Y-139076733D01*
X217467213Y-139254219D01*
X217405661Y-139443656D01*
X217405661Y-139443659D01*
X217374500Y-139640403D01*
X217374500Y-139839596D01*
X217405661Y-140036340D01*
X217405661Y-140036343D01*
X217467213Y-140225780D01*
X217467215Y-140225783D01*
X217557647Y-140403266D01*
X217674731Y-140564418D01*
X217815582Y-140705269D01*
X217976734Y-140822353D01*
X218046453Y-140857877D01*
X218128172Y-140899515D01*
X218178968Y-140947490D01*
X218195763Y-141015311D01*
X218173225Y-141081446D01*
X218128172Y-141120485D01*
X217976733Y-141197647D01*
X217884790Y-141264447D01*
X217815582Y-141314731D01*
X217815580Y-141314733D01*
X217815579Y-141314733D01*
X217674733Y-141455579D01*
X217674733Y-141455580D01*
X217674731Y-141455582D01*
X217624447Y-141524790D01*
X217557647Y-141616733D01*
X217467213Y-141794219D01*
X217405661Y-141983656D01*
X217405661Y-141983659D01*
X217374500Y-142180403D01*
X217374500Y-142379596D01*
X217405661Y-142576340D01*
X217405661Y-142576343D01*
X217467213Y-142765780D01*
X217467215Y-142765783D01*
X217557647Y-142943266D01*
X217674731Y-143104418D01*
X217815582Y-143245269D01*
X217976734Y-143362353D01*
X218046453Y-143397877D01*
X218128172Y-143439515D01*
X218178968Y-143487490D01*
X218195763Y-143555311D01*
X218173225Y-143621446D01*
X218128172Y-143660485D01*
X217976733Y-143737647D01*
X217884790Y-143804447D01*
X217815582Y-143854731D01*
X217815580Y-143854733D01*
X217815579Y-143854733D01*
X217674733Y-143995579D01*
X217674733Y-143995580D01*
X217674731Y-143995582D01*
X217624447Y-144064790D01*
X217557647Y-144156733D01*
X217555466Y-144160293D01*
X217503652Y-144207167D01*
X217449740Y-144219500D01*
X157759057Y-144219500D01*
X157600943Y-144219500D01*
X157448215Y-144260423D01*
X157448214Y-144260423D01*
X157448212Y-144260424D01*
X157448209Y-144260425D01*
X157398096Y-144289359D01*
X157398095Y-144289360D01*
X157354689Y-144314420D01*
X157311285Y-144339479D01*
X157311282Y-144339481D01*
X157199478Y-144451286D01*
X126787584Y-174863181D01*
X126726261Y-174896666D01*
X126699903Y-174899500D01*
X116690260Y-174899500D01*
X116623221Y-174879815D01*
X116584534Y-174840293D01*
X116582352Y-174836733D01*
X116465269Y-174675582D01*
X116324418Y-174534731D01*
X116163266Y-174417647D01*
X115985780Y-174327213D01*
X115796342Y-174265661D01*
X115648782Y-174242290D01*
X115599597Y-174234500D01*
X115400403Y-174234500D01*
X115334822Y-174244887D01*
X115203659Y-174265661D01*
X115203656Y-174265661D01*
X115014219Y-174327213D01*
X114836733Y-174417647D01*
X114744790Y-174484447D01*
X114675582Y-174534731D01*
X114675580Y-174534733D01*
X114675579Y-174534733D01*
X114534733Y-174675579D01*
X114534733Y-174675580D01*
X114534731Y-174675582D01*
X114484447Y-174744790D01*
X114417647Y-174836733D01*
X114327213Y-175014219D01*
X114265661Y-175203656D01*
X114265661Y-175203659D01*
X114234500Y-175400403D01*
X114234500Y-175599596D01*
X114265661Y-175796340D01*
X114265661Y-175796343D01*
X114327213Y-175985780D01*
X114364814Y-176059576D01*
X114417647Y-176163266D01*
X114534731Y-176324418D01*
X114675582Y-176465269D01*
X114836734Y-176582353D01*
X115014217Y-176672785D01*
X115014219Y-176672786D01*
X115203657Y-176734338D01*
X115203658Y-176734338D01*
X115203661Y-176734339D01*
X115400403Y-176765500D01*
X115400404Y-176765500D01*
X115599596Y-176765500D01*
X115599597Y-176765500D01*
X115796339Y-176734339D01*
X115796342Y-176734338D01*
X115796343Y-176734338D01*
X115985780Y-176672786D01*
X115985780Y-176672785D01*
X115985783Y-176672785D01*
X116163266Y-176582353D01*
X116324418Y-176465269D01*
X116465269Y-176324418D01*
X116582353Y-176163266D01*
X116582357Y-176163256D01*
X116584534Y-176159707D01*
X116636348Y-176112833D01*
X116690260Y-176100500D01*
X126913331Y-176100500D01*
X126913347Y-176100501D01*
X126920943Y-176100501D01*
X127079054Y-176100501D01*
X127079057Y-176100501D01*
X127231785Y-176059577D01*
X127281904Y-176030639D01*
X127368716Y-175980520D01*
X127480520Y-175868716D01*
X127480520Y-175868714D01*
X127490728Y-175858507D01*
X127490729Y-175858504D01*
X157892416Y-145456819D01*
X157953739Y-145423334D01*
X157980097Y-145420500D01*
X203430902Y-145420500D01*
X203497941Y-145440185D01*
X203543696Y-145492989D01*
X203553640Y-145562147D01*
X203524615Y-145625703D01*
X203518583Y-145632181D01*
X174917022Y-174233741D01*
X174855699Y-174267226D01*
X174800404Y-174266636D01*
X174796344Y-174265661D01*
X174632387Y-174239693D01*
X174599597Y-174234500D01*
X174400403Y-174234500D01*
X174334822Y-174244887D01*
X174203659Y-174265661D01*
X174203656Y-174265661D01*
X174014219Y-174327213D01*
X173836733Y-174417647D01*
X173744790Y-174484447D01*
X173675582Y-174534731D01*
X173675580Y-174534733D01*
X173675579Y-174534733D01*
X173534733Y-174675579D01*
X173534733Y-174675580D01*
X173534731Y-174675582D01*
X173484447Y-174744790D01*
X173417647Y-174836733D01*
X173327213Y-175014219D01*
X173265661Y-175203656D01*
X173265661Y-175203659D01*
X173234500Y-175400403D01*
X173234500Y-175599596D01*
X173265661Y-175796340D01*
X173265661Y-175796343D01*
X173327213Y-175985780D01*
X173364814Y-176059576D01*
X173417647Y-176163266D01*
X173534731Y-176324418D01*
X173675582Y-176465269D01*
X173836734Y-176582353D01*
X174014217Y-176672785D01*
X174014219Y-176672786D01*
X174203657Y-176734338D01*
X174203658Y-176734338D01*
X174203661Y-176734339D01*
X174400403Y-176765500D01*
X174400404Y-176765500D01*
X174599596Y-176765500D01*
X174599597Y-176765500D01*
X174796339Y-176734339D01*
X174796342Y-176734338D01*
X174796343Y-176734338D01*
X174985780Y-176672786D01*
X174985780Y-176672785D01*
X174985783Y-176672785D01*
X175163266Y-176582353D01*
X175324418Y-176465269D01*
X175465269Y-176324418D01*
X175582353Y-176163266D01*
X175672785Y-175985783D01*
X175674495Y-175980519D01*
X175734338Y-175796343D01*
X175734338Y-175796342D01*
X175734339Y-175796339D01*
X175765500Y-175599597D01*
X175765500Y-175400403D01*
X175734339Y-175203661D01*
X175734333Y-175203644D01*
X175733366Y-175199614D01*
X175736851Y-175129831D01*
X175766255Y-175082978D01*
X204326416Y-146522819D01*
X204387739Y-146489334D01*
X204414097Y-146486500D01*
X217467027Y-146486500D01*
X217534066Y-146506185D01*
X217579821Y-146558989D01*
X217589765Y-146628147D01*
X217567345Y-146683386D01*
X217557647Y-146696733D01*
X217467213Y-146874219D01*
X217405661Y-147063656D01*
X217405661Y-147063659D01*
X217374500Y-147260403D01*
X217374500Y-147459596D01*
X217405661Y-147656340D01*
X217405661Y-147656343D01*
X217467213Y-147845780D01*
X217467215Y-147845783D01*
X217557647Y-148023266D01*
X217674731Y-148184418D01*
X217815582Y-148325269D01*
X217976734Y-148442353D01*
X218066909Y-148488299D01*
X218128722Y-148519795D01*
X218179518Y-148567770D01*
X218196313Y-148635591D01*
X218173776Y-148701726D01*
X218128723Y-148740764D01*
X217976993Y-148818075D01*
X217939135Y-148845580D01*
X217939135Y-148845581D01*
X218502425Y-149408871D01*
X218443147Y-149424755D01*
X218326853Y-149491898D01*
X218231898Y-149586853D01*
X218164755Y-149703147D01*
X218148871Y-149762425D01*
X217585581Y-149199135D01*
X217585580Y-149199135D01*
X217558077Y-149236990D01*
X217467679Y-149414405D01*
X217406147Y-149603777D01*
X217375000Y-149800436D01*
X217375000Y-149999563D01*
X217406147Y-150196222D01*
X217467679Y-150385594D01*
X217558077Y-150563008D01*
X217585580Y-150600863D01*
X217585581Y-150600864D01*
X218148871Y-150037574D01*
X218164755Y-150096853D01*
X218231898Y-150213147D01*
X218326853Y-150308102D01*
X218443147Y-150375245D01*
X218502425Y-150391128D01*
X217939134Y-150954417D01*
X217976994Y-150981924D01*
X218154405Y-151072320D01*
X218343777Y-151133852D01*
X218540437Y-151165000D01*
X218739563Y-151165000D01*
X218936222Y-151133852D01*
X219125594Y-151072320D01*
X219303005Y-150981924D01*
X219340863Y-150954418D01*
X219340863Y-150954417D01*
X218777574Y-150391128D01*
X218836853Y-150375245D01*
X218953147Y-150308102D01*
X219048102Y-150213147D01*
X219115245Y-150096853D01*
X219131128Y-150037574D01*
X219694417Y-150600863D01*
X219694418Y-150600863D01*
X219721924Y-150563005D01*
X219812320Y-150385594D01*
X219873852Y-150196222D01*
X219905000Y-149999563D01*
X219905000Y-149800436D01*
X219873852Y-149603777D01*
X219812320Y-149414405D01*
X219721924Y-149236994D01*
X219694417Y-149199135D01*
X219694417Y-149199134D01*
X219131128Y-149762424D01*
X219115245Y-149703147D01*
X219048102Y-149586853D01*
X218953147Y-149491898D01*
X218836853Y-149424755D01*
X218777574Y-149408871D01*
X219340864Y-148845581D01*
X219340863Y-148845580D01*
X219303008Y-148818077D01*
X219151277Y-148740765D01*
X219100481Y-148692790D01*
X219083686Y-148624969D01*
X219106224Y-148558834D01*
X219151277Y-148519795D01*
X219151827Y-148519515D01*
X219303266Y-148442353D01*
X219464418Y-148325269D01*
X219605269Y-148184418D01*
X219722353Y-148023266D01*
X219812785Y-147845783D01*
X219874339Y-147656339D01*
X219905500Y-147459597D01*
X219905500Y-147260403D01*
X219874339Y-147063661D01*
X219874338Y-147063657D01*
X219874338Y-147063656D01*
X219812786Y-146874219D01*
X219722352Y-146696733D01*
X219712655Y-146683386D01*
X219605269Y-146535582D01*
X219530918Y-146461231D01*
X219526580Y-146453287D01*
X219519334Y-146447863D01*
X219510097Y-146423101D01*
X219497433Y-146399908D01*
X219498078Y-146390880D01*
X219494915Y-146382399D01*
X219500531Y-146356575D01*
X219502417Y-146330216D01*
X219508234Y-146321164D01*
X219509765Y-146314126D01*
X219530911Y-146285878D01*
X219530913Y-146285874D01*
X219562072Y-146254716D01*
X219562073Y-146254713D01*
X227858506Y-137958280D01*
X227858511Y-137958276D01*
X227868714Y-137948072D01*
X227868716Y-137948072D01*
X227980520Y-137836268D01*
X228059577Y-137699336D01*
X228100500Y-137546609D01*
X228100500Y-132089060D01*
X228100501Y-132089047D01*
X228100501Y-131920944D01*
X228100501Y-131920943D01*
X228059577Y-131768216D01*
X227982215Y-131634219D01*
X227980524Y-131631290D01*
X227980518Y-131631282D01*
X220487590Y-124138355D01*
X220487588Y-124138352D01*
X220368717Y-124019481D01*
X220368716Y-124019480D01*
X220281904Y-123969360D01*
X220281904Y-123969359D01*
X220281900Y-123969358D01*
X220231785Y-123940423D01*
X220079057Y-123899499D01*
X219920943Y-123899499D01*
X219913347Y-123899499D01*
X219913331Y-123899500D01*
X219830260Y-123899500D01*
X219763221Y-123879815D01*
X219724534Y-123840293D01*
X219722352Y-123836733D01*
X219605269Y-123675582D01*
X219464418Y-123534731D01*
X219303266Y-123417647D01*
X219151827Y-123340485D01*
X219101031Y-123292510D01*
X219084236Y-123224689D01*
X219106773Y-123158554D01*
X219151827Y-123119515D01*
X219161116Y-123114781D01*
X219303266Y-123042353D01*
X219464418Y-122925269D01*
X219605269Y-122784418D01*
X219722353Y-122623266D01*
X219812785Y-122445783D01*
X219874339Y-122256339D01*
X219905500Y-122059597D01*
X219905500Y-121860403D01*
X219874339Y-121663661D01*
X219874338Y-121663657D01*
X219874338Y-121663656D01*
X219812786Y-121474219D01*
X219722352Y-121296733D01*
X219605269Y-121135582D01*
X219464418Y-120994731D01*
X219303266Y-120877647D01*
X219151827Y-120800485D01*
X219101031Y-120752510D01*
X219084236Y-120684689D01*
X219106773Y-120618554D01*
X219151827Y-120579515D01*
X219161116Y-120574781D01*
X219303266Y-120502353D01*
X219464418Y-120385269D01*
X219605269Y-120244418D01*
X219722353Y-120083266D01*
X219812785Y-119905783D01*
X219812786Y-119905780D01*
X219874338Y-119716343D01*
X219874338Y-119716342D01*
X219874339Y-119716339D01*
X219905500Y-119519597D01*
X219905500Y-119320403D01*
X219874339Y-119123661D01*
X219874338Y-119123657D01*
X219874338Y-119123656D01*
X219812786Y-118934219D01*
X219722352Y-118756733D01*
X219605269Y-118595582D01*
X219464418Y-118454731D01*
X219303266Y-118337647D01*
X219151827Y-118260485D01*
X219101031Y-118212510D01*
X219084236Y-118144689D01*
X219106773Y-118078554D01*
X219151827Y-118039515D01*
X219161116Y-118034781D01*
X219303266Y-117962353D01*
X219464418Y-117845269D01*
X219605269Y-117704418D01*
X219722353Y-117543266D01*
X219812785Y-117365783D01*
X219874339Y-117176339D01*
X219905500Y-116979597D01*
X219905500Y-116780403D01*
X219874339Y-116583661D01*
X219874337Y-116583655D01*
X219873366Y-116579609D01*
X219873884Y-116569233D01*
X219870255Y-116559500D01*
X219875599Y-116534934D01*
X219876855Y-116509827D01*
X219883294Y-116499566D01*
X219885109Y-116491228D01*
X219906259Y-116462976D01*
X219918421Y-116450815D01*
X219979746Y-116417333D01*
X220006099Y-116414500D01*
X240149954Y-116414500D01*
X240216993Y-116434185D01*
X240262748Y-116486989D01*
X240272692Y-116556147D01*
X240267884Y-116576820D01*
X240265661Y-116583660D01*
X240265660Y-116583663D01*
X240234500Y-116780403D01*
X240234500Y-116979596D01*
X240265661Y-117176340D01*
X240265661Y-117176343D01*
X240327213Y-117365780D01*
X240327215Y-117365783D01*
X240417647Y-117543266D01*
X240534731Y-117704418D01*
X240675582Y-117845269D01*
X240836734Y-117962353D01*
X240906453Y-117997877D01*
X240988172Y-118039515D01*
X241038968Y-118087490D01*
X241055763Y-118155311D01*
X241033225Y-118221446D01*
X240988172Y-118260485D01*
X240836733Y-118337647D01*
X240744790Y-118404447D01*
X240675582Y-118454731D01*
X240675580Y-118454733D01*
X240675579Y-118454733D01*
X240534733Y-118595579D01*
X240534733Y-118595580D01*
X240534731Y-118595582D01*
X240484447Y-118664790D01*
X240417647Y-118756733D01*
X240327213Y-118934219D01*
X240265661Y-119123656D01*
X240265661Y-119123659D01*
X240234500Y-119320403D01*
X240234500Y-119519596D01*
X240265661Y-119716340D01*
X240265661Y-119716343D01*
X240327213Y-119905780D01*
X240385144Y-120019475D01*
X240417647Y-120083266D01*
X240534731Y-120244418D01*
X240675582Y-120385269D01*
X240836734Y-120502353D01*
X240906453Y-120537877D01*
X240988172Y-120579515D01*
X241038968Y-120627490D01*
X241055763Y-120695311D01*
X241033225Y-120761446D01*
X240988172Y-120800485D01*
X240836733Y-120877647D01*
X240744790Y-120944447D01*
X240675582Y-120994731D01*
X240675580Y-120994733D01*
X240675579Y-120994733D01*
X240534733Y-121135579D01*
X240534733Y-121135580D01*
X240534731Y-121135582D01*
X240507553Y-121172989D01*
X240417647Y-121296733D01*
X240327213Y-121474219D01*
X240265661Y-121663656D01*
X240265661Y-121663659D01*
X240234500Y-121860403D01*
X240234500Y-122059596D01*
X240265661Y-122256340D01*
X240265661Y-122256343D01*
X240327213Y-122445780D01*
X240327215Y-122445783D01*
X240417647Y-122623266D01*
X240534731Y-122784418D01*
X240675582Y-122925269D01*
X240836734Y-123042353D01*
X240906453Y-123077877D01*
X240988172Y-123119515D01*
X241038968Y-123167490D01*
X241055763Y-123235311D01*
X241033225Y-123301446D01*
X240988172Y-123340485D01*
X240836733Y-123417647D01*
X240744790Y-123484447D01*
X240675582Y-123534731D01*
X240675580Y-123534733D01*
X240675579Y-123534733D01*
X240534733Y-123675579D01*
X240534733Y-123675580D01*
X240534731Y-123675582D01*
X240484447Y-123744790D01*
X240417647Y-123836733D01*
X240327213Y-124014219D01*
X240265661Y-124203656D01*
X240265661Y-124203659D01*
X240234500Y-124400403D01*
X240234500Y-124599596D01*
X240265661Y-124796340D01*
X240265661Y-124796343D01*
X240327213Y-124985780D01*
X240327215Y-124985783D01*
X240417647Y-125163266D01*
X240534731Y-125324418D01*
X240675582Y-125465269D01*
X240836734Y-125582353D01*
X240906453Y-125617877D01*
X240988172Y-125659515D01*
X241038968Y-125707490D01*
X241055763Y-125775311D01*
X241033225Y-125841446D01*
X240988172Y-125880485D01*
X240836733Y-125957647D01*
X240744790Y-126024447D01*
X240675582Y-126074731D01*
X240675580Y-126074733D01*
X240675579Y-126074733D01*
X240534733Y-126215579D01*
X240534733Y-126215580D01*
X240534731Y-126215582D01*
X240484447Y-126284790D01*
X240417647Y-126376733D01*
X240327213Y-126554219D01*
X240265661Y-126743656D01*
X240265661Y-126743659D01*
X240234500Y-126940403D01*
X240234500Y-127139596D01*
X240265661Y-127336340D01*
X240265661Y-127336343D01*
X240327213Y-127525780D01*
X240327215Y-127525783D01*
X240417647Y-127703266D01*
X240534731Y-127864418D01*
X240675582Y-128005269D01*
X240836734Y-128122353D01*
X240906453Y-128157877D01*
X240988172Y-128199515D01*
X241038968Y-128247490D01*
X241055763Y-128315311D01*
X241033225Y-128381446D01*
X240988172Y-128420485D01*
X240836733Y-128497647D01*
X240744790Y-128564447D01*
X240675582Y-128614731D01*
X240675580Y-128614733D01*
X240675579Y-128614733D01*
X240534733Y-128755579D01*
X240534733Y-128755580D01*
X240534731Y-128755582D01*
X240484447Y-128824790D01*
X240417647Y-128916733D01*
X240327213Y-129094219D01*
X240265661Y-129283656D01*
X240265661Y-129283659D01*
X240234500Y-129480403D01*
X240234500Y-129679596D01*
X240265661Y-129876340D01*
X240265661Y-129876343D01*
X240327213Y-130065780D01*
X240327215Y-130065783D01*
X240417647Y-130243266D01*
X240534731Y-130404418D01*
X240675582Y-130545269D01*
X240836734Y-130662353D01*
X240906453Y-130697877D01*
X240988172Y-130739515D01*
X241038968Y-130787490D01*
X241055763Y-130855311D01*
X241033225Y-130921446D01*
X240988172Y-130960485D01*
X240836733Y-131037647D01*
X240744790Y-131104447D01*
X240675582Y-131154731D01*
X240675580Y-131154733D01*
X240675579Y-131154733D01*
X240534733Y-131295579D01*
X240534733Y-131295580D01*
X240534731Y-131295582D01*
X240484447Y-131364790D01*
X240417647Y-131456733D01*
X240327213Y-131634219D01*
X240265661Y-131823656D01*
X240265661Y-131823659D01*
X240234500Y-132020403D01*
X240234500Y-132219596D01*
X240265661Y-132416340D01*
X240265661Y-132416343D01*
X240327213Y-132605780D01*
X240385006Y-132719205D01*
X240397902Y-132787875D01*
X240371625Y-132852615D01*
X240314519Y-132892872D01*
X240274521Y-132899500D01*
X235086670Y-132899500D01*
X235086654Y-132899499D01*
X235079058Y-132899499D01*
X234920943Y-132899499D01*
X234844579Y-132919961D01*
X234768214Y-132940423D01*
X234768209Y-132940426D01*
X234631290Y-133019475D01*
X234631286Y-133019478D01*
X234485337Y-133165427D01*
X234424014Y-133198911D01*
X234421848Y-133199362D01*
X234266508Y-133230261D01*
X234266498Y-133230264D01*
X234120827Y-133290602D01*
X234120814Y-133290609D01*
X233989711Y-133378210D01*
X233989707Y-133378213D01*
X233878213Y-133489707D01*
X233878210Y-133489711D01*
X233790609Y-133620814D01*
X233790602Y-133620827D01*
X233730264Y-133766498D01*
X233730261Y-133766510D01*
X233699500Y-133921153D01*
X233699500Y-134078846D01*
X233730261Y-134233489D01*
X233730264Y-134233501D01*
X233790602Y-134379172D01*
X233790609Y-134379185D01*
X233878210Y-134510288D01*
X233878213Y-134510292D01*
X233989707Y-134621786D01*
X233989711Y-134621789D01*
X234120814Y-134709390D01*
X234120827Y-134709397D01*
X234256274Y-134765500D01*
X234266503Y-134769737D01*
X234399651Y-134796222D01*
X234421153Y-134800499D01*
X234421156Y-134800500D01*
X234421158Y-134800500D01*
X234578844Y-134800500D01*
X234578845Y-134800499D01*
X234733497Y-134769737D01*
X234879179Y-134709394D01*
X235010289Y-134621789D01*
X235121789Y-134510289D01*
X235209394Y-134379179D01*
X235269737Y-134233497D01*
X235276339Y-134200309D01*
X235308724Y-134138398D01*
X235369439Y-134103824D01*
X235397956Y-134100500D01*
X240180496Y-134100500D01*
X240247535Y-134120185D01*
X240293290Y-134172989D01*
X240303234Y-134242147D01*
X240298427Y-134262819D01*
X240265660Y-134363660D01*
X240244067Y-134499999D01*
X240234500Y-134560403D01*
X240234500Y-134759597D01*
X240242982Y-134813147D01*
X240265661Y-134956340D01*
X240265661Y-134956343D01*
X240327213Y-135145780D01*
X240355280Y-135200864D01*
X240417647Y-135323266D01*
X240534731Y-135484418D01*
X240675582Y-135625269D01*
X240836734Y-135742353D01*
X240906453Y-135777877D01*
X240988172Y-135819515D01*
X241038968Y-135867490D01*
X241055763Y-135935311D01*
X241033225Y-136001446D01*
X240988172Y-136040485D01*
X240836733Y-136117647D01*
X240744790Y-136184447D01*
X240675582Y-136234731D01*
X240675580Y-136234733D01*
X240675579Y-136234733D01*
X240534733Y-136375579D01*
X240534733Y-136375580D01*
X240534731Y-136375582D01*
X240484447Y-136444790D01*
X240417647Y-136536733D01*
X240327213Y-136714219D01*
X240265661Y-136903656D01*
X240265661Y-136903659D01*
X240234500Y-137100403D01*
X240234500Y-137299596D01*
X240265661Y-137496340D01*
X240265661Y-137496343D01*
X240327213Y-137685780D01*
X240403887Y-137836261D01*
X240417647Y-137863266D01*
X240534731Y-138024418D01*
X240675582Y-138165269D01*
X240836734Y-138282353D01*
X240877545Y-138303147D01*
X240988172Y-138359515D01*
X241038968Y-138407490D01*
X241055763Y-138475311D01*
X241033225Y-138541446D01*
X240988172Y-138580485D01*
X240836733Y-138657647D01*
X240744790Y-138724447D01*
X240675582Y-138774731D01*
X240675580Y-138774733D01*
X240675579Y-138774733D01*
X240534733Y-138915579D01*
X240534733Y-138915580D01*
X240534731Y-138915582D01*
X240491383Y-138975245D01*
X240417647Y-139076733D01*
X240327213Y-139254219D01*
X240265661Y-139443656D01*
X240265661Y-139443659D01*
X240234500Y-139640403D01*
X240234500Y-139839596D01*
X240265661Y-140036340D01*
X240265661Y-140036343D01*
X240327213Y-140225780D01*
X240327215Y-140225783D01*
X240417647Y-140403266D01*
X240534731Y-140564418D01*
X240675582Y-140705269D01*
X240836734Y-140822353D01*
X240906453Y-140857877D01*
X240988172Y-140899515D01*
X241038968Y-140947490D01*
X241055763Y-141015311D01*
X241033225Y-141081446D01*
X240988172Y-141120485D01*
X240836733Y-141197647D01*
X240744790Y-141264447D01*
X240675582Y-141314731D01*
X240675580Y-141314733D01*
X240675579Y-141314733D01*
X240534733Y-141455579D01*
X240534733Y-141455580D01*
X240534731Y-141455582D01*
X240484447Y-141524790D01*
X240417647Y-141616733D01*
X240327213Y-141794219D01*
X240265661Y-141983656D01*
X240265661Y-141983659D01*
X240234500Y-142180403D01*
X240234500Y-142379596D01*
X240265661Y-142576340D01*
X240265661Y-142576343D01*
X240327213Y-142765780D01*
X240327215Y-142765783D01*
X240417647Y-142943266D01*
X240534731Y-143104418D01*
X240675582Y-143245269D01*
X240836734Y-143362353D01*
X240906453Y-143397877D01*
X240988172Y-143439515D01*
X241038968Y-143487490D01*
X241055763Y-143555311D01*
X241033225Y-143621446D01*
X240988172Y-143660485D01*
X240836733Y-143737647D01*
X240744790Y-143804447D01*
X240675582Y-143854731D01*
X240675580Y-143854733D01*
X240675579Y-143854733D01*
X240534733Y-143995579D01*
X240534733Y-143995580D01*
X240534731Y-143995582D01*
X240484447Y-144064790D01*
X240417647Y-144156733D01*
X240327213Y-144334219D01*
X240265661Y-144523656D01*
X240265661Y-144523659D01*
X240234500Y-144720403D01*
X240234500Y-144919596D01*
X240265661Y-145116340D01*
X240265661Y-145116343D01*
X240327213Y-145305780D01*
X240327215Y-145305783D01*
X240417647Y-145483266D01*
X240534731Y-145644418D01*
X240675582Y-145785269D01*
X240836734Y-145902353D01*
X240926909Y-145948299D01*
X240988722Y-145979795D01*
X241039518Y-146027770D01*
X241056313Y-146095591D01*
X241033776Y-146161726D01*
X240988723Y-146200764D01*
X240836993Y-146278075D01*
X240799135Y-146305580D01*
X240799135Y-146305581D01*
X241362425Y-146868871D01*
X241303147Y-146884755D01*
X241186853Y-146951898D01*
X241091898Y-147046853D01*
X241024755Y-147163147D01*
X241008871Y-147222425D01*
X240445581Y-146659135D01*
X240445580Y-146659135D01*
X240418077Y-146696990D01*
X240327679Y-146874405D01*
X240266147Y-147063777D01*
X240235000Y-147260436D01*
X240235000Y-147459563D01*
X240266147Y-147656222D01*
X240327679Y-147845594D01*
X240418077Y-148023008D01*
X240445580Y-148060863D01*
X240445581Y-148060864D01*
X241008871Y-147497574D01*
X241024755Y-147556853D01*
X241091898Y-147673147D01*
X241186853Y-147768102D01*
X241303147Y-147835245D01*
X241362425Y-147851128D01*
X240799134Y-148414417D01*
X240836999Y-148441928D01*
X240989272Y-148519516D01*
X241040068Y-148567490D01*
X241056863Y-148635311D01*
X241034325Y-148701446D01*
X240989272Y-148740484D01*
X240836996Y-148818073D01*
X240836995Y-148818074D01*
X240799135Y-148845580D01*
X240799135Y-148845581D01*
X241362425Y-149408871D01*
X241303147Y-149424755D01*
X241186853Y-149491898D01*
X241091898Y-149586853D01*
X241024755Y-149703147D01*
X241008871Y-149762425D01*
X240445581Y-149199135D01*
X240445580Y-149199135D01*
X240418077Y-149236990D01*
X240327679Y-149414405D01*
X240266147Y-149603777D01*
X240235000Y-149800436D01*
X240235000Y-149999563D01*
X240266147Y-150196222D01*
X240327679Y-150385594D01*
X240418077Y-150563008D01*
X240445580Y-150600863D01*
X240445581Y-150600864D01*
X241008871Y-150037574D01*
X241024755Y-150096853D01*
X241091898Y-150213147D01*
X241186853Y-150308102D01*
X241303147Y-150375245D01*
X241362425Y-150391128D01*
X240799134Y-150954417D01*
X240836994Y-150981924D01*
X241014405Y-151072320D01*
X241203777Y-151133852D01*
X241400437Y-151165000D01*
X241599563Y-151165000D01*
X241796222Y-151133852D01*
X241985594Y-151072320D01*
X242163005Y-150981924D01*
X242200863Y-150954418D01*
X242200863Y-150954417D01*
X241637574Y-150391128D01*
X241696853Y-150375245D01*
X241813147Y-150308102D01*
X241908102Y-150213147D01*
X241975245Y-150096853D01*
X241991128Y-150037574D01*
X242554417Y-150600863D01*
X242554418Y-150600863D01*
X242581924Y-150563005D01*
X242672320Y-150385594D01*
X242733852Y-150196222D01*
X242765000Y-149999563D01*
X242765000Y-149800436D01*
X242733852Y-149603777D01*
X242672320Y-149414405D01*
X242581924Y-149236994D01*
X242554417Y-149199135D01*
X242554417Y-149199134D01*
X241991128Y-149762424D01*
X241975245Y-149703147D01*
X241908102Y-149586853D01*
X241813147Y-149491898D01*
X241696853Y-149424755D01*
X241637574Y-149408871D01*
X242200864Y-148845581D01*
X242200863Y-148845580D01*
X242163008Y-148818077D01*
X242010727Y-148740485D01*
X241959931Y-148692510D01*
X241943136Y-148624689D01*
X241965674Y-148558554D01*
X242010727Y-148519515D01*
X242163005Y-148441924D01*
X242200863Y-148414418D01*
X242200863Y-148414417D01*
X241637574Y-147851128D01*
X241696853Y-147835245D01*
X241813147Y-147768102D01*
X241908102Y-147673147D01*
X241975245Y-147556853D01*
X241991128Y-147497574D01*
X242554417Y-148060863D01*
X242554418Y-148060863D01*
X242581924Y-148023005D01*
X242672320Y-147845594D01*
X242733852Y-147656222D01*
X242765000Y-147459563D01*
X242765000Y-147260436D01*
X242733852Y-147063777D01*
X242672320Y-146874405D01*
X242581924Y-146696994D01*
X242554417Y-146659135D01*
X242554417Y-146659134D01*
X241991128Y-147222424D01*
X241975245Y-147163147D01*
X241908102Y-147046853D01*
X241813147Y-146951898D01*
X241696853Y-146884755D01*
X241637574Y-146868871D01*
X242200864Y-146305581D01*
X242200863Y-146305580D01*
X242163008Y-146278077D01*
X242011277Y-146200765D01*
X241960481Y-146152790D01*
X241943686Y-146084969D01*
X241966224Y-146018834D01*
X242011277Y-145979795D01*
X242163266Y-145902353D01*
X242324418Y-145785269D01*
X242465269Y-145644418D01*
X242582353Y-145483266D01*
X242672785Y-145305783D01*
X242734339Y-145116339D01*
X242765500Y-144919597D01*
X242765500Y-144720403D01*
X242734339Y-144523661D01*
X242734338Y-144523657D01*
X242734338Y-144523656D01*
X242672786Y-144334219D01*
X242635186Y-144260425D01*
X242582353Y-144156734D01*
X242465269Y-143995582D01*
X242324418Y-143854731D01*
X242163266Y-143737647D01*
X242011827Y-143660485D01*
X241961031Y-143612510D01*
X241944236Y-143544689D01*
X241966773Y-143478554D01*
X242011827Y-143439515D01*
X242021116Y-143434781D01*
X242163266Y-143362353D01*
X242324418Y-143245269D01*
X242465269Y-143104418D01*
X242582353Y-142943266D01*
X242672785Y-142765783D01*
X242734339Y-142576339D01*
X242765500Y-142379597D01*
X242765500Y-142180403D01*
X242734339Y-141983661D01*
X242734338Y-141983657D01*
X242734338Y-141983656D01*
X242672786Y-141794219D01*
X242582352Y-141616733D01*
X242465269Y-141455582D01*
X242324418Y-141314731D01*
X242163266Y-141197647D01*
X242011827Y-141120485D01*
X241961031Y-141072510D01*
X241944236Y-141004689D01*
X241966773Y-140938554D01*
X242011827Y-140899515D01*
X242021116Y-140894781D01*
X242163266Y-140822353D01*
X242324418Y-140705269D01*
X242465269Y-140564418D01*
X242582353Y-140403266D01*
X242672785Y-140225783D01*
X242734339Y-140036339D01*
X242765500Y-139839597D01*
X242765500Y-139640403D01*
X242734339Y-139443661D01*
X242734338Y-139443656D01*
X242672786Y-139254219D01*
X242645600Y-139200863D01*
X242582353Y-139076734D01*
X242465269Y-138915582D01*
X242324418Y-138774731D01*
X242163266Y-138657647D01*
X242011827Y-138580485D01*
X242002673Y-138571840D01*
X241991007Y-138567105D01*
X241977752Y-138548303D01*
X241961031Y-138532510D01*
X241958004Y-138520289D01*
X241950750Y-138509998D01*
X241949764Y-138487015D01*
X241944236Y-138464689D01*
X241948297Y-138452771D01*
X241947758Y-138440193D01*
X241959352Y-138420329D01*
X241966132Y-138400436D01*
X359735000Y-138400436D01*
X359735000Y-138599563D01*
X359766147Y-138796222D01*
X359827679Y-138985594D01*
X359918077Y-139163008D01*
X359945580Y-139200863D01*
X359945581Y-139200864D01*
X360508871Y-138637574D01*
X360524755Y-138696853D01*
X360591898Y-138813147D01*
X360686853Y-138908102D01*
X360803147Y-138975245D01*
X360862425Y-138991128D01*
X360299134Y-139554417D01*
X360336994Y-139581924D01*
X360514405Y-139672320D01*
X360703777Y-139733852D01*
X360900437Y-139765000D01*
X361099563Y-139765000D01*
X361296222Y-139733852D01*
X361485594Y-139672320D01*
X361663005Y-139581924D01*
X361700863Y-139554418D01*
X361700863Y-139554417D01*
X361137574Y-138991128D01*
X361196853Y-138975245D01*
X361313147Y-138908102D01*
X361408102Y-138813147D01*
X361475245Y-138696853D01*
X361491128Y-138637574D01*
X362054417Y-139200863D01*
X362054418Y-139200863D01*
X362081924Y-139163005D01*
X362172320Y-138985594D01*
X362233852Y-138796222D01*
X362265000Y-138599563D01*
X362265000Y-138400436D01*
X362233852Y-138203777D01*
X362172320Y-138014405D01*
X362081924Y-137836994D01*
X362054417Y-137799135D01*
X362054417Y-137799134D01*
X361491128Y-138362424D01*
X361475245Y-138303147D01*
X361408102Y-138186853D01*
X361313147Y-138091898D01*
X361196853Y-138024755D01*
X361137574Y-138008871D01*
X361700864Y-137445581D01*
X361700863Y-137445580D01*
X361663008Y-137418077D01*
X361485594Y-137327679D01*
X361296222Y-137266147D01*
X361099563Y-137235000D01*
X360900437Y-137235000D01*
X360703777Y-137266147D01*
X360514405Y-137327679D01*
X360336990Y-137418077D01*
X360299135Y-137445580D01*
X360299135Y-137445581D01*
X360862425Y-138008871D01*
X360803147Y-138024755D01*
X360686853Y-138091898D01*
X360591898Y-138186853D01*
X360524755Y-138303147D01*
X360508871Y-138362425D01*
X359945581Y-137799135D01*
X359945580Y-137799135D01*
X359918077Y-137836990D01*
X359827679Y-138014405D01*
X359766147Y-138203777D01*
X359735000Y-138400436D01*
X241966132Y-138400436D01*
X241966773Y-138398554D01*
X241977476Y-138389279D01*
X241982980Y-138379851D01*
X242011827Y-138359515D01*
X242157904Y-138285085D01*
X242157907Y-138285084D01*
X242163261Y-138282356D01*
X242163263Y-138282354D01*
X242163266Y-138282353D01*
X242324418Y-138165269D01*
X242465269Y-138024418D01*
X242582353Y-137863266D01*
X242672785Y-137685783D01*
X242672786Y-137685780D01*
X242734338Y-137496343D01*
X242734338Y-137496341D01*
X242734339Y-137496339D01*
X242742379Y-137445580D01*
X242765500Y-137299596D01*
X242765500Y-137100403D01*
X242734339Y-136903661D01*
X242734338Y-136903657D01*
X242734338Y-136903656D01*
X242672786Y-136714219D01*
X242582352Y-136536733D01*
X242465269Y-136375582D01*
X242324418Y-136234731D01*
X242163266Y-136117647D01*
X242011827Y-136040485D01*
X241961031Y-135992510D01*
X241944236Y-135924689D01*
X241966773Y-135858554D01*
X242011827Y-135819515D01*
X242021116Y-135814781D01*
X242163266Y-135742353D01*
X242324418Y-135625269D01*
X242465269Y-135484418D01*
X242582353Y-135323266D01*
X242672785Y-135145783D01*
X242716904Y-135010000D01*
X242734338Y-134956343D01*
X242734338Y-134956342D01*
X242734339Y-134956339D01*
X242765500Y-134759597D01*
X242765500Y-134560403D01*
X242734339Y-134363661D01*
X242734338Y-134363659D01*
X242701573Y-134262819D01*
X242699578Y-134192978D01*
X242735658Y-134133145D01*
X242798358Y-134102316D01*
X242819504Y-134100500D01*
X245413331Y-134100500D01*
X245413347Y-134100501D01*
X245420943Y-134100501D01*
X245579054Y-134100501D01*
X245579057Y-134100501D01*
X245731785Y-134059577D01*
X245807532Y-134015844D01*
X245868716Y-133980520D01*
X245980520Y-133868716D01*
X245980520Y-133868714D01*
X245990724Y-133858511D01*
X245990727Y-133858506D01*
X258712416Y-121136819D01*
X258773739Y-121103334D01*
X258800097Y-121100500D01*
X360275500Y-121100500D01*
X360342539Y-121120185D01*
X360388294Y-121172989D01*
X360399500Y-121224500D01*
X360399500Y-132309740D01*
X360379815Y-132376779D01*
X360340293Y-132415466D01*
X360336733Y-132417647D01*
X360244790Y-132484447D01*
X360175582Y-132534731D01*
X360175580Y-132534733D01*
X360175579Y-132534733D01*
X360034733Y-132675579D01*
X360034733Y-132675580D01*
X360034731Y-132675582D01*
X360003037Y-132719205D01*
X359917647Y-132836733D01*
X359827213Y-133014219D01*
X359765661Y-133203656D01*
X359765661Y-133203659D01*
X359761447Y-133230264D01*
X359734500Y-133400403D01*
X359734500Y-133599597D01*
X359737862Y-133620821D01*
X359765661Y-133796340D01*
X359765661Y-133796343D01*
X359827213Y-133985780D01*
X359842532Y-134015845D01*
X359917647Y-134163266D01*
X360034731Y-134324418D01*
X360175582Y-134465269D01*
X360336734Y-134582353D01*
X360370511Y-134599563D01*
X360514219Y-134672786D01*
X360703657Y-134734338D01*
X360703658Y-134734338D01*
X360703661Y-134734339D01*
X360900403Y-134765500D01*
X360900404Y-134765500D01*
X361099596Y-134765500D01*
X361099597Y-134765500D01*
X361296339Y-134734339D01*
X361296342Y-134734338D01*
X361296343Y-134734338D01*
X361485780Y-134672786D01*
X361485780Y-134672785D01*
X361485783Y-134672785D01*
X361663266Y-134582353D01*
X361824418Y-134465269D01*
X361965269Y-134324418D01*
X362082353Y-134163266D01*
X362172785Y-133985783D01*
X362193785Y-133921153D01*
X362234338Y-133796343D01*
X362234338Y-133796342D01*
X362234339Y-133796339D01*
X362265500Y-133599597D01*
X362265500Y-133400403D01*
X362234339Y-133203661D01*
X362234338Y-133203657D01*
X362234338Y-133203656D01*
X362172786Y-133014219D01*
X362172785Y-133014217D01*
X362082353Y-132836734D01*
X361965269Y-132675582D01*
X361824418Y-132534731D01*
X361663266Y-132417647D01*
X361659707Y-132415466D01*
X361612833Y-132363652D01*
X361600500Y-132309740D01*
X361600500Y-120420945D01*
X361600500Y-120420943D01*
X361559577Y-120268216D01*
X361559573Y-120268209D01*
X361480524Y-120131290D01*
X361480518Y-120131282D01*
X361368717Y-120019481D01*
X361368709Y-120019475D01*
X361231790Y-119940426D01*
X361231786Y-119940424D01*
X361231784Y-119940423D01*
X361079057Y-119899500D01*
X258579057Y-119899500D01*
X258420942Y-119899500D01*
X258268215Y-119940423D01*
X258268214Y-119940423D01*
X258268212Y-119940424D01*
X258268209Y-119940425D01*
X258218096Y-119969359D01*
X258218095Y-119969360D01*
X258174689Y-119994420D01*
X258131285Y-120019479D01*
X258131282Y-120019481D01*
X258019478Y-120131286D01*
X245287584Y-132863181D01*
X245226261Y-132896666D01*
X245199903Y-132899500D01*
X242725479Y-132899500D01*
X242658440Y-132879815D01*
X242612685Y-132827011D01*
X242602741Y-132757853D01*
X242614994Y-132719205D01*
X242637222Y-132675579D01*
X242672785Y-132605783D01*
X242734339Y-132416339D01*
X242765500Y-132219597D01*
X242765500Y-132020403D01*
X242734339Y-131823661D01*
X242734338Y-131823657D01*
X242734338Y-131823656D01*
X242672786Y-131634219D01*
X242582352Y-131456733D01*
X242465269Y-131295582D01*
X242324418Y-131154731D01*
X242163266Y-131037647D01*
X242011827Y-130960485D01*
X241961031Y-130912510D01*
X241944236Y-130844689D01*
X241966773Y-130778554D01*
X242011827Y-130739515D01*
X242021987Y-130734338D01*
X242163266Y-130662353D01*
X242324418Y-130545269D01*
X242465269Y-130404418D01*
X242582353Y-130243266D01*
X242672785Y-130065783D01*
X242734339Y-129876339D01*
X242765500Y-129679597D01*
X242765500Y-129480403D01*
X242734339Y-129283661D01*
X242734338Y-129283657D01*
X242734338Y-129283656D01*
X242672786Y-129094219D01*
X242582352Y-128916733D01*
X242524229Y-128836734D01*
X242465269Y-128755582D01*
X242324418Y-128614731D01*
X242163266Y-128497647D01*
X242011827Y-128420485D01*
X241961031Y-128372510D01*
X241944236Y-128304689D01*
X241966773Y-128238554D01*
X242011827Y-128199515D01*
X242021116Y-128194781D01*
X242163266Y-128122353D01*
X242324418Y-128005269D01*
X242465269Y-127864418D01*
X242582353Y-127703266D01*
X242672785Y-127525783D01*
X242734339Y-127336339D01*
X242765500Y-127139597D01*
X242765500Y-126940403D01*
X242734339Y-126743661D01*
X242734338Y-126743657D01*
X242734338Y-126743656D01*
X242672786Y-126554219D01*
X242582352Y-126376733D01*
X242465269Y-126215582D01*
X242324418Y-126074731D01*
X242163266Y-125957647D01*
X242011827Y-125880485D01*
X241961031Y-125832510D01*
X241944236Y-125764689D01*
X241966773Y-125698554D01*
X242011827Y-125659515D01*
X242021116Y-125654781D01*
X242163266Y-125582353D01*
X242324418Y-125465269D01*
X242465269Y-125324418D01*
X242582353Y-125163266D01*
X242672785Y-124985783D01*
X242734339Y-124796339D01*
X242765500Y-124599597D01*
X242765500Y-124400403D01*
X242734339Y-124203661D01*
X242734338Y-124203657D01*
X242734338Y-124203656D01*
X242672786Y-124014219D01*
X242614333Y-123899499D01*
X242582353Y-123836734D01*
X242465269Y-123675582D01*
X242324418Y-123534731D01*
X242163266Y-123417647D01*
X242011827Y-123340485D01*
X241961031Y-123292510D01*
X241944236Y-123224689D01*
X241966773Y-123158554D01*
X242011827Y-123119515D01*
X242021116Y-123114781D01*
X242163266Y-123042353D01*
X242324418Y-122925269D01*
X242465269Y-122784418D01*
X242582353Y-122623266D01*
X242672785Y-122445783D01*
X242734339Y-122256339D01*
X242765500Y-122059597D01*
X242765500Y-121860403D01*
X242734339Y-121663661D01*
X242734338Y-121663657D01*
X242734338Y-121663656D01*
X242672786Y-121474219D01*
X242582352Y-121296733D01*
X242465269Y-121135582D01*
X242324418Y-120994731D01*
X242163266Y-120877647D01*
X242011827Y-120800485D01*
X241961031Y-120752510D01*
X241944236Y-120684689D01*
X241966773Y-120618554D01*
X242011827Y-120579515D01*
X242021116Y-120574781D01*
X242163266Y-120502353D01*
X242324418Y-120385269D01*
X242465269Y-120244418D01*
X242582353Y-120083266D01*
X242672785Y-119905783D01*
X242672786Y-119905780D01*
X242734338Y-119716343D01*
X242734338Y-119716342D01*
X242734339Y-119716339D01*
X242765500Y-119519597D01*
X242765500Y-119320403D01*
X242734339Y-119123661D01*
X242734338Y-119123657D01*
X242734338Y-119123656D01*
X242672786Y-118934219D01*
X242582352Y-118756733D01*
X242465269Y-118595582D01*
X242324418Y-118454731D01*
X242163266Y-118337647D01*
X242011827Y-118260485D01*
X241961031Y-118212510D01*
X241944236Y-118144689D01*
X241966773Y-118078554D01*
X242011827Y-118039515D01*
X242021116Y-118034781D01*
X242163266Y-117962353D01*
X242324418Y-117845269D01*
X242465269Y-117704418D01*
X242582353Y-117543266D01*
X242672785Y-117365783D01*
X242734339Y-117176339D01*
X242765500Y-116979597D01*
X242765500Y-116780403D01*
X242734339Y-116583661D01*
X242732115Y-116576819D01*
X242730119Y-116506979D01*
X242766199Y-116447146D01*
X242828899Y-116416316D01*
X242850046Y-116414500D01*
X359599331Y-116414500D01*
X359599347Y-116414501D01*
X359606943Y-116414501D01*
X359765054Y-116414501D01*
X359765057Y-116414501D01*
X359917785Y-116373577D01*
X359967904Y-116344639D01*
X360054716Y-116294520D01*
X360166520Y-116182716D01*
X360166520Y-116182714D01*
X360176728Y-116172507D01*
X360176730Y-116172504D01*
X387948797Y-88400436D01*
X390735000Y-88400436D01*
X390735000Y-88599563D01*
X390766147Y-88796222D01*
X390827679Y-88985594D01*
X390918077Y-89163008D01*
X390945580Y-89200863D01*
X390945581Y-89200864D01*
X391508871Y-88637574D01*
X391524755Y-88696853D01*
X391591898Y-88813147D01*
X391686853Y-88908102D01*
X391803147Y-88975245D01*
X391862425Y-88991128D01*
X391299134Y-89554417D01*
X391336994Y-89581924D01*
X391514405Y-89672320D01*
X391703777Y-89733852D01*
X391900437Y-89765000D01*
X392099563Y-89765000D01*
X392296222Y-89733852D01*
X392485594Y-89672320D01*
X392663005Y-89581924D01*
X392700863Y-89554418D01*
X392700863Y-89554417D01*
X392137574Y-88991128D01*
X392196853Y-88975245D01*
X392313147Y-88908102D01*
X392408102Y-88813147D01*
X392475245Y-88696853D01*
X392491128Y-88637574D01*
X393054417Y-89200863D01*
X393054418Y-89200863D01*
X393081924Y-89163005D01*
X393172320Y-88985594D01*
X393233852Y-88796222D01*
X393265000Y-88599563D01*
X393265000Y-88400436D01*
X393233852Y-88203777D01*
X393172320Y-88014405D01*
X393081924Y-87836994D01*
X393054417Y-87799135D01*
X393054417Y-87799134D01*
X392491128Y-88362424D01*
X392475245Y-88303147D01*
X392408102Y-88186853D01*
X392313147Y-88091898D01*
X392196853Y-88024755D01*
X392137574Y-88008871D01*
X392700864Y-87445581D01*
X392700863Y-87445580D01*
X392663008Y-87418077D01*
X392485594Y-87327679D01*
X392296222Y-87266147D01*
X392099563Y-87235000D01*
X391900437Y-87235000D01*
X391703777Y-87266147D01*
X391514405Y-87327679D01*
X391336990Y-87418077D01*
X391299135Y-87445580D01*
X391299135Y-87445581D01*
X391862425Y-88008871D01*
X391803147Y-88024755D01*
X391686853Y-88091898D01*
X391591898Y-88186853D01*
X391524755Y-88303147D01*
X391508871Y-88362425D01*
X390945581Y-87799135D01*
X390945580Y-87799135D01*
X390918077Y-87836990D01*
X390827679Y-88014405D01*
X390766147Y-88203777D01*
X390735000Y-88400436D01*
X387948797Y-88400436D01*
X391582978Y-84766255D01*
X391644299Y-84732772D01*
X391699614Y-84733366D01*
X391703644Y-84734333D01*
X391703661Y-84734339D01*
X391900403Y-84765500D01*
X391900404Y-84765500D01*
X392099596Y-84765500D01*
X392099597Y-84765500D01*
X392296339Y-84734339D01*
X392296342Y-84734338D01*
X392296343Y-84734338D01*
X392485780Y-84672786D01*
X392485780Y-84672785D01*
X392485783Y-84672785D01*
X392663266Y-84582353D01*
X392824418Y-84465269D01*
X392965269Y-84324418D01*
X393082353Y-84163266D01*
X393172785Y-83985783D01*
X393210822Y-83868717D01*
X393234338Y-83796343D01*
X393234338Y-83796342D01*
X393234339Y-83796339D01*
X393265500Y-83599597D01*
X393265500Y-83400403D01*
X393234339Y-83203661D01*
X393234338Y-83203657D01*
X393234338Y-83203656D01*
X393172786Y-83014219D01*
X393082352Y-82836733D01*
X392965269Y-82675582D01*
X392824418Y-82534731D01*
X392663266Y-82417647D01*
X392485780Y-82327213D01*
X392296342Y-82265661D01*
X392148782Y-82242290D01*
X392099597Y-82234500D01*
X391900403Y-82234500D01*
X391834822Y-82244887D01*
X391703659Y-82265661D01*
X391676589Y-82274456D01*
X391606748Y-82276449D01*
X391546916Y-82240367D01*
X391530889Y-82218527D01*
X391480519Y-82131284D01*
X391368716Y-82019481D01*
X391300250Y-81979952D01*
X391231786Y-81940423D01*
X391155421Y-81919961D01*
X391079057Y-81899500D01*
X390920943Y-81899500D01*
X390768213Y-81940423D01*
X390631282Y-82019482D01*
X390565284Y-82085480D01*
X390453481Y-82197282D01*
X390453480Y-82197284D01*
X390407775Y-82276449D01*
X390403361Y-82284094D01*
X390403359Y-82284096D01*
X390374425Y-82334209D01*
X390374424Y-82334210D01*
X390374423Y-82334215D01*
X390333499Y-82486943D01*
X390333499Y-82486945D01*
X390333499Y-82655046D01*
X390333500Y-82655059D01*
X390333500Y-83579057D01*
X390339004Y-83599596D01*
X390374423Y-83731783D01*
X390374426Y-83731790D01*
X390453475Y-83868709D01*
X390453481Y-83868717D01*
X390530083Y-83945319D01*
X390563568Y-84006642D01*
X390558584Y-84076334D01*
X390530083Y-84120681D01*
X359473584Y-115177181D01*
X359412261Y-115210666D01*
X359385903Y-115213500D01*
X242672973Y-115213500D01*
X242605934Y-115193815D01*
X242560179Y-115141011D01*
X242550235Y-115071853D01*
X242572655Y-115016614D01*
X242582353Y-115003266D01*
X242672785Y-114825783D01*
X242734339Y-114636339D01*
X242765500Y-114439597D01*
X242765500Y-114240403D01*
X242734339Y-114043661D01*
X242734338Y-114043657D01*
X242734338Y-114043656D01*
X242672786Y-113854219D01*
X242582352Y-113676733D01*
X242465269Y-113515582D01*
X242324418Y-113374731D01*
X242163266Y-113257647D01*
X242011827Y-113180485D01*
X241961031Y-113132510D01*
X241944236Y-113064689D01*
X241966773Y-112998554D01*
X242011827Y-112959515D01*
X242021116Y-112954781D01*
X242163266Y-112882353D01*
X242324418Y-112765269D01*
X242465269Y-112624418D01*
X242582353Y-112463266D01*
X242672785Y-112285783D01*
X242734339Y-112096339D01*
X242765500Y-111899597D01*
X242765500Y-111700403D01*
X242734339Y-111503661D01*
X242734338Y-111503657D01*
X242734338Y-111503656D01*
X242672786Y-111314219D01*
X242582352Y-111136733D01*
X242465269Y-110975582D01*
X242324418Y-110834731D01*
X242163266Y-110717647D01*
X242011827Y-110640485D01*
X241961031Y-110592510D01*
X241944236Y-110524689D01*
X241966773Y-110458554D01*
X242011827Y-110419515D01*
X242021116Y-110414781D01*
X242163266Y-110342353D01*
X242324418Y-110225269D01*
X242465269Y-110084418D01*
X242582353Y-109923266D01*
X242672785Y-109745783D01*
X242734339Y-109556339D01*
X242765500Y-109359597D01*
X242765500Y-109160403D01*
X242734339Y-108963661D01*
X242734338Y-108963657D01*
X242734338Y-108963656D01*
X242672786Y-108774219D01*
X242672785Y-108774217D01*
X242582353Y-108596734D01*
X242465269Y-108435582D01*
X242324418Y-108294731D01*
X242163266Y-108177647D01*
X242011827Y-108100485D01*
X241961031Y-108052510D01*
X241944236Y-107984689D01*
X241966773Y-107918554D01*
X242011827Y-107879515D01*
X242021116Y-107874781D01*
X242163266Y-107802353D01*
X242324418Y-107685269D01*
X242465269Y-107544418D01*
X242582353Y-107383266D01*
X242672785Y-107205783D01*
X242734339Y-107016339D01*
X242765500Y-106819597D01*
X242765500Y-106620403D01*
X242734339Y-106423661D01*
X242734338Y-106423657D01*
X242734338Y-106423656D01*
X242672786Y-106234219D01*
X242582352Y-106056733D01*
X242465269Y-105895582D01*
X242324418Y-105754731D01*
X242163266Y-105637647D01*
X242011827Y-105560485D01*
X241961031Y-105512510D01*
X241944236Y-105444689D01*
X241966773Y-105378554D01*
X242011827Y-105339515D01*
X242021116Y-105334781D01*
X242163266Y-105262353D01*
X242324418Y-105145269D01*
X242465269Y-105004418D01*
X242582353Y-104843266D01*
X242672785Y-104665783D01*
X242734339Y-104476339D01*
X242765500Y-104279597D01*
X242765500Y-104080403D01*
X242734339Y-103883661D01*
X242734338Y-103883657D01*
X242734338Y-103883656D01*
X242672786Y-103694219D01*
X242582352Y-103516733D01*
X242465269Y-103355582D01*
X242324418Y-103214731D01*
X242163266Y-103097647D01*
X242011827Y-103020485D01*
X241961031Y-102972510D01*
X241944236Y-102904689D01*
X241966773Y-102838554D01*
X242011827Y-102799515D01*
X242021116Y-102794781D01*
X242163266Y-102722353D01*
X242324418Y-102605269D01*
X242465269Y-102464418D01*
X242582353Y-102303266D01*
X242672785Y-102125783D01*
X242734339Y-101936339D01*
X242765500Y-101739597D01*
X242765500Y-101540403D01*
X242734339Y-101343661D01*
X242734338Y-101343657D01*
X242734338Y-101343656D01*
X242672786Y-101154219D01*
X242582352Y-100976733D01*
X242465269Y-100815582D01*
X242324418Y-100674731D01*
X242163266Y-100557647D01*
X242011827Y-100480485D01*
X241961031Y-100432510D01*
X241944236Y-100364689D01*
X241966773Y-100298554D01*
X242011827Y-100259515D01*
X242021116Y-100254781D01*
X242163266Y-100182353D01*
X242324418Y-100065269D01*
X242465269Y-99924418D01*
X242582353Y-99763266D01*
X242672785Y-99585783D01*
X242734339Y-99396339D01*
X242765500Y-99199597D01*
X242765500Y-99000403D01*
X242734339Y-98803661D01*
X242734338Y-98803657D01*
X242734338Y-98803656D01*
X242672786Y-98614219D01*
X242608050Y-98487167D01*
X242582353Y-98436734D01*
X242465269Y-98275582D01*
X242324418Y-98134731D01*
X242163266Y-98017647D01*
X242100500Y-97985666D01*
X242011277Y-97940204D01*
X241960481Y-97892229D01*
X241943686Y-97824408D01*
X241966224Y-97758273D01*
X242011277Y-97719234D01*
X242163005Y-97641924D01*
X242200863Y-97614418D01*
X242200863Y-97614417D01*
X241637574Y-97051128D01*
X241696853Y-97035245D01*
X241813147Y-96968102D01*
X241908102Y-96873147D01*
X241975245Y-96756853D01*
X241991128Y-96697574D01*
X242554417Y-97260863D01*
X242554418Y-97260863D01*
X242581924Y-97223005D01*
X242672320Y-97045594D01*
X242733852Y-96856222D01*
X242765000Y-96659563D01*
X242765000Y-96460436D01*
X242733852Y-96263777D01*
X242672320Y-96074405D01*
X242581924Y-95896994D01*
X242554417Y-95859135D01*
X242554417Y-95859134D01*
X241991128Y-96422424D01*
X241975245Y-96363147D01*
X241908102Y-96246853D01*
X241813147Y-96151898D01*
X241696853Y-96084755D01*
X241637574Y-96068871D01*
X242200864Y-95505581D01*
X242200863Y-95505580D01*
X242163008Y-95478077D01*
X241985594Y-95387679D01*
X241796222Y-95326147D01*
X241599563Y-95295000D01*
X241400437Y-95295000D01*
X241203777Y-95326147D01*
X241014405Y-95387679D01*
X240836990Y-95478077D01*
X240799135Y-95505580D01*
X240799135Y-95505581D01*
X241362425Y-96068871D01*
X241303147Y-96084755D01*
X241186853Y-96151898D01*
X241091898Y-96246853D01*
X241024755Y-96363147D01*
X241008871Y-96422425D01*
X240445581Y-95859135D01*
X240445580Y-95859135D01*
X240418077Y-95896990D01*
X240327679Y-96074405D01*
X240266147Y-96263777D01*
X240235000Y-96460436D01*
X240235000Y-96659563D01*
X240266147Y-96856222D01*
X240327679Y-97045594D01*
X240418077Y-97223008D01*
X240445580Y-97260863D01*
X240445581Y-97260864D01*
X241008871Y-96697574D01*
X241024755Y-96756853D01*
X241091898Y-96873147D01*
X241186853Y-96968102D01*
X241303147Y-97035245D01*
X241362425Y-97051128D01*
X240799134Y-97614417D01*
X240836994Y-97641924D01*
X240988722Y-97719234D01*
X241039518Y-97767209D01*
X241056313Y-97835030D01*
X241033776Y-97901165D01*
X240988723Y-97940203D01*
X240836735Y-98017645D01*
X240723997Y-98099555D01*
X240675582Y-98134731D01*
X240675580Y-98134733D01*
X240675579Y-98134733D01*
X240534733Y-98275579D01*
X240534733Y-98275580D01*
X240534731Y-98275582D01*
X240484447Y-98344790D01*
X240417647Y-98436733D01*
X240327213Y-98614219D01*
X240265661Y-98803656D01*
X240265661Y-98803659D01*
X240234500Y-99000403D01*
X240234500Y-99199596D01*
X240265661Y-99396340D01*
X240265661Y-99396343D01*
X240327213Y-99585780D01*
X240327215Y-99585783D01*
X240417647Y-99763266D01*
X240534731Y-99924418D01*
X240675582Y-100065269D01*
X240836734Y-100182353D01*
X240906453Y-100217877D01*
X240988172Y-100259515D01*
X241038968Y-100307490D01*
X241055763Y-100375311D01*
X241033225Y-100441446D01*
X240988172Y-100480485D01*
X240836733Y-100557647D01*
X240744790Y-100624447D01*
X240675582Y-100674731D01*
X240675580Y-100674733D01*
X240675579Y-100674733D01*
X240534733Y-100815579D01*
X240534733Y-100815580D01*
X240534731Y-100815582D01*
X240484447Y-100884790D01*
X240417647Y-100976733D01*
X240327213Y-101154219D01*
X240265661Y-101343656D01*
X240265661Y-101343659D01*
X240234500Y-101540403D01*
X240234500Y-101739596D01*
X240265661Y-101936340D01*
X240265661Y-101936343D01*
X240327213Y-102125780D01*
X240327215Y-102125783D01*
X240417647Y-102303266D01*
X240534731Y-102464418D01*
X240675582Y-102605269D01*
X240836734Y-102722353D01*
X240906453Y-102757877D01*
X240988172Y-102799515D01*
X241038968Y-102847490D01*
X241055763Y-102915311D01*
X241033225Y-102981446D01*
X240988172Y-103020485D01*
X240836733Y-103097647D01*
X240744790Y-103164447D01*
X240675582Y-103214731D01*
X240675580Y-103214733D01*
X240675579Y-103214733D01*
X240534733Y-103355579D01*
X240534733Y-103355580D01*
X240534731Y-103355582D01*
X240484447Y-103424790D01*
X240417647Y-103516733D01*
X240327213Y-103694219D01*
X240265661Y-103883656D01*
X240265661Y-103883659D01*
X240234500Y-104080403D01*
X240234500Y-104279596D01*
X240265661Y-104476340D01*
X240265661Y-104476343D01*
X240327213Y-104665780D01*
X240327215Y-104665783D01*
X240417647Y-104843266D01*
X240534731Y-105004418D01*
X240675582Y-105145269D01*
X240836734Y-105262353D01*
X240906453Y-105297877D01*
X240988172Y-105339515D01*
X241038968Y-105387490D01*
X241055763Y-105455311D01*
X241033225Y-105521446D01*
X240988172Y-105560485D01*
X240836733Y-105637647D01*
X240744790Y-105704447D01*
X240675582Y-105754731D01*
X240675580Y-105754733D01*
X240675579Y-105754733D01*
X240534733Y-105895579D01*
X240534733Y-105895580D01*
X240534731Y-105895582D01*
X240484447Y-105964790D01*
X240417647Y-106056733D01*
X240327213Y-106234219D01*
X240265661Y-106423656D01*
X240265661Y-106423659D01*
X240234500Y-106620403D01*
X240234500Y-106819596D01*
X240265661Y-107016340D01*
X240265661Y-107016343D01*
X240327213Y-107205780D01*
X240327215Y-107205783D01*
X240417647Y-107383266D01*
X240534731Y-107544418D01*
X240675582Y-107685269D01*
X240836734Y-107802353D01*
X240906453Y-107837877D01*
X240988172Y-107879515D01*
X241038968Y-107927490D01*
X241055763Y-107995311D01*
X241033225Y-108061446D01*
X240988172Y-108100485D01*
X240836733Y-108177647D01*
X240744790Y-108244447D01*
X240675582Y-108294731D01*
X240675580Y-108294733D01*
X240675579Y-108294733D01*
X240534733Y-108435579D01*
X240534733Y-108435580D01*
X240534731Y-108435582D01*
X240484447Y-108504790D01*
X240417647Y-108596733D01*
X240327213Y-108774219D01*
X240265661Y-108963656D01*
X240265661Y-108963659D01*
X240234500Y-109160403D01*
X240234500Y-109359596D01*
X240265661Y-109556340D01*
X240265661Y-109556343D01*
X240327213Y-109745780D01*
X240327215Y-109745783D01*
X240417647Y-109923266D01*
X240534731Y-110084418D01*
X240675582Y-110225269D01*
X240836734Y-110342353D01*
X240906453Y-110377877D01*
X240988172Y-110419515D01*
X241038968Y-110467490D01*
X241055763Y-110535311D01*
X241033225Y-110601446D01*
X240988172Y-110640485D01*
X240836733Y-110717647D01*
X240744790Y-110784447D01*
X240675582Y-110834731D01*
X240675580Y-110834733D01*
X240675579Y-110834733D01*
X240534733Y-110975579D01*
X240534733Y-110975580D01*
X240534731Y-110975582D01*
X240484447Y-111044790D01*
X240417647Y-111136733D01*
X240327213Y-111314219D01*
X240265661Y-111503656D01*
X240265661Y-111503659D01*
X240234500Y-111700403D01*
X240234500Y-111899596D01*
X240265661Y-112096340D01*
X240265661Y-112096343D01*
X240327213Y-112285780D01*
X240327215Y-112285783D01*
X240417647Y-112463266D01*
X240534731Y-112624418D01*
X240675582Y-112765269D01*
X240836734Y-112882353D01*
X240906453Y-112917877D01*
X240988172Y-112959515D01*
X241038968Y-113007490D01*
X241055763Y-113075311D01*
X241033225Y-113141446D01*
X240988172Y-113180485D01*
X240836733Y-113257647D01*
X240744790Y-113324447D01*
X240675582Y-113374731D01*
X240675580Y-113374733D01*
X240675579Y-113374733D01*
X240534733Y-113515579D01*
X240534733Y-113515580D01*
X240534731Y-113515582D01*
X240484447Y-113584790D01*
X240417647Y-113676733D01*
X240327213Y-113854219D01*
X240265661Y-114043656D01*
X240265661Y-114043659D01*
X240234500Y-114240403D01*
X240234500Y-114439596D01*
X240265661Y-114636340D01*
X240265661Y-114636343D01*
X240327213Y-114825780D01*
X240417647Y-115003266D01*
X240427345Y-115016614D01*
X240450825Y-115082421D01*
X240435000Y-115150475D01*
X240384894Y-115199170D01*
X240327027Y-115213500D01*
X219812973Y-115213500D01*
X219745934Y-115193815D01*
X219700179Y-115141011D01*
X219690235Y-115071853D01*
X219712655Y-115016614D01*
X219722353Y-115003266D01*
X219812785Y-114825783D01*
X219874339Y-114636339D01*
X219905500Y-114439597D01*
X219905500Y-114240403D01*
X219874339Y-114043661D01*
X219874338Y-114043657D01*
X219874338Y-114043656D01*
X219812786Y-113854219D01*
X219722352Y-113676733D01*
X219605269Y-113515582D01*
X219464418Y-113374731D01*
X219303266Y-113257647D01*
X219151827Y-113180485D01*
X219101031Y-113132510D01*
X219084236Y-113064689D01*
X219106773Y-112998554D01*
X219151827Y-112959515D01*
X219161116Y-112954781D01*
X219303266Y-112882353D01*
X219464418Y-112765269D01*
X219605269Y-112624418D01*
X219722353Y-112463266D01*
X219812785Y-112285783D01*
X219874339Y-112096339D01*
X219905500Y-111899597D01*
X219905500Y-111700403D01*
X219874339Y-111503661D01*
X219874338Y-111503657D01*
X219874338Y-111503656D01*
X219812786Y-111314219D01*
X219722352Y-111136733D01*
X219605269Y-110975582D01*
X219464418Y-110834731D01*
X219303266Y-110717647D01*
X219151827Y-110640485D01*
X219101031Y-110592510D01*
X219084236Y-110524689D01*
X219106773Y-110458554D01*
X219151827Y-110419515D01*
X219161116Y-110414781D01*
X219303266Y-110342353D01*
X219464418Y-110225269D01*
X219605269Y-110084418D01*
X219722353Y-109923266D01*
X219812785Y-109745783D01*
X219874339Y-109556339D01*
X219905500Y-109359597D01*
X219905500Y-109160403D01*
X219874339Y-108963661D01*
X219874338Y-108963657D01*
X219874338Y-108963656D01*
X219812786Y-108774219D01*
X219812785Y-108774217D01*
X219722353Y-108596734D01*
X219605269Y-108435582D01*
X219464418Y-108294731D01*
X219303266Y-108177647D01*
X219151827Y-108100485D01*
X219101031Y-108052510D01*
X219084236Y-107984689D01*
X219106773Y-107918554D01*
X219151827Y-107879515D01*
X219161116Y-107874781D01*
X219303266Y-107802353D01*
X219464418Y-107685269D01*
X219605269Y-107544418D01*
X219722353Y-107383266D01*
X219812785Y-107205783D01*
X219874339Y-107016339D01*
X219905500Y-106819597D01*
X219905500Y-106620403D01*
X219874339Y-106423661D01*
X219874338Y-106423657D01*
X219874338Y-106423656D01*
X219812786Y-106234219D01*
X219722352Y-106056733D01*
X219605269Y-105895582D01*
X219464418Y-105754731D01*
X219303266Y-105637647D01*
X219151827Y-105560485D01*
X219101031Y-105512510D01*
X219084236Y-105444689D01*
X219106773Y-105378554D01*
X219151827Y-105339515D01*
X219161116Y-105334781D01*
X219303266Y-105262353D01*
X219464418Y-105145269D01*
X219605269Y-105004418D01*
X219722353Y-104843266D01*
X219812785Y-104665783D01*
X219874339Y-104476339D01*
X219905500Y-104279597D01*
X219905500Y-104080403D01*
X219874339Y-103883661D01*
X219874338Y-103883657D01*
X219874338Y-103883656D01*
X219812786Y-103694219D01*
X219722352Y-103516733D01*
X219605269Y-103355582D01*
X219464418Y-103214731D01*
X219303266Y-103097647D01*
X219151827Y-103020485D01*
X219101031Y-102972510D01*
X219084236Y-102904689D01*
X219106773Y-102838554D01*
X219151827Y-102799515D01*
X219161116Y-102794781D01*
X219303266Y-102722353D01*
X219464418Y-102605269D01*
X219605269Y-102464418D01*
X219722353Y-102303266D01*
X219812785Y-102125783D01*
X219874339Y-101936339D01*
X219905500Y-101739597D01*
X219905500Y-101540403D01*
X219874339Y-101343661D01*
X219874338Y-101343657D01*
X219874338Y-101343656D01*
X219812786Y-101154219D01*
X219722352Y-100976733D01*
X219605269Y-100815582D01*
X219464418Y-100674731D01*
X219303266Y-100557647D01*
X219151827Y-100480485D01*
X219101031Y-100432510D01*
X219084236Y-100364689D01*
X219106773Y-100298554D01*
X219151827Y-100259515D01*
X219161116Y-100254781D01*
X219303266Y-100182353D01*
X219464418Y-100065269D01*
X219605269Y-99924418D01*
X219722353Y-99763266D01*
X219812785Y-99585783D01*
X219874339Y-99396339D01*
X219905500Y-99199597D01*
X219905500Y-99000403D01*
X219874339Y-98803661D01*
X219874338Y-98803657D01*
X219874338Y-98803656D01*
X219812786Y-98614219D01*
X219748050Y-98487167D01*
X219722353Y-98436734D01*
X219605269Y-98275582D01*
X219464418Y-98134731D01*
X219347543Y-98049816D01*
X219304879Y-97994487D01*
X219298900Y-97924873D01*
X219331506Y-97863078D01*
X219392345Y-97828721D01*
X219420430Y-97825499D01*
X219452871Y-97825499D01*
X219452872Y-97825499D01*
X219512483Y-97819091D01*
X219647331Y-97768796D01*
X219762546Y-97682546D01*
X219848796Y-97567331D01*
X219899091Y-97432483D01*
X219905500Y-97372873D01*
X219905499Y-95747128D01*
X219899091Y-95687517D01*
X219860774Y-95584786D01*
X219848798Y-95552673D01*
X219848793Y-95552664D01*
X219762547Y-95437455D01*
X219762544Y-95437452D01*
X219647335Y-95351206D01*
X219647328Y-95351202D01*
X219512482Y-95300908D01*
X219512483Y-95300908D01*
X219452883Y-95294501D01*
X219452881Y-95294500D01*
X219452873Y-95294500D01*
X219452864Y-95294500D01*
X217827129Y-95294500D01*
X217827123Y-95294501D01*
X217767516Y-95300908D01*
X217632671Y-95351202D01*
X217632664Y-95351206D01*
X217517455Y-95437452D01*
X217517452Y-95437455D01*
X217431206Y-95552664D01*
X217431202Y-95552671D01*
X217380908Y-95687517D01*
X217374501Y-95747116D01*
X217374501Y-95747123D01*
X217374500Y-95747135D01*
X217374500Y-97372870D01*
X217374501Y-97372876D01*
X217380908Y-97432483D01*
X217431202Y-97567328D01*
X217431206Y-97567335D01*
X217517452Y-97682544D01*
X217517455Y-97682547D01*
X217632664Y-97768793D01*
X217632671Y-97768797D01*
X217677618Y-97785561D01*
X217767517Y-97819091D01*
X217827127Y-97825500D01*
X217859568Y-97825499D01*
X217926606Y-97845182D01*
X217972362Y-97897984D01*
X217982307Y-97967143D01*
X217953284Y-98030699D01*
X217932455Y-98049817D01*
X217815580Y-98134732D01*
X217674733Y-98275579D01*
X217674733Y-98275580D01*
X217674731Y-98275582D01*
X217624447Y-98344790D01*
X217557647Y-98436733D01*
X217555466Y-98440293D01*
X217503652Y-98487167D01*
X217449740Y-98499500D01*
X163900098Y-98499500D01*
X163833059Y-98479815D01*
X163812417Y-98463181D01*
X160643736Y-95294500D01*
X154749672Y-89400436D01*
X324735000Y-89400436D01*
X324735000Y-89599563D01*
X324766147Y-89796222D01*
X324827679Y-89985594D01*
X324918077Y-90163008D01*
X324945580Y-90200863D01*
X324945581Y-90200864D01*
X325508871Y-89637574D01*
X325524755Y-89696853D01*
X325591898Y-89813147D01*
X325686853Y-89908102D01*
X325803147Y-89975245D01*
X325862425Y-89991128D01*
X325299134Y-90554417D01*
X325336994Y-90581924D01*
X325514405Y-90672320D01*
X325703777Y-90733852D01*
X325900437Y-90765000D01*
X326099563Y-90765000D01*
X326296222Y-90733852D01*
X326485594Y-90672320D01*
X326663005Y-90581924D01*
X326700863Y-90554418D01*
X326700863Y-90554417D01*
X326137574Y-89991128D01*
X326196853Y-89975245D01*
X326313147Y-89908102D01*
X326408102Y-89813147D01*
X326475245Y-89696853D01*
X326491128Y-89637574D01*
X327054417Y-90200863D01*
X327054418Y-90200863D01*
X327081924Y-90163005D01*
X327172320Y-89985594D01*
X327233852Y-89796222D01*
X327265000Y-89599563D01*
X327265000Y-89400436D01*
X327233852Y-89203777D01*
X327172320Y-89014405D01*
X327081924Y-88836994D01*
X327054417Y-88799135D01*
X327054417Y-88799134D01*
X326491128Y-89362424D01*
X326475245Y-89303147D01*
X326408102Y-89186853D01*
X326313147Y-89091898D01*
X326196853Y-89024755D01*
X326137574Y-89008871D01*
X326700864Y-88445581D01*
X326700863Y-88445580D01*
X326663008Y-88418077D01*
X326485594Y-88327679D01*
X326296222Y-88266147D01*
X326099563Y-88235000D01*
X325900437Y-88235000D01*
X325703777Y-88266147D01*
X325514405Y-88327679D01*
X325336990Y-88418077D01*
X325299135Y-88445580D01*
X325299135Y-88445581D01*
X325862425Y-89008871D01*
X325803147Y-89024755D01*
X325686853Y-89091898D01*
X325591898Y-89186853D01*
X325524755Y-89303147D01*
X325508871Y-89362425D01*
X324945581Y-88799135D01*
X324945580Y-88799135D01*
X324918077Y-88836990D01*
X324827679Y-89014405D01*
X324766147Y-89203777D01*
X324735000Y-89400436D01*
X154749672Y-89400436D01*
X149749639Y-84400403D01*
X324734500Y-84400403D01*
X324734500Y-84599596D01*
X324765661Y-84796340D01*
X324765661Y-84796343D01*
X324827213Y-84985780D01*
X324827215Y-84985783D01*
X324917647Y-85163266D01*
X325034731Y-85324418D01*
X325175582Y-85465269D01*
X325336734Y-85582353D01*
X325514217Y-85672785D01*
X325514219Y-85672786D01*
X325703657Y-85734338D01*
X325703658Y-85734338D01*
X325703661Y-85734339D01*
X325900403Y-85765500D01*
X325900404Y-85765500D01*
X326099596Y-85765500D01*
X326099597Y-85765500D01*
X326296339Y-85734339D01*
X326296342Y-85734338D01*
X326296343Y-85734338D01*
X326485780Y-85672786D01*
X326485780Y-85672785D01*
X326485783Y-85672785D01*
X326663266Y-85582353D01*
X326824418Y-85465269D01*
X326965269Y-85324418D01*
X327082353Y-85163266D01*
X327172785Y-84985783D01*
X327234339Y-84796339D01*
X327265500Y-84599597D01*
X327265500Y-84400403D01*
X327234339Y-84203661D01*
X327234338Y-84203657D01*
X327234338Y-84203656D01*
X327172786Y-84014219D01*
X327158296Y-83985780D01*
X327082353Y-83836734D01*
X326965269Y-83675582D01*
X326824418Y-83534731D01*
X326663266Y-83417647D01*
X326629423Y-83400403D01*
X326485780Y-83327213D01*
X326296342Y-83265661D01*
X326148782Y-83242290D01*
X326099597Y-83234500D01*
X325900403Y-83234500D01*
X325834822Y-83244887D01*
X325703659Y-83265661D01*
X325703656Y-83265661D01*
X325514219Y-83327213D01*
X325336733Y-83417647D01*
X325244790Y-83484447D01*
X325175582Y-83534731D01*
X325175580Y-83534733D01*
X325175579Y-83534733D01*
X325034733Y-83675579D01*
X325034733Y-83675580D01*
X325034731Y-83675582D01*
X324984447Y-83744790D01*
X324917647Y-83836733D01*
X324827213Y-84014219D01*
X324765661Y-84203656D01*
X324765661Y-84203659D01*
X324734500Y-84400403D01*
X149749639Y-84400403D01*
X138333756Y-72984521D01*
X138300272Y-72923199D01*
X138303507Y-72858523D01*
X138317246Y-72816243D01*
X138350500Y-72606287D01*
X138350500Y-72393713D01*
X138317246Y-72183757D01*
X138251557Y-71981588D01*
X138155051Y-71792184D01*
X138155049Y-71792181D01*
X138155048Y-71792179D01*
X138030109Y-71620213D01*
X137879786Y-71469890D01*
X137707820Y-71344951D01*
X137518414Y-71248444D01*
X137518413Y-71248443D01*
X137518412Y-71248443D01*
X137316243Y-71182754D01*
X137316241Y-71182753D01*
X137316240Y-71182753D01*
X137154957Y-71157208D01*
X137106287Y-71149500D01*
X136893713Y-71149500D01*
X136845042Y-71157208D01*
X136683760Y-71182753D01*
X136481585Y-71248444D01*
X136292179Y-71344951D01*
X136120213Y-71469890D01*
X135969890Y-71620213D01*
X135844949Y-71792182D01*
X135840202Y-71801499D01*
X135792227Y-71852293D01*
X135724405Y-71869087D01*
X135658271Y-71846548D01*
X135619234Y-71801495D01*
X135614626Y-71792452D01*
X135575270Y-71738282D01*
X135575269Y-71738282D01*
X134942962Y-72370590D01*
X134925925Y-72307007D01*
X134860099Y-72192993D01*
X134767007Y-72099901D01*
X134652993Y-72034075D01*
X134589409Y-72017037D01*
X135221716Y-71384728D01*
X135167550Y-71345375D01*
X134978217Y-71248904D01*
X134776129Y-71183242D01*
X134566246Y-71150000D01*
X134353754Y-71150000D01*
X134143872Y-71183242D01*
X134143869Y-71183242D01*
X133941782Y-71248904D01*
X133752439Y-71345380D01*
X133698282Y-71384727D01*
X133698282Y-71384728D01*
X134330591Y-72017037D01*
X134267007Y-72034075D01*
X134152993Y-72099901D01*
X134059901Y-72192993D01*
X133994075Y-72307007D01*
X133977037Y-72370591D01*
X133306818Y-71700372D01*
X133273333Y-71639049D01*
X133273330Y-71639036D01*
X133270499Y-71626015D01*
X133270499Y-71602128D01*
X133264091Y-71542517D01*
X133233811Y-71461331D01*
X133213798Y-71407673D01*
X133213793Y-71407664D01*
X133127547Y-71292455D01*
X133127544Y-71292452D01*
X133012335Y-71206206D01*
X133012328Y-71206202D01*
X132877482Y-71155908D01*
X132877483Y-71155908D01*
X132817883Y-71149501D01*
X132817881Y-71149500D01*
X132817873Y-71149500D01*
X132817864Y-71149500D01*
X131022129Y-71149500D01*
X131022123Y-71149501D01*
X130962516Y-71155908D01*
X130827671Y-71206202D01*
X130827664Y-71206206D01*
X130712455Y-71292452D01*
X130712452Y-71292455D01*
X130626206Y-71407664D01*
X130626202Y-71407671D01*
X130575908Y-71542517D01*
X130569501Y-71602116D01*
X130569500Y-71602135D01*
X130569500Y-73397870D01*
X130569501Y-73397876D01*
X130575908Y-73457483D01*
X130626202Y-73592328D01*
X130626206Y-73592335D01*
X130712452Y-73707544D01*
X130712455Y-73707547D01*
X130827664Y-73793793D01*
X130827671Y-73793797D01*
X130962517Y-73844091D01*
X130962516Y-73844091D01*
X130969444Y-73844835D01*
X131022127Y-73850500D01*
X132817872Y-73850499D01*
X132877483Y-73844091D01*
X133012331Y-73793796D01*
X133127546Y-73707546D01*
X133213796Y-73592331D01*
X133264091Y-73457483D01*
X133270500Y-73397873D01*
X133270499Y-73373979D01*
X133273330Y-73360963D01*
X133283940Y-73341525D01*
X133290179Y-73320275D01*
X133306803Y-73299643D01*
X133306808Y-73299636D01*
X133306811Y-73299634D01*
X133306818Y-73299626D01*
X133977037Y-72629408D01*
X133994075Y-72692993D01*
X134059901Y-72807007D01*
X134152993Y-72900099D01*
X134267007Y-72965925D01*
X134330590Y-72982962D01*
X133698282Y-73615269D01*
X133698282Y-73615270D01*
X133752449Y-73654624D01*
X133941782Y-73751095D01*
X134143870Y-73816757D01*
X134353754Y-73850000D01*
X134566246Y-73850000D01*
X134776127Y-73816757D01*
X134776130Y-73816757D01*
X134978217Y-73751095D01*
X135167554Y-73654622D01*
X135221716Y-73615270D01*
X135221717Y-73615270D01*
X134589408Y-72982962D01*
X134652993Y-72965925D01*
X134767007Y-72900099D01*
X134860099Y-72807007D01*
X134925925Y-72692993D01*
X134942962Y-72629409D01*
X135575270Y-73261717D01*
X135575270Y-73261716D01*
X135614622Y-73207555D01*
X135619232Y-73198507D01*
X135667205Y-73147709D01*
X135735025Y-73130912D01*
X135801161Y-73153447D01*
X135840204Y-73198504D01*
X135844949Y-73207817D01*
X135969890Y-73379786D01*
X136120213Y-73530109D01*
X136292179Y-73655048D01*
X136292181Y-73655049D01*
X136292184Y-73655051D01*
X136481588Y-73751557D01*
X136683757Y-73817246D01*
X136893713Y-73850500D01*
X136893714Y-73850500D01*
X137106286Y-73850500D01*
X137106287Y-73850500D01*
X137316243Y-73817246D01*
X137358523Y-73803507D01*
X137428362Y-73801511D01*
X137484522Y-73833757D01*
X161938583Y-98287819D01*
X161972068Y-98349142D01*
X161967084Y-98418834D01*
X161925212Y-98474767D01*
X161859748Y-98499184D01*
X161850902Y-98499500D01*
X138980098Y-98499500D01*
X138913059Y-98479815D01*
X138892417Y-98463181D01*
X113413757Y-72984522D01*
X113380272Y-72923199D01*
X113383507Y-72858523D01*
X113397246Y-72816243D01*
X113430500Y-72606287D01*
X113430500Y-72393713D01*
X113397246Y-72183757D01*
X113331557Y-71981588D01*
X113235051Y-71792184D01*
X113172904Y-71706645D01*
X113147511Y-71671694D01*
X113147508Y-71671691D01*
X113136399Y-71656401D01*
X113110104Y-71620208D01*
X112959792Y-71469896D01*
X112959786Y-71469890D01*
X112787820Y-71344951D01*
X112598414Y-71248444D01*
X112598413Y-71248443D01*
X112598412Y-71248443D01*
X112396243Y-71182754D01*
X112396241Y-71182753D01*
X112396240Y-71182753D01*
X112234957Y-71157208D01*
X112186287Y-71149500D01*
X111973713Y-71149500D01*
X111925042Y-71157208D01*
X111763760Y-71182753D01*
X111561585Y-71248444D01*
X111372179Y-71344951D01*
X111200213Y-71469890D01*
X111049890Y-71620213D01*
X110924949Y-71792182D01*
X110920484Y-71800946D01*
X110872509Y-71851742D01*
X110804688Y-71868536D01*
X110738553Y-71845998D01*
X110699516Y-71800946D01*
X110695050Y-71792182D01*
X110570109Y-71620213D01*
X110419786Y-71469890D01*
X110247820Y-71344951D01*
X110058414Y-71248444D01*
X110058413Y-71248443D01*
X110058412Y-71248443D01*
X109856243Y-71182754D01*
X109856241Y-71182753D01*
X109856240Y-71182753D01*
X109694957Y-71157208D01*
X109646287Y-71149500D01*
X109433713Y-71149500D01*
X109385042Y-71157208D01*
X109223760Y-71182753D01*
X109021585Y-71248444D01*
X108832179Y-71344951D01*
X108660215Y-71469889D01*
X108546285Y-71583819D01*
X108484962Y-71617303D01*
X108415270Y-71612319D01*
X108359337Y-71570447D01*
X108342422Y-71539470D01*
X108293354Y-71407913D01*
X108293350Y-71407906D01*
X108207190Y-71292812D01*
X108207187Y-71292809D01*
X108092093Y-71206649D01*
X108092086Y-71206645D01*
X107957379Y-71156403D01*
X107957372Y-71156401D01*
X107897844Y-71150000D01*
X107250000Y-71150000D01*
X107250000Y-72066988D01*
X107192993Y-72034075D01*
X107065826Y-72000000D01*
X106934174Y-72000000D01*
X106807007Y-72034075D01*
X106750000Y-72066988D01*
X106750000Y-71150000D01*
X106102155Y-71150000D01*
X106042627Y-71156401D01*
X106042620Y-71156403D01*
X105907913Y-71206645D01*
X105907906Y-71206649D01*
X105792812Y-71292809D01*
X105792809Y-71292812D01*
X105706649Y-71407906D01*
X105706645Y-71407913D01*
X105656403Y-71542620D01*
X105656401Y-71542627D01*
X105650000Y-71602155D01*
X71855924Y-71602155D01*
X71902055Y-71467195D01*
X71904216Y-71461358D01*
X72174420Y-70784917D01*
X72176874Y-70779198D01*
X72480969Y-70117364D01*
X72483729Y-70111736D01*
X72820957Y-69466147D01*
X72824006Y-69460654D01*
X73179045Y-68857530D01*
X73193501Y-68832972D01*
X73196801Y-68827678D01*
X73597625Y-68219497D01*
X73601176Y-68214396D01*
X74032312Y-67627266D01*
X74036114Y-67622355D01*
X74496403Y-67057858D01*
X74500490Y-67053097D01*
X74988789Y-66512623D01*
X74993079Y-66508111D01*
X75508111Y-65993079D01*
X75512623Y-65988789D01*
X76053102Y-65500484D01*
X76057864Y-65496398D01*
X76334996Y-65270426D01*
X76622355Y-65036114D01*
X76627266Y-65032312D01*
X77214396Y-64601176D01*
X77219497Y-64597625D01*
X77827678Y-64196801D01*
X77832972Y-64193501D01*
X78460662Y-63824001D01*
X78466138Y-63820961D01*
X79111748Y-63483722D01*
X79117364Y-63480969D01*
X79779198Y-63176874D01*
X79784917Y-63174420D01*
X80461358Y-62904216D01*
X80467195Y-62902055D01*
X81156425Y-62666469D01*
X81162376Y-62664601D01*
X81862681Y-62464219D01*
X81868713Y-62462658D01*
X82578239Y-62298009D01*
X82584324Y-62296758D01*
X83301296Y-62168255D01*
X83307486Y-62167307D01*
X84029988Y-62075289D01*
X84036230Y-62074654D01*
X84762494Y-62019347D01*
X84768747Y-62019030D01*
X85498422Y-62000540D01*
X85501563Y-62000500D01*
X85565892Y-62000500D01*
X389934108Y-62000500D01*
X389998437Y-62000500D01*
X390001578Y-62000540D01*
G37*
%TD.AperFunction*%
%TD*%
M02*
