%TF.GenerationSoftware,KiCad,Pcbnew,9.0.7*%
%TF.CreationDate,2026-07-08T10:31:36+03:00*%
%TF.ProjectId,C.L.A.S,432e4c2e-412e-4532-9e6b-696361645f70,rev?*%
%TF.SameCoordinates,Original*%
%TF.FileFunction,Legend,Top*%
%TF.FilePolarity,Positive*%
%FSLAX46Y46*%
G04 Gerber Fmt 4.6, Leading zero omitted, Abs format (unit mm)*
G04 Created by KiCad (PCBNEW 9.0.7) date 2026-07-08 10:31:36*
%MOMM*%
%LPD*%
G01*
G04 APERTURE LIST*
%ADD10C,0.300000*%
%ADD11C,0.100000*%
%ADD12C,0.150000*%
%ADD13C,0.127000*%
%ADD14C,0.200000*%
%ADD15C,0.120000*%
G04 APERTURE END LIST*
D10*
X238678572Y-171392971D02*
X238428572Y-171107257D01*
X238428572Y-171107257D02*
X237892858Y-170821542D01*
X237892858Y-170821542D02*
X237321429Y-170821542D01*
X237321429Y-170821542D02*
X236714287Y-171107257D01*
X236714287Y-171107257D02*
X236392858Y-171392971D01*
X236392858Y-171392971D02*
X236035715Y-171964400D01*
X236035715Y-171964400D02*
X235964287Y-172535828D01*
X235964287Y-172535828D02*
X236178572Y-173107257D01*
X236178572Y-173107257D02*
X236428572Y-173392971D01*
X236428572Y-173392971D02*
X236964287Y-173678685D01*
X236964287Y-173678685D02*
X237535715Y-173678685D01*
X237535715Y-173678685D02*
X238142858Y-173392971D01*
X238142858Y-173392971D02*
X238464287Y-173107257D01*
X238750001Y-170821542D02*
X238464287Y-173107257D01*
X238464287Y-173107257D02*
X238714287Y-173392971D01*
X238714287Y-173392971D02*
X239000001Y-173392971D01*
X239000001Y-173392971D02*
X239607144Y-173107257D01*
X239607144Y-173107257D02*
X239964287Y-172535828D01*
X239964287Y-172535828D02*
X240142858Y-171107257D01*
X240142858Y-171107257D02*
X239678572Y-170250114D01*
X239678572Y-170250114D02*
X238892858Y-169678685D01*
X238892858Y-169678685D02*
X237785715Y-169392971D01*
X237785715Y-169392971D02*
X236607144Y-169678685D01*
X236607144Y-169678685D02*
X235678572Y-170250114D01*
X235678572Y-170250114D02*
X235000001Y-171107257D01*
X235000001Y-171107257D02*
X234571429Y-172250114D01*
X234571429Y-172250114D02*
X234714287Y-173392971D01*
X234714287Y-173392971D02*
X235178572Y-174250114D01*
X235178572Y-174250114D02*
X235964287Y-174821542D01*
X235964287Y-174821542D02*
X237071429Y-175107257D01*
X237071429Y-175107257D02*
X238250001Y-174821542D01*
X238250001Y-174821542D02*
X239178572Y-174250114D01*
X243821430Y-171392971D02*
X243464287Y-174250114D01*
X242214287Y-168250114D02*
X243821430Y-171392971D01*
X243821430Y-171392971D02*
X246214287Y-168250114D01*
X248321430Y-174250114D02*
X247785715Y-173964400D01*
X247785715Y-173964400D02*
X247535715Y-173678685D01*
X247535715Y-173678685D02*
X247321430Y-173107257D01*
X247321430Y-173107257D02*
X247535715Y-171392971D01*
X247535715Y-171392971D02*
X247892858Y-170821542D01*
X247892858Y-170821542D02*
X248214287Y-170535828D01*
X248214287Y-170535828D02*
X248821430Y-170250114D01*
X248821430Y-170250114D02*
X249678572Y-170250114D01*
X249678572Y-170250114D02*
X250214287Y-170535828D01*
X250214287Y-170535828D02*
X250464287Y-170821542D01*
X250464287Y-170821542D02*
X250678572Y-171392971D01*
X250678572Y-171392971D02*
X250464287Y-173107257D01*
X250464287Y-173107257D02*
X250107144Y-173678685D01*
X250107144Y-173678685D02*
X249785715Y-173964400D01*
X249785715Y-173964400D02*
X249178572Y-174250114D01*
X249178572Y-174250114D02*
X248321430Y-174250114D01*
X255964286Y-170250114D02*
X255464286Y-174250114D01*
X253392858Y-170250114D02*
X253000001Y-173392971D01*
X253000001Y-173392971D02*
X253214286Y-173964400D01*
X253214286Y-173964400D02*
X253750001Y-174250114D01*
X253750001Y-174250114D02*
X254607143Y-174250114D01*
X254607143Y-174250114D02*
X255214286Y-173964400D01*
X255214286Y-173964400D02*
X255535715Y-173678685D01*
X258071429Y-173964400D02*
X258607143Y-174250114D01*
X258607143Y-174250114D02*
X259750000Y-174250114D01*
X259750000Y-174250114D02*
X260357143Y-173964400D01*
X260357143Y-173964400D02*
X260714286Y-173392971D01*
X260714286Y-173392971D02*
X260750000Y-173107257D01*
X260750000Y-173107257D02*
X260535714Y-172535828D01*
X260535714Y-172535828D02*
X260000000Y-172250114D01*
X260000000Y-172250114D02*
X259142857Y-172250114D01*
X259142857Y-172250114D02*
X258607143Y-171964400D01*
X258607143Y-171964400D02*
X258392857Y-171392971D01*
X258392857Y-171392971D02*
X258428572Y-171107257D01*
X258428572Y-171107257D02*
X258785714Y-170535828D01*
X258785714Y-170535828D02*
X259392857Y-170250114D01*
X259392857Y-170250114D02*
X260250000Y-170250114D01*
X260250000Y-170250114D02*
X260785714Y-170535828D01*
X262928572Y-173964400D02*
X263464286Y-174250114D01*
X263464286Y-174250114D02*
X264607143Y-174250114D01*
X264607143Y-174250114D02*
X265214286Y-173964400D01*
X265214286Y-173964400D02*
X265571429Y-173392971D01*
X265571429Y-173392971D02*
X265607143Y-173107257D01*
X265607143Y-173107257D02*
X265392857Y-172535828D01*
X265392857Y-172535828D02*
X264857143Y-172250114D01*
X264857143Y-172250114D02*
X264000000Y-172250114D01*
X264000000Y-172250114D02*
X263464286Y-171964400D01*
X263464286Y-171964400D02*
X263250000Y-171392971D01*
X263250000Y-171392971D02*
X263285715Y-171107257D01*
X263285715Y-171107257D02*
X263642857Y-170535828D01*
X263642857Y-170535828D02*
X264250000Y-170250114D01*
X264250000Y-170250114D02*
X265107143Y-170250114D01*
X265107143Y-170250114D02*
X265642857Y-170535828D01*
X270357143Y-173964400D02*
X269750000Y-174250114D01*
X269750000Y-174250114D02*
X268607143Y-174250114D01*
X268607143Y-174250114D02*
X268071429Y-173964400D01*
X268071429Y-173964400D02*
X267857143Y-173392971D01*
X267857143Y-173392971D02*
X268142858Y-171107257D01*
X268142858Y-171107257D02*
X268500000Y-170535828D01*
X268500000Y-170535828D02*
X269107143Y-170250114D01*
X269107143Y-170250114D02*
X270250000Y-170250114D01*
X270250000Y-170250114D02*
X270785715Y-170535828D01*
X270785715Y-170535828D02*
X271000000Y-171107257D01*
X271000000Y-171107257D02*
X270928572Y-171678685D01*
X270928572Y-171678685D02*
X268000000Y-172250114D01*
X272821429Y-170250114D02*
X275107143Y-170250114D01*
X273178572Y-174250114D02*
X273821429Y-169107257D01*
X273821429Y-169107257D02*
X274178572Y-168535828D01*
X274178572Y-168535828D02*
X274785715Y-168250114D01*
X274785715Y-168250114D02*
X275357143Y-168250114D01*
X276535714Y-172535828D02*
X279392857Y-172535828D01*
X275750000Y-174250114D02*
X278500000Y-168250114D01*
X278500000Y-168250114D02*
X279750000Y-174250114D01*
X281678571Y-170250114D02*
X282607143Y-174250114D01*
X284535714Y-170250114D02*
X282607143Y-174250114D01*
X282607143Y-174250114D02*
X281857143Y-175678685D01*
X281857143Y-175678685D02*
X281535714Y-175964400D01*
X281535714Y-175964400D02*
X280928571Y-176250114D01*
X286321429Y-174250114D02*
X286821429Y-170250114D01*
X286750000Y-170821542D02*
X287071429Y-170535828D01*
X287071429Y-170535828D02*
X287678572Y-170250114D01*
X287678572Y-170250114D02*
X288535714Y-170250114D01*
X288535714Y-170250114D02*
X289071429Y-170535828D01*
X289071429Y-170535828D02*
X289285714Y-171107257D01*
X289285714Y-171107257D02*
X288892857Y-174250114D01*
X289285714Y-171107257D02*
X289642857Y-170535828D01*
X289642857Y-170535828D02*
X290250000Y-170250114D01*
X290250000Y-170250114D02*
X291107143Y-170250114D01*
X291107143Y-170250114D02*
X291642857Y-170535828D01*
X291642857Y-170535828D02*
X291857143Y-171107257D01*
X291857143Y-171107257D02*
X291464286Y-174250114D01*
X296892857Y-174250114D02*
X297285714Y-171107257D01*
X297285714Y-171107257D02*
X297071429Y-170535828D01*
X297071429Y-170535828D02*
X296535714Y-170250114D01*
X296535714Y-170250114D02*
X295392857Y-170250114D01*
X295392857Y-170250114D02*
X294785714Y-170535828D01*
X296928572Y-173964400D02*
X296321429Y-174250114D01*
X296321429Y-174250114D02*
X294892857Y-174250114D01*
X294892857Y-174250114D02*
X294357143Y-173964400D01*
X294357143Y-173964400D02*
X294142857Y-173392971D01*
X294142857Y-173392971D02*
X294214286Y-172821542D01*
X294214286Y-172821542D02*
X294571429Y-172250114D01*
X294571429Y-172250114D02*
X295178572Y-171964400D01*
X295178572Y-171964400D02*
X296607143Y-171964400D01*
X296607143Y-171964400D02*
X297214286Y-171678685D01*
X300250000Y-170250114D02*
X299750000Y-174250114D01*
X300178571Y-170821542D02*
X300500000Y-170535828D01*
X300500000Y-170535828D02*
X301107143Y-170250114D01*
X301107143Y-170250114D02*
X301964285Y-170250114D01*
X301964285Y-170250114D02*
X302500000Y-170535828D01*
X302500000Y-170535828D02*
X302714285Y-171107257D01*
X302714285Y-171107257D02*
X302321428Y-174250114D01*
X330785715Y-179617257D02*
X329357143Y-179617257D01*
X329357143Y-179617257D02*
X329035715Y-181045828D01*
X329035715Y-181045828D02*
X329196429Y-180902971D01*
X329196429Y-180902971D02*
X329500000Y-180760114D01*
X329500000Y-180760114D02*
X330214286Y-180760114D01*
X330214286Y-180760114D02*
X330482143Y-180902971D01*
X330482143Y-180902971D02*
X330607143Y-181045828D01*
X330607143Y-181045828D02*
X330714286Y-181331542D01*
X330714286Y-181331542D02*
X330625000Y-182045828D01*
X330625000Y-182045828D02*
X330446429Y-182331542D01*
X330446429Y-182331542D02*
X330285715Y-182474400D01*
X330285715Y-182474400D02*
X329982143Y-182617257D01*
X329982143Y-182617257D02*
X329267857Y-182617257D01*
X329267857Y-182617257D02*
X329000000Y-182474400D01*
X329000000Y-182474400D02*
X328875000Y-182331542D01*
X331803572Y-180617257D02*
X332267858Y-182617257D01*
X332267858Y-182617257D02*
X333232143Y-180617257D01*
X336410714Y-182617257D02*
X336785714Y-179617257D01*
X336785714Y-179617257D02*
X337928571Y-179617257D01*
X337928571Y-179617257D02*
X338196428Y-179760114D01*
X338196428Y-179760114D02*
X338321428Y-179902971D01*
X338321428Y-179902971D02*
X338428571Y-180188685D01*
X338428571Y-180188685D02*
X338375000Y-180617257D01*
X338375000Y-180617257D02*
X338196428Y-180902971D01*
X338196428Y-180902971D02*
X338035714Y-181045828D01*
X338035714Y-181045828D02*
X337732143Y-181188685D01*
X337732143Y-181188685D02*
X336589286Y-181188685D01*
X339839286Y-182617257D02*
X339571428Y-182474400D01*
X339571428Y-182474400D02*
X339446428Y-182331542D01*
X339446428Y-182331542D02*
X339339286Y-182045828D01*
X339339286Y-182045828D02*
X339446428Y-181188685D01*
X339446428Y-181188685D02*
X339625000Y-180902971D01*
X339625000Y-180902971D02*
X339785714Y-180760114D01*
X339785714Y-180760114D02*
X340089286Y-180617257D01*
X340089286Y-180617257D02*
X340517857Y-180617257D01*
X340517857Y-180617257D02*
X340785714Y-180760114D01*
X340785714Y-180760114D02*
X340910714Y-180902971D01*
X340910714Y-180902971D02*
X341017857Y-181188685D01*
X341017857Y-181188685D02*
X340910714Y-182045828D01*
X340910714Y-182045828D02*
X340732143Y-182331542D01*
X340732143Y-182331542D02*
X340571428Y-182474400D01*
X340571428Y-182474400D02*
X340267857Y-182617257D01*
X340267857Y-182617257D02*
X339839286Y-182617257D01*
X342089286Y-180617257D02*
X342410714Y-182617257D01*
X342410714Y-182617257D02*
X343160714Y-181188685D01*
X343160714Y-181188685D02*
X343553572Y-182617257D01*
X343553572Y-182617257D02*
X344375000Y-180617257D01*
X346428571Y-182474400D02*
X346125000Y-182617257D01*
X346125000Y-182617257D02*
X345553571Y-182617257D01*
X345553571Y-182617257D02*
X345285714Y-182474400D01*
X345285714Y-182474400D02*
X345178571Y-182188685D01*
X345178571Y-182188685D02*
X345321429Y-181045828D01*
X345321429Y-181045828D02*
X345500000Y-180760114D01*
X345500000Y-180760114D02*
X345803571Y-180617257D01*
X345803571Y-180617257D02*
X346375000Y-180617257D01*
X346375000Y-180617257D02*
X346642857Y-180760114D01*
X346642857Y-180760114D02*
X346750000Y-181045828D01*
X346750000Y-181045828D02*
X346714286Y-181331542D01*
X346714286Y-181331542D02*
X345250000Y-181617257D01*
X347839286Y-182617257D02*
X348089286Y-180617257D01*
X348017858Y-181188685D02*
X348196429Y-180902971D01*
X348196429Y-180902971D02*
X348357143Y-180760114D01*
X348357143Y-180760114D02*
X348660715Y-180617257D01*
X348660715Y-180617257D02*
X348946429Y-180617257D01*
X351982143Y-182617257D02*
X352357143Y-179617257D01*
X353660714Y-180617257D02*
X353410714Y-182617257D01*
X353625000Y-180902971D02*
X353785714Y-180760114D01*
X353785714Y-180760114D02*
X354089286Y-180617257D01*
X354089286Y-180617257D02*
X354517857Y-180617257D01*
X354517857Y-180617257D02*
X354785714Y-180760114D01*
X354785714Y-180760114D02*
X354892857Y-181045828D01*
X354892857Y-181045828D02*
X354696428Y-182617257D01*
X133107142Y-77739638D02*
X132154761Y-77739638D01*
X132154761Y-77739638D02*
X132404761Y-75739638D01*
X133773809Y-77739638D02*
X134023809Y-75739638D01*
X134023809Y-75739638D02*
X134500000Y-75739638D01*
X134500000Y-75739638D02*
X134773809Y-75834876D01*
X134773809Y-75834876D02*
X134940476Y-76025352D01*
X134940476Y-76025352D02*
X135011904Y-76215828D01*
X135011904Y-76215828D02*
X135059524Y-76596780D01*
X135059524Y-76596780D02*
X135023809Y-76882495D01*
X135023809Y-76882495D02*
X134880952Y-77263447D01*
X134880952Y-77263447D02*
X134761904Y-77453923D01*
X134761904Y-77453923D02*
X134547619Y-77644400D01*
X134547619Y-77644400D02*
X134250000Y-77739638D01*
X134250000Y-77739638D02*
X133773809Y-77739638D01*
X136916666Y-77739638D02*
X136369047Y-76787257D01*
X135773809Y-77739638D02*
X136023809Y-75739638D01*
X136023809Y-75739638D02*
X136785714Y-75739638D01*
X136785714Y-75739638D02*
X136964285Y-75834876D01*
X136964285Y-75834876D02*
X137047619Y-75930114D01*
X137047619Y-75930114D02*
X137119047Y-76120590D01*
X137119047Y-76120590D02*
X137083333Y-76406304D01*
X137083333Y-76406304D02*
X136964285Y-76596780D01*
X136964285Y-76596780D02*
X136857143Y-76692019D01*
X136857143Y-76692019D02*
X136654762Y-76787257D01*
X136654762Y-76787257D02*
X135892857Y-76787257D01*
X106083333Y-77739638D02*
X106333333Y-75739638D01*
X106333333Y-75739638D02*
X106809524Y-75739638D01*
X106809524Y-75739638D02*
X107083333Y-75834876D01*
X107083333Y-75834876D02*
X107250000Y-76025352D01*
X107250000Y-76025352D02*
X107321428Y-76215828D01*
X107321428Y-76215828D02*
X107369048Y-76596780D01*
X107369048Y-76596780D02*
X107333333Y-76882495D01*
X107333333Y-76882495D02*
X107190476Y-77263447D01*
X107190476Y-77263447D02*
X107071428Y-77453923D01*
X107071428Y-77453923D02*
X106857143Y-77644400D01*
X106857143Y-77644400D02*
X106559524Y-77739638D01*
X106559524Y-77739638D02*
X106083333Y-77739638D01*
X108083333Y-77739638D02*
X108333333Y-75739638D01*
X108940476Y-77739638D02*
X109071428Y-76692019D01*
X109071428Y-76692019D02*
X109000000Y-76501542D01*
X109000000Y-76501542D02*
X108821428Y-76406304D01*
X108821428Y-76406304D02*
X108535714Y-76406304D01*
X108535714Y-76406304D02*
X108333333Y-76501542D01*
X108333333Y-76501542D02*
X108226190Y-76596780D01*
X109773810Y-76406304D02*
X110535714Y-76406304D01*
X110142857Y-75739638D02*
X109928572Y-77453923D01*
X109928572Y-77453923D02*
X110000000Y-77644400D01*
X110000000Y-77644400D02*
X110178572Y-77739638D01*
X110178572Y-77739638D02*
X110369048Y-77739638D01*
X111166667Y-75930114D02*
X111273809Y-75834876D01*
X111273809Y-75834876D02*
X111476190Y-75739638D01*
X111476190Y-75739638D02*
X111952381Y-75739638D01*
X111952381Y-75739638D02*
X112130952Y-75834876D01*
X112130952Y-75834876D02*
X112214286Y-75930114D01*
X112214286Y-75930114D02*
X112285714Y-76120590D01*
X112285714Y-76120590D02*
X112261905Y-76311066D01*
X112261905Y-76311066D02*
X112130952Y-76596780D01*
X112130952Y-76596780D02*
X110845238Y-77739638D01*
X110845238Y-77739638D02*
X112083333Y-77739638D01*
X113071429Y-75930114D02*
X113178571Y-75834876D01*
X113178571Y-75834876D02*
X113380952Y-75739638D01*
X113380952Y-75739638D02*
X113857143Y-75739638D01*
X113857143Y-75739638D02*
X114035714Y-75834876D01*
X114035714Y-75834876D02*
X114119048Y-75930114D01*
X114119048Y-75930114D02*
X114190476Y-76120590D01*
X114190476Y-76120590D02*
X114166667Y-76311066D01*
X114166667Y-76311066D02*
X114035714Y-76596780D01*
X114035714Y-76596780D02*
X112750000Y-77739638D01*
X112750000Y-77739638D02*
X113988095Y-77739638D01*
X78738095Y-78144400D02*
X79011904Y-78239638D01*
X79011904Y-78239638D02*
X79488095Y-78239638D01*
X79488095Y-78239638D02*
X79690476Y-78144400D01*
X79690476Y-78144400D02*
X79797619Y-78049161D01*
X79797619Y-78049161D02*
X79916666Y-77858685D01*
X79916666Y-77858685D02*
X79940476Y-77668209D01*
X79940476Y-77668209D02*
X79869047Y-77477733D01*
X79869047Y-77477733D02*
X79785714Y-77382495D01*
X79785714Y-77382495D02*
X79607143Y-77287257D01*
X79607143Y-77287257D02*
X79238095Y-77192019D01*
X79238095Y-77192019D02*
X79059523Y-77096780D01*
X79059523Y-77096780D02*
X78976190Y-77001542D01*
X78976190Y-77001542D02*
X78904762Y-76811066D01*
X78904762Y-76811066D02*
X78928571Y-76620590D01*
X78928571Y-76620590D02*
X79047619Y-76430114D01*
X79047619Y-76430114D02*
X79154762Y-76334876D01*
X79154762Y-76334876D02*
X79357143Y-76239638D01*
X79357143Y-76239638D02*
X79833333Y-76239638D01*
X79833333Y-76239638D02*
X80107143Y-76334876D01*
X81011905Y-78239638D02*
X80833333Y-78144400D01*
X80833333Y-78144400D02*
X80750000Y-78049161D01*
X80750000Y-78049161D02*
X80678571Y-77858685D01*
X80678571Y-77858685D02*
X80750000Y-77287257D01*
X80750000Y-77287257D02*
X80869047Y-77096780D01*
X80869047Y-77096780D02*
X80976190Y-77001542D01*
X80976190Y-77001542D02*
X81178571Y-76906304D01*
X81178571Y-76906304D02*
X81464285Y-76906304D01*
X81464285Y-76906304D02*
X81642857Y-77001542D01*
X81642857Y-77001542D02*
X81726190Y-77096780D01*
X81726190Y-77096780D02*
X81797619Y-77287257D01*
X81797619Y-77287257D02*
X81726190Y-77858685D01*
X81726190Y-77858685D02*
X81607143Y-78049161D01*
X81607143Y-78049161D02*
X81500000Y-78144400D01*
X81500000Y-78144400D02*
X81297619Y-78239638D01*
X81297619Y-78239638D02*
X81011905Y-78239638D01*
X82535714Y-78239638D02*
X82702381Y-76906304D01*
X82785714Y-76239638D02*
X82678571Y-76334876D01*
X82678571Y-76334876D02*
X82761905Y-76430114D01*
X82761905Y-76430114D02*
X82869048Y-76334876D01*
X82869048Y-76334876D02*
X82785714Y-76239638D01*
X82785714Y-76239638D02*
X82761905Y-76430114D01*
X83773810Y-78239638D02*
X83595238Y-78144400D01*
X83595238Y-78144400D02*
X83523810Y-77953923D01*
X83523810Y-77953923D02*
X83738095Y-76239638D01*
X84535714Y-78239638D02*
X84785714Y-76239638D01*
X84785714Y-76239638D02*
X85273809Y-77668209D01*
X85273809Y-77668209D02*
X86119048Y-76239638D01*
X86119048Y-76239638D02*
X85869048Y-78239638D01*
X87107143Y-78239638D02*
X86928571Y-78144400D01*
X86928571Y-78144400D02*
X86845238Y-78049161D01*
X86845238Y-78049161D02*
X86773809Y-77858685D01*
X86773809Y-77858685D02*
X86845238Y-77287257D01*
X86845238Y-77287257D02*
X86964285Y-77096780D01*
X86964285Y-77096780D02*
X87071428Y-77001542D01*
X87071428Y-77001542D02*
X87273809Y-76906304D01*
X87273809Y-76906304D02*
X87559523Y-76906304D01*
X87559523Y-76906304D02*
X87738095Y-77001542D01*
X87738095Y-77001542D02*
X87821428Y-77096780D01*
X87821428Y-77096780D02*
X87892857Y-77287257D01*
X87892857Y-77287257D02*
X87821428Y-77858685D01*
X87821428Y-77858685D02*
X87702381Y-78049161D01*
X87702381Y-78049161D02*
X87595238Y-78144400D01*
X87595238Y-78144400D02*
X87392857Y-78239638D01*
X87392857Y-78239638D02*
X87107143Y-78239638D01*
X88630952Y-78239638D02*
X88797619Y-76906304D01*
X88880952Y-76239638D02*
X88773809Y-76334876D01*
X88773809Y-76334876D02*
X88857143Y-76430114D01*
X88857143Y-76430114D02*
X88964286Y-76334876D01*
X88964286Y-76334876D02*
X88880952Y-76239638D01*
X88880952Y-76239638D02*
X88857143Y-76430114D01*
X89500000Y-78144400D02*
X89678571Y-78239638D01*
X89678571Y-78239638D02*
X90059524Y-78239638D01*
X90059524Y-78239638D02*
X90261905Y-78144400D01*
X90261905Y-78144400D02*
X90380952Y-77953923D01*
X90380952Y-77953923D02*
X90392857Y-77858685D01*
X90392857Y-77858685D02*
X90321428Y-77668209D01*
X90321428Y-77668209D02*
X90142857Y-77572971D01*
X90142857Y-77572971D02*
X89857143Y-77572971D01*
X89857143Y-77572971D02*
X89678571Y-77477733D01*
X89678571Y-77477733D02*
X89607143Y-77287257D01*
X89607143Y-77287257D02*
X89619048Y-77192019D01*
X89619048Y-77192019D02*
X89738095Y-77001542D01*
X89738095Y-77001542D02*
X89940476Y-76906304D01*
X89940476Y-76906304D02*
X90226190Y-76906304D01*
X90226190Y-76906304D02*
X90404762Y-77001542D01*
X91083334Y-76906304D02*
X91845238Y-76906304D01*
X91452381Y-76239638D02*
X91238096Y-77953923D01*
X91238096Y-77953923D02*
X91309524Y-78144400D01*
X91309524Y-78144400D02*
X91488096Y-78239638D01*
X91488096Y-78239638D02*
X91678572Y-78239638D01*
X93369048Y-76906304D02*
X93202381Y-78239638D01*
X92511905Y-76906304D02*
X92380953Y-77953923D01*
X92380953Y-77953923D02*
X92452381Y-78144400D01*
X92452381Y-78144400D02*
X92630953Y-78239638D01*
X92630953Y-78239638D02*
X92916667Y-78239638D01*
X92916667Y-78239638D02*
X93119048Y-78144400D01*
X93119048Y-78144400D02*
X93226191Y-78049161D01*
X94154762Y-78239638D02*
X94321429Y-76906304D01*
X94273810Y-77287257D02*
X94392857Y-77096780D01*
X94392857Y-77096780D02*
X94500000Y-77001542D01*
X94500000Y-77001542D02*
X94702381Y-76906304D01*
X94702381Y-76906304D02*
X94892857Y-76906304D01*
X96166667Y-78144400D02*
X95964286Y-78239638D01*
X95964286Y-78239638D02*
X95583333Y-78239638D01*
X95583333Y-78239638D02*
X95404762Y-78144400D01*
X95404762Y-78144400D02*
X95333333Y-77953923D01*
X95333333Y-77953923D02*
X95428572Y-77192019D01*
X95428572Y-77192019D02*
X95547619Y-77001542D01*
X95547619Y-77001542D02*
X95750000Y-76906304D01*
X95750000Y-76906304D02*
X96130952Y-76906304D01*
X96130952Y-76906304D02*
X96309524Y-77001542D01*
X96309524Y-77001542D02*
X96380952Y-77192019D01*
X96380952Y-77192019D02*
X96357143Y-77382495D01*
X96357143Y-77382495D02*
X95380952Y-77572971D01*
X335196428Y-126617257D02*
X335571428Y-123617257D01*
X335392857Y-125045828D02*
X337107142Y-125045828D01*
X336910714Y-126617257D02*
X337285714Y-123617257D01*
X339499999Y-126474400D02*
X339196428Y-126617257D01*
X339196428Y-126617257D02*
X338624999Y-126617257D01*
X338624999Y-126617257D02*
X338357142Y-126474400D01*
X338357142Y-126474400D02*
X338249999Y-126188685D01*
X338249999Y-126188685D02*
X338392857Y-125045828D01*
X338392857Y-125045828D02*
X338571428Y-124760114D01*
X338571428Y-124760114D02*
X338874999Y-124617257D01*
X338874999Y-124617257D02*
X339446428Y-124617257D01*
X339446428Y-124617257D02*
X339714285Y-124760114D01*
X339714285Y-124760114D02*
X339821428Y-125045828D01*
X339821428Y-125045828D02*
X339785714Y-125331542D01*
X339785714Y-125331542D02*
X338321428Y-125617257D01*
X342196428Y-126617257D02*
X342392857Y-125045828D01*
X342392857Y-125045828D02*
X342285714Y-124760114D01*
X342285714Y-124760114D02*
X342017857Y-124617257D01*
X342017857Y-124617257D02*
X341446428Y-124617257D01*
X341446428Y-124617257D02*
X341142857Y-124760114D01*
X342214286Y-126474400D02*
X341910714Y-126617257D01*
X341910714Y-126617257D02*
X341196428Y-126617257D01*
X341196428Y-126617257D02*
X340928571Y-126474400D01*
X340928571Y-126474400D02*
X340821428Y-126188685D01*
X340821428Y-126188685D02*
X340857143Y-125902971D01*
X340857143Y-125902971D02*
X341035714Y-125617257D01*
X341035714Y-125617257D02*
X341339286Y-125474400D01*
X341339286Y-125474400D02*
X342053571Y-125474400D01*
X342053571Y-125474400D02*
X342357143Y-125331542D01*
X343446429Y-124617257D02*
X344589286Y-124617257D01*
X344000000Y-123617257D02*
X343678572Y-126188685D01*
X343678572Y-126188685D02*
X343785714Y-126474400D01*
X343785714Y-126474400D02*
X344053572Y-126617257D01*
X344053572Y-126617257D02*
X344339286Y-126617257D01*
X346767858Y-126617257D02*
X345339286Y-126617257D01*
X345339286Y-126617257D02*
X345714286Y-123617257D01*
X349053571Y-126617257D02*
X349250000Y-125045828D01*
X349250000Y-125045828D02*
X349142857Y-124760114D01*
X349142857Y-124760114D02*
X348875000Y-124617257D01*
X348875000Y-124617257D02*
X348303571Y-124617257D01*
X348303571Y-124617257D02*
X348000000Y-124760114D01*
X349071429Y-126474400D02*
X348767857Y-126617257D01*
X348767857Y-126617257D02*
X348053571Y-126617257D01*
X348053571Y-126617257D02*
X347785714Y-126474400D01*
X347785714Y-126474400D02*
X347678571Y-126188685D01*
X347678571Y-126188685D02*
X347714286Y-125902971D01*
X347714286Y-125902971D02*
X347892857Y-125617257D01*
X347892857Y-125617257D02*
X348196429Y-125474400D01*
X348196429Y-125474400D02*
X348910714Y-125474400D01*
X348910714Y-125474400D02*
X349214286Y-125331542D01*
X350482143Y-126617257D02*
X350732143Y-124617257D01*
X350696429Y-124902971D02*
X350857143Y-124760114D01*
X350857143Y-124760114D02*
X351160715Y-124617257D01*
X351160715Y-124617257D02*
X351589286Y-124617257D01*
X351589286Y-124617257D02*
X351857143Y-124760114D01*
X351857143Y-124760114D02*
X351964286Y-125045828D01*
X351964286Y-125045828D02*
X351767857Y-126617257D01*
X351964286Y-125045828D02*
X352142857Y-124760114D01*
X352142857Y-124760114D02*
X352446429Y-124617257D01*
X352446429Y-124617257D02*
X352875000Y-124617257D01*
X352875000Y-124617257D02*
X353142857Y-124760114D01*
X353142857Y-124760114D02*
X353250000Y-125045828D01*
X353250000Y-125045828D02*
X353053572Y-126617257D01*
X354732143Y-124617257D02*
X354357143Y-127617257D01*
X354714286Y-124760114D02*
X355017857Y-124617257D01*
X355017857Y-124617257D02*
X355589286Y-124617257D01*
X355589286Y-124617257D02*
X355857143Y-124760114D01*
X355857143Y-124760114D02*
X355982143Y-124902971D01*
X355982143Y-124902971D02*
X356089286Y-125188685D01*
X356089286Y-125188685D02*
X355982143Y-126045828D01*
X355982143Y-126045828D02*
X355803572Y-126331542D01*
X355803572Y-126331542D02*
X355642857Y-126474400D01*
X355642857Y-126474400D02*
X355339286Y-126617257D01*
X355339286Y-126617257D02*
X354767857Y-126617257D01*
X354767857Y-126617257D02*
X354500000Y-126474400D01*
X298196428Y-77117257D02*
X298571428Y-74117257D01*
X298392857Y-75545828D02*
X300107142Y-75545828D01*
X299910714Y-77117257D02*
X300285714Y-74117257D01*
X302874999Y-75117257D02*
X302624999Y-77117257D01*
X301589285Y-75117257D02*
X301392857Y-76688685D01*
X301392857Y-76688685D02*
X301499999Y-76974400D01*
X301499999Y-76974400D02*
X301767857Y-77117257D01*
X301767857Y-77117257D02*
X302196428Y-77117257D01*
X302196428Y-77117257D02*
X302499999Y-76974400D01*
X302499999Y-76974400D02*
X302660714Y-76831542D01*
X304053571Y-77117257D02*
X304303571Y-75117257D01*
X304267857Y-75402971D02*
X304428571Y-75260114D01*
X304428571Y-75260114D02*
X304732143Y-75117257D01*
X304732143Y-75117257D02*
X305160714Y-75117257D01*
X305160714Y-75117257D02*
X305428571Y-75260114D01*
X305428571Y-75260114D02*
X305535714Y-75545828D01*
X305535714Y-75545828D02*
X305339285Y-77117257D01*
X305535714Y-75545828D02*
X305714285Y-75260114D01*
X305714285Y-75260114D02*
X306017857Y-75117257D01*
X306017857Y-75117257D02*
X306446428Y-75117257D01*
X306446428Y-75117257D02*
X306714285Y-75260114D01*
X306714285Y-75260114D02*
X306821428Y-75545828D01*
X306821428Y-75545828D02*
X306625000Y-77117257D01*
X308053571Y-77117257D02*
X308303571Y-75117257D01*
X308428571Y-74117257D02*
X308267857Y-74260114D01*
X308267857Y-74260114D02*
X308392857Y-74402971D01*
X308392857Y-74402971D02*
X308553571Y-74260114D01*
X308553571Y-74260114D02*
X308428571Y-74117257D01*
X308428571Y-74117257D02*
X308392857Y-74402971D01*
X310767856Y-77117257D02*
X311142856Y-74117257D01*
X310785714Y-76974400D02*
X310482142Y-77117257D01*
X310482142Y-77117257D02*
X309910714Y-77117257D01*
X309910714Y-77117257D02*
X309642856Y-76974400D01*
X309642856Y-76974400D02*
X309517856Y-76831542D01*
X309517856Y-76831542D02*
X309410714Y-76545828D01*
X309410714Y-76545828D02*
X309517856Y-75688685D01*
X309517856Y-75688685D02*
X309696428Y-75402971D01*
X309696428Y-75402971D02*
X309857142Y-75260114D01*
X309857142Y-75260114D02*
X310160714Y-75117257D01*
X310160714Y-75117257D02*
X310732142Y-75117257D01*
X310732142Y-75117257D02*
X310999999Y-75260114D01*
X312196428Y-77117257D02*
X312446428Y-75117257D01*
X312571428Y-74117257D02*
X312410714Y-74260114D01*
X312410714Y-74260114D02*
X312535714Y-74402971D01*
X312535714Y-74402971D02*
X312696428Y-74260114D01*
X312696428Y-74260114D02*
X312571428Y-74117257D01*
X312571428Y-74117257D02*
X312535714Y-74402971D01*
X313446428Y-75117257D02*
X314589285Y-75117257D01*
X313624999Y-77117257D02*
X313946428Y-74545828D01*
X313946428Y-74545828D02*
X314124999Y-74260114D01*
X314124999Y-74260114D02*
X314428571Y-74117257D01*
X314428571Y-74117257D02*
X314714285Y-74117257D01*
X315339285Y-77117257D02*
X315589285Y-75117257D01*
X315714285Y-74117257D02*
X315553571Y-74260114D01*
X315553571Y-74260114D02*
X315678571Y-74402971D01*
X315678571Y-74402971D02*
X315839285Y-74260114D01*
X315839285Y-74260114D02*
X315714285Y-74117257D01*
X315714285Y-74117257D02*
X315678571Y-74402971D01*
X317928570Y-76974400D02*
X317624999Y-77117257D01*
X317624999Y-77117257D02*
X317053570Y-77117257D01*
X317053570Y-77117257D02*
X316785713Y-76974400D01*
X316785713Y-76974400D02*
X316678570Y-76688685D01*
X316678570Y-76688685D02*
X316821428Y-75545828D01*
X316821428Y-75545828D02*
X316999999Y-75260114D01*
X316999999Y-75260114D02*
X317303570Y-75117257D01*
X317303570Y-75117257D02*
X317874999Y-75117257D01*
X317874999Y-75117257D02*
X318142856Y-75260114D01*
X318142856Y-75260114D02*
X318249999Y-75545828D01*
X318249999Y-75545828D02*
X318214285Y-75831542D01*
X318214285Y-75831542D02*
X316749999Y-76117257D01*
X319339285Y-77117257D02*
X319589285Y-75117257D01*
X319517857Y-75688685D02*
X319696428Y-75402971D01*
X319696428Y-75402971D02*
X319857142Y-75260114D01*
X319857142Y-75260114D02*
X320160714Y-75117257D01*
X320160714Y-75117257D02*
X320446428Y-75117257D01*
X375892857Y-75045828D02*
X374892857Y-75045828D01*
X374696428Y-76617257D02*
X375071428Y-73617257D01*
X375071428Y-73617257D02*
X376500000Y-73617257D01*
X378553571Y-76617257D02*
X378750000Y-75045828D01*
X378750000Y-75045828D02*
X378642857Y-74760114D01*
X378642857Y-74760114D02*
X378375000Y-74617257D01*
X378375000Y-74617257D02*
X377803571Y-74617257D01*
X377803571Y-74617257D02*
X377500000Y-74760114D01*
X378571429Y-76474400D02*
X378267857Y-76617257D01*
X378267857Y-76617257D02*
X377553571Y-76617257D01*
X377553571Y-76617257D02*
X377285714Y-76474400D01*
X377285714Y-76474400D02*
X377178571Y-76188685D01*
X377178571Y-76188685D02*
X377214286Y-75902971D01*
X377214286Y-75902971D02*
X377392857Y-75617257D01*
X377392857Y-75617257D02*
X377696429Y-75474400D01*
X377696429Y-75474400D02*
X378410714Y-75474400D01*
X378410714Y-75474400D02*
X378714286Y-75331542D01*
X380232143Y-74617257D02*
X379982143Y-76617257D01*
X380196429Y-74902971D02*
X380357143Y-74760114D01*
X380357143Y-74760114D02*
X380660715Y-74617257D01*
X380660715Y-74617257D02*
X381089286Y-74617257D01*
X381089286Y-74617257D02*
X381357143Y-74760114D01*
X381357143Y-74760114D02*
X381464286Y-75045828D01*
X381464286Y-75045828D02*
X381267857Y-76617257D01*
X90928571Y-164617257D02*
X91267857Y-167617257D01*
X91267857Y-167617257D02*
X92107142Y-165474400D01*
X92107142Y-165474400D02*
X92410714Y-167617257D01*
X92410714Y-167617257D02*
X93499999Y-164617257D01*
X95553570Y-167617257D02*
X95749999Y-166045828D01*
X95749999Y-166045828D02*
X95642856Y-165760114D01*
X95642856Y-165760114D02*
X95374999Y-165617257D01*
X95374999Y-165617257D02*
X94803570Y-165617257D01*
X94803570Y-165617257D02*
X94499999Y-165760114D01*
X95571428Y-167474400D02*
X95267856Y-167617257D01*
X95267856Y-167617257D02*
X94553570Y-167617257D01*
X94553570Y-167617257D02*
X94285713Y-167474400D01*
X94285713Y-167474400D02*
X94178570Y-167188685D01*
X94178570Y-167188685D02*
X94214285Y-166902971D01*
X94214285Y-166902971D02*
X94392856Y-166617257D01*
X94392856Y-166617257D02*
X94696428Y-166474400D01*
X94696428Y-166474400D02*
X95410713Y-166474400D01*
X95410713Y-166474400D02*
X95714285Y-166331542D01*
X96803571Y-165617257D02*
X97946428Y-165617257D01*
X97357142Y-164617257D02*
X97035714Y-167188685D01*
X97035714Y-167188685D02*
X97142856Y-167474400D01*
X97142856Y-167474400D02*
X97410714Y-167617257D01*
X97410714Y-167617257D02*
X97696428Y-167617257D01*
X99857142Y-167474400D02*
X99553571Y-167617257D01*
X99553571Y-167617257D02*
X98982142Y-167617257D01*
X98982142Y-167617257D02*
X98714285Y-167474400D01*
X98714285Y-167474400D02*
X98607142Y-167188685D01*
X98607142Y-167188685D02*
X98750000Y-166045828D01*
X98750000Y-166045828D02*
X98928571Y-165760114D01*
X98928571Y-165760114D02*
X99232142Y-165617257D01*
X99232142Y-165617257D02*
X99803571Y-165617257D01*
X99803571Y-165617257D02*
X100071428Y-165760114D01*
X100071428Y-165760114D02*
X100178571Y-166045828D01*
X100178571Y-166045828D02*
X100142857Y-166331542D01*
X100142857Y-166331542D02*
X98678571Y-166617257D01*
X101267857Y-167617257D02*
X101517857Y-165617257D01*
X101446429Y-166188685D02*
X101625000Y-165902971D01*
X101625000Y-165902971D02*
X101785714Y-165760114D01*
X101785714Y-165760114D02*
X102089286Y-165617257D01*
X102089286Y-165617257D02*
X102375000Y-165617257D01*
X103125000Y-167617257D02*
X103500000Y-164617257D01*
X103500000Y-164617257D02*
X104642857Y-164617257D01*
X104642857Y-164617257D02*
X104910714Y-164760114D01*
X104910714Y-164760114D02*
X105035714Y-164902971D01*
X105035714Y-164902971D02*
X105142857Y-165188685D01*
X105142857Y-165188685D02*
X105089286Y-165617257D01*
X105089286Y-165617257D02*
X104910714Y-165902971D01*
X104910714Y-165902971D02*
X104750000Y-166045828D01*
X104750000Y-166045828D02*
X104446429Y-166188685D01*
X104446429Y-166188685D02*
X103303572Y-166188685D01*
X107660714Y-165617257D02*
X107410714Y-167617257D01*
X106375000Y-165617257D02*
X106178572Y-167188685D01*
X106178572Y-167188685D02*
X106285714Y-167474400D01*
X106285714Y-167474400D02*
X106553572Y-167617257D01*
X106553572Y-167617257D02*
X106982143Y-167617257D01*
X106982143Y-167617257D02*
X107285714Y-167474400D01*
X107285714Y-167474400D02*
X107446429Y-167331542D01*
X108839286Y-167617257D02*
X109089286Y-165617257D01*
X109053572Y-165902971D02*
X109214286Y-165760114D01*
X109214286Y-165760114D02*
X109517858Y-165617257D01*
X109517858Y-165617257D02*
X109946429Y-165617257D01*
X109946429Y-165617257D02*
X110214286Y-165760114D01*
X110214286Y-165760114D02*
X110321429Y-166045828D01*
X110321429Y-166045828D02*
X110125000Y-167617257D01*
X110321429Y-166045828D02*
X110500000Y-165760114D01*
X110500000Y-165760114D02*
X110803572Y-165617257D01*
X110803572Y-165617257D02*
X111232143Y-165617257D01*
X111232143Y-165617257D02*
X111500000Y-165760114D01*
X111500000Y-165760114D02*
X111607143Y-166045828D01*
X111607143Y-166045828D02*
X111410715Y-167617257D01*
X113089286Y-165617257D02*
X112714286Y-168617257D01*
X113071429Y-165760114D02*
X113375000Y-165617257D01*
X113375000Y-165617257D02*
X113946429Y-165617257D01*
X113946429Y-165617257D02*
X114214286Y-165760114D01*
X114214286Y-165760114D02*
X114339286Y-165902971D01*
X114339286Y-165902971D02*
X114446429Y-166188685D01*
X114446429Y-166188685D02*
X114339286Y-167045828D01*
X114339286Y-167045828D02*
X114160715Y-167331542D01*
X114160715Y-167331542D02*
X114000000Y-167474400D01*
X114000000Y-167474400D02*
X113696429Y-167617257D01*
X113696429Y-167617257D02*
X113125000Y-167617257D01*
X113125000Y-167617257D02*
X112857143Y-167474400D01*
X150410713Y-167117257D02*
X150785713Y-164117257D01*
X150785713Y-164117257D02*
X151928570Y-164117257D01*
X151928570Y-164117257D02*
X152196427Y-164260114D01*
X152196427Y-164260114D02*
X152321427Y-164402971D01*
X152321427Y-164402971D02*
X152428570Y-164688685D01*
X152428570Y-164688685D02*
X152374999Y-165117257D01*
X152374999Y-165117257D02*
X152196427Y-165402971D01*
X152196427Y-165402971D02*
X152035713Y-165545828D01*
X152035713Y-165545828D02*
X151732142Y-165688685D01*
X151732142Y-165688685D02*
X150589285Y-165688685D01*
X154571427Y-166974400D02*
X154267856Y-167117257D01*
X154267856Y-167117257D02*
X153696427Y-167117257D01*
X153696427Y-167117257D02*
X153428570Y-166974400D01*
X153428570Y-166974400D02*
X153321427Y-166688685D01*
X153321427Y-166688685D02*
X153464285Y-165545828D01*
X153464285Y-165545828D02*
X153642856Y-165260114D01*
X153642856Y-165260114D02*
X153946427Y-165117257D01*
X153946427Y-165117257D02*
X154517856Y-165117257D01*
X154517856Y-165117257D02*
X154785713Y-165260114D01*
X154785713Y-165260114D02*
X154892856Y-165545828D01*
X154892856Y-165545828D02*
X154857142Y-165831542D01*
X154857142Y-165831542D02*
X153392856Y-166117257D01*
X156410714Y-167117257D02*
X156142856Y-166974400D01*
X156142856Y-166974400D02*
X156035714Y-166688685D01*
X156035714Y-166688685D02*
X156357142Y-164117257D01*
X157375000Y-165117257D02*
X158517857Y-165117257D01*
X157928571Y-164117257D02*
X157607143Y-166688685D01*
X157607143Y-166688685D02*
X157714285Y-166974400D01*
X157714285Y-166974400D02*
X157982143Y-167117257D01*
X157982143Y-167117257D02*
X158267857Y-167117257D01*
X159267857Y-167117257D02*
X159517857Y-165117257D01*
X159642857Y-164117257D02*
X159482143Y-164260114D01*
X159482143Y-164260114D02*
X159607143Y-164402971D01*
X159607143Y-164402971D02*
X159767857Y-164260114D01*
X159767857Y-164260114D02*
X159642857Y-164117257D01*
X159642857Y-164117257D02*
X159607143Y-164402971D01*
X161857142Y-166974400D02*
X161553571Y-167117257D01*
X161553571Y-167117257D02*
X160982142Y-167117257D01*
X160982142Y-167117257D02*
X160714285Y-166974400D01*
X160714285Y-166974400D02*
X160607142Y-166688685D01*
X160607142Y-166688685D02*
X160750000Y-165545828D01*
X160750000Y-165545828D02*
X160928571Y-165260114D01*
X160928571Y-165260114D02*
X161232142Y-165117257D01*
X161232142Y-165117257D02*
X161803571Y-165117257D01*
X161803571Y-165117257D02*
X162071428Y-165260114D01*
X162071428Y-165260114D02*
X162178571Y-165545828D01*
X162178571Y-165545828D02*
X162142857Y-165831542D01*
X162142857Y-165831542D02*
X160678571Y-166117257D01*
X163267857Y-167117257D02*
X163517857Y-165117257D01*
X163446429Y-165688685D02*
X163625000Y-165402971D01*
X163625000Y-165402971D02*
X163785714Y-165260114D01*
X163785714Y-165260114D02*
X164089286Y-165117257D01*
X164089286Y-165117257D02*
X164375000Y-165117257D01*
X165321429Y-164402971D02*
X165482143Y-164260114D01*
X165482143Y-164260114D02*
X165785714Y-164117257D01*
X165785714Y-164117257D02*
X166500000Y-164117257D01*
X166500000Y-164117257D02*
X166767857Y-164260114D01*
X166767857Y-164260114D02*
X166892857Y-164402971D01*
X166892857Y-164402971D02*
X167000000Y-164688685D01*
X167000000Y-164688685D02*
X166964286Y-164974400D01*
X166964286Y-164974400D02*
X166767857Y-165402971D01*
X166767857Y-165402971D02*
X164839286Y-167117257D01*
X164839286Y-167117257D02*
X166696429Y-167117257D01*
X117910713Y-120117257D02*
X118285713Y-117117257D01*
X118285713Y-117117257D02*
X119428570Y-117117257D01*
X119428570Y-117117257D02*
X119696427Y-117260114D01*
X119696427Y-117260114D02*
X119821427Y-117402971D01*
X119821427Y-117402971D02*
X119928570Y-117688685D01*
X119928570Y-117688685D02*
X119874999Y-118117257D01*
X119874999Y-118117257D02*
X119696427Y-118402971D01*
X119696427Y-118402971D02*
X119535713Y-118545828D01*
X119535713Y-118545828D02*
X119232142Y-118688685D01*
X119232142Y-118688685D02*
X118089285Y-118688685D01*
X122071427Y-119974400D02*
X121767856Y-120117257D01*
X121767856Y-120117257D02*
X121196427Y-120117257D01*
X121196427Y-120117257D02*
X120928570Y-119974400D01*
X120928570Y-119974400D02*
X120821427Y-119688685D01*
X120821427Y-119688685D02*
X120964285Y-118545828D01*
X120964285Y-118545828D02*
X121142856Y-118260114D01*
X121142856Y-118260114D02*
X121446427Y-118117257D01*
X121446427Y-118117257D02*
X122017856Y-118117257D01*
X122017856Y-118117257D02*
X122285713Y-118260114D01*
X122285713Y-118260114D02*
X122392856Y-118545828D01*
X122392856Y-118545828D02*
X122357142Y-118831542D01*
X122357142Y-118831542D02*
X120892856Y-119117257D01*
X123910714Y-120117257D02*
X123642856Y-119974400D01*
X123642856Y-119974400D02*
X123535714Y-119688685D01*
X123535714Y-119688685D02*
X123857142Y-117117257D01*
X124875000Y-118117257D02*
X126017857Y-118117257D01*
X125428571Y-117117257D02*
X125107143Y-119688685D01*
X125107143Y-119688685D02*
X125214285Y-119974400D01*
X125214285Y-119974400D02*
X125482143Y-120117257D01*
X125482143Y-120117257D02*
X125767857Y-120117257D01*
X126767857Y-120117257D02*
X127017857Y-118117257D01*
X127142857Y-117117257D02*
X126982143Y-117260114D01*
X126982143Y-117260114D02*
X127107143Y-117402971D01*
X127107143Y-117402971D02*
X127267857Y-117260114D01*
X127267857Y-117260114D02*
X127142857Y-117117257D01*
X127142857Y-117117257D02*
X127107143Y-117402971D01*
X129357142Y-119974400D02*
X129053571Y-120117257D01*
X129053571Y-120117257D02*
X128482142Y-120117257D01*
X128482142Y-120117257D02*
X128214285Y-119974400D01*
X128214285Y-119974400D02*
X128107142Y-119688685D01*
X128107142Y-119688685D02*
X128250000Y-118545828D01*
X128250000Y-118545828D02*
X128428571Y-118260114D01*
X128428571Y-118260114D02*
X128732142Y-118117257D01*
X128732142Y-118117257D02*
X129303571Y-118117257D01*
X129303571Y-118117257D02*
X129571428Y-118260114D01*
X129571428Y-118260114D02*
X129678571Y-118545828D01*
X129678571Y-118545828D02*
X129642857Y-118831542D01*
X129642857Y-118831542D02*
X128178571Y-119117257D01*
X130767857Y-120117257D02*
X131017857Y-118117257D01*
X130946429Y-118688685D02*
X131125000Y-118402971D01*
X131125000Y-118402971D02*
X131285714Y-118260114D01*
X131285714Y-118260114D02*
X131589286Y-118117257D01*
X131589286Y-118117257D02*
X131875000Y-118117257D01*
X134196429Y-120117257D02*
X132482143Y-120117257D01*
X133339286Y-120117257D02*
X133714286Y-117117257D01*
X133714286Y-117117257D02*
X133375000Y-117545828D01*
X133375000Y-117545828D02*
X133053572Y-117831542D01*
X133053572Y-117831542D02*
X132750000Y-117974400D01*
D11*
X389707419Y-88803258D02*
X389683609Y-88850877D01*
X389683609Y-88850877D02*
X389683609Y-88922306D01*
X389683609Y-88922306D02*
X389707419Y-88993734D01*
X389707419Y-88993734D02*
X389755038Y-89041353D01*
X389755038Y-89041353D02*
X389802657Y-89065163D01*
X389802657Y-89065163D02*
X389897895Y-89088972D01*
X389897895Y-89088972D02*
X389969323Y-89088972D01*
X389969323Y-89088972D02*
X390064561Y-89065163D01*
X390064561Y-89065163D02*
X390112180Y-89041353D01*
X390112180Y-89041353D02*
X390159800Y-88993734D01*
X390159800Y-88993734D02*
X390183609Y-88922306D01*
X390183609Y-88922306D02*
X390183609Y-88874687D01*
X390183609Y-88874687D02*
X390159800Y-88803258D01*
X390159800Y-88803258D02*
X390135990Y-88779449D01*
X390135990Y-88779449D02*
X389969323Y-88779449D01*
X389969323Y-88779449D02*
X389969323Y-88874687D01*
X390183609Y-88565163D02*
X389683609Y-88565163D01*
X389683609Y-88565163D02*
X390183609Y-88279449D01*
X390183609Y-88279449D02*
X389683609Y-88279449D01*
X390183609Y-88041353D02*
X389683609Y-88041353D01*
X389683609Y-88041353D02*
X389683609Y-87922305D01*
X389683609Y-87922305D02*
X389707419Y-87850877D01*
X389707419Y-87850877D02*
X389755038Y-87803258D01*
X389755038Y-87803258D02*
X389802657Y-87779448D01*
X389802657Y-87779448D02*
X389897895Y-87755639D01*
X389897895Y-87755639D02*
X389969323Y-87755639D01*
X389969323Y-87755639D02*
X390064561Y-87779448D01*
X390064561Y-87779448D02*
X390112180Y-87803258D01*
X390112180Y-87803258D02*
X390159800Y-87850877D01*
X390159800Y-87850877D02*
X390183609Y-87922305D01*
X390183609Y-87922305D02*
X390183609Y-88041353D01*
X364472931Y-80350038D02*
X364853884Y-80350038D01*
X364853884Y-80350038D02*
X365044360Y-80445276D01*
X365044360Y-80445276D02*
X365234836Y-80635752D01*
X365234836Y-80635752D02*
X365330074Y-81016704D01*
X365330074Y-81016704D02*
X365330074Y-81683371D01*
X365330074Y-81683371D02*
X365234836Y-82064323D01*
X365234836Y-82064323D02*
X365044360Y-82254800D01*
X365044360Y-82254800D02*
X364853884Y-82350038D01*
X364853884Y-82350038D02*
X364472931Y-82350038D01*
X364472931Y-82350038D02*
X364282455Y-82254800D01*
X364282455Y-82254800D02*
X364091979Y-82064323D01*
X364091979Y-82064323D02*
X363996741Y-81683371D01*
X363996741Y-81683371D02*
X363996741Y-81016704D01*
X363996741Y-81016704D02*
X364091979Y-80635752D01*
X364091979Y-80635752D02*
X364282455Y-80445276D01*
X364282455Y-80445276D02*
X364472931Y-80350038D01*
X366187217Y-80350038D02*
X366187217Y-81969085D01*
X366187217Y-81969085D02*
X366282455Y-82159561D01*
X366282455Y-82159561D02*
X366377693Y-82254800D01*
X366377693Y-82254800D02*
X366568169Y-82350038D01*
X366568169Y-82350038D02*
X366949122Y-82350038D01*
X366949122Y-82350038D02*
X367139598Y-82254800D01*
X367139598Y-82254800D02*
X367234836Y-82159561D01*
X367234836Y-82159561D02*
X367330074Y-81969085D01*
X367330074Y-81969085D02*
X367330074Y-80350038D01*
X367996741Y-80350038D02*
X369139598Y-80350038D01*
X368568169Y-82350038D02*
X368568169Y-80350038D01*
X390183609Y-84065163D02*
X389683609Y-84065163D01*
X389683609Y-84065163D02*
X389683609Y-83874687D01*
X389683609Y-83874687D02*
X389707419Y-83827068D01*
X389707419Y-83827068D02*
X389731228Y-83803258D01*
X389731228Y-83803258D02*
X389778847Y-83779449D01*
X389778847Y-83779449D02*
X389850276Y-83779449D01*
X389850276Y-83779449D02*
X389897895Y-83803258D01*
X389897895Y-83803258D02*
X389921704Y-83827068D01*
X389921704Y-83827068D02*
X389945514Y-83874687D01*
X389945514Y-83874687D02*
X389945514Y-84065163D01*
X389683609Y-83612782D02*
X390183609Y-83493734D01*
X390183609Y-83493734D02*
X389826466Y-83398496D01*
X389826466Y-83398496D02*
X390183609Y-83303258D01*
X390183609Y-83303258D02*
X389683609Y-83184211D01*
X390183609Y-82993734D02*
X389683609Y-82993734D01*
X389683609Y-82993734D02*
X390040752Y-82827067D01*
X390040752Y-82827067D02*
X389683609Y-82660401D01*
X389683609Y-82660401D02*
X390183609Y-82660401D01*
X367458020Y-89749961D02*
X367458020Y-91749961D01*
X366505639Y-89749961D02*
X366505639Y-91749961D01*
X366505639Y-91749961D02*
X365362782Y-89749961D01*
X365362782Y-89749961D02*
X365362782Y-91749961D01*
X90958020Y-181749961D02*
X90958020Y-183749961D01*
X90005639Y-181749961D02*
X90005639Y-183749961D01*
X90005639Y-183749961D02*
X88862782Y-181749961D01*
X88862782Y-181749961D02*
X88862782Y-183749961D01*
X113683609Y-176065163D02*
X113183609Y-176065163D01*
X113183609Y-176065163D02*
X113183609Y-175874687D01*
X113183609Y-175874687D02*
X113207419Y-175827068D01*
X113207419Y-175827068D02*
X113231228Y-175803258D01*
X113231228Y-175803258D02*
X113278847Y-175779449D01*
X113278847Y-175779449D02*
X113350276Y-175779449D01*
X113350276Y-175779449D02*
X113397895Y-175803258D01*
X113397895Y-175803258D02*
X113421704Y-175827068D01*
X113421704Y-175827068D02*
X113445514Y-175874687D01*
X113445514Y-175874687D02*
X113445514Y-176065163D01*
X113183609Y-175612782D02*
X113683609Y-175493734D01*
X113683609Y-175493734D02*
X113326466Y-175398496D01*
X113326466Y-175398496D02*
X113683609Y-175303258D01*
X113683609Y-175303258D02*
X113183609Y-175184211D01*
X113683609Y-174993734D02*
X113183609Y-174993734D01*
X113183609Y-174993734D02*
X113540752Y-174827067D01*
X113540752Y-174827067D02*
X113183609Y-174660401D01*
X113183609Y-174660401D02*
X113683609Y-174660401D01*
X87972931Y-172350038D02*
X88353884Y-172350038D01*
X88353884Y-172350038D02*
X88544360Y-172445276D01*
X88544360Y-172445276D02*
X88734836Y-172635752D01*
X88734836Y-172635752D02*
X88830074Y-173016704D01*
X88830074Y-173016704D02*
X88830074Y-173683371D01*
X88830074Y-173683371D02*
X88734836Y-174064323D01*
X88734836Y-174064323D02*
X88544360Y-174254800D01*
X88544360Y-174254800D02*
X88353884Y-174350038D01*
X88353884Y-174350038D02*
X87972931Y-174350038D01*
X87972931Y-174350038D02*
X87782455Y-174254800D01*
X87782455Y-174254800D02*
X87591979Y-174064323D01*
X87591979Y-174064323D02*
X87496741Y-173683371D01*
X87496741Y-173683371D02*
X87496741Y-173016704D01*
X87496741Y-173016704D02*
X87591979Y-172635752D01*
X87591979Y-172635752D02*
X87782455Y-172445276D01*
X87782455Y-172445276D02*
X87972931Y-172350038D01*
X89687217Y-172350038D02*
X89687217Y-173969085D01*
X89687217Y-173969085D02*
X89782455Y-174159561D01*
X89782455Y-174159561D02*
X89877693Y-174254800D01*
X89877693Y-174254800D02*
X90068169Y-174350038D01*
X90068169Y-174350038D02*
X90449122Y-174350038D01*
X90449122Y-174350038D02*
X90639598Y-174254800D01*
X90639598Y-174254800D02*
X90734836Y-174159561D01*
X90734836Y-174159561D02*
X90830074Y-173969085D01*
X90830074Y-173969085D02*
X90830074Y-172350038D01*
X91496741Y-172350038D02*
X92639598Y-172350038D01*
X92068169Y-174350038D02*
X92068169Y-172350038D01*
X113207419Y-180803258D02*
X113183609Y-180850877D01*
X113183609Y-180850877D02*
X113183609Y-180922306D01*
X113183609Y-180922306D02*
X113207419Y-180993734D01*
X113207419Y-180993734D02*
X113255038Y-181041353D01*
X113255038Y-181041353D02*
X113302657Y-181065163D01*
X113302657Y-181065163D02*
X113397895Y-181088972D01*
X113397895Y-181088972D02*
X113469323Y-181088972D01*
X113469323Y-181088972D02*
X113564561Y-181065163D01*
X113564561Y-181065163D02*
X113612180Y-181041353D01*
X113612180Y-181041353D02*
X113659800Y-180993734D01*
X113659800Y-180993734D02*
X113683609Y-180922306D01*
X113683609Y-180922306D02*
X113683609Y-180874687D01*
X113683609Y-180874687D02*
X113659800Y-180803258D01*
X113659800Y-180803258D02*
X113635990Y-180779449D01*
X113635990Y-180779449D02*
X113469323Y-180779449D01*
X113469323Y-180779449D02*
X113469323Y-180874687D01*
X113683609Y-180565163D02*
X113183609Y-180565163D01*
X113183609Y-180565163D02*
X113683609Y-180279449D01*
X113683609Y-180279449D02*
X113183609Y-180279449D01*
X113683609Y-180041353D02*
X113183609Y-180041353D01*
X113183609Y-180041353D02*
X113183609Y-179922305D01*
X113183609Y-179922305D02*
X113207419Y-179850877D01*
X113207419Y-179850877D02*
X113255038Y-179803258D01*
X113255038Y-179803258D02*
X113302657Y-179779448D01*
X113302657Y-179779448D02*
X113397895Y-179755639D01*
X113397895Y-179755639D02*
X113469323Y-179755639D01*
X113469323Y-179755639D02*
X113564561Y-179779448D01*
X113564561Y-179779448D02*
X113612180Y-179803258D01*
X113612180Y-179803258D02*
X113659800Y-179850877D01*
X113659800Y-179850877D02*
X113683609Y-179922305D01*
X113683609Y-179922305D02*
X113683609Y-180041353D01*
D12*
X219533095Y-86379819D02*
X219533095Y-87189342D01*
X219533095Y-87189342D02*
X219580714Y-87284580D01*
X219580714Y-87284580D02*
X219628333Y-87332200D01*
X219628333Y-87332200D02*
X219723571Y-87379819D01*
X219723571Y-87379819D02*
X219914047Y-87379819D01*
X219914047Y-87379819D02*
X220009285Y-87332200D01*
X220009285Y-87332200D02*
X220056904Y-87284580D01*
X220056904Y-87284580D02*
X220104523Y-87189342D01*
X220104523Y-87189342D02*
X220104523Y-86379819D01*
X221104523Y-87379819D02*
X220533095Y-87379819D01*
X220818809Y-87379819D02*
X220818809Y-86379819D01*
X220818809Y-86379819D02*
X220723571Y-86522676D01*
X220723571Y-86522676D02*
X220628333Y-86617914D01*
X220628333Y-86617914D02*
X220533095Y-86665533D01*
D11*
X149958020Y-181749961D02*
X149958020Y-183749961D01*
X149005639Y-181749961D02*
X149005639Y-183749961D01*
X149005639Y-183749961D02*
X147862782Y-181749961D01*
X147862782Y-181749961D02*
X147862782Y-183749961D01*
X172683609Y-176065163D02*
X172183609Y-176065163D01*
X172183609Y-176065163D02*
X172183609Y-175874687D01*
X172183609Y-175874687D02*
X172207419Y-175827068D01*
X172207419Y-175827068D02*
X172231228Y-175803258D01*
X172231228Y-175803258D02*
X172278847Y-175779449D01*
X172278847Y-175779449D02*
X172350276Y-175779449D01*
X172350276Y-175779449D02*
X172397895Y-175803258D01*
X172397895Y-175803258D02*
X172421704Y-175827068D01*
X172421704Y-175827068D02*
X172445514Y-175874687D01*
X172445514Y-175874687D02*
X172445514Y-176065163D01*
X172183609Y-175612782D02*
X172683609Y-175493734D01*
X172683609Y-175493734D02*
X172326466Y-175398496D01*
X172326466Y-175398496D02*
X172683609Y-175303258D01*
X172683609Y-175303258D02*
X172183609Y-175184211D01*
X172683609Y-174993734D02*
X172183609Y-174993734D01*
X172183609Y-174993734D02*
X172540752Y-174827067D01*
X172540752Y-174827067D02*
X172183609Y-174660401D01*
X172183609Y-174660401D02*
X172683609Y-174660401D01*
X146972931Y-172350038D02*
X147353884Y-172350038D01*
X147353884Y-172350038D02*
X147544360Y-172445276D01*
X147544360Y-172445276D02*
X147734836Y-172635752D01*
X147734836Y-172635752D02*
X147830074Y-173016704D01*
X147830074Y-173016704D02*
X147830074Y-173683371D01*
X147830074Y-173683371D02*
X147734836Y-174064323D01*
X147734836Y-174064323D02*
X147544360Y-174254800D01*
X147544360Y-174254800D02*
X147353884Y-174350038D01*
X147353884Y-174350038D02*
X146972931Y-174350038D01*
X146972931Y-174350038D02*
X146782455Y-174254800D01*
X146782455Y-174254800D02*
X146591979Y-174064323D01*
X146591979Y-174064323D02*
X146496741Y-173683371D01*
X146496741Y-173683371D02*
X146496741Y-173016704D01*
X146496741Y-173016704D02*
X146591979Y-172635752D01*
X146591979Y-172635752D02*
X146782455Y-172445276D01*
X146782455Y-172445276D02*
X146972931Y-172350038D01*
X148687217Y-172350038D02*
X148687217Y-173969085D01*
X148687217Y-173969085D02*
X148782455Y-174159561D01*
X148782455Y-174159561D02*
X148877693Y-174254800D01*
X148877693Y-174254800D02*
X149068169Y-174350038D01*
X149068169Y-174350038D02*
X149449122Y-174350038D01*
X149449122Y-174350038D02*
X149639598Y-174254800D01*
X149639598Y-174254800D02*
X149734836Y-174159561D01*
X149734836Y-174159561D02*
X149830074Y-173969085D01*
X149830074Y-173969085D02*
X149830074Y-172350038D01*
X150496741Y-172350038D02*
X151639598Y-172350038D01*
X151068169Y-174350038D02*
X151068169Y-172350038D01*
X172207419Y-180803258D02*
X172183609Y-180850877D01*
X172183609Y-180850877D02*
X172183609Y-180922306D01*
X172183609Y-180922306D02*
X172207419Y-180993734D01*
X172207419Y-180993734D02*
X172255038Y-181041353D01*
X172255038Y-181041353D02*
X172302657Y-181065163D01*
X172302657Y-181065163D02*
X172397895Y-181088972D01*
X172397895Y-181088972D02*
X172469323Y-181088972D01*
X172469323Y-181088972D02*
X172564561Y-181065163D01*
X172564561Y-181065163D02*
X172612180Y-181041353D01*
X172612180Y-181041353D02*
X172659800Y-180993734D01*
X172659800Y-180993734D02*
X172683609Y-180922306D01*
X172683609Y-180922306D02*
X172683609Y-180874687D01*
X172683609Y-180874687D02*
X172659800Y-180803258D01*
X172659800Y-180803258D02*
X172635990Y-180779449D01*
X172635990Y-180779449D02*
X172469323Y-180779449D01*
X172469323Y-180779449D02*
X172469323Y-180874687D01*
X172683609Y-180565163D02*
X172183609Y-180565163D01*
X172183609Y-180565163D02*
X172683609Y-180279449D01*
X172683609Y-180279449D02*
X172183609Y-180279449D01*
X172683609Y-180041353D02*
X172183609Y-180041353D01*
X172183609Y-180041353D02*
X172183609Y-179922305D01*
X172183609Y-179922305D02*
X172207419Y-179850877D01*
X172207419Y-179850877D02*
X172255038Y-179803258D01*
X172255038Y-179803258D02*
X172302657Y-179779448D01*
X172302657Y-179779448D02*
X172397895Y-179755639D01*
X172397895Y-179755639D02*
X172469323Y-179755639D01*
X172469323Y-179755639D02*
X172564561Y-179779448D01*
X172564561Y-179779448D02*
X172612180Y-179803258D01*
X172612180Y-179803258D02*
X172659800Y-179850877D01*
X172659800Y-179850877D02*
X172683609Y-179922305D01*
X172683609Y-179922305D02*
X172683609Y-180041353D01*
X117958020Y-135749961D02*
X117958020Y-137749961D01*
X117005639Y-135749961D02*
X117005639Y-137749961D01*
X117005639Y-137749961D02*
X115862782Y-135749961D01*
X115862782Y-135749961D02*
X115862782Y-137749961D01*
X140683609Y-130065163D02*
X140183609Y-130065163D01*
X140183609Y-130065163D02*
X140183609Y-129874687D01*
X140183609Y-129874687D02*
X140207419Y-129827068D01*
X140207419Y-129827068D02*
X140231228Y-129803258D01*
X140231228Y-129803258D02*
X140278847Y-129779449D01*
X140278847Y-129779449D02*
X140350276Y-129779449D01*
X140350276Y-129779449D02*
X140397895Y-129803258D01*
X140397895Y-129803258D02*
X140421704Y-129827068D01*
X140421704Y-129827068D02*
X140445514Y-129874687D01*
X140445514Y-129874687D02*
X140445514Y-130065163D01*
X140183609Y-129612782D02*
X140683609Y-129493734D01*
X140683609Y-129493734D02*
X140326466Y-129398496D01*
X140326466Y-129398496D02*
X140683609Y-129303258D01*
X140683609Y-129303258D02*
X140183609Y-129184211D01*
X140683609Y-128993734D02*
X140183609Y-128993734D01*
X140183609Y-128993734D02*
X140540752Y-128827067D01*
X140540752Y-128827067D02*
X140183609Y-128660401D01*
X140183609Y-128660401D02*
X140683609Y-128660401D01*
X114972931Y-126350038D02*
X115353884Y-126350038D01*
X115353884Y-126350038D02*
X115544360Y-126445276D01*
X115544360Y-126445276D02*
X115734836Y-126635752D01*
X115734836Y-126635752D02*
X115830074Y-127016704D01*
X115830074Y-127016704D02*
X115830074Y-127683371D01*
X115830074Y-127683371D02*
X115734836Y-128064323D01*
X115734836Y-128064323D02*
X115544360Y-128254800D01*
X115544360Y-128254800D02*
X115353884Y-128350038D01*
X115353884Y-128350038D02*
X114972931Y-128350038D01*
X114972931Y-128350038D02*
X114782455Y-128254800D01*
X114782455Y-128254800D02*
X114591979Y-128064323D01*
X114591979Y-128064323D02*
X114496741Y-127683371D01*
X114496741Y-127683371D02*
X114496741Y-127016704D01*
X114496741Y-127016704D02*
X114591979Y-126635752D01*
X114591979Y-126635752D02*
X114782455Y-126445276D01*
X114782455Y-126445276D02*
X114972931Y-126350038D01*
X116687217Y-126350038D02*
X116687217Y-127969085D01*
X116687217Y-127969085D02*
X116782455Y-128159561D01*
X116782455Y-128159561D02*
X116877693Y-128254800D01*
X116877693Y-128254800D02*
X117068169Y-128350038D01*
X117068169Y-128350038D02*
X117449122Y-128350038D01*
X117449122Y-128350038D02*
X117639598Y-128254800D01*
X117639598Y-128254800D02*
X117734836Y-128159561D01*
X117734836Y-128159561D02*
X117830074Y-127969085D01*
X117830074Y-127969085D02*
X117830074Y-126350038D01*
X118496741Y-126350038D02*
X119639598Y-126350038D01*
X119068169Y-128350038D02*
X119068169Y-126350038D01*
X140207419Y-134803258D02*
X140183609Y-134850877D01*
X140183609Y-134850877D02*
X140183609Y-134922306D01*
X140183609Y-134922306D02*
X140207419Y-134993734D01*
X140207419Y-134993734D02*
X140255038Y-135041353D01*
X140255038Y-135041353D02*
X140302657Y-135065163D01*
X140302657Y-135065163D02*
X140397895Y-135088972D01*
X140397895Y-135088972D02*
X140469323Y-135088972D01*
X140469323Y-135088972D02*
X140564561Y-135065163D01*
X140564561Y-135065163D02*
X140612180Y-135041353D01*
X140612180Y-135041353D02*
X140659800Y-134993734D01*
X140659800Y-134993734D02*
X140683609Y-134922306D01*
X140683609Y-134922306D02*
X140683609Y-134874687D01*
X140683609Y-134874687D02*
X140659800Y-134803258D01*
X140659800Y-134803258D02*
X140635990Y-134779449D01*
X140635990Y-134779449D02*
X140469323Y-134779449D01*
X140469323Y-134779449D02*
X140469323Y-134874687D01*
X140683609Y-134565163D02*
X140183609Y-134565163D01*
X140183609Y-134565163D02*
X140683609Y-134279449D01*
X140683609Y-134279449D02*
X140183609Y-134279449D01*
X140683609Y-134041353D02*
X140183609Y-134041353D01*
X140183609Y-134041353D02*
X140183609Y-133922305D01*
X140183609Y-133922305D02*
X140207419Y-133850877D01*
X140207419Y-133850877D02*
X140255038Y-133803258D01*
X140255038Y-133803258D02*
X140302657Y-133779448D01*
X140302657Y-133779448D02*
X140397895Y-133755639D01*
X140397895Y-133755639D02*
X140469323Y-133755639D01*
X140469323Y-133755639D02*
X140564561Y-133779448D01*
X140564561Y-133779448D02*
X140612180Y-133803258D01*
X140612180Y-133803258D02*
X140659800Y-133850877D01*
X140659800Y-133850877D02*
X140683609Y-133922305D01*
X140683609Y-133922305D02*
X140683609Y-134041353D01*
D12*
X128994819Y-72833333D02*
X129709104Y-72833333D01*
X129709104Y-72833333D02*
X129851961Y-72880952D01*
X129851961Y-72880952D02*
X129947200Y-72976190D01*
X129947200Y-72976190D02*
X129994819Y-73119047D01*
X129994819Y-73119047D02*
X129994819Y-73214285D01*
X128994819Y-71880952D02*
X128994819Y-72357142D01*
X128994819Y-72357142D02*
X129471009Y-72404761D01*
X129471009Y-72404761D02*
X129423390Y-72357142D01*
X129423390Y-72357142D02*
X129375771Y-72261904D01*
X129375771Y-72261904D02*
X129375771Y-72023809D01*
X129375771Y-72023809D02*
X129423390Y-71928571D01*
X129423390Y-71928571D02*
X129471009Y-71880952D01*
X129471009Y-71880952D02*
X129566247Y-71833333D01*
X129566247Y-71833333D02*
X129804342Y-71833333D01*
X129804342Y-71833333D02*
X129899580Y-71880952D01*
X129899580Y-71880952D02*
X129947200Y-71928571D01*
X129947200Y-71928571D02*
X129994819Y-72023809D01*
X129994819Y-72023809D02*
X129994819Y-72261904D01*
X129994819Y-72261904D02*
X129947200Y-72357142D01*
X129947200Y-72357142D02*
X129899580Y-72404761D01*
X104074819Y-72833333D02*
X104789104Y-72833333D01*
X104789104Y-72833333D02*
X104931961Y-72880952D01*
X104931961Y-72880952D02*
X105027200Y-72976190D01*
X105027200Y-72976190D02*
X105074819Y-73119047D01*
X105074819Y-73119047D02*
X105074819Y-73214285D01*
X104408152Y-71928571D02*
X105074819Y-71928571D01*
X104027200Y-72166666D02*
X104741485Y-72404761D01*
X104741485Y-72404761D02*
X104741485Y-71785714D01*
X81574819Y-73333333D02*
X82289104Y-73333333D01*
X82289104Y-73333333D02*
X82431961Y-73380952D01*
X82431961Y-73380952D02*
X82527200Y-73476190D01*
X82527200Y-73476190D02*
X82574819Y-73619047D01*
X82574819Y-73619047D02*
X82574819Y-73714285D01*
X81574819Y-72952380D02*
X81574819Y-72333333D01*
X81574819Y-72333333D02*
X81955771Y-72666666D01*
X81955771Y-72666666D02*
X81955771Y-72523809D01*
X81955771Y-72523809D02*
X82003390Y-72428571D01*
X82003390Y-72428571D02*
X82051009Y-72380952D01*
X82051009Y-72380952D02*
X82146247Y-72333333D01*
X82146247Y-72333333D02*
X82384342Y-72333333D01*
X82384342Y-72333333D02*
X82479580Y-72380952D01*
X82479580Y-72380952D02*
X82527200Y-72428571D01*
X82527200Y-72428571D02*
X82574819Y-72523809D01*
X82574819Y-72523809D02*
X82574819Y-72809523D01*
X82574819Y-72809523D02*
X82527200Y-72904761D01*
X82527200Y-72904761D02*
X82479580Y-72952380D01*
X341626666Y-183634819D02*
X341626666Y-184349104D01*
X341626666Y-184349104D02*
X341579047Y-184491961D01*
X341579047Y-184491961D02*
X341483809Y-184587200D01*
X341483809Y-184587200D02*
X341340952Y-184634819D01*
X341340952Y-184634819D02*
X341245714Y-184634819D01*
X342626666Y-184634819D02*
X342055238Y-184634819D01*
X342340952Y-184634819D02*
X342340952Y-183634819D01*
X342340952Y-183634819D02*
X342245714Y-183777676D01*
X342245714Y-183777676D02*
X342150476Y-183872914D01*
X342150476Y-183872914D02*
X342055238Y-183920533D01*
D11*
X301458020Y-90749961D02*
X301458020Y-92749961D01*
X300505639Y-90749961D02*
X300505639Y-92749961D01*
X300505639Y-92749961D02*
X299362782Y-90749961D01*
X299362782Y-90749961D02*
X299362782Y-92749961D01*
X324183609Y-85065163D02*
X323683609Y-85065163D01*
X323683609Y-85065163D02*
X323683609Y-84874687D01*
X323683609Y-84874687D02*
X323707419Y-84827068D01*
X323707419Y-84827068D02*
X323731228Y-84803258D01*
X323731228Y-84803258D02*
X323778847Y-84779449D01*
X323778847Y-84779449D02*
X323850276Y-84779449D01*
X323850276Y-84779449D02*
X323897895Y-84803258D01*
X323897895Y-84803258D02*
X323921704Y-84827068D01*
X323921704Y-84827068D02*
X323945514Y-84874687D01*
X323945514Y-84874687D02*
X323945514Y-85065163D01*
X323683609Y-84612782D02*
X324183609Y-84493734D01*
X324183609Y-84493734D02*
X323826466Y-84398496D01*
X323826466Y-84398496D02*
X324183609Y-84303258D01*
X324183609Y-84303258D02*
X323683609Y-84184211D01*
X324183609Y-83993734D02*
X323683609Y-83993734D01*
X323683609Y-83993734D02*
X324040752Y-83827067D01*
X324040752Y-83827067D02*
X323683609Y-83660401D01*
X323683609Y-83660401D02*
X324183609Y-83660401D01*
X298472931Y-81350038D02*
X298853884Y-81350038D01*
X298853884Y-81350038D02*
X299044360Y-81445276D01*
X299044360Y-81445276D02*
X299234836Y-81635752D01*
X299234836Y-81635752D02*
X299330074Y-82016704D01*
X299330074Y-82016704D02*
X299330074Y-82683371D01*
X299330074Y-82683371D02*
X299234836Y-83064323D01*
X299234836Y-83064323D02*
X299044360Y-83254800D01*
X299044360Y-83254800D02*
X298853884Y-83350038D01*
X298853884Y-83350038D02*
X298472931Y-83350038D01*
X298472931Y-83350038D02*
X298282455Y-83254800D01*
X298282455Y-83254800D02*
X298091979Y-83064323D01*
X298091979Y-83064323D02*
X297996741Y-82683371D01*
X297996741Y-82683371D02*
X297996741Y-82016704D01*
X297996741Y-82016704D02*
X298091979Y-81635752D01*
X298091979Y-81635752D02*
X298282455Y-81445276D01*
X298282455Y-81445276D02*
X298472931Y-81350038D01*
X300187217Y-81350038D02*
X300187217Y-82969085D01*
X300187217Y-82969085D02*
X300282455Y-83159561D01*
X300282455Y-83159561D02*
X300377693Y-83254800D01*
X300377693Y-83254800D02*
X300568169Y-83350038D01*
X300568169Y-83350038D02*
X300949122Y-83350038D01*
X300949122Y-83350038D02*
X301139598Y-83254800D01*
X301139598Y-83254800D02*
X301234836Y-83159561D01*
X301234836Y-83159561D02*
X301330074Y-82969085D01*
X301330074Y-82969085D02*
X301330074Y-81350038D01*
X301996741Y-81350038D02*
X303139598Y-81350038D01*
X302568169Y-83350038D02*
X302568169Y-81350038D01*
X323707419Y-89803258D02*
X323683609Y-89850877D01*
X323683609Y-89850877D02*
X323683609Y-89922306D01*
X323683609Y-89922306D02*
X323707419Y-89993734D01*
X323707419Y-89993734D02*
X323755038Y-90041353D01*
X323755038Y-90041353D02*
X323802657Y-90065163D01*
X323802657Y-90065163D02*
X323897895Y-90088972D01*
X323897895Y-90088972D02*
X323969323Y-90088972D01*
X323969323Y-90088972D02*
X324064561Y-90065163D01*
X324064561Y-90065163D02*
X324112180Y-90041353D01*
X324112180Y-90041353D02*
X324159800Y-89993734D01*
X324159800Y-89993734D02*
X324183609Y-89922306D01*
X324183609Y-89922306D02*
X324183609Y-89874687D01*
X324183609Y-89874687D02*
X324159800Y-89803258D01*
X324159800Y-89803258D02*
X324135990Y-89779449D01*
X324135990Y-89779449D02*
X323969323Y-89779449D01*
X323969323Y-89779449D02*
X323969323Y-89874687D01*
X324183609Y-89565163D02*
X323683609Y-89565163D01*
X323683609Y-89565163D02*
X324183609Y-89279449D01*
X324183609Y-89279449D02*
X323683609Y-89279449D01*
X324183609Y-89041353D02*
X323683609Y-89041353D01*
X323683609Y-89041353D02*
X323683609Y-88922305D01*
X323683609Y-88922305D02*
X323707419Y-88850877D01*
X323707419Y-88850877D02*
X323755038Y-88803258D01*
X323755038Y-88803258D02*
X323802657Y-88779448D01*
X323802657Y-88779448D02*
X323897895Y-88755639D01*
X323897895Y-88755639D02*
X323969323Y-88755639D01*
X323969323Y-88755639D02*
X324064561Y-88779448D01*
X324064561Y-88779448D02*
X324112180Y-88803258D01*
X324112180Y-88803258D02*
X324159800Y-88850877D01*
X324159800Y-88850877D02*
X324183609Y-88922305D01*
X324183609Y-88922305D02*
X324183609Y-89041353D01*
X336458020Y-139749961D02*
X336458020Y-141749961D01*
X335505639Y-139749961D02*
X335505639Y-141749961D01*
X335505639Y-141749961D02*
X334362782Y-139749961D01*
X334362782Y-139749961D02*
X334362782Y-141749961D01*
X359183609Y-134065163D02*
X358683609Y-134065163D01*
X358683609Y-134065163D02*
X358683609Y-133874687D01*
X358683609Y-133874687D02*
X358707419Y-133827068D01*
X358707419Y-133827068D02*
X358731228Y-133803258D01*
X358731228Y-133803258D02*
X358778847Y-133779449D01*
X358778847Y-133779449D02*
X358850276Y-133779449D01*
X358850276Y-133779449D02*
X358897895Y-133803258D01*
X358897895Y-133803258D02*
X358921704Y-133827068D01*
X358921704Y-133827068D02*
X358945514Y-133874687D01*
X358945514Y-133874687D02*
X358945514Y-134065163D01*
X358683609Y-133612782D02*
X359183609Y-133493734D01*
X359183609Y-133493734D02*
X358826466Y-133398496D01*
X358826466Y-133398496D02*
X359183609Y-133303258D01*
X359183609Y-133303258D02*
X358683609Y-133184211D01*
X359183609Y-132993734D02*
X358683609Y-132993734D01*
X358683609Y-132993734D02*
X359040752Y-132827067D01*
X359040752Y-132827067D02*
X358683609Y-132660401D01*
X358683609Y-132660401D02*
X359183609Y-132660401D01*
X333472931Y-130350038D02*
X333853884Y-130350038D01*
X333853884Y-130350038D02*
X334044360Y-130445276D01*
X334044360Y-130445276D02*
X334234836Y-130635752D01*
X334234836Y-130635752D02*
X334330074Y-131016704D01*
X334330074Y-131016704D02*
X334330074Y-131683371D01*
X334330074Y-131683371D02*
X334234836Y-132064323D01*
X334234836Y-132064323D02*
X334044360Y-132254800D01*
X334044360Y-132254800D02*
X333853884Y-132350038D01*
X333853884Y-132350038D02*
X333472931Y-132350038D01*
X333472931Y-132350038D02*
X333282455Y-132254800D01*
X333282455Y-132254800D02*
X333091979Y-132064323D01*
X333091979Y-132064323D02*
X332996741Y-131683371D01*
X332996741Y-131683371D02*
X332996741Y-131016704D01*
X332996741Y-131016704D02*
X333091979Y-130635752D01*
X333091979Y-130635752D02*
X333282455Y-130445276D01*
X333282455Y-130445276D02*
X333472931Y-130350038D01*
X335187217Y-130350038D02*
X335187217Y-131969085D01*
X335187217Y-131969085D02*
X335282455Y-132159561D01*
X335282455Y-132159561D02*
X335377693Y-132254800D01*
X335377693Y-132254800D02*
X335568169Y-132350038D01*
X335568169Y-132350038D02*
X335949122Y-132350038D01*
X335949122Y-132350038D02*
X336139598Y-132254800D01*
X336139598Y-132254800D02*
X336234836Y-132159561D01*
X336234836Y-132159561D02*
X336330074Y-131969085D01*
X336330074Y-131969085D02*
X336330074Y-130350038D01*
X336996741Y-130350038D02*
X338139598Y-130350038D01*
X337568169Y-132350038D02*
X337568169Y-130350038D01*
X358707419Y-138803258D02*
X358683609Y-138850877D01*
X358683609Y-138850877D02*
X358683609Y-138922306D01*
X358683609Y-138922306D02*
X358707419Y-138993734D01*
X358707419Y-138993734D02*
X358755038Y-139041353D01*
X358755038Y-139041353D02*
X358802657Y-139065163D01*
X358802657Y-139065163D02*
X358897895Y-139088972D01*
X358897895Y-139088972D02*
X358969323Y-139088972D01*
X358969323Y-139088972D02*
X359064561Y-139065163D01*
X359064561Y-139065163D02*
X359112180Y-139041353D01*
X359112180Y-139041353D02*
X359159800Y-138993734D01*
X359159800Y-138993734D02*
X359183609Y-138922306D01*
X359183609Y-138922306D02*
X359183609Y-138874687D01*
X359183609Y-138874687D02*
X359159800Y-138803258D01*
X359159800Y-138803258D02*
X359135990Y-138779449D01*
X359135990Y-138779449D02*
X358969323Y-138779449D01*
X358969323Y-138779449D02*
X358969323Y-138874687D01*
X359183609Y-138565163D02*
X358683609Y-138565163D01*
X358683609Y-138565163D02*
X359183609Y-138279449D01*
X359183609Y-138279449D02*
X358683609Y-138279449D01*
X359183609Y-138041353D02*
X358683609Y-138041353D01*
X358683609Y-138041353D02*
X358683609Y-137922305D01*
X358683609Y-137922305D02*
X358707419Y-137850877D01*
X358707419Y-137850877D02*
X358755038Y-137803258D01*
X358755038Y-137803258D02*
X358802657Y-137779448D01*
X358802657Y-137779448D02*
X358897895Y-137755639D01*
X358897895Y-137755639D02*
X358969323Y-137755639D01*
X358969323Y-137755639D02*
X359064561Y-137779448D01*
X359064561Y-137779448D02*
X359112180Y-137803258D01*
X359112180Y-137803258D02*
X359159800Y-137850877D01*
X359159800Y-137850877D02*
X359183609Y-137922305D01*
X359183609Y-137922305D02*
X359183609Y-138041353D01*
%TO.C,Fan1*%
X389000000Y-81500000D02*
X393500000Y-81500000D01*
X393500000Y-90500000D01*
X389000000Y-90500000D01*
X389000000Y-81500000D01*
X361500000Y-87250000D02*
X371500000Y-87250000D01*
X371500000Y-94500000D01*
X361500000Y-94500000D01*
X361500000Y-87250000D01*
X361500000Y-77500000D02*
X371500000Y-77500000D01*
X371500000Y-84500000D01*
X361500000Y-84500000D01*
X361500000Y-77500000D01*
X360000000Y-77500000D02*
X393500000Y-77500000D01*
X393500000Y-94500000D01*
X360000000Y-94500000D01*
X360000000Y-77500000D01*
%TO.C,Waterpump1*%
X83500000Y-169500000D02*
X117000000Y-169500000D01*
X117000000Y-186500000D01*
X83500000Y-186500000D01*
X83500000Y-169500000D01*
X85000000Y-169500000D02*
X95000000Y-169500000D01*
X95000000Y-176500000D01*
X85000000Y-176500000D01*
X85000000Y-169500000D01*
X85000000Y-179250000D02*
X95000000Y-179250000D01*
X95000000Y-186500000D01*
X85000000Y-186500000D01*
X85000000Y-179250000D01*
X112500000Y-173500000D02*
X117000000Y-173500000D01*
X117000000Y-182500000D01*
X112500000Y-182500000D01*
X112500000Y-173500000D01*
D13*
%TO.C,U1*%
X217370000Y-95160000D02*
X242770000Y-95160000D01*
X217370000Y-157900000D02*
X217370000Y-95160000D01*
X242770000Y-95160000D02*
X242770000Y-157900000D01*
X242770000Y-157900000D02*
X217370000Y-157900000D01*
D14*
X216454000Y-96558000D02*
G75*
G02*
X216254000Y-96558000I-100000J0D01*
G01*
X216254000Y-96558000D02*
G75*
G02*
X216454000Y-96558000I100000J0D01*
G01*
%TO.C,peltier2*%
D11*
X142500000Y-169500000D02*
X176000000Y-169500000D01*
X176000000Y-186500000D01*
X142500000Y-186500000D01*
X142500000Y-169500000D01*
X144000000Y-169500000D02*
X154000000Y-169500000D01*
X154000000Y-176500000D01*
X144000000Y-176500000D01*
X144000000Y-169500000D01*
X144000000Y-179250000D02*
X154000000Y-179250000D01*
X154000000Y-186500000D01*
X144000000Y-186500000D01*
X144000000Y-179250000D01*
X171500000Y-173500000D02*
X176000000Y-173500000D01*
X176000000Y-182500000D01*
X171500000Y-182500000D01*
X171500000Y-173500000D01*
%TO.C,Peltier1*%
X110500000Y-123500000D02*
X144000000Y-123500000D01*
X144000000Y-140500000D01*
X110500000Y-140500000D01*
X110500000Y-123500000D01*
X112000000Y-123500000D02*
X122000000Y-123500000D01*
X122000000Y-130500000D01*
X112000000Y-130500000D01*
X112000000Y-123500000D01*
X112000000Y-133250000D02*
X122000000Y-133250000D01*
X122000000Y-140500000D01*
X112000000Y-140500000D01*
X112000000Y-133250000D01*
X139500000Y-127500000D02*
X144000000Y-127500000D01*
X144000000Y-136500000D01*
X139500000Y-136500000D01*
X139500000Y-127500000D01*
D15*
%TO.C,J5*%
X130540000Y-73880000D02*
X130540000Y-72500000D01*
X131920000Y-73880000D02*
X130540000Y-73880000D01*
X133190000Y-73880000D02*
X138380000Y-73880000D01*
X133190000Y-73880000D02*
X133190000Y-71120000D01*
X138380000Y-73880000D02*
X138380000Y-71120000D01*
X133190000Y-71120000D02*
X138380000Y-71120000D01*
%TO.C,J4*%
X105620000Y-73880000D02*
X105620000Y-72500000D01*
X107000000Y-73880000D02*
X105620000Y-73880000D01*
X108270000Y-73880000D02*
X113460000Y-73880000D01*
X108270000Y-73880000D02*
X108270000Y-71120000D01*
X113460000Y-73880000D02*
X113460000Y-71120000D01*
X108270000Y-71120000D02*
X113460000Y-71120000D01*
%TO.C,J3*%
X83120000Y-74380000D02*
X83120000Y-73000000D01*
X84500000Y-74380000D02*
X83120000Y-74380000D01*
X85770000Y-74380000D02*
X90960000Y-74380000D01*
X85770000Y-74380000D02*
X85770000Y-71620000D01*
X90960000Y-74380000D02*
X90960000Y-71620000D01*
X85770000Y-71620000D02*
X90960000Y-71620000D01*
%TO.C,J1*%
X336760000Y-185180000D02*
X347160000Y-185180000D01*
X336760000Y-188200000D02*
X347160000Y-188200000D01*
X336760000Y-193100000D02*
X347160000Y-193100000D01*
X336760000Y-194600000D02*
X347160000Y-194600000D01*
X336760000Y-195220000D02*
X336760000Y-185180000D01*
X339120000Y-195220000D02*
X336760000Y-195220000D01*
X347160000Y-185180000D02*
X347160000Y-195220000D01*
X347160000Y-195220000D02*
X339720000Y-195220000D01*
X339860000Y-195830000D02*
X338980000Y-195830000D01*
X339420000Y-195220000D01*
X339860000Y-195830000D01*
G36*
X339860000Y-195830000D02*
G01*
X338980000Y-195830000D01*
X339420000Y-195220000D01*
X339860000Y-195830000D01*
G37*
%TO.C,Humidifer1*%
D11*
X294000000Y-78500000D02*
X327500000Y-78500000D01*
X327500000Y-95500000D01*
X294000000Y-95500000D01*
X294000000Y-78500000D01*
X295500000Y-78500000D02*
X305500000Y-78500000D01*
X305500000Y-85500000D01*
X295500000Y-85500000D01*
X295500000Y-78500000D01*
X295500000Y-88250000D02*
X305500000Y-88250000D01*
X305500000Y-95500000D01*
X295500000Y-95500000D01*
X295500000Y-88250000D01*
X323000000Y-82500000D02*
X327500000Y-82500000D01*
X327500000Y-91500000D01*
X323000000Y-91500000D01*
X323000000Y-82500000D01*
%TO.C,Heatlamp1*%
X329000000Y-127500000D02*
X362500000Y-127500000D01*
X362500000Y-144500000D01*
X329000000Y-144500000D01*
X329000000Y-127500000D01*
X330500000Y-127500000D02*
X340500000Y-127500000D01*
X340500000Y-134500000D01*
X330500000Y-134500000D01*
X330500000Y-127500000D01*
X330500000Y-137250000D02*
X340500000Y-137250000D01*
X340500000Y-144500000D01*
X330500000Y-144500000D01*
X330500000Y-137250000D01*
X358000000Y-131500000D02*
X362500000Y-131500000D01*
X362500000Y-140500000D01*
X358000000Y-140500000D01*
X358000000Y-131500000D01*
%TD*%
M02*
