%TF.GenerationSoftware,KiCad,Pcbnew,9.0.7*%
%TF.CreationDate,2026-07-12T23:26:31+03:00*%
%TF.ProjectId,C.L.A.S,432e4c2e-412e-4532-9e6b-696361645f70,rev?*%
%TF.SameCoordinates,Original*%
%TF.FileFunction,Legend,Bot*%
%TF.FilePolarity,Positive*%
%FSLAX46Y46*%
G04 Gerber Fmt 4.6, Leading zero omitted, Abs format (unit mm)*
G04 Created by KiCad (PCBNEW 9.0.7) date 2026-07-12 23:26:31*
%MOMM*%
%LPD*%
G01*
G04 APERTURE LIST*
%ADD10C,0.300000*%
G04 APERTURE END LIST*
D10*
X260416665Y-133308209D02*
X259880951Y-133784400D01*
X259880951Y-133784400D02*
X258392856Y-134260590D01*
X258392856Y-134260590D02*
X257440475Y-134260590D01*
X257440475Y-134260590D02*
X256071427Y-133784400D01*
X256071427Y-133784400D02*
X255238094Y-132832019D01*
X255238094Y-132832019D02*
X254880951Y-131879638D01*
X254880951Y-131879638D02*
X254642856Y-129974876D01*
X254642856Y-129974876D02*
X254821427Y-128546304D01*
X254821427Y-128546304D02*
X255535713Y-126641542D01*
X255535713Y-126641542D02*
X256130951Y-125689161D01*
X256130951Y-125689161D02*
X257202380Y-124736780D01*
X257202380Y-124736780D02*
X258690475Y-124260590D01*
X258690475Y-124260590D02*
X259642856Y-124260590D01*
X259642856Y-124260590D02*
X261011904Y-124736780D01*
X261011904Y-124736780D02*
X261428570Y-125212971D01*
X264702380Y-133308209D02*
X265119046Y-133784400D01*
X265119046Y-133784400D02*
X264583332Y-134260590D01*
X264583332Y-134260590D02*
X264166665Y-133784400D01*
X264166665Y-133784400D02*
X264702380Y-133308209D01*
X264702380Y-133308209D02*
X264583332Y-134260590D01*
X274107142Y-134260590D02*
X269345237Y-134260590D01*
X269345237Y-134260590D02*
X270595237Y-124260590D01*
X277559523Y-133308209D02*
X277976189Y-133784400D01*
X277976189Y-133784400D02*
X277440475Y-134260590D01*
X277440475Y-134260590D02*
X277023808Y-133784400D01*
X277023808Y-133784400D02*
X277559523Y-133308209D01*
X277559523Y-133308209D02*
X277440475Y-134260590D01*
X282083332Y-131403447D02*
X286845237Y-131403447D01*
X280773809Y-134260590D02*
X285357142Y-124260590D01*
X285357142Y-124260590D02*
X287440475Y-134260590D01*
X290892857Y-133308209D02*
X291309523Y-133784400D01*
X291309523Y-133784400D02*
X290773809Y-134260590D01*
X290773809Y-134260590D02*
X290357142Y-133784400D01*
X290357142Y-133784400D02*
X290892857Y-133308209D01*
X290892857Y-133308209D02*
X290773809Y-134260590D01*
X295119047Y-133784400D02*
X296488095Y-134260590D01*
X296488095Y-134260590D02*
X298869047Y-134260590D01*
X298869047Y-134260590D02*
X299880952Y-133784400D01*
X299880952Y-133784400D02*
X300416666Y-133308209D01*
X300416666Y-133308209D02*
X301011905Y-132355828D01*
X301011905Y-132355828D02*
X301130952Y-131403447D01*
X301130952Y-131403447D02*
X300773809Y-130451066D01*
X300773809Y-130451066D02*
X300357143Y-129974876D01*
X300357143Y-129974876D02*
X299464286Y-129498685D01*
X299464286Y-129498685D02*
X297619047Y-129022495D01*
X297619047Y-129022495D02*
X296726190Y-128546304D01*
X296726190Y-128546304D02*
X296309524Y-128070114D01*
X296309524Y-128070114D02*
X295952381Y-127117733D01*
X295952381Y-127117733D02*
X296071428Y-126165352D01*
X296071428Y-126165352D02*
X296666666Y-125212971D01*
X296666666Y-125212971D02*
X297202381Y-124736780D01*
X297202381Y-124736780D02*
X298214286Y-124260590D01*
X298214286Y-124260590D02*
X300595238Y-124260590D01*
X300595238Y-124260590D02*
X301964286Y-124736780D01*
M02*
