%TF.GenerationSoftware,KiCad,Pcbnew,9.0.7*%
%TF.CreationDate,2026-07-08T10:31:40+03:00*%
%TF.ProjectId,C.L.A.S,432e4c2e-412e-4532-9e6b-696361645f70,rev?*%
%TF.SameCoordinates,Original*%
%TF.FileFunction,Plated,1,2,PTH,Drill*%
%TF.FilePolarity,Positive*%
%FSLAX46Y46*%
G04 Gerber Fmt 4.6, Leading zero omitted, Abs format (unit mm)*
G04 Created by KiCad (PCBNEW 9.0.7) date 2026-07-08 10:31:40*
%MOMM*%
%LPD*%
G01*
G04 APERTURE LIST*
%TA.AperFunction,ViaDrill*%
%ADD10C,0.300000*%
%TD*%
%TA.AperFunction,ComponentDrill*%
%ADD11C,1.000000*%
%TD*%
%TA.AperFunction,ComponentDrill*%
%ADD12C,1.020000*%
%TD*%
%TA.AperFunction,ComponentDrill*%
%ADD13C,1.300000*%
%TD*%
G04 APERTURE END LIST*
D10*
X234500000Y-134000000D03*
D11*
%TO.C,J3*%
X84500000Y-73000000D03*
X87040000Y-73000000D03*
X89580000Y-73000000D03*
%TO.C,J4*%
X107000000Y-72500000D03*
X109540000Y-72500000D03*
X112080000Y-72500000D03*
%TO.C,J5*%
X131920000Y-72500000D03*
X134460000Y-72500000D03*
X137000000Y-72500000D03*
D12*
%TO.C,Waterpump1*%
X115500000Y-175500000D03*
X115500000Y-180500000D03*
%TO.C,Peltier1*%
X142500000Y-129500000D03*
X142500000Y-134500000D03*
%TO.C,peltier2*%
X174500000Y-175500000D03*
X174500000Y-180500000D03*
%TO.C,U1*%
X218640000Y-96560000D03*
X218640000Y-99100000D03*
X218640000Y-101640000D03*
X218640000Y-104180000D03*
X218640000Y-106720000D03*
X218640000Y-109260000D03*
X218640000Y-111800000D03*
X218640000Y-114340000D03*
X218640000Y-116880000D03*
X218640000Y-119420000D03*
X218640000Y-121960000D03*
X218640000Y-124500000D03*
X218640000Y-127040000D03*
X218640000Y-129580000D03*
X218640000Y-132120000D03*
X218640000Y-134660000D03*
X218640000Y-137200000D03*
X218640000Y-139740000D03*
X218640000Y-142280000D03*
X218640000Y-144820000D03*
X218640000Y-147360000D03*
X218640000Y-149900000D03*
X241500000Y-96560000D03*
X241500000Y-99100000D03*
X241500000Y-101640000D03*
X241500000Y-104180000D03*
X241500000Y-106720000D03*
X241500000Y-109260000D03*
X241500000Y-111800000D03*
X241500000Y-114340000D03*
X241500000Y-116880000D03*
X241500000Y-119420000D03*
X241500000Y-121960000D03*
X241500000Y-124500000D03*
X241500000Y-127040000D03*
X241500000Y-129580000D03*
X241500000Y-132120000D03*
X241500000Y-134660000D03*
X241500000Y-137200000D03*
X241500000Y-139740000D03*
X241500000Y-142280000D03*
X241500000Y-144820000D03*
X241500000Y-147360000D03*
X241500000Y-149900000D03*
%TO.C,Humidifer1*%
X326000000Y-84500000D03*
X326000000Y-89500000D03*
%TO.C,Heatlamp1*%
X361000000Y-133500000D03*
X361000000Y-138500000D03*
%TO.C,Fan1*%
X392000000Y-83500000D03*
X392000000Y-88500000D03*
D13*
%TO.C,J1*%
X339420000Y-190500000D03*
X344500000Y-190500000D03*
M02*
