%TF.GenerationSoftware,KiCad,Pcbnew,9.0.7*%
%TF.CreationDate,2026-07-08T10:31:36+03:00*%
%TF.ProjectId,C.L.A.S,432e4c2e-412e-4532-9e6b-696361645f70,rev?*%
%TF.SameCoordinates,Original*%
%TF.FileFunction,Copper,L1,Top*%
%TF.FilePolarity,Positive*%
%FSLAX46Y46*%
G04 Gerber Fmt 4.6, Leading zero omitted, Abs format (unit mm)*
G04 Created by KiCad (PCBNEW 9.0.7) date 2026-07-08 10:31:36*
%MOMM*%
%LPD*%
G01*
G04 APERTURE LIST*
G04 Aperture macros list*
%AMRoundRect*
0 Rectangle with rounded corners*
0 $1 Rounding radius*
0 $2 $3 $4 $5 $6 $7 $8 $9 X,Y pos of 4 corners*
0 Add a 4 corners polygon primitive as box body*
4,1,4,$2,$3,$4,$5,$6,$7,$8,$9,$2,$3,0*
0 Add four circle primitives for the rounded corners*
1,1,$1+$1,$2,$3*
1,1,$1+$1,$4,$5*
1,1,$1+$1,$6,$7*
1,1,$1+$1,$8,$9*
0 Add four rect primitives between the rounded corners*
20,1,$1+$1,$2,$3,$4,$5,0*
20,1,$1+$1,$4,$5,$6,$7,0*
20,1,$1+$1,$6,$7,$8,$9,0*
20,1,$1+$1,$8,$9,$2,$3,0*%
G04 Aperture macros list end*
%TA.AperFunction,ComponentPad*%
%ADD10C,1.530000*%
%TD*%
%TA.AperFunction,ComponentPad*%
%ADD11R,1.530000X1.530000*%
%TD*%
%TA.AperFunction,ComponentPad*%
%ADD12R,1.700000X1.700000*%
%TD*%
%TA.AperFunction,ComponentPad*%
%ADD13C,1.700000*%
%TD*%
%TA.AperFunction,ComponentPad*%
%ADD14RoundRect,0.250000X-1.050000X-1.050000X1.050000X-1.050000X1.050000X1.050000X-1.050000X1.050000X0*%
%TD*%
%TA.AperFunction,ComponentPad*%
%ADD15C,2.600000*%
%TD*%
%TA.AperFunction,ViaPad*%
%ADD16C,0.600000*%
%TD*%
%TA.AperFunction,Conductor*%
%ADD17C,0.200000*%
%TD*%
G04 APERTURE END LIST*
D10*
%TO.P,Fan1,2,PMW*%
%TO.N,Fan*%
X392000000Y-83500000D03*
%TO.P,Fan1,1,GND*%
%TO.N,GND*%
X392000000Y-88500000D03*
%TD*%
%TO.P,Waterpump1,1,GND*%
%TO.N,GND*%
X115500000Y-180500000D03*
%TO.P,Waterpump1,2,PMW*%
%TO.N,Waterpump*%
X115500000Y-175500000D03*
%TD*%
D11*
%TO.P,U1,J1_1,3V3*%
%TO.N,VCC_3v*%
X218640000Y-96560000D03*
D10*
%TO.P,U1,J1_2,3V3*%
X218640000Y-99100000D03*
%TO.P,U1,J1_3,RST*%
%TO.N,unconnected-(U1-RST-PadJ1_3)*%
X218640000Y-101640000D03*
%TO.P,U1,J1_4,GPIO4*%
%TO.N,Dht22*%
X218640000Y-104180000D03*
%TO.P,U1,J1_5,GPIO5*%
%TO.N,unconnected-(U1-GPIO5-PadJ1_5)*%
X218640000Y-106720000D03*
%TO.P,U1,J1_6,GPIO6*%
%TO.N,Peltier1*%
X218640000Y-109260000D03*
%TO.P,U1,J1_7,GPIO7*%
%TO.N,unconnected-(U1-GPIO7-PadJ1_7)*%
X218640000Y-111800000D03*
%TO.P,U1,J1_8,GPIO15*%
%TO.N,unconnected-(U1-GPIO15-PadJ1_8)*%
X218640000Y-114340000D03*
%TO.P,U1,J1_9,GPIO16*%
%TO.N,Fan*%
X218640000Y-116880000D03*
%TO.P,U1,J1_10,GPIO17*%
%TO.N,unconnected-(U1-GPIO17-PadJ1_10)*%
X218640000Y-119420000D03*
%TO.P,U1,J1_11,GPIO18*%
%TO.N,unconnected-(U1-GPIO18-PadJ1_11)*%
X218640000Y-121960000D03*
%TO.P,U1,J1_12,GPIO8*%
%TO.N,Peltier2*%
X218640000Y-124500000D03*
%TO.P,U1,J1_13,GPIO3*%
%TO.N,unconnected-(U1-GPIO3-PadJ1_13)*%
X218640000Y-127040000D03*
%TO.P,U1,J1_14,GPIO46*%
%TO.N,unconnected-(U1-GPIO46-PadJ1_14)*%
X218640000Y-129580000D03*
%TO.P,U1,J1_15,GPIO9*%
%TO.N,unconnected-(U1-GPIO9-PadJ1_15)*%
X218640000Y-132120000D03*
%TO.P,U1,J1_16,GPIO10*%
%TO.N,Heatlamp*%
X218640000Y-134660000D03*
%TO.P,U1,J1_17,GPIO11*%
%TO.N,unconnected-(U1-GPIO11-PadJ1_17)*%
X218640000Y-137200000D03*
%TO.P,U1,J1_18,GPIO12*%
%TO.N,Humidifier*%
X218640000Y-139740000D03*
%TO.P,U1,J1_19,GPIO13*%
%TO.N,unconnected-(U1-GPIO13-PadJ1_19)*%
X218640000Y-142280000D03*
%TO.P,U1,J1_20,GPIO14*%
%TO.N,Waterpump*%
X218640000Y-144820000D03*
%TO.P,U1,J1_21,5V0*%
%TO.N,VCC*%
X218640000Y-147360000D03*
%TO.P,U1,J1_22,GND*%
%TO.N,GND*%
X218640000Y-149900000D03*
%TO.P,U1,J3_1,GND*%
X241500000Y-96560000D03*
%TO.P,U1,J3_2,U0TXD/GPIO43*%
%TO.N,unconnected-(U1-U0TXD{slash}GPIO43-PadJ3_2)*%
X241500000Y-99100000D03*
%TO.P,U1,J3_3,U0RXD/GPIO44*%
%TO.N,unconnected-(U1-U0RXD{slash}GPIO44-PadJ3_3)*%
X241500000Y-101640000D03*
%TO.P,U1,J3_4,GPIO1*%
%TO.N,unconnected-(U1-GPIO1-PadJ3_4)*%
X241500000Y-104180000D03*
%TO.P,U1,J3_5,GPIO2*%
%TO.N,LDR*%
X241500000Y-106720000D03*
%TO.P,U1,J3_6,MTMS/GPIO42*%
%TO.N,unconnected-(U1-MTMS{slash}GPIO42-PadJ3_6)*%
X241500000Y-109260000D03*
%TO.P,U1,J3_7,MTDI/GPIO41*%
%TO.N,unconnected-(U1-MTDI{slash}GPIO41-PadJ3_7)*%
X241500000Y-111800000D03*
%TO.P,U1,J3_8,MTDO/GPIO40*%
%TO.N,unconnected-(U1-MTDO{slash}GPIO40-PadJ3_8)*%
X241500000Y-114340000D03*
%TO.P,U1,J3_9,MTCK/GPIO39*%
%TO.N,unconnected-(U1-MTCK{slash}GPIO39-PadJ3_9)*%
X241500000Y-116880000D03*
%TO.P,U1,J3_10,GPIO38*%
%TO.N,unconnected-(U1-GPIO38-PadJ3_10)*%
X241500000Y-119420000D03*
%TO.P,U1,J3_11,GPIO37*%
%TO.N,unconnected-(U1-GPIO37-PadJ3_11)*%
X241500000Y-121960000D03*
%TO.P,U1,J3_12,GPIO36*%
%TO.N,unconnected-(U1-GPIO36-PadJ3_12)*%
X241500000Y-124500000D03*
%TO.P,U1,J3_13,GPIO35*%
%TO.N,unconnected-(U1-GPIO35-PadJ3_13)*%
X241500000Y-127040000D03*
%TO.P,U1,J3_14,GPIO0*%
%TO.N,Soil*%
X241500000Y-129580000D03*
%TO.P,U1,J3_15,GPIO45*%
%TO.N,unconnected-(U1-GPIO45-PadJ3_15)*%
X241500000Y-132120000D03*
%TO.P,U1,J3_16,GPIO48*%
%TO.N,unconnected-(U1-GPIO48-PadJ3_16)*%
X241500000Y-134660000D03*
%TO.P,U1,J3_17,GPIO47*%
%TO.N,unconnected-(U1-GPIO47-PadJ3_17)*%
X241500000Y-137200000D03*
%TO.P,U1,J3_18,GPIO21*%
%TO.N,unconnected-(U1-GPIO21-PadJ3_18)*%
X241500000Y-139740000D03*
%TO.P,U1,J3_19,USB_D+/GPIO20*%
%TO.N,unconnected-(U1-USB_D+{slash}GPIO20-PadJ3_19)*%
X241500000Y-142280000D03*
%TO.P,U1,J3_20,USB_D-/GPIO19*%
%TO.N,unconnected-(U1-USB_D-{slash}GPIO19-PadJ3_20)*%
X241500000Y-144820000D03*
%TO.P,U1,J3_21,GND*%
%TO.N,GND*%
X241500000Y-147360000D03*
%TO.P,U1,J3_22,GND*%
X241500000Y-149900000D03*
%TD*%
%TO.P,peltier2,1,GND*%
%TO.N,GND*%
X174500000Y-180500000D03*
%TO.P,peltier2,2,PMW*%
%TO.N,Peltier2*%
X174500000Y-175500000D03*
%TD*%
%TO.P,Peltier1,1,GND*%
%TO.N,GND*%
X142500000Y-134500000D03*
%TO.P,Peltier1,2,PMW*%
%TO.N,Peltier1*%
X142500000Y-129500000D03*
%TD*%
D12*
%TO.P,J5,1,Pin_1*%
%TO.N,LDR*%
X131920000Y-72500000D03*
D13*
%TO.P,J5,2,Pin_2*%
%TO.N,GND*%
X134460000Y-72500000D03*
%TO.P,J5,3,Pin_3*%
%TO.N,VCC_3v*%
X137000000Y-72500000D03*
%TD*%
D12*
%TO.P,J4,1,Pin_1*%
%TO.N,GND*%
X107000000Y-72500000D03*
D13*
%TO.P,J4,2,Pin_2*%
%TO.N,Dht22*%
X109540000Y-72500000D03*
%TO.P,J4,3,Pin_3*%
%TO.N,VCC_3v*%
X112080000Y-72500000D03*
%TD*%
D12*
%TO.P,J3,1,Pin_1*%
%TO.N,GND*%
X84500000Y-73000000D03*
D13*
%TO.P,J3,2,Pin_2*%
%TO.N,VCC*%
X87040000Y-73000000D03*
%TO.P,J3,3,Pin_3*%
%TO.N,Soil*%
X89580000Y-73000000D03*
%TD*%
D14*
%TO.P,J1,1,Pin_1*%
%TO.N,VCC*%
X339420000Y-190500000D03*
D15*
%TO.P,J1,2,Pin_2*%
%TO.N,GND*%
X344500000Y-190500000D03*
%TD*%
D10*
%TO.P,Humidifer1,1,GND*%
%TO.N,GND*%
X326000000Y-89500000D03*
%TO.P,Humidifer1,2,PMW*%
%TO.N,Humidifier*%
X326000000Y-84500000D03*
%TD*%
%TO.P,Heatlamp1,1,GND*%
%TO.N,GND*%
X361000000Y-138500000D03*
%TO.P,Heatlamp1,2,PMW*%
%TO.N,Heatlamp*%
X361000000Y-133500000D03*
%TD*%
D16*
%TO.N,Heatlamp*%
X234500000Y-134000000D03*
%TD*%
D17*
%TO.N,Heatlamp*%
X233840000Y-134660000D02*
X218640000Y-134660000D01*
X234500000Y-134000000D02*
X233840000Y-134660000D01*
%TO.N,Humidifier*%
X220114000Y-141214000D02*
X218640000Y-139740000D01*
X318500000Y-118500000D02*
X318500000Y-119000000D01*
X334000000Y-103000000D02*
X318500000Y-118500000D01*
X296286000Y-141214000D02*
X220114000Y-141214000D01*
X334000000Y-92500000D02*
X334000000Y-103000000D01*
X318500000Y-119000000D02*
X296286000Y-141214000D01*
X326000000Y-84500000D02*
X334000000Y-92500000D01*
%TO.N,LDR*%
X227879000Y-93099000D02*
X241500000Y-106720000D01*
X152519000Y-93099000D02*
X227879000Y-93099000D01*
X131920000Y-72500000D02*
X152519000Y-93099000D01*
%TO.N,Dht22*%
X198680000Y-104180000D02*
X218640000Y-104180000D01*
X127000000Y-93500000D02*
X188000000Y-93500000D01*
X109540000Y-76040000D02*
X127000000Y-93500000D01*
X109540000Y-72500000D02*
X109540000Y-76040000D01*
X188000000Y-93500000D02*
X198680000Y-104180000D01*
%TO.N,Soil*%
X240420000Y-128500000D02*
X241500000Y-129580000D01*
X168500000Y-128500000D02*
X240420000Y-128500000D01*
X113580000Y-97000000D02*
X137000000Y-97000000D01*
X89580000Y-73000000D02*
X113580000Y-97000000D01*
X137000000Y-97000000D02*
X168500000Y-128500000D01*
%TD*%
%TA.AperFunction,Conductor*%
%TO.N,VCC*%
G36*
X390001578Y-62000540D02*
G01*
X390731250Y-62019030D01*
X390737507Y-62019347D01*
X391463765Y-62074654D01*
X391470014Y-62075289D01*
X392192507Y-62167306D01*
X392198708Y-62168256D01*
X392915668Y-62296757D01*
X392921768Y-62298011D01*
X393631277Y-62462656D01*
X393637327Y-62464222D01*
X394337611Y-62664598D01*
X394343585Y-62666473D01*
X395032791Y-62902050D01*
X395038654Y-62904221D01*
X395715068Y-63174414D01*
X395720815Y-63176881D01*
X396207288Y-63400402D01*
X396382622Y-63480963D01*
X396388263Y-63483729D01*
X397033852Y-63820957D01*
X397039345Y-63824006D01*
X397667008Y-64193490D01*
X397672338Y-64196812D01*
X398280483Y-64597613D01*
X398285622Y-64601189D01*
X398872713Y-65032298D01*
X398877672Y-65036137D01*
X399442135Y-65496398D01*
X399446902Y-65500490D01*
X399987355Y-65988770D01*
X399991908Y-65993099D01*
X400506900Y-66508091D01*
X400511229Y-66512644D01*
X400999509Y-67053097D01*
X401003601Y-67057864D01*
X401463862Y-67622327D01*
X401467708Y-67627295D01*
X401898803Y-68214368D01*
X401902392Y-68219525D01*
X402303186Y-68827660D01*
X402306509Y-68832991D01*
X402675993Y-69460654D01*
X402679042Y-69466147D01*
X403016270Y-70111736D01*
X403019036Y-70117377D01*
X403323112Y-70779171D01*
X403325590Y-70784944D01*
X403595772Y-71461331D01*
X403597954Y-71467223D01*
X403833523Y-72156404D01*
X403835404Y-72162398D01*
X404035773Y-72862656D01*
X404037347Y-72868738D01*
X404201982Y-73578204D01*
X404203247Y-73584358D01*
X404331742Y-74301286D01*
X404332693Y-74307496D01*
X404424709Y-75029984D01*
X404425345Y-75036234D01*
X404480651Y-75762483D01*
X404480969Y-75768758D01*
X404499460Y-76498421D01*
X404499500Y-76501562D01*
X404499500Y-181998437D01*
X404499460Y-182001578D01*
X404480969Y-182731241D01*
X404480651Y-182737516D01*
X404425345Y-183463765D01*
X404424709Y-183470015D01*
X404332693Y-184192503D01*
X404331742Y-184198713D01*
X404203247Y-184915641D01*
X404201982Y-184921795D01*
X404037347Y-185631261D01*
X404035773Y-185637343D01*
X403835404Y-186337601D01*
X403833523Y-186343595D01*
X403597954Y-187032776D01*
X403595772Y-187038668D01*
X403325590Y-187715055D01*
X403323112Y-187720828D01*
X403019036Y-188382622D01*
X403016270Y-188388263D01*
X402679042Y-189033852D01*
X402675993Y-189039345D01*
X402306509Y-189667008D01*
X402303186Y-189672339D01*
X401902392Y-190280474D01*
X401898803Y-190285631D01*
X401467708Y-190872704D01*
X401463862Y-190877672D01*
X401003601Y-191442135D01*
X400999509Y-191446902D01*
X400511229Y-191987355D01*
X400506900Y-191991908D01*
X399991908Y-192506900D01*
X399987355Y-192511229D01*
X399446902Y-192999509D01*
X399442135Y-193003601D01*
X398877672Y-193463862D01*
X398872704Y-193467708D01*
X398285631Y-193898803D01*
X398280474Y-193902392D01*
X397672339Y-194303186D01*
X397667008Y-194306509D01*
X397039345Y-194675993D01*
X397033852Y-194679042D01*
X396388263Y-195016270D01*
X396382622Y-195019036D01*
X395720828Y-195323112D01*
X395715055Y-195325590D01*
X395038668Y-195595772D01*
X395032776Y-195597954D01*
X394343595Y-195833523D01*
X394337601Y-195835404D01*
X393637343Y-196035773D01*
X393631261Y-196037347D01*
X392921795Y-196201982D01*
X392915641Y-196203247D01*
X392198713Y-196331742D01*
X392192503Y-196332693D01*
X391470015Y-196424709D01*
X391463765Y-196425345D01*
X390737516Y-196480651D01*
X390731241Y-196480969D01*
X390001578Y-196499460D01*
X389998437Y-196499500D01*
X85501563Y-196499500D01*
X85498422Y-196499460D01*
X84768758Y-196480969D01*
X84762483Y-196480651D01*
X84036234Y-196425345D01*
X84029984Y-196424709D01*
X83307496Y-196332693D01*
X83301286Y-196331742D01*
X82584358Y-196203247D01*
X82578204Y-196201982D01*
X81868738Y-196037347D01*
X81862656Y-196035773D01*
X81162398Y-195835404D01*
X81156404Y-195833523D01*
X80467223Y-195597954D01*
X80461331Y-195595772D01*
X79784944Y-195325590D01*
X79779171Y-195323112D01*
X79117377Y-195019036D01*
X79111736Y-195016270D01*
X78466147Y-194679042D01*
X78460654Y-194675993D01*
X77832991Y-194306509D01*
X77827660Y-194303186D01*
X77219525Y-193902392D01*
X77214368Y-193898803D01*
X76627295Y-193467708D01*
X76622327Y-193463862D01*
X76057864Y-193003601D01*
X76053097Y-192999509D01*
X75512644Y-192511229D01*
X75508091Y-192506900D01*
X74993099Y-191991908D01*
X74988770Y-191987355D01*
X74500490Y-191446902D01*
X74496398Y-191442135D01*
X74197871Y-191076022D01*
X74036129Y-190877662D01*
X74032291Y-190872703D01*
X73958368Y-190772033D01*
X73958366Y-190772031D01*
X73722866Y-190451323D01*
X73722865Y-190451320D01*
X73601197Y-190285631D01*
X73597607Y-190280474D01*
X73539370Y-190192110D01*
X73196812Y-189672338D01*
X73193490Y-189667008D01*
X73179045Y-189642470D01*
X73036319Y-189400013D01*
X337620000Y-189400013D01*
X337620000Y-190250000D01*
X338819999Y-190250000D01*
X338794979Y-190310402D01*
X338770000Y-190435981D01*
X338770000Y-190564019D01*
X338794979Y-190689598D01*
X338819999Y-190750000D01*
X337620001Y-190750000D01*
X337620001Y-191599986D01*
X337630494Y-191702697D01*
X337685641Y-191869119D01*
X337685643Y-191869124D01*
X337777684Y-192018345D01*
X337901654Y-192142315D01*
X338050875Y-192234356D01*
X338050880Y-192234358D01*
X338217302Y-192289505D01*
X338217309Y-192289506D01*
X338320019Y-192299999D01*
X339169999Y-192299999D01*
X339170000Y-192299998D01*
X339170000Y-191100001D01*
X339230402Y-191125021D01*
X339355981Y-191150000D01*
X339484019Y-191150000D01*
X339609598Y-191125021D01*
X339670000Y-191100001D01*
X339670000Y-192299999D01*
X340519972Y-192299999D01*
X340519986Y-192299998D01*
X340622697Y-192289505D01*
X340789119Y-192234358D01*
X340789124Y-192234356D01*
X340938345Y-192142315D01*
X341062315Y-192018345D01*
X341154356Y-191869124D01*
X341154358Y-191869119D01*
X341209505Y-191702697D01*
X341209506Y-191702690D01*
X341219999Y-191599986D01*
X341220000Y-191599973D01*
X341220000Y-190750000D01*
X340020001Y-190750000D01*
X340045021Y-190689598D01*
X340070000Y-190564019D01*
X340070000Y-190435981D01*
X340059262Y-190381995D01*
X342699500Y-190381995D01*
X342699500Y-190618004D01*
X342699501Y-190618020D01*
X342730306Y-190852010D01*
X342791394Y-191079993D01*
X342881714Y-191298045D01*
X342881719Y-191298056D01*
X342952677Y-191420957D01*
X342999727Y-191502450D01*
X342999729Y-191502453D01*
X342999730Y-191502454D01*
X343143406Y-191689697D01*
X343143412Y-191689704D01*
X343310295Y-191856587D01*
X343310302Y-191856593D01*
X343326633Y-191869124D01*
X343497550Y-192000273D01*
X343628918Y-192076118D01*
X343701943Y-192118280D01*
X343701948Y-192118282D01*
X343701951Y-192118284D01*
X343920007Y-192208606D01*
X344147986Y-192269693D01*
X344381989Y-192300500D01*
X344381996Y-192300500D01*
X344618004Y-192300500D01*
X344618011Y-192300500D01*
X344852014Y-192269693D01*
X345079993Y-192208606D01*
X345298049Y-192118284D01*
X345502450Y-192000273D01*
X345689699Y-191856592D01*
X345856592Y-191689699D01*
X346000273Y-191502450D01*
X346118284Y-191298049D01*
X346208606Y-191079993D01*
X346269693Y-190852014D01*
X346300500Y-190618011D01*
X346300500Y-190381989D01*
X346269693Y-190147986D01*
X346208606Y-189920007D01*
X346118284Y-189701951D01*
X346118282Y-189701948D01*
X346118280Y-189701943D01*
X346076118Y-189628918D01*
X346000273Y-189497550D01*
X345856592Y-189310301D01*
X345856587Y-189310295D01*
X345689704Y-189143412D01*
X345689697Y-189143406D01*
X345502454Y-188999730D01*
X345502453Y-188999729D01*
X345502450Y-188999727D01*
X345420957Y-188952677D01*
X345298056Y-188881719D01*
X345298045Y-188881714D01*
X345079993Y-188791394D01*
X344852010Y-188730306D01*
X344618020Y-188699501D01*
X344618017Y-188699500D01*
X344618011Y-188699500D01*
X344381989Y-188699500D01*
X344381983Y-188699500D01*
X344381979Y-188699501D01*
X344147989Y-188730306D01*
X343920006Y-188791394D01*
X343701954Y-188881714D01*
X343701943Y-188881719D01*
X343497545Y-188999730D01*
X343310302Y-189143406D01*
X343310295Y-189143412D01*
X343143412Y-189310295D01*
X343143406Y-189310302D01*
X342999730Y-189497545D01*
X342881719Y-189701943D01*
X342881714Y-189701954D01*
X342791394Y-189920006D01*
X342730306Y-190147989D01*
X342699501Y-190381979D01*
X342699500Y-190381995D01*
X340059262Y-190381995D01*
X340045021Y-190310402D01*
X340020001Y-190250000D01*
X341219999Y-190250000D01*
X341219999Y-189400028D01*
X341219998Y-189400013D01*
X341209505Y-189297302D01*
X341154358Y-189130880D01*
X341154356Y-189130875D01*
X341062315Y-188981654D01*
X340938345Y-188857684D01*
X340789124Y-188765643D01*
X340789119Y-188765641D01*
X340622697Y-188710494D01*
X340622690Y-188710493D01*
X340519986Y-188700000D01*
X339670000Y-188700000D01*
X339670000Y-189899998D01*
X339609598Y-189874979D01*
X339484019Y-189850000D01*
X339355981Y-189850000D01*
X339230402Y-189874979D01*
X339170000Y-189899998D01*
X339170000Y-188700000D01*
X338320028Y-188700000D01*
X338320012Y-188700001D01*
X338217302Y-188710494D01*
X338050880Y-188765641D01*
X338050875Y-188765643D01*
X337901654Y-188857684D01*
X337777684Y-188981654D01*
X337685643Y-189130875D01*
X337685641Y-189130880D01*
X337630494Y-189297302D01*
X337630493Y-189297309D01*
X337620000Y-189400013D01*
X73036319Y-189400013D01*
X72938776Y-189234312D01*
X72824006Y-189039345D01*
X72820957Y-189033852D01*
X72483729Y-188388263D01*
X72480963Y-188382622D01*
X72176887Y-187720828D01*
X72174409Y-187715055D01*
X71904227Y-187038668D01*
X71902045Y-187032776D01*
X71844249Y-186863689D01*
X71666473Y-186343585D01*
X71664595Y-186337601D01*
X71464226Y-185637343D01*
X71462652Y-185631261D01*
X71298011Y-184921768D01*
X71296757Y-184915668D01*
X71168256Y-184198708D01*
X71167306Y-184192503D01*
X71075290Y-183470015D01*
X71074654Y-183463765D01*
X71019348Y-182737516D01*
X71019030Y-182731241D01*
X71010142Y-182380516D01*
X71000540Y-182001578D01*
X71000500Y-181998437D01*
X71000500Y-180400403D01*
X114234500Y-180400403D01*
X114234500Y-180599596D01*
X114265661Y-180796340D01*
X114265661Y-180796343D01*
X114327213Y-180985780D01*
X114327215Y-180985783D01*
X114417647Y-181163266D01*
X114534731Y-181324418D01*
X114675582Y-181465269D01*
X114836734Y-181582353D01*
X115014217Y-181672785D01*
X115014219Y-181672786D01*
X115203657Y-181734338D01*
X115203658Y-181734338D01*
X115203661Y-181734339D01*
X115400403Y-181765500D01*
X115400404Y-181765500D01*
X115599596Y-181765500D01*
X115599597Y-181765500D01*
X115796339Y-181734339D01*
X115796342Y-181734338D01*
X115796343Y-181734338D01*
X115985780Y-181672786D01*
X115985780Y-181672785D01*
X115985783Y-181672785D01*
X116163266Y-181582353D01*
X116324418Y-181465269D01*
X116465269Y-181324418D01*
X116582353Y-181163266D01*
X116672785Y-180985783D01*
X116734339Y-180796339D01*
X116765500Y-180599597D01*
X116765500Y-180400403D01*
X173234500Y-180400403D01*
X173234500Y-180599596D01*
X173265661Y-180796340D01*
X173265661Y-180796343D01*
X173327213Y-180985780D01*
X173327215Y-180985783D01*
X173417647Y-181163266D01*
X173534731Y-181324418D01*
X173675582Y-181465269D01*
X173836734Y-181582353D01*
X174014217Y-181672785D01*
X174014219Y-181672786D01*
X174203657Y-181734338D01*
X174203658Y-181734338D01*
X174203661Y-181734339D01*
X174400403Y-181765500D01*
X174400404Y-181765500D01*
X174599596Y-181765500D01*
X174599597Y-181765500D01*
X174796339Y-181734339D01*
X174796342Y-181734338D01*
X174796343Y-181734338D01*
X174985780Y-181672786D01*
X174985780Y-181672785D01*
X174985783Y-181672785D01*
X175163266Y-181582353D01*
X175324418Y-181465269D01*
X175465269Y-181324418D01*
X175582353Y-181163266D01*
X175672785Y-180985783D01*
X175734339Y-180796339D01*
X175765500Y-180599597D01*
X175765500Y-180400403D01*
X175734339Y-180203661D01*
X175734338Y-180203657D01*
X175734338Y-180203656D01*
X175672786Y-180014219D01*
X175582352Y-179836733D01*
X175465269Y-179675582D01*
X175324418Y-179534731D01*
X175163266Y-179417647D01*
X174985780Y-179327213D01*
X174796342Y-179265661D01*
X174648782Y-179242290D01*
X174599597Y-179234500D01*
X174400403Y-179234500D01*
X174334822Y-179244887D01*
X174203659Y-179265661D01*
X174203656Y-179265661D01*
X174014219Y-179327213D01*
X173836733Y-179417647D01*
X173744790Y-179484447D01*
X173675582Y-179534731D01*
X173675580Y-179534733D01*
X173675579Y-179534733D01*
X173534733Y-179675579D01*
X173534733Y-179675580D01*
X173534731Y-179675582D01*
X173484447Y-179744790D01*
X173417647Y-179836733D01*
X173327213Y-180014219D01*
X173265661Y-180203656D01*
X173265661Y-180203659D01*
X173234500Y-180400403D01*
X116765500Y-180400403D01*
X116734339Y-180203661D01*
X116734338Y-180203657D01*
X116734338Y-180203656D01*
X116672786Y-180014219D01*
X116582352Y-179836733D01*
X116465269Y-179675582D01*
X116324418Y-179534731D01*
X116163266Y-179417647D01*
X115985780Y-179327213D01*
X115796342Y-179265661D01*
X115648782Y-179242290D01*
X115599597Y-179234500D01*
X115400403Y-179234500D01*
X115334822Y-179244887D01*
X115203659Y-179265661D01*
X115203656Y-179265661D01*
X115014219Y-179327213D01*
X114836733Y-179417647D01*
X114744790Y-179484447D01*
X114675582Y-179534731D01*
X114675580Y-179534733D01*
X114675579Y-179534733D01*
X114534733Y-179675579D01*
X114534733Y-179675580D01*
X114534731Y-179675582D01*
X114484447Y-179744790D01*
X114417647Y-179836733D01*
X114327213Y-180014219D01*
X114265661Y-180203656D01*
X114265661Y-180203659D01*
X114234500Y-180400403D01*
X71000500Y-180400403D01*
X71000500Y-175400403D01*
X114234500Y-175400403D01*
X114234500Y-175599596D01*
X114265661Y-175796340D01*
X114265661Y-175796343D01*
X114327213Y-175985780D01*
X114327215Y-175985783D01*
X114417647Y-176163266D01*
X114534731Y-176324418D01*
X114675582Y-176465269D01*
X114836734Y-176582353D01*
X115014217Y-176672785D01*
X115014219Y-176672786D01*
X115203657Y-176734338D01*
X115203658Y-176734338D01*
X115203661Y-176734339D01*
X115400403Y-176765500D01*
X115400404Y-176765500D01*
X115599596Y-176765500D01*
X115599597Y-176765500D01*
X115796339Y-176734339D01*
X115796342Y-176734338D01*
X115796343Y-176734338D01*
X115985780Y-176672786D01*
X115985780Y-176672785D01*
X115985783Y-176672785D01*
X116163266Y-176582353D01*
X116324418Y-176465269D01*
X116465269Y-176324418D01*
X116582353Y-176163266D01*
X116672785Y-175985783D01*
X116734339Y-175796339D01*
X116765500Y-175599597D01*
X116765500Y-175400403D01*
X173234500Y-175400403D01*
X173234500Y-175599596D01*
X173265661Y-175796340D01*
X173265661Y-175796343D01*
X173327213Y-175985780D01*
X173327215Y-175985783D01*
X173417647Y-176163266D01*
X173534731Y-176324418D01*
X173675582Y-176465269D01*
X173836734Y-176582353D01*
X174014217Y-176672785D01*
X174014219Y-176672786D01*
X174203657Y-176734338D01*
X174203658Y-176734338D01*
X174203661Y-176734339D01*
X174400403Y-176765500D01*
X174400404Y-176765500D01*
X174599596Y-176765500D01*
X174599597Y-176765500D01*
X174796339Y-176734339D01*
X174796342Y-176734338D01*
X174796343Y-176734338D01*
X174985780Y-176672786D01*
X174985780Y-176672785D01*
X174985783Y-176672785D01*
X175163266Y-176582353D01*
X175324418Y-176465269D01*
X175465269Y-176324418D01*
X175582353Y-176163266D01*
X175672785Y-175985783D01*
X175734339Y-175796339D01*
X175765500Y-175599597D01*
X175765500Y-175400403D01*
X175734339Y-175203661D01*
X175734338Y-175203657D01*
X175734338Y-175203656D01*
X175672786Y-175014219D01*
X175582352Y-174836733D01*
X175465269Y-174675582D01*
X175324418Y-174534731D01*
X175163266Y-174417647D01*
X174985780Y-174327213D01*
X174796342Y-174265661D01*
X174648782Y-174242290D01*
X174599597Y-174234500D01*
X174400403Y-174234500D01*
X174334822Y-174244887D01*
X174203659Y-174265661D01*
X174203656Y-174265661D01*
X174014219Y-174327213D01*
X173836733Y-174417647D01*
X173744790Y-174484447D01*
X173675582Y-174534731D01*
X173675580Y-174534733D01*
X173675579Y-174534733D01*
X173534733Y-174675579D01*
X173534733Y-174675580D01*
X173534731Y-174675582D01*
X173484447Y-174744790D01*
X173417647Y-174836733D01*
X173327213Y-175014219D01*
X173265661Y-175203656D01*
X173265661Y-175203659D01*
X173234500Y-175400403D01*
X116765500Y-175400403D01*
X116734339Y-175203661D01*
X116734338Y-175203657D01*
X116734338Y-175203656D01*
X116672786Y-175014219D01*
X116582352Y-174836733D01*
X116465269Y-174675582D01*
X116324418Y-174534731D01*
X116163266Y-174417647D01*
X115985780Y-174327213D01*
X115796342Y-174265661D01*
X115648782Y-174242290D01*
X115599597Y-174234500D01*
X115400403Y-174234500D01*
X115334822Y-174244887D01*
X115203659Y-174265661D01*
X115203656Y-174265661D01*
X115014219Y-174327213D01*
X114836733Y-174417647D01*
X114744790Y-174484447D01*
X114675582Y-174534731D01*
X114675580Y-174534733D01*
X114675579Y-174534733D01*
X114534733Y-174675579D01*
X114534733Y-174675580D01*
X114534731Y-174675582D01*
X114484447Y-174744790D01*
X114417647Y-174836733D01*
X114327213Y-175014219D01*
X114265661Y-175203656D01*
X114265661Y-175203659D01*
X114234500Y-175400403D01*
X71000500Y-175400403D01*
X71000500Y-134400403D01*
X141234500Y-134400403D01*
X141234500Y-134599597D01*
X141238015Y-134621789D01*
X141265661Y-134796340D01*
X141265661Y-134796343D01*
X141327213Y-134985780D01*
X141349089Y-135028713D01*
X141417647Y-135163266D01*
X141534731Y-135324418D01*
X141675582Y-135465269D01*
X141836734Y-135582353D01*
X142014217Y-135672785D01*
X142014219Y-135672786D01*
X142203657Y-135734338D01*
X142203658Y-135734338D01*
X142203661Y-135734339D01*
X142400403Y-135765500D01*
X142400404Y-135765500D01*
X142599596Y-135765500D01*
X142599597Y-135765500D01*
X142796339Y-135734339D01*
X142796342Y-135734338D01*
X142796343Y-135734338D01*
X142985780Y-135672786D01*
X142985780Y-135672785D01*
X142985783Y-135672785D01*
X143163266Y-135582353D01*
X143324418Y-135465269D01*
X143465269Y-135324418D01*
X143582353Y-135163266D01*
X143672785Y-134985783D01*
X143734339Y-134796339D01*
X143765500Y-134599597D01*
X143765500Y-134400403D01*
X143734339Y-134203661D01*
X143734338Y-134203657D01*
X143734338Y-134203656D01*
X143672786Y-134014219D01*
X143634259Y-133938605D01*
X143582353Y-133836734D01*
X143465269Y-133675582D01*
X143324418Y-133534731D01*
X143163266Y-133417647D01*
X143119429Y-133395311D01*
X142985780Y-133327213D01*
X142796342Y-133265661D01*
X142648782Y-133242290D01*
X142599597Y-133234500D01*
X142400403Y-133234500D01*
X142334822Y-133244887D01*
X142203659Y-133265661D01*
X142203656Y-133265661D01*
X142014219Y-133327213D01*
X141836733Y-133417647D01*
X141788749Y-133452510D01*
X141675582Y-133534731D01*
X141675580Y-133534733D01*
X141675579Y-133534733D01*
X141534733Y-133675579D01*
X141534733Y-133675580D01*
X141534731Y-133675582D01*
X141520817Y-133694733D01*
X141417647Y-133836733D01*
X141327213Y-134014219D01*
X141265661Y-134203656D01*
X141265661Y-134203659D01*
X141240320Y-134363656D01*
X141234500Y-134400403D01*
X71000500Y-134400403D01*
X71000500Y-129400403D01*
X141234500Y-129400403D01*
X141234500Y-129599596D01*
X141265661Y-129796340D01*
X141265661Y-129796343D01*
X141327213Y-129985780D01*
X141327215Y-129985783D01*
X141417647Y-130163266D01*
X141534731Y-130324418D01*
X141675582Y-130465269D01*
X141836734Y-130582353D01*
X141993741Y-130662352D01*
X142014219Y-130672786D01*
X142203657Y-130734338D01*
X142203658Y-130734338D01*
X142203661Y-130734339D01*
X142400403Y-130765500D01*
X142400404Y-130765500D01*
X142599596Y-130765500D01*
X142599597Y-130765500D01*
X142796339Y-130734339D01*
X142796342Y-130734338D01*
X142796343Y-130734338D01*
X142985780Y-130672786D01*
X142985780Y-130672785D01*
X142985783Y-130672785D01*
X143163266Y-130582353D01*
X143324418Y-130465269D01*
X143465269Y-130324418D01*
X143582353Y-130163266D01*
X143672785Y-129985783D01*
X143708345Y-129876340D01*
X143734338Y-129796343D01*
X143734338Y-129796342D01*
X143734339Y-129796339D01*
X143765500Y-129599597D01*
X143765500Y-129400403D01*
X143734339Y-129203661D01*
X143734338Y-129203657D01*
X143734338Y-129203656D01*
X143672786Y-129014219D01*
X143672785Y-129014217D01*
X143582353Y-128836734D01*
X143465269Y-128675582D01*
X143324418Y-128534731D01*
X143163266Y-128417647D01*
X143064708Y-128367429D01*
X142985780Y-128327213D01*
X142796342Y-128265661D01*
X142648782Y-128242290D01*
X142599597Y-128234500D01*
X142400403Y-128234500D01*
X142334822Y-128244887D01*
X142203659Y-128265661D01*
X142203656Y-128265661D01*
X142014219Y-128327213D01*
X141836733Y-128417647D01*
X141744790Y-128484447D01*
X141675582Y-128534731D01*
X141675580Y-128534733D01*
X141675579Y-128534733D01*
X141534733Y-128675579D01*
X141534733Y-128675580D01*
X141534731Y-128675582D01*
X141484447Y-128744790D01*
X141417647Y-128836733D01*
X141327213Y-129014219D01*
X141265661Y-129203656D01*
X141265661Y-129203659D01*
X141234500Y-129400403D01*
X71000500Y-129400403D01*
X71000500Y-76501562D01*
X71000540Y-76498421D01*
X71005395Y-76306814D01*
X71019030Y-75768747D01*
X71019348Y-75762483D01*
X71074654Y-75036234D01*
X71075290Y-75029984D01*
X71161829Y-74350499D01*
X71167307Y-74307486D01*
X71168257Y-74301286D01*
X71296758Y-73584324D01*
X71298009Y-73578239D01*
X71462658Y-72868713D01*
X71464219Y-72862681D01*
X71664601Y-72162376D01*
X71666469Y-72156425D01*
X71685026Y-72102135D01*
X83149500Y-72102135D01*
X83149500Y-73897870D01*
X83149501Y-73897876D01*
X83155908Y-73957483D01*
X83206202Y-74092328D01*
X83206206Y-74092335D01*
X83292452Y-74207544D01*
X83292455Y-74207547D01*
X83407664Y-74293793D01*
X83407671Y-74293797D01*
X83542517Y-74344091D01*
X83542516Y-74344091D01*
X83549444Y-74344835D01*
X83602127Y-74350500D01*
X85397872Y-74350499D01*
X85457483Y-74344091D01*
X85592331Y-74293796D01*
X85707546Y-74207546D01*
X85793796Y-74092331D01*
X85844091Y-73957483D01*
X85850500Y-73897873D01*
X85850499Y-73873979D01*
X85853330Y-73860963D01*
X85863940Y-73841525D01*
X85870179Y-73820275D01*
X85886803Y-73799643D01*
X85886808Y-73799636D01*
X85886811Y-73799634D01*
X85886818Y-73799626D01*
X86557037Y-73129408D01*
X86574075Y-73192993D01*
X86639901Y-73307007D01*
X86732993Y-73400099D01*
X86847007Y-73465925D01*
X86910590Y-73482962D01*
X86278282Y-74115269D01*
X86278282Y-74115270D01*
X86332449Y-74154624D01*
X86521782Y-74251095D01*
X86723870Y-74316757D01*
X86933754Y-74350000D01*
X87146246Y-74350000D01*
X87356127Y-74316757D01*
X87356130Y-74316757D01*
X87558217Y-74251095D01*
X87747554Y-74154622D01*
X87801716Y-74115270D01*
X87801717Y-74115270D01*
X87169408Y-73482962D01*
X87232993Y-73465925D01*
X87347007Y-73400099D01*
X87440099Y-73307007D01*
X87505925Y-73192993D01*
X87522962Y-73129408D01*
X88155270Y-73761717D01*
X88155270Y-73761716D01*
X88194622Y-73707555D01*
X88199232Y-73698507D01*
X88247205Y-73647709D01*
X88315025Y-73630912D01*
X88381161Y-73653447D01*
X88420204Y-73698504D01*
X88424949Y-73707817D01*
X88549890Y-73879786D01*
X88700213Y-74030109D01*
X88872179Y-74155048D01*
X88872181Y-74155049D01*
X88872184Y-74155051D01*
X89061588Y-74251557D01*
X89263757Y-74317246D01*
X89473713Y-74350500D01*
X89473714Y-74350500D01*
X89686286Y-74350500D01*
X89686287Y-74350500D01*
X89896243Y-74317246D01*
X89938523Y-74303507D01*
X90008362Y-74301511D01*
X90064522Y-74333757D01*
X113095139Y-97364374D01*
X113095149Y-97364385D01*
X113099479Y-97368715D01*
X113099480Y-97368716D01*
X113211284Y-97480520D01*
X113211286Y-97480521D01*
X113211290Y-97480524D01*
X113288787Y-97525266D01*
X113348216Y-97559577D01*
X113460019Y-97589534D01*
X113500942Y-97600500D01*
X113500943Y-97600500D01*
X136699903Y-97600500D01*
X136766942Y-97620185D01*
X136787584Y-97636819D01*
X168015139Y-128864374D01*
X168015149Y-128864385D01*
X168019479Y-128868715D01*
X168019480Y-128868716D01*
X168131284Y-128980520D01*
X168202003Y-129021349D01*
X168268215Y-129059577D01*
X168420942Y-129100500D01*
X168420943Y-129100500D01*
X217294503Y-129100500D01*
X217361542Y-129120185D01*
X217407297Y-129172989D01*
X217417241Y-129242147D01*
X217412437Y-129262805D01*
X217405663Y-129283656D01*
X217405659Y-129283668D01*
X217374500Y-129480403D01*
X217374500Y-129679596D01*
X217405661Y-129876340D01*
X217405661Y-129876343D01*
X217467213Y-130065780D01*
X217467215Y-130065783D01*
X217557647Y-130243266D01*
X217674731Y-130404418D01*
X217815582Y-130545269D01*
X217976734Y-130662353D01*
X218046453Y-130697877D01*
X218128172Y-130739515D01*
X218178968Y-130787490D01*
X218195763Y-130855311D01*
X218173225Y-130921446D01*
X218128172Y-130960485D01*
X217976733Y-131037647D01*
X217884790Y-131104447D01*
X217815582Y-131154731D01*
X217815580Y-131154733D01*
X217815579Y-131154733D01*
X217674733Y-131295579D01*
X217674733Y-131295580D01*
X217674731Y-131295582D01*
X217624447Y-131364790D01*
X217557647Y-131456733D01*
X217467213Y-131634219D01*
X217405661Y-131823656D01*
X217405661Y-131823659D01*
X217405661Y-131823661D01*
X217374500Y-132020403D01*
X217374500Y-132219597D01*
X217381796Y-132265661D01*
X217405661Y-132416340D01*
X217405661Y-132416343D01*
X217467213Y-132605780D01*
X217467215Y-132605783D01*
X217557647Y-132783266D01*
X217674731Y-132944418D01*
X217815582Y-133085269D01*
X217976734Y-133202353D01*
X218039826Y-133234500D01*
X218128172Y-133279515D01*
X218178968Y-133327490D01*
X218195763Y-133395311D01*
X218173225Y-133461446D01*
X218128172Y-133500485D01*
X217976733Y-133577647D01*
X217917310Y-133620821D01*
X217815582Y-133694731D01*
X217815580Y-133694733D01*
X217815579Y-133694733D01*
X217674733Y-133835579D01*
X217674733Y-133835580D01*
X217674731Y-133835582D01*
X217624447Y-133904790D01*
X217557647Y-133996733D01*
X217467213Y-134174219D01*
X217405661Y-134363656D01*
X217405661Y-134363659D01*
X217389568Y-134465266D01*
X217374500Y-134560403D01*
X217374500Y-134759597D01*
X217381000Y-134800638D01*
X217405661Y-134956340D01*
X217405661Y-134956343D01*
X217467213Y-135145780D01*
X217504814Y-135219576D01*
X217557647Y-135323266D01*
X217674731Y-135484418D01*
X217815582Y-135625269D01*
X217976734Y-135742353D01*
X218022163Y-135765500D01*
X218128172Y-135819515D01*
X218178968Y-135867490D01*
X218195763Y-135935311D01*
X218173225Y-136001446D01*
X218128172Y-136040485D01*
X217976733Y-136117647D01*
X217884790Y-136184447D01*
X217815582Y-136234731D01*
X217815580Y-136234733D01*
X217815579Y-136234733D01*
X217674733Y-136375579D01*
X217674733Y-136375580D01*
X217674731Y-136375582D01*
X217624447Y-136444790D01*
X217557647Y-136536733D01*
X217467213Y-136714219D01*
X217405661Y-136903656D01*
X217405661Y-136903659D01*
X217374500Y-137100403D01*
X217374500Y-137299596D01*
X217405661Y-137496340D01*
X217405661Y-137496343D01*
X217467213Y-137685780D01*
X217467215Y-137685783D01*
X217557647Y-137863266D01*
X217674731Y-138024418D01*
X217815582Y-138165269D01*
X217976734Y-138282353D01*
X218046453Y-138317877D01*
X218128172Y-138359515D01*
X218178968Y-138407490D01*
X218195763Y-138475311D01*
X218173225Y-138541446D01*
X218128172Y-138580485D01*
X217976733Y-138657647D01*
X217884790Y-138724447D01*
X217815582Y-138774731D01*
X217815580Y-138774733D01*
X217815579Y-138774733D01*
X217674733Y-138915579D01*
X217674733Y-138915580D01*
X217674731Y-138915582D01*
X217624447Y-138984790D01*
X217557647Y-139076733D01*
X217467213Y-139254219D01*
X217405661Y-139443656D01*
X217405661Y-139443659D01*
X217374500Y-139640403D01*
X217374500Y-139839596D01*
X217405661Y-140036340D01*
X217405661Y-140036343D01*
X217467213Y-140225780D01*
X217467215Y-140225783D01*
X217557647Y-140403266D01*
X217674731Y-140564418D01*
X217815582Y-140705269D01*
X217976734Y-140822353D01*
X218046453Y-140857877D01*
X218128172Y-140899515D01*
X218178968Y-140947490D01*
X218195763Y-141015311D01*
X218173225Y-141081446D01*
X218128172Y-141120485D01*
X217976733Y-141197647D01*
X217884790Y-141264447D01*
X217815582Y-141314731D01*
X217815580Y-141314733D01*
X217815579Y-141314733D01*
X217674733Y-141455579D01*
X217674733Y-141455580D01*
X217674731Y-141455582D01*
X217624447Y-141524790D01*
X217557647Y-141616733D01*
X217467213Y-141794219D01*
X217405661Y-141983656D01*
X217405661Y-141983659D01*
X217374500Y-142180403D01*
X217374500Y-142379596D01*
X217405661Y-142576340D01*
X217405661Y-142576343D01*
X217467213Y-142765780D01*
X217467215Y-142765783D01*
X217557647Y-142943266D01*
X217674731Y-143104418D01*
X217815582Y-143245269D01*
X217976734Y-143362353D01*
X218046453Y-143397877D01*
X218128172Y-143439515D01*
X218178968Y-143487490D01*
X218195763Y-143555311D01*
X218173225Y-143621446D01*
X218128172Y-143660485D01*
X217976733Y-143737647D01*
X217884790Y-143804447D01*
X217815582Y-143854731D01*
X217815580Y-143854733D01*
X217815579Y-143854733D01*
X217674733Y-143995579D01*
X217674733Y-143995580D01*
X217674731Y-143995582D01*
X217624447Y-144064790D01*
X217557647Y-144156733D01*
X217467213Y-144334219D01*
X217405661Y-144523656D01*
X217405661Y-144523659D01*
X217374500Y-144720403D01*
X217374500Y-144919596D01*
X217405661Y-145116340D01*
X217405661Y-145116343D01*
X217467213Y-145305780D01*
X217467215Y-145305783D01*
X217557647Y-145483266D01*
X217674731Y-145644418D01*
X217815582Y-145785269D01*
X217976734Y-145902353D01*
X218066909Y-145948299D01*
X218128722Y-145979795D01*
X218179518Y-146027770D01*
X218196313Y-146095591D01*
X218173776Y-146161726D01*
X218128723Y-146200764D01*
X217976993Y-146278075D01*
X217939135Y-146305580D01*
X217939135Y-146305581D01*
X218502425Y-146868871D01*
X218443147Y-146884755D01*
X218326853Y-146951898D01*
X218231898Y-147046853D01*
X218164755Y-147163147D01*
X218148871Y-147222425D01*
X217585581Y-146659135D01*
X217585580Y-146659135D01*
X217558077Y-146696990D01*
X217467679Y-146874405D01*
X217406147Y-147063777D01*
X217375000Y-147260436D01*
X217375000Y-147459563D01*
X217406147Y-147656222D01*
X217467679Y-147845594D01*
X217558077Y-148023008D01*
X217585580Y-148060863D01*
X217585581Y-148060864D01*
X218148871Y-147497574D01*
X218164755Y-147556853D01*
X218231898Y-147673147D01*
X218326853Y-147768102D01*
X218443147Y-147835245D01*
X218502425Y-147851128D01*
X217939134Y-148414417D01*
X217976994Y-148441924D01*
X218128722Y-148519234D01*
X218179518Y-148567209D01*
X218196313Y-148635030D01*
X218173776Y-148701165D01*
X218128723Y-148740203D01*
X217976735Y-148817645D01*
X217863997Y-148899555D01*
X217815582Y-148934731D01*
X217815580Y-148934733D01*
X217815579Y-148934733D01*
X217674733Y-149075579D01*
X217674733Y-149075580D01*
X217674731Y-149075582D01*
X217624447Y-149144790D01*
X217557647Y-149236733D01*
X217467213Y-149414219D01*
X217405661Y-149603656D01*
X217405661Y-149603659D01*
X217374500Y-149800403D01*
X217374500Y-149999596D01*
X217405661Y-150196340D01*
X217405661Y-150196343D01*
X217467213Y-150385780D01*
X217467215Y-150385783D01*
X217557647Y-150563266D01*
X217674731Y-150724418D01*
X217815582Y-150865269D01*
X217976734Y-150982353D01*
X218154217Y-151072785D01*
X218154219Y-151072786D01*
X218343657Y-151134338D01*
X218343658Y-151134338D01*
X218343661Y-151134339D01*
X218540403Y-151165500D01*
X218540404Y-151165500D01*
X218739596Y-151165500D01*
X218739597Y-151165500D01*
X218936339Y-151134339D01*
X218936342Y-151134338D01*
X218936343Y-151134338D01*
X219125780Y-151072786D01*
X219125780Y-151072785D01*
X219125783Y-151072785D01*
X219303266Y-150982353D01*
X219464418Y-150865269D01*
X219605269Y-150724418D01*
X219722353Y-150563266D01*
X219812785Y-150385783D01*
X219874339Y-150196339D01*
X219905500Y-149999597D01*
X219905500Y-149800403D01*
X219874339Y-149603661D01*
X219874338Y-149603657D01*
X219874338Y-149603656D01*
X219812786Y-149414219D01*
X219722352Y-149236733D01*
X219605269Y-149075582D01*
X219464418Y-148934731D01*
X219303266Y-148817647D01*
X219303262Y-148817645D01*
X219151277Y-148740204D01*
X219100481Y-148692229D01*
X219083686Y-148624408D01*
X219106224Y-148558273D01*
X219151277Y-148519234D01*
X219303005Y-148441924D01*
X219340863Y-148414418D01*
X219340863Y-148414417D01*
X218777574Y-147851128D01*
X218836853Y-147835245D01*
X218953147Y-147768102D01*
X219048102Y-147673147D01*
X219115245Y-147556853D01*
X219131128Y-147497574D01*
X219694417Y-148060863D01*
X219694418Y-148060863D01*
X219721924Y-148023005D01*
X219812320Y-147845594D01*
X219873852Y-147656222D01*
X219905000Y-147459563D01*
X219905000Y-147260436D01*
X219873852Y-147063777D01*
X219812320Y-146874405D01*
X219721924Y-146696994D01*
X219694417Y-146659135D01*
X219694417Y-146659134D01*
X219131128Y-147222424D01*
X219115245Y-147163147D01*
X219048102Y-147046853D01*
X218953147Y-146951898D01*
X218836853Y-146884755D01*
X218777574Y-146868871D01*
X219340864Y-146305581D01*
X219340863Y-146305580D01*
X219303008Y-146278077D01*
X219151277Y-146200765D01*
X219100481Y-146152790D01*
X219083686Y-146084969D01*
X219106224Y-146018834D01*
X219151277Y-145979795D01*
X219151827Y-145979515D01*
X219303266Y-145902353D01*
X219464418Y-145785269D01*
X219605269Y-145644418D01*
X219722353Y-145483266D01*
X219812785Y-145305783D01*
X219874339Y-145116339D01*
X219905500Y-144919597D01*
X219905500Y-144720403D01*
X219874339Y-144523661D01*
X219874338Y-144523657D01*
X219874338Y-144523656D01*
X219812786Y-144334219D01*
X219722352Y-144156733D01*
X219605269Y-143995582D01*
X219464418Y-143854731D01*
X219303266Y-143737647D01*
X219151827Y-143660485D01*
X219101031Y-143612510D01*
X219084236Y-143544689D01*
X219106773Y-143478554D01*
X219151827Y-143439515D01*
X219161116Y-143434781D01*
X219303266Y-143362353D01*
X219464418Y-143245269D01*
X219605269Y-143104418D01*
X219722353Y-142943266D01*
X219812785Y-142765783D01*
X219874339Y-142576339D01*
X219905500Y-142379597D01*
X219905500Y-142180403D01*
X219874339Y-141983661D01*
X219874338Y-141983659D01*
X219869392Y-141968437D01*
X219867395Y-141898596D01*
X219903473Y-141838762D01*
X219966173Y-141807932D01*
X219992192Y-141806211D01*
X220006035Y-141806755D01*
X220034943Y-141814501D01*
X220193058Y-141814501D01*
X220193062Y-141814500D01*
X240149954Y-141814500D01*
X240216993Y-141834185D01*
X240262748Y-141886989D01*
X240272692Y-141956147D01*
X240267884Y-141976820D01*
X240265661Y-141983660D01*
X240265660Y-141983663D01*
X240234500Y-142180403D01*
X240234500Y-142379596D01*
X240265661Y-142576340D01*
X240265661Y-142576343D01*
X240327213Y-142765780D01*
X240327215Y-142765783D01*
X240417647Y-142943266D01*
X240534731Y-143104418D01*
X240675582Y-143245269D01*
X240836734Y-143362353D01*
X240906453Y-143397877D01*
X240988172Y-143439515D01*
X241038968Y-143487490D01*
X241055763Y-143555311D01*
X241033225Y-143621446D01*
X240988172Y-143660485D01*
X240836733Y-143737647D01*
X240744790Y-143804447D01*
X240675582Y-143854731D01*
X240675580Y-143854733D01*
X240675579Y-143854733D01*
X240534733Y-143995579D01*
X240534733Y-143995580D01*
X240534731Y-143995582D01*
X240484447Y-144064790D01*
X240417647Y-144156733D01*
X240327213Y-144334219D01*
X240265661Y-144523656D01*
X240265661Y-144523659D01*
X240234500Y-144720403D01*
X240234500Y-144919596D01*
X240265661Y-145116340D01*
X240265661Y-145116343D01*
X240327213Y-145305780D01*
X240327215Y-145305783D01*
X240417647Y-145483266D01*
X240534731Y-145644418D01*
X240675582Y-145785269D01*
X240836734Y-145902353D01*
X240906453Y-145937877D01*
X240988172Y-145979515D01*
X241038968Y-146027490D01*
X241055763Y-146095311D01*
X241033225Y-146161446D01*
X240988172Y-146200485D01*
X240836733Y-146277647D01*
X240798286Y-146305581D01*
X240675582Y-146394731D01*
X240675580Y-146394733D01*
X240675579Y-146394733D01*
X240534733Y-146535579D01*
X240534733Y-146535580D01*
X240534731Y-146535582D01*
X240484447Y-146604790D01*
X240417647Y-146696733D01*
X240327213Y-146874219D01*
X240265661Y-147063656D01*
X240265661Y-147063659D01*
X240234500Y-147260403D01*
X240234500Y-147459596D01*
X240265661Y-147656340D01*
X240265661Y-147656343D01*
X240327213Y-147845780D01*
X240327215Y-147845783D01*
X240417647Y-148023266D01*
X240534731Y-148184418D01*
X240675582Y-148325269D01*
X240836734Y-148442353D01*
X240906453Y-148477877D01*
X240988172Y-148519515D01*
X241038968Y-148567490D01*
X241055763Y-148635311D01*
X241033225Y-148701446D01*
X240988172Y-148740485D01*
X240836733Y-148817647D01*
X240744790Y-148884447D01*
X240675582Y-148934731D01*
X240675580Y-148934733D01*
X240675579Y-148934733D01*
X240534733Y-149075579D01*
X240534733Y-149075580D01*
X240534731Y-149075582D01*
X240484447Y-149144790D01*
X240417647Y-149236733D01*
X240327213Y-149414219D01*
X240265661Y-149603656D01*
X240265661Y-149603659D01*
X240234500Y-149800403D01*
X240234500Y-149999596D01*
X240265661Y-150196340D01*
X240265661Y-150196343D01*
X240327213Y-150385780D01*
X240327215Y-150385783D01*
X240417647Y-150563266D01*
X240534731Y-150724418D01*
X240675582Y-150865269D01*
X240836734Y-150982353D01*
X241014217Y-151072785D01*
X241014219Y-151072786D01*
X241203657Y-151134338D01*
X241203658Y-151134338D01*
X241203661Y-151134339D01*
X241400403Y-151165500D01*
X241400404Y-151165500D01*
X241599596Y-151165500D01*
X241599597Y-151165500D01*
X241796339Y-151134339D01*
X241796342Y-151134338D01*
X241796343Y-151134338D01*
X241985780Y-151072786D01*
X241985780Y-151072785D01*
X241985783Y-151072785D01*
X242163266Y-150982353D01*
X242324418Y-150865269D01*
X242465269Y-150724418D01*
X242582353Y-150563266D01*
X242672785Y-150385783D01*
X242734339Y-150196339D01*
X242765500Y-149999597D01*
X242765500Y-149800403D01*
X242734339Y-149603661D01*
X242734338Y-149603657D01*
X242734338Y-149603656D01*
X242672786Y-149414219D01*
X242582352Y-149236733D01*
X242465269Y-149075582D01*
X242324418Y-148934731D01*
X242163266Y-148817647D01*
X242011827Y-148740485D01*
X241961031Y-148692510D01*
X241944236Y-148624689D01*
X241966773Y-148558554D01*
X242011827Y-148519515D01*
X242021116Y-148514781D01*
X242163266Y-148442353D01*
X242324418Y-148325269D01*
X242465269Y-148184418D01*
X242582353Y-148023266D01*
X242672785Y-147845783D01*
X242734339Y-147656339D01*
X242765500Y-147459597D01*
X242765500Y-147260403D01*
X242734339Y-147063661D01*
X242734338Y-147063657D01*
X242734338Y-147063656D01*
X242672786Y-146874219D01*
X242582352Y-146696733D01*
X242465269Y-146535582D01*
X242324418Y-146394731D01*
X242163266Y-146277647D01*
X242011827Y-146200485D01*
X241961031Y-146152510D01*
X241944236Y-146084689D01*
X241966773Y-146018554D01*
X242011827Y-145979515D01*
X242021116Y-145974781D01*
X242163266Y-145902353D01*
X242324418Y-145785269D01*
X242465269Y-145644418D01*
X242582353Y-145483266D01*
X242672785Y-145305783D01*
X242734339Y-145116339D01*
X242765500Y-144919597D01*
X242765500Y-144720403D01*
X242734339Y-144523661D01*
X242734338Y-144523657D01*
X242734338Y-144523656D01*
X242672786Y-144334219D01*
X242582352Y-144156733D01*
X242465269Y-143995582D01*
X242324418Y-143854731D01*
X242163266Y-143737647D01*
X242011827Y-143660485D01*
X241961031Y-143612510D01*
X241944236Y-143544689D01*
X241966773Y-143478554D01*
X242011827Y-143439515D01*
X242021116Y-143434781D01*
X242163266Y-143362353D01*
X242324418Y-143245269D01*
X242465269Y-143104418D01*
X242582353Y-142943266D01*
X242672785Y-142765783D01*
X242734339Y-142576339D01*
X242765500Y-142379597D01*
X242765500Y-142180403D01*
X242734339Y-141983661D01*
X242732115Y-141976819D01*
X242730119Y-141906979D01*
X242766199Y-141847146D01*
X242828899Y-141816316D01*
X242850046Y-141814500D01*
X296199331Y-141814500D01*
X296199347Y-141814501D01*
X296206943Y-141814501D01*
X296365054Y-141814501D01*
X296365057Y-141814501D01*
X296517785Y-141773577D01*
X296567904Y-141744639D01*
X296654716Y-141694520D01*
X296766520Y-141582716D01*
X296766520Y-141582714D01*
X296776728Y-141572507D01*
X296776730Y-141572504D01*
X299948831Y-138400403D01*
X359734500Y-138400403D01*
X359734500Y-138599596D01*
X359765661Y-138796340D01*
X359765661Y-138796343D01*
X359827213Y-138985780D01*
X359827215Y-138985783D01*
X359917647Y-139163266D01*
X360034731Y-139324418D01*
X360175582Y-139465269D01*
X360336734Y-139582353D01*
X360450664Y-139640403D01*
X360514219Y-139672786D01*
X360703657Y-139734338D01*
X360703658Y-139734338D01*
X360703661Y-139734339D01*
X360900403Y-139765500D01*
X360900404Y-139765500D01*
X361099596Y-139765500D01*
X361099597Y-139765500D01*
X361296339Y-139734339D01*
X361296342Y-139734338D01*
X361296343Y-139734338D01*
X361485780Y-139672786D01*
X361485780Y-139672785D01*
X361485783Y-139672785D01*
X361663266Y-139582353D01*
X361824418Y-139465269D01*
X361965269Y-139324418D01*
X362082353Y-139163266D01*
X362172785Y-138985783D01*
X362234339Y-138796339D01*
X362265500Y-138599597D01*
X362265500Y-138400403D01*
X362234339Y-138203661D01*
X362234338Y-138203657D01*
X362234338Y-138203656D01*
X362172786Y-138014219D01*
X362172785Y-138014217D01*
X362082353Y-137836734D01*
X361965269Y-137675582D01*
X361824418Y-137534731D01*
X361663266Y-137417647D01*
X361485780Y-137327213D01*
X361296342Y-137265661D01*
X361148782Y-137242290D01*
X361099597Y-137234500D01*
X360900403Y-137234500D01*
X360834822Y-137244887D01*
X360703659Y-137265661D01*
X360703656Y-137265661D01*
X360514219Y-137327213D01*
X360336733Y-137417647D01*
X360244790Y-137484447D01*
X360175582Y-137534731D01*
X360175580Y-137534733D01*
X360175579Y-137534733D01*
X360034733Y-137675579D01*
X360034733Y-137675580D01*
X360034731Y-137675582D01*
X360027322Y-137685780D01*
X359917647Y-137836733D01*
X359827213Y-138014219D01*
X359765661Y-138203656D01*
X359765661Y-138203659D01*
X359734500Y-138400403D01*
X299948831Y-138400403D01*
X304948831Y-133400403D01*
X359734500Y-133400403D01*
X359734500Y-133599597D01*
X359737862Y-133620821D01*
X359765661Y-133796340D01*
X359765661Y-133796343D01*
X359827213Y-133985780D01*
X359874631Y-134078842D01*
X359917647Y-134163266D01*
X360034731Y-134324418D01*
X360175582Y-134465269D01*
X360336734Y-134582353D01*
X360414126Y-134621786D01*
X360514219Y-134672786D01*
X360703657Y-134734338D01*
X360703658Y-134734338D01*
X360703661Y-134734339D01*
X360900403Y-134765500D01*
X360900404Y-134765500D01*
X361099596Y-134765500D01*
X361099597Y-134765500D01*
X361296339Y-134734339D01*
X361296342Y-134734338D01*
X361296343Y-134734338D01*
X361485780Y-134672786D01*
X361485780Y-134672785D01*
X361485783Y-134672785D01*
X361663266Y-134582353D01*
X361824418Y-134465269D01*
X361965269Y-134324418D01*
X362082353Y-134163266D01*
X362172785Y-133985783D01*
X362234339Y-133796339D01*
X362265500Y-133599597D01*
X362265500Y-133400403D01*
X362234339Y-133203661D01*
X362234338Y-133203657D01*
X362234338Y-133203656D01*
X362172786Y-133014219D01*
X362172785Y-133014217D01*
X362082353Y-132836734D01*
X361965269Y-132675582D01*
X361824418Y-132534731D01*
X361663266Y-132417647D01*
X361660699Y-132416339D01*
X361485780Y-132327213D01*
X361296342Y-132265661D01*
X361148782Y-132242290D01*
X361099597Y-132234500D01*
X360900403Y-132234500D01*
X360834822Y-132244887D01*
X360703659Y-132265661D01*
X360703656Y-132265661D01*
X360514219Y-132327213D01*
X360336733Y-132417647D01*
X360244790Y-132484447D01*
X360175582Y-132534731D01*
X360175580Y-132534733D01*
X360175579Y-132534733D01*
X360034733Y-132675579D01*
X360034733Y-132675580D01*
X360034731Y-132675582D01*
X359984447Y-132744790D01*
X359917647Y-132836733D01*
X359827213Y-133014219D01*
X359765661Y-133203656D01*
X359765661Y-133203659D01*
X359755841Y-133265661D01*
X359734500Y-133400403D01*
X304948831Y-133400403D01*
X318868713Y-119480521D01*
X318868716Y-119480520D01*
X318980520Y-119368716D01*
X319030639Y-119281904D01*
X319059577Y-119231785D01*
X319100500Y-119079057D01*
X319100500Y-118920943D01*
X319100500Y-118800096D01*
X319120185Y-118733057D01*
X319136814Y-118712420D01*
X334368713Y-103480521D01*
X334368716Y-103480520D01*
X334480520Y-103368716D01*
X334530639Y-103281904D01*
X334559577Y-103231785D01*
X334600500Y-103079058D01*
X334600500Y-102920943D01*
X334600500Y-92420943D01*
X334559577Y-92268216D01*
X334559573Y-92268209D01*
X334480524Y-92131290D01*
X334480521Y-92131286D01*
X334480520Y-92131284D01*
X334368716Y-92019480D01*
X334368715Y-92019479D01*
X334364385Y-92015149D01*
X334364374Y-92015139D01*
X330749638Y-88400403D01*
X390734500Y-88400403D01*
X390734500Y-88599596D01*
X390765661Y-88796340D01*
X390765661Y-88796343D01*
X390827213Y-88985780D01*
X390917647Y-89163266D01*
X391034731Y-89324418D01*
X391175582Y-89465269D01*
X391336734Y-89582353D01*
X391514217Y-89672785D01*
X391514219Y-89672786D01*
X391703657Y-89734338D01*
X391703658Y-89734338D01*
X391703661Y-89734339D01*
X391900403Y-89765500D01*
X391900404Y-89765500D01*
X392099596Y-89765500D01*
X392099597Y-89765500D01*
X392296339Y-89734339D01*
X392296342Y-89734338D01*
X392296343Y-89734338D01*
X392485780Y-89672786D01*
X392485780Y-89672785D01*
X392485783Y-89672785D01*
X392663266Y-89582353D01*
X392824418Y-89465269D01*
X392965269Y-89324418D01*
X393082353Y-89163266D01*
X393172785Y-88985783D01*
X393234339Y-88796339D01*
X393265500Y-88599597D01*
X393265500Y-88400403D01*
X393234339Y-88203661D01*
X393234338Y-88203657D01*
X393234338Y-88203656D01*
X393172786Y-88014219D01*
X393082352Y-87836733D01*
X392965269Y-87675582D01*
X392824418Y-87534731D01*
X392663266Y-87417647D01*
X392485780Y-87327213D01*
X392296342Y-87265661D01*
X392148782Y-87242290D01*
X392099597Y-87234500D01*
X391900403Y-87234500D01*
X391834822Y-87244887D01*
X391703659Y-87265661D01*
X391703656Y-87265661D01*
X391514219Y-87327213D01*
X391336733Y-87417647D01*
X391244790Y-87484447D01*
X391175582Y-87534731D01*
X391175580Y-87534733D01*
X391175579Y-87534733D01*
X391034733Y-87675579D01*
X391034733Y-87675580D01*
X391034731Y-87675582D01*
X390984447Y-87744790D01*
X390917647Y-87836733D01*
X390827213Y-88014219D01*
X390765661Y-88203656D01*
X390765661Y-88203659D01*
X390734500Y-88400403D01*
X330749638Y-88400403D01*
X327266257Y-84917022D01*
X327232772Y-84855699D01*
X327233368Y-84800378D01*
X327234332Y-84796358D01*
X327234339Y-84796339D01*
X327265500Y-84599597D01*
X327265500Y-84400403D01*
X327234339Y-84203661D01*
X327234338Y-84203657D01*
X327234338Y-84203656D01*
X327172786Y-84014219D01*
X327082352Y-83836733D01*
X327053007Y-83796343D01*
X326965269Y-83675582D01*
X326824418Y-83534731D01*
X326663266Y-83417647D01*
X326629423Y-83400403D01*
X390734500Y-83400403D01*
X390734500Y-83599596D01*
X390765661Y-83796340D01*
X390765661Y-83796343D01*
X390827213Y-83985780D01*
X390917647Y-84163266D01*
X391034731Y-84324418D01*
X391175582Y-84465269D01*
X391336734Y-84582353D01*
X391514217Y-84672785D01*
X391514219Y-84672786D01*
X391703657Y-84734338D01*
X391703658Y-84734338D01*
X391703661Y-84734339D01*
X391900403Y-84765500D01*
X391900404Y-84765500D01*
X392099596Y-84765500D01*
X392099597Y-84765500D01*
X392296339Y-84734339D01*
X392296342Y-84734338D01*
X392296343Y-84734338D01*
X392485780Y-84672786D01*
X392485780Y-84672785D01*
X392485783Y-84672785D01*
X392663266Y-84582353D01*
X392824418Y-84465269D01*
X392965269Y-84324418D01*
X393082353Y-84163266D01*
X393172785Y-83985783D01*
X393234339Y-83796339D01*
X393265500Y-83599597D01*
X393265500Y-83400403D01*
X393234339Y-83203661D01*
X393234338Y-83203657D01*
X393234338Y-83203656D01*
X393172786Y-83014219D01*
X393082352Y-82836733D01*
X392965269Y-82675582D01*
X392824418Y-82534731D01*
X392663266Y-82417647D01*
X392485780Y-82327213D01*
X392296342Y-82265661D01*
X392148782Y-82242290D01*
X392099597Y-82234500D01*
X391900403Y-82234500D01*
X391834822Y-82244887D01*
X391703659Y-82265661D01*
X391703656Y-82265661D01*
X391514219Y-82327213D01*
X391336733Y-82417647D01*
X391244790Y-82484447D01*
X391175582Y-82534731D01*
X391175580Y-82534733D01*
X391175579Y-82534733D01*
X391034733Y-82675579D01*
X391034733Y-82675580D01*
X391034731Y-82675582D01*
X390984447Y-82744790D01*
X390917647Y-82836733D01*
X390827213Y-83014219D01*
X390765661Y-83203656D01*
X390765661Y-83203659D01*
X390734500Y-83400403D01*
X326629423Y-83400403D01*
X326485780Y-83327213D01*
X326296342Y-83265661D01*
X326148782Y-83242290D01*
X326099597Y-83234500D01*
X325900403Y-83234500D01*
X325834822Y-83244887D01*
X325703659Y-83265661D01*
X325703656Y-83265661D01*
X325514219Y-83327213D01*
X325336733Y-83417647D01*
X325244790Y-83484447D01*
X325175582Y-83534731D01*
X325175580Y-83534733D01*
X325175579Y-83534733D01*
X325034733Y-83675579D01*
X325034733Y-83675580D01*
X325034731Y-83675582D01*
X324984447Y-83744790D01*
X324917647Y-83836733D01*
X324827213Y-84014219D01*
X324765661Y-84203656D01*
X324765661Y-84203659D01*
X324734500Y-84400403D01*
X324734500Y-84599596D01*
X324765661Y-84796340D01*
X324765661Y-84796343D01*
X324827213Y-84985780D01*
X324827215Y-84985783D01*
X324917647Y-85163266D01*
X325034731Y-85324418D01*
X325175582Y-85465269D01*
X325336734Y-85582353D01*
X325514217Y-85672785D01*
X325514219Y-85672786D01*
X325703657Y-85734338D01*
X325703658Y-85734338D01*
X325703661Y-85734339D01*
X325900403Y-85765500D01*
X325900404Y-85765500D01*
X326099596Y-85765500D01*
X326099597Y-85765500D01*
X326296339Y-85734339D01*
X326296358Y-85734332D01*
X326300378Y-85733368D01*
X326370161Y-85736849D01*
X326417022Y-85766257D01*
X333363181Y-92712416D01*
X333396666Y-92773739D01*
X333399500Y-92800097D01*
X333399500Y-102699902D01*
X333379815Y-102766941D01*
X333363181Y-102787583D01*
X318019481Y-118131282D01*
X318019479Y-118131284D01*
X318006076Y-118154500D01*
X317988086Y-118185661D01*
X317940423Y-118268215D01*
X317899499Y-118420943D01*
X317899499Y-118420945D01*
X317899499Y-118589046D01*
X317899500Y-118589059D01*
X317899500Y-118699903D01*
X317879815Y-118766942D01*
X317863181Y-118787584D01*
X296073584Y-140577181D01*
X296012261Y-140610666D01*
X295985903Y-140613500D01*
X242672973Y-140613500D01*
X242605934Y-140593815D01*
X242560179Y-140541011D01*
X242550235Y-140471853D01*
X242572655Y-140416614D01*
X242582353Y-140403266D01*
X242672785Y-140225783D01*
X242734339Y-140036339D01*
X242765500Y-139839597D01*
X242765500Y-139640403D01*
X242734339Y-139443661D01*
X242734338Y-139443657D01*
X242734338Y-139443656D01*
X242672786Y-139254219D01*
X242582352Y-139076733D01*
X242465269Y-138915582D01*
X242324418Y-138774731D01*
X242163266Y-138657647D01*
X242011827Y-138580485D01*
X241961031Y-138532510D01*
X241944236Y-138464689D01*
X241966773Y-138398554D01*
X242011827Y-138359515D01*
X242021116Y-138354781D01*
X242163266Y-138282353D01*
X242324418Y-138165269D01*
X242465269Y-138024418D01*
X242582353Y-137863266D01*
X242672785Y-137685783D01*
X242676100Y-137675580D01*
X242734338Y-137496343D01*
X242734338Y-137496342D01*
X242734339Y-137496339D01*
X242765500Y-137299597D01*
X242765500Y-137100403D01*
X242734339Y-136903661D01*
X242734338Y-136903657D01*
X242734338Y-136903656D01*
X242672786Y-136714219D01*
X242582352Y-136536733D01*
X242465269Y-136375582D01*
X242324418Y-136234731D01*
X242163266Y-136117647D01*
X242011827Y-136040485D01*
X241961031Y-135992510D01*
X241944236Y-135924689D01*
X241966773Y-135858554D01*
X242011827Y-135819515D01*
X242021116Y-135814781D01*
X242163266Y-135742353D01*
X242324418Y-135625269D01*
X242465269Y-135484418D01*
X242582353Y-135323266D01*
X242672785Y-135145783D01*
X242674495Y-135140519D01*
X242734338Y-134956343D01*
X242734338Y-134956342D01*
X242734339Y-134956339D01*
X242765500Y-134759597D01*
X242765500Y-134560403D01*
X242734339Y-134363661D01*
X242734338Y-134363657D01*
X242734338Y-134363656D01*
X242672786Y-134174219D01*
X242612890Y-134056666D01*
X242582353Y-133996734D01*
X242465269Y-133835582D01*
X242324418Y-133694731D01*
X242163266Y-133577647D01*
X242011827Y-133500485D01*
X241961031Y-133452510D01*
X241944236Y-133384689D01*
X241966773Y-133318554D01*
X242011827Y-133279515D01*
X242039017Y-133265661D01*
X242163266Y-133202353D01*
X242324418Y-133085269D01*
X242465269Y-132944418D01*
X242582353Y-132783266D01*
X242672785Y-132605783D01*
X242734339Y-132416339D01*
X242765500Y-132219597D01*
X242765500Y-132020403D01*
X242734339Y-131823661D01*
X242734338Y-131823657D01*
X242734338Y-131823656D01*
X242672786Y-131634219D01*
X242582352Y-131456733D01*
X242465269Y-131295582D01*
X242324418Y-131154731D01*
X242163266Y-131037647D01*
X242011827Y-130960485D01*
X241961031Y-130912510D01*
X241944236Y-130844689D01*
X241966773Y-130778554D01*
X242011827Y-130739515D01*
X242021987Y-130734338D01*
X242163266Y-130662353D01*
X242324418Y-130545269D01*
X242465269Y-130404418D01*
X242582353Y-130243266D01*
X242672785Y-130065783D01*
X242734339Y-129876339D01*
X242765500Y-129679597D01*
X242765500Y-129480403D01*
X242734339Y-129283661D01*
X242734338Y-129283657D01*
X242734338Y-129283656D01*
X242672786Y-129094219D01*
X242655135Y-129059577D01*
X242582353Y-128916734D01*
X242465269Y-128755582D01*
X242324418Y-128614731D01*
X242163266Y-128497647D01*
X242011827Y-128420485D01*
X241961031Y-128372510D01*
X241944236Y-128304689D01*
X241966773Y-128238554D01*
X242011827Y-128199515D01*
X242051428Y-128179337D01*
X242163266Y-128122353D01*
X242324418Y-128005269D01*
X242465269Y-127864418D01*
X242582353Y-127703266D01*
X242672785Y-127525783D01*
X242734339Y-127336339D01*
X242765500Y-127139597D01*
X242765500Y-126940403D01*
X242734339Y-126743661D01*
X242734338Y-126743657D01*
X242734338Y-126743656D01*
X242672786Y-126554219D01*
X242582352Y-126376733D01*
X242465269Y-126215582D01*
X242324418Y-126074731D01*
X242163266Y-125957647D01*
X242011827Y-125880485D01*
X241961031Y-125832510D01*
X241944236Y-125764689D01*
X241966773Y-125698554D01*
X242011827Y-125659515D01*
X242021116Y-125654781D01*
X242163266Y-125582353D01*
X242324418Y-125465269D01*
X242465269Y-125324418D01*
X242582353Y-125163266D01*
X242672785Y-124985783D01*
X242734339Y-124796339D01*
X242765500Y-124599597D01*
X242765500Y-124400403D01*
X242734339Y-124203661D01*
X242734338Y-124203657D01*
X242734338Y-124203656D01*
X242672786Y-124014219D01*
X242582352Y-123836733D01*
X242465269Y-123675582D01*
X242324418Y-123534731D01*
X242163266Y-123417647D01*
X242011827Y-123340485D01*
X241961031Y-123292510D01*
X241944236Y-123224689D01*
X241966773Y-123158554D01*
X242011827Y-123119515D01*
X242021116Y-123114781D01*
X242163266Y-123042353D01*
X242324418Y-122925269D01*
X242465269Y-122784418D01*
X242582353Y-122623266D01*
X242672785Y-122445783D01*
X242734339Y-122256339D01*
X242765500Y-122059597D01*
X242765500Y-121860403D01*
X242734339Y-121663661D01*
X242734338Y-121663657D01*
X242734338Y-121663656D01*
X242672786Y-121474219D01*
X242582352Y-121296733D01*
X242465269Y-121135582D01*
X242324418Y-120994731D01*
X242163266Y-120877647D01*
X242011827Y-120800485D01*
X241961031Y-120752510D01*
X241944236Y-120684689D01*
X241966773Y-120618554D01*
X242011827Y-120579515D01*
X242021116Y-120574781D01*
X242163266Y-120502353D01*
X242324418Y-120385269D01*
X242465269Y-120244418D01*
X242582353Y-120083266D01*
X242672785Y-119905783D01*
X242734339Y-119716339D01*
X242765500Y-119519597D01*
X242765500Y-119320403D01*
X242734339Y-119123661D01*
X242734338Y-119123657D01*
X242734338Y-119123656D01*
X242672786Y-118934219D01*
X242604447Y-118800096D01*
X242582353Y-118756734D01*
X242465269Y-118595582D01*
X242324418Y-118454731D01*
X242163266Y-118337647D01*
X242011827Y-118260485D01*
X241961031Y-118212510D01*
X241944236Y-118144689D01*
X241966773Y-118078554D01*
X242011827Y-118039515D01*
X242021116Y-118034781D01*
X242163266Y-117962353D01*
X242324418Y-117845269D01*
X242465269Y-117704418D01*
X242582353Y-117543266D01*
X242672785Y-117365783D01*
X242734339Y-117176339D01*
X242765500Y-116979597D01*
X242765500Y-116780403D01*
X242734339Y-116583661D01*
X242734338Y-116583657D01*
X242734338Y-116583656D01*
X242672786Y-116394219D01*
X242582352Y-116216733D01*
X242465269Y-116055582D01*
X242324418Y-115914731D01*
X242163266Y-115797647D01*
X242011827Y-115720485D01*
X241961031Y-115672510D01*
X241944236Y-115604689D01*
X241966773Y-115538554D01*
X242011827Y-115499515D01*
X242021116Y-115494781D01*
X242163266Y-115422353D01*
X242324418Y-115305269D01*
X242465269Y-115164418D01*
X242582353Y-115003266D01*
X242672785Y-114825783D01*
X242734339Y-114636339D01*
X242765500Y-114439597D01*
X242765500Y-114240403D01*
X242734339Y-114043661D01*
X242734338Y-114043657D01*
X242734338Y-114043656D01*
X242672786Y-113854219D01*
X242582352Y-113676733D01*
X242465269Y-113515582D01*
X242324418Y-113374731D01*
X242163266Y-113257647D01*
X242011827Y-113180485D01*
X241961031Y-113132510D01*
X241944236Y-113064689D01*
X241966773Y-112998554D01*
X242011827Y-112959515D01*
X242021116Y-112954781D01*
X242163266Y-112882353D01*
X242324418Y-112765269D01*
X242465269Y-112624418D01*
X242582353Y-112463266D01*
X242672785Y-112285783D01*
X242734339Y-112096339D01*
X242765500Y-111899597D01*
X242765500Y-111700403D01*
X242734339Y-111503661D01*
X242734338Y-111503657D01*
X242734338Y-111503656D01*
X242672786Y-111314219D01*
X242582352Y-111136733D01*
X242465269Y-110975582D01*
X242324418Y-110834731D01*
X242163266Y-110717647D01*
X242011827Y-110640485D01*
X241961031Y-110592510D01*
X241944236Y-110524689D01*
X241966773Y-110458554D01*
X242011827Y-110419515D01*
X242021116Y-110414781D01*
X242163266Y-110342353D01*
X242324418Y-110225269D01*
X242465269Y-110084418D01*
X242582353Y-109923266D01*
X242672785Y-109745783D01*
X242734339Y-109556339D01*
X242765500Y-109359597D01*
X242765500Y-109160403D01*
X242734339Y-108963661D01*
X242734338Y-108963657D01*
X242734338Y-108963656D01*
X242672786Y-108774219D01*
X242582352Y-108596733D01*
X242465269Y-108435582D01*
X242324418Y-108294731D01*
X242163266Y-108177647D01*
X242011827Y-108100485D01*
X241961031Y-108052510D01*
X241944236Y-107984689D01*
X241966773Y-107918554D01*
X242011827Y-107879515D01*
X242021116Y-107874781D01*
X242163266Y-107802353D01*
X242324418Y-107685269D01*
X242465269Y-107544418D01*
X242582353Y-107383266D01*
X242672785Y-107205783D01*
X242734339Y-107016339D01*
X242765500Y-106819597D01*
X242765500Y-106620403D01*
X242734339Y-106423661D01*
X242734338Y-106423657D01*
X242734338Y-106423656D01*
X242672786Y-106234219D01*
X242582352Y-106056733D01*
X242465269Y-105895582D01*
X242324418Y-105754731D01*
X242163266Y-105637647D01*
X242011827Y-105560485D01*
X241961031Y-105512510D01*
X241944236Y-105444689D01*
X241966773Y-105378554D01*
X242011827Y-105339515D01*
X242051428Y-105319337D01*
X242163266Y-105262353D01*
X242324418Y-105145269D01*
X242465269Y-105004418D01*
X242582353Y-104843266D01*
X242672785Y-104665783D01*
X242674495Y-104660520D01*
X242734338Y-104476343D01*
X242734338Y-104476342D01*
X242734339Y-104476339D01*
X242765500Y-104279597D01*
X242765500Y-104080403D01*
X242734339Y-103883661D01*
X242734338Y-103883657D01*
X242734338Y-103883656D01*
X242672786Y-103694219D01*
X242608050Y-103567167D01*
X242582353Y-103516734D01*
X242465269Y-103355582D01*
X242324418Y-103214731D01*
X242163266Y-103097647D01*
X242011827Y-103020485D01*
X241961031Y-102972510D01*
X241944236Y-102904689D01*
X241966773Y-102838554D01*
X242011827Y-102799515D01*
X242035245Y-102787583D01*
X242163266Y-102722353D01*
X242324418Y-102605269D01*
X242465269Y-102464418D01*
X242582353Y-102303266D01*
X242672785Y-102125783D01*
X242734339Y-101936339D01*
X242765500Y-101739597D01*
X242765500Y-101540403D01*
X242734339Y-101343661D01*
X242734338Y-101343657D01*
X242734338Y-101343656D01*
X242672786Y-101154219D01*
X242582352Y-100976733D01*
X242465269Y-100815582D01*
X242324418Y-100674731D01*
X242163266Y-100557647D01*
X242011827Y-100480485D01*
X241961031Y-100432510D01*
X241944236Y-100364689D01*
X241966773Y-100298554D01*
X242011827Y-100259515D01*
X242021116Y-100254781D01*
X242163266Y-100182353D01*
X242324418Y-100065269D01*
X242465269Y-99924418D01*
X242582353Y-99763266D01*
X242672785Y-99585783D01*
X242734339Y-99396339D01*
X242765500Y-99199597D01*
X242765500Y-99000403D01*
X242734339Y-98803661D01*
X242734338Y-98803657D01*
X242734338Y-98803656D01*
X242672786Y-98614219D01*
X242582352Y-98436733D01*
X242465269Y-98275582D01*
X242324418Y-98134731D01*
X242163266Y-98017647D01*
X242011827Y-97940485D01*
X241961031Y-97892510D01*
X241944236Y-97824689D01*
X241966773Y-97758554D01*
X242011827Y-97719515D01*
X242021116Y-97714781D01*
X242163266Y-97642353D01*
X242324418Y-97525269D01*
X242465269Y-97384418D01*
X242582353Y-97223266D01*
X242672785Y-97045783D01*
X242734339Y-96856339D01*
X242765500Y-96659597D01*
X242765500Y-96460403D01*
X242734339Y-96263661D01*
X242734338Y-96263657D01*
X242734338Y-96263656D01*
X242672786Y-96074219D01*
X242582352Y-95896733D01*
X242465269Y-95735582D01*
X242324418Y-95594731D01*
X242163266Y-95477647D01*
X242084379Y-95437452D01*
X241985780Y-95387213D01*
X241796342Y-95325661D01*
X241648782Y-95302290D01*
X241599597Y-95294500D01*
X241400403Y-95294500D01*
X241334822Y-95304887D01*
X241203659Y-95325661D01*
X241203656Y-95325661D01*
X241014219Y-95387213D01*
X240836733Y-95477647D01*
X240744790Y-95544447D01*
X240675582Y-95594731D01*
X240675580Y-95594733D01*
X240675579Y-95594733D01*
X240534733Y-95735579D01*
X240534733Y-95735580D01*
X240534731Y-95735582D01*
X240484447Y-95804790D01*
X240417647Y-95896733D01*
X240327213Y-96074219D01*
X240265661Y-96263656D01*
X240265661Y-96263659D01*
X240234500Y-96460403D01*
X240234500Y-96659596D01*
X240265661Y-96856340D01*
X240265661Y-96856343D01*
X240327213Y-97045780D01*
X240327215Y-97045783D01*
X240417647Y-97223266D01*
X240534731Y-97384418D01*
X240675582Y-97525269D01*
X240836734Y-97642353D01*
X240906453Y-97677877D01*
X240988172Y-97719515D01*
X241038968Y-97767490D01*
X241055763Y-97835311D01*
X241033225Y-97901446D01*
X240988172Y-97940485D01*
X240836733Y-98017647D01*
X240744790Y-98084447D01*
X240675582Y-98134731D01*
X240675580Y-98134733D01*
X240675579Y-98134733D01*
X240534733Y-98275579D01*
X240534733Y-98275580D01*
X240534731Y-98275582D01*
X240484447Y-98344790D01*
X240417647Y-98436733D01*
X240327213Y-98614219D01*
X240265661Y-98803656D01*
X240265661Y-98803659D01*
X240234500Y-99000403D01*
X240234500Y-99199596D01*
X240265661Y-99396340D01*
X240265661Y-99396343D01*
X240327213Y-99585780D01*
X240327215Y-99585783D01*
X240417647Y-99763266D01*
X240534731Y-99924418D01*
X240675582Y-100065269D01*
X240836734Y-100182353D01*
X240906453Y-100217877D01*
X240988172Y-100259515D01*
X241038968Y-100307490D01*
X241055763Y-100375311D01*
X241033225Y-100441446D01*
X240988172Y-100480485D01*
X240836733Y-100557647D01*
X240744790Y-100624447D01*
X240675582Y-100674731D01*
X240675580Y-100674733D01*
X240675579Y-100674733D01*
X240534733Y-100815579D01*
X240534733Y-100815580D01*
X240534731Y-100815582D01*
X240484447Y-100884790D01*
X240417647Y-100976733D01*
X240327213Y-101154219D01*
X240265661Y-101343656D01*
X240265661Y-101343659D01*
X240234500Y-101540403D01*
X240234500Y-101739596D01*
X240265661Y-101936340D01*
X240265661Y-101936343D01*
X240327213Y-102125780D01*
X240327215Y-102125783D01*
X240417647Y-102303266D01*
X240534731Y-102464418D01*
X240675582Y-102605269D01*
X240836734Y-102722353D01*
X240893477Y-102751265D01*
X240988172Y-102799515D01*
X241038968Y-102847490D01*
X241055763Y-102915311D01*
X241033225Y-102981446D01*
X240988172Y-103020485D01*
X240836733Y-103097647D01*
X240744790Y-103164447D01*
X240675582Y-103214731D01*
X240675580Y-103214733D01*
X240675579Y-103214733D01*
X240534733Y-103355579D01*
X240534733Y-103355580D01*
X240534731Y-103355582D01*
X240525189Y-103368716D01*
X240417647Y-103516733D01*
X240327213Y-103694219D01*
X240265661Y-103883656D01*
X240265661Y-103883659D01*
X240234500Y-104080403D01*
X240234500Y-104279594D01*
X240236088Y-104289623D01*
X240227131Y-104358916D01*
X240182133Y-104412367D01*
X240115381Y-104433004D01*
X240048068Y-104414277D01*
X240025933Y-104396698D01*
X228366590Y-92737355D01*
X228366588Y-92737352D01*
X228247717Y-92618481D01*
X228247716Y-92618480D01*
X228160904Y-92568360D01*
X228160904Y-92568359D01*
X228160900Y-92568358D01*
X228110785Y-92539423D01*
X227958057Y-92498499D01*
X227799943Y-92498499D01*
X227792347Y-92498499D01*
X227792331Y-92498500D01*
X152819097Y-92498500D01*
X152752058Y-92478815D01*
X152731416Y-92462181D01*
X149669638Y-89400403D01*
X324734500Y-89400403D01*
X324734500Y-89599596D01*
X324765661Y-89796340D01*
X324765661Y-89796343D01*
X324827213Y-89985780D01*
X324827215Y-89985783D01*
X324917647Y-90163266D01*
X325034731Y-90324418D01*
X325175582Y-90465269D01*
X325336734Y-90582353D01*
X325514217Y-90672785D01*
X325514219Y-90672786D01*
X325703657Y-90734338D01*
X325703658Y-90734338D01*
X325703661Y-90734339D01*
X325900403Y-90765500D01*
X325900404Y-90765500D01*
X326099596Y-90765500D01*
X326099597Y-90765500D01*
X326296339Y-90734339D01*
X326296342Y-90734338D01*
X326296343Y-90734338D01*
X326485780Y-90672786D01*
X326485780Y-90672785D01*
X326485783Y-90672785D01*
X326663266Y-90582353D01*
X326824418Y-90465269D01*
X326965269Y-90324418D01*
X327082353Y-90163266D01*
X327172785Y-89985783D01*
X327234339Y-89796339D01*
X327265500Y-89599597D01*
X327265500Y-89400403D01*
X327234339Y-89203661D01*
X327234338Y-89203657D01*
X327234338Y-89203656D01*
X327172786Y-89014219D01*
X327082352Y-88836733D01*
X327053007Y-88796343D01*
X326965269Y-88675582D01*
X326824418Y-88534731D01*
X326663266Y-88417647D01*
X326629423Y-88400403D01*
X326485780Y-88327213D01*
X326296342Y-88265661D01*
X326148782Y-88242290D01*
X326099597Y-88234500D01*
X325900403Y-88234500D01*
X325834822Y-88244887D01*
X325703659Y-88265661D01*
X325703656Y-88265661D01*
X325514219Y-88327213D01*
X325336733Y-88417647D01*
X325244790Y-88484447D01*
X325175582Y-88534731D01*
X325175580Y-88534733D01*
X325175579Y-88534733D01*
X325034733Y-88675579D01*
X325034733Y-88675580D01*
X325034731Y-88675582D01*
X324984447Y-88744790D01*
X324917647Y-88836733D01*
X324827213Y-89014219D01*
X324765661Y-89203656D01*
X324765661Y-89203659D01*
X324734500Y-89400403D01*
X149669638Y-89400403D01*
X134331416Y-74062181D01*
X134297931Y-74000858D01*
X134302915Y-73931166D01*
X134344787Y-73875233D01*
X134410251Y-73850816D01*
X134419097Y-73850500D01*
X134566286Y-73850500D01*
X134566287Y-73850500D01*
X134776243Y-73817246D01*
X134978412Y-73751557D01*
X135167816Y-73655051D01*
X135254138Y-73592335D01*
X135339786Y-73530109D01*
X135339788Y-73530106D01*
X135339792Y-73530104D01*
X135490104Y-73379792D01*
X135490106Y-73379788D01*
X135490109Y-73379786D01*
X135615048Y-73207820D01*
X135615047Y-73207820D01*
X135615051Y-73207816D01*
X135619514Y-73199054D01*
X135667488Y-73148259D01*
X135735308Y-73131463D01*
X135801444Y-73153999D01*
X135840486Y-73199056D01*
X135844951Y-73207820D01*
X135969890Y-73379786D01*
X136120213Y-73530109D01*
X136292179Y-73655048D01*
X136292181Y-73655049D01*
X136292184Y-73655051D01*
X136481588Y-73751557D01*
X136683757Y-73817246D01*
X136893713Y-73850500D01*
X136893714Y-73850500D01*
X137106286Y-73850500D01*
X137106287Y-73850500D01*
X137316243Y-73817246D01*
X137518412Y-73751557D01*
X137707816Y-73655051D01*
X137794138Y-73592335D01*
X137879786Y-73530109D01*
X137879788Y-73530106D01*
X137879792Y-73530104D01*
X138030104Y-73379792D01*
X138030106Y-73379788D01*
X138030109Y-73379786D01*
X138155048Y-73207820D01*
X138155047Y-73207820D01*
X138155051Y-73207816D01*
X138251557Y-73018412D01*
X138317246Y-72816243D01*
X138350500Y-72606287D01*
X138350500Y-72393713D01*
X138317246Y-72183757D01*
X138251557Y-71981588D01*
X138155051Y-71792184D01*
X138155049Y-71792181D01*
X138155048Y-71792179D01*
X138030109Y-71620213D01*
X137879786Y-71469890D01*
X137707820Y-71344951D01*
X137518414Y-71248444D01*
X137518413Y-71248443D01*
X137518412Y-71248443D01*
X137316243Y-71182754D01*
X137316241Y-71182753D01*
X137316240Y-71182753D01*
X137154957Y-71157208D01*
X137106287Y-71149500D01*
X136893713Y-71149500D01*
X136845042Y-71157208D01*
X136683760Y-71182753D01*
X136481585Y-71248444D01*
X136292179Y-71344951D01*
X136120213Y-71469890D01*
X135969890Y-71620213D01*
X135844949Y-71792182D01*
X135840484Y-71800946D01*
X135792509Y-71851742D01*
X135724688Y-71868536D01*
X135658553Y-71845998D01*
X135619516Y-71800946D01*
X135615050Y-71792182D01*
X135490109Y-71620213D01*
X135339786Y-71469890D01*
X135167820Y-71344951D01*
X134978414Y-71248444D01*
X134978413Y-71248443D01*
X134978412Y-71248443D01*
X134776243Y-71182754D01*
X134776241Y-71182753D01*
X134776240Y-71182753D01*
X134614957Y-71157208D01*
X134566287Y-71149500D01*
X134353713Y-71149500D01*
X134305042Y-71157208D01*
X134143760Y-71182753D01*
X133941585Y-71248444D01*
X133752179Y-71344951D01*
X133580215Y-71469889D01*
X133466673Y-71583431D01*
X133405350Y-71616915D01*
X133335658Y-71611931D01*
X133279725Y-71570059D01*
X133262810Y-71539082D01*
X133213797Y-71407671D01*
X133213793Y-71407664D01*
X133127547Y-71292455D01*
X133127544Y-71292452D01*
X133012335Y-71206206D01*
X133012328Y-71206202D01*
X132877482Y-71155908D01*
X132877483Y-71155908D01*
X132817883Y-71149501D01*
X132817881Y-71149500D01*
X132817873Y-71149500D01*
X132817864Y-71149500D01*
X131022129Y-71149500D01*
X131022123Y-71149501D01*
X130962516Y-71155908D01*
X130827671Y-71206202D01*
X130827664Y-71206206D01*
X130712455Y-71292452D01*
X130712452Y-71292455D01*
X130626206Y-71407664D01*
X130626202Y-71407671D01*
X130575908Y-71542517D01*
X130569501Y-71602116D01*
X130569500Y-71602135D01*
X130569500Y-73397870D01*
X130569501Y-73397876D01*
X130575908Y-73457483D01*
X130626202Y-73592328D01*
X130626206Y-73592335D01*
X130712452Y-73707544D01*
X130712455Y-73707547D01*
X130827664Y-73793793D01*
X130827671Y-73793797D01*
X130962517Y-73844091D01*
X130962516Y-73844091D01*
X130969444Y-73844835D01*
X131022127Y-73850500D01*
X132369902Y-73850499D01*
X132436941Y-73870184D01*
X132457583Y-73886818D01*
X151258584Y-92687819D01*
X151292069Y-92749142D01*
X151287085Y-92818834D01*
X151245213Y-92874767D01*
X151179749Y-92899184D01*
X151170903Y-92899500D01*
X127300098Y-92899500D01*
X127233059Y-92879815D01*
X127212417Y-92863181D01*
X110176819Y-75827583D01*
X110143334Y-75766260D01*
X110140500Y-75739902D01*
X110140500Y-73785718D01*
X110160185Y-73718679D01*
X110208207Y-73675233D01*
X110247815Y-73655052D01*
X110247815Y-73655051D01*
X110247816Y-73655051D01*
X110353588Y-73578204D01*
X110419786Y-73530109D01*
X110419788Y-73530106D01*
X110419792Y-73530104D01*
X110570104Y-73379792D01*
X110570106Y-73379788D01*
X110570109Y-73379786D01*
X110695048Y-73207820D01*
X110695047Y-73207820D01*
X110695051Y-73207816D01*
X110699514Y-73199054D01*
X110747488Y-73148259D01*
X110815308Y-73131463D01*
X110881444Y-73153999D01*
X110920486Y-73199056D01*
X110924951Y-73207820D01*
X111049890Y-73379786D01*
X111200213Y-73530109D01*
X111372179Y-73655048D01*
X111372181Y-73655049D01*
X111372184Y-73655051D01*
X111561588Y-73751557D01*
X111763757Y-73817246D01*
X111973713Y-73850500D01*
X111973714Y-73850500D01*
X112186286Y-73850500D01*
X112186287Y-73850500D01*
X112396243Y-73817246D01*
X112598412Y-73751557D01*
X112787816Y-73655051D01*
X112874138Y-73592335D01*
X112959786Y-73530109D01*
X112959788Y-73530106D01*
X112959792Y-73530104D01*
X113110104Y-73379792D01*
X113110106Y-73379788D01*
X113110109Y-73379786D01*
X113235048Y-73207820D01*
X113235047Y-73207820D01*
X113235051Y-73207816D01*
X113331557Y-73018412D01*
X113397246Y-72816243D01*
X113430500Y-72606287D01*
X113430500Y-72393713D01*
X113397246Y-72183757D01*
X113331557Y-71981588D01*
X113235051Y-71792184D01*
X113235049Y-71792181D01*
X113235048Y-71792179D01*
X113110109Y-71620213D01*
X112959786Y-71469890D01*
X112787820Y-71344951D01*
X112598414Y-71248444D01*
X112598413Y-71248443D01*
X112598412Y-71248443D01*
X112396243Y-71182754D01*
X112396241Y-71182753D01*
X112396240Y-71182753D01*
X112234957Y-71157208D01*
X112186287Y-71149500D01*
X111973713Y-71149500D01*
X111925042Y-71157208D01*
X111763760Y-71182753D01*
X111561585Y-71248444D01*
X111372179Y-71344951D01*
X111200213Y-71469890D01*
X111049890Y-71620213D01*
X110924949Y-71792182D01*
X110920484Y-71800946D01*
X110872509Y-71851742D01*
X110804688Y-71868536D01*
X110738553Y-71845998D01*
X110699516Y-71800946D01*
X110695050Y-71792182D01*
X110570109Y-71620213D01*
X110419786Y-71469890D01*
X110247820Y-71344951D01*
X110058414Y-71248444D01*
X110058413Y-71248443D01*
X110058412Y-71248443D01*
X109856243Y-71182754D01*
X109856241Y-71182753D01*
X109856240Y-71182753D01*
X109694957Y-71157208D01*
X109646287Y-71149500D01*
X109433713Y-71149500D01*
X109385042Y-71157208D01*
X109223760Y-71182753D01*
X109021585Y-71248444D01*
X108832179Y-71344951D01*
X108660215Y-71469889D01*
X108546673Y-71583431D01*
X108485350Y-71616915D01*
X108415658Y-71611931D01*
X108359725Y-71570059D01*
X108342810Y-71539082D01*
X108293797Y-71407671D01*
X108293793Y-71407664D01*
X108207547Y-71292455D01*
X108207544Y-71292452D01*
X108092335Y-71206206D01*
X108092328Y-71206202D01*
X107957482Y-71155908D01*
X107957483Y-71155908D01*
X107897883Y-71149501D01*
X107897881Y-71149500D01*
X107897873Y-71149500D01*
X107897864Y-71149500D01*
X106102129Y-71149500D01*
X106102123Y-71149501D01*
X106042516Y-71155908D01*
X105907671Y-71206202D01*
X105907664Y-71206206D01*
X105792455Y-71292452D01*
X105792452Y-71292455D01*
X105706206Y-71407664D01*
X105706202Y-71407671D01*
X105655908Y-71542517D01*
X105649501Y-71602116D01*
X105649500Y-71602135D01*
X105649500Y-73397870D01*
X105649501Y-73397876D01*
X105655908Y-73457483D01*
X105706202Y-73592328D01*
X105706206Y-73592335D01*
X105792452Y-73707544D01*
X105792455Y-73707547D01*
X105907664Y-73793793D01*
X105907671Y-73793797D01*
X106042517Y-73844091D01*
X106042516Y-73844091D01*
X106049444Y-73844835D01*
X106102127Y-73850500D01*
X107897872Y-73850499D01*
X107957483Y-73844091D01*
X108092331Y-73793796D01*
X108207546Y-73707546D01*
X108293796Y-73592331D01*
X108342810Y-73460916D01*
X108384681Y-73404984D01*
X108450145Y-73380566D01*
X108518418Y-73395417D01*
X108546673Y-73416569D01*
X108660213Y-73530109D01*
X108832184Y-73655051D01*
X108832184Y-73655052D01*
X108871793Y-73675233D01*
X108922590Y-73723206D01*
X108939500Y-73785718D01*
X108939500Y-75953330D01*
X108939499Y-75953348D01*
X108939499Y-76119054D01*
X108939498Y-76119054D01*
X108980424Y-76271789D01*
X108980425Y-76271790D01*
X109000646Y-76306813D01*
X109000647Y-76306814D01*
X109059477Y-76408712D01*
X109059481Y-76408717D01*
X109178349Y-76527585D01*
X109178354Y-76527589D01*
X126631284Y-93980520D01*
X126768215Y-94059577D01*
X126920943Y-94100501D01*
X126920946Y-94100501D01*
X127086654Y-94100501D01*
X127086670Y-94100500D01*
X187699903Y-94100500D01*
X187766942Y-94120185D01*
X187787584Y-94136819D01*
X198195139Y-104544374D01*
X198195149Y-104544385D01*
X198199479Y-104548715D01*
X198199480Y-104548716D01*
X198311284Y-104660520D01*
X198398095Y-104710639D01*
X198398097Y-104710641D01*
X198434099Y-104731427D01*
X198448215Y-104739577D01*
X198600943Y-104780501D01*
X198600946Y-104780501D01*
X198766653Y-104780501D01*
X198766669Y-104780500D01*
X217449740Y-104780500D01*
X217516779Y-104800185D01*
X217555466Y-104839707D01*
X217557647Y-104843266D01*
X217674731Y-105004418D01*
X217815582Y-105145269D01*
X217976734Y-105262353D01*
X218046453Y-105297877D01*
X218128172Y-105339515D01*
X218178968Y-105387490D01*
X218195763Y-105455311D01*
X218173225Y-105521446D01*
X218128172Y-105560485D01*
X217976733Y-105637647D01*
X217884790Y-105704447D01*
X217815582Y-105754731D01*
X217815580Y-105754733D01*
X217815579Y-105754733D01*
X217674733Y-105895579D01*
X217674733Y-105895580D01*
X217674731Y-105895582D01*
X217624447Y-105964790D01*
X217557647Y-106056733D01*
X217467213Y-106234219D01*
X217405661Y-106423656D01*
X217405661Y-106423659D01*
X217374500Y-106620403D01*
X217374500Y-106819596D01*
X217405661Y-107016340D01*
X217405661Y-107016343D01*
X217467213Y-107205780D01*
X217467215Y-107205783D01*
X217557647Y-107383266D01*
X217674731Y-107544418D01*
X217815582Y-107685269D01*
X217976734Y-107802353D01*
X218046453Y-107837877D01*
X218128172Y-107879515D01*
X218178968Y-107927490D01*
X218195763Y-107995311D01*
X218173225Y-108061446D01*
X218128172Y-108100485D01*
X217976733Y-108177647D01*
X217884790Y-108244447D01*
X217815582Y-108294731D01*
X217815580Y-108294733D01*
X217815579Y-108294733D01*
X217674733Y-108435579D01*
X217674733Y-108435580D01*
X217674731Y-108435582D01*
X217624447Y-108504790D01*
X217557647Y-108596733D01*
X217467213Y-108774219D01*
X217405661Y-108963656D01*
X217405661Y-108963659D01*
X217374500Y-109160403D01*
X217374500Y-109359596D01*
X217405661Y-109556340D01*
X217405661Y-109556343D01*
X217467213Y-109745780D01*
X217467215Y-109745783D01*
X217557647Y-109923266D01*
X217674731Y-110084418D01*
X217815582Y-110225269D01*
X217976734Y-110342353D01*
X218046453Y-110377877D01*
X218128172Y-110419515D01*
X218178968Y-110467490D01*
X218195763Y-110535311D01*
X218173225Y-110601446D01*
X218128172Y-110640485D01*
X217976733Y-110717647D01*
X217884790Y-110784447D01*
X217815582Y-110834731D01*
X217815580Y-110834733D01*
X217815579Y-110834733D01*
X217674733Y-110975579D01*
X217674733Y-110975580D01*
X217674731Y-110975582D01*
X217624447Y-111044790D01*
X217557647Y-111136733D01*
X217467213Y-111314219D01*
X217405661Y-111503656D01*
X217405661Y-111503659D01*
X217374500Y-111700403D01*
X217374500Y-111899596D01*
X217405661Y-112096340D01*
X217405661Y-112096343D01*
X217467213Y-112285780D01*
X217467215Y-112285783D01*
X217557647Y-112463266D01*
X217674731Y-112624418D01*
X217815582Y-112765269D01*
X217976734Y-112882353D01*
X218046453Y-112917877D01*
X218128172Y-112959515D01*
X218178968Y-113007490D01*
X218195763Y-113075311D01*
X218173225Y-113141446D01*
X218128172Y-113180485D01*
X217976733Y-113257647D01*
X217884790Y-113324447D01*
X217815582Y-113374731D01*
X217815580Y-113374733D01*
X217815579Y-113374733D01*
X217674733Y-113515579D01*
X217674733Y-113515580D01*
X217674731Y-113515582D01*
X217624447Y-113584790D01*
X217557647Y-113676733D01*
X217467213Y-113854219D01*
X217405661Y-114043656D01*
X217405661Y-114043659D01*
X217374500Y-114240403D01*
X217374500Y-114439596D01*
X217405661Y-114636340D01*
X217405661Y-114636343D01*
X217467213Y-114825780D01*
X217467215Y-114825783D01*
X217557647Y-115003266D01*
X217674731Y-115164418D01*
X217815582Y-115305269D01*
X217976734Y-115422353D01*
X218046453Y-115457877D01*
X218128172Y-115499515D01*
X218178968Y-115547490D01*
X218195763Y-115615311D01*
X218173225Y-115681446D01*
X218128172Y-115720485D01*
X217976733Y-115797647D01*
X217884790Y-115864447D01*
X217815582Y-115914731D01*
X217815580Y-115914733D01*
X217815579Y-115914733D01*
X217674733Y-116055579D01*
X217674733Y-116055580D01*
X217674731Y-116055582D01*
X217624447Y-116124790D01*
X217557647Y-116216733D01*
X217467213Y-116394219D01*
X217405661Y-116583656D01*
X217405661Y-116583659D01*
X217374500Y-116780403D01*
X217374500Y-116979596D01*
X217405661Y-117176340D01*
X217405661Y-117176343D01*
X217467213Y-117365780D01*
X217467215Y-117365783D01*
X217557647Y-117543266D01*
X217674731Y-117704418D01*
X217815582Y-117845269D01*
X217976734Y-117962353D01*
X218046453Y-117997877D01*
X218128172Y-118039515D01*
X218178968Y-118087490D01*
X218195763Y-118155311D01*
X218173225Y-118221446D01*
X218128172Y-118260485D01*
X217976733Y-118337647D01*
X217884790Y-118404447D01*
X217815582Y-118454731D01*
X217815580Y-118454733D01*
X217815579Y-118454733D01*
X217674733Y-118595579D01*
X217674733Y-118595580D01*
X217674731Y-118595582D01*
X217624447Y-118664790D01*
X217557647Y-118756733D01*
X217467213Y-118934219D01*
X217405661Y-119123656D01*
X217405661Y-119123659D01*
X217374500Y-119320403D01*
X217374500Y-119519596D01*
X217405661Y-119716340D01*
X217405661Y-119716343D01*
X217467213Y-119905780D01*
X217467215Y-119905783D01*
X217557647Y-120083266D01*
X217674731Y-120244418D01*
X217815582Y-120385269D01*
X217976734Y-120502353D01*
X218046453Y-120537877D01*
X218128172Y-120579515D01*
X218178968Y-120627490D01*
X218195763Y-120695311D01*
X218173225Y-120761446D01*
X218128172Y-120800485D01*
X217976733Y-120877647D01*
X217884790Y-120944447D01*
X217815582Y-120994731D01*
X217815580Y-120994733D01*
X217815579Y-120994733D01*
X217674733Y-121135579D01*
X217674733Y-121135580D01*
X217674731Y-121135582D01*
X217624447Y-121204790D01*
X217557647Y-121296733D01*
X217467213Y-121474219D01*
X217405661Y-121663656D01*
X217405661Y-121663659D01*
X217374500Y-121860403D01*
X217374500Y-122059596D01*
X217405661Y-122256340D01*
X217405661Y-122256343D01*
X217467213Y-122445780D01*
X217467215Y-122445783D01*
X217557647Y-122623266D01*
X217674731Y-122784418D01*
X217815582Y-122925269D01*
X217976734Y-123042353D01*
X218046453Y-123077877D01*
X218128172Y-123119515D01*
X218178968Y-123167490D01*
X218195763Y-123235311D01*
X218173225Y-123301446D01*
X218128172Y-123340485D01*
X217976733Y-123417647D01*
X217884790Y-123484447D01*
X217815582Y-123534731D01*
X217815580Y-123534733D01*
X217815579Y-123534733D01*
X217674733Y-123675579D01*
X217674733Y-123675580D01*
X217674731Y-123675582D01*
X217624447Y-123744790D01*
X217557647Y-123836733D01*
X217467213Y-124014219D01*
X217405661Y-124203656D01*
X217405661Y-124203659D01*
X217374500Y-124400403D01*
X217374500Y-124599596D01*
X217405661Y-124796340D01*
X217405661Y-124796343D01*
X217467213Y-124985780D01*
X217467215Y-124985783D01*
X217557647Y-125163266D01*
X217674731Y-125324418D01*
X217815582Y-125465269D01*
X217976734Y-125582353D01*
X218046453Y-125617877D01*
X218128172Y-125659515D01*
X218178968Y-125707490D01*
X218195763Y-125775311D01*
X218173225Y-125841446D01*
X218128172Y-125880485D01*
X217976733Y-125957647D01*
X217884790Y-126024447D01*
X217815582Y-126074731D01*
X217815580Y-126074733D01*
X217815579Y-126074733D01*
X217674733Y-126215579D01*
X217674733Y-126215580D01*
X217674731Y-126215582D01*
X217624447Y-126284790D01*
X217557647Y-126376733D01*
X217467213Y-126554219D01*
X217405661Y-126743656D01*
X217405661Y-126743659D01*
X217374500Y-126940403D01*
X217374500Y-127139596D01*
X217405661Y-127336340D01*
X217405661Y-127336343D01*
X217467213Y-127525780D01*
X217557651Y-127703274D01*
X217560193Y-127707422D01*
X217559124Y-127708076D01*
X217580653Y-127768429D01*
X217564824Y-127836482D01*
X217514715Y-127885173D01*
X217456855Y-127899500D01*
X168800097Y-127899500D01*
X168733058Y-127879815D01*
X168712416Y-127863181D01*
X137487590Y-96638355D01*
X137487588Y-96638352D01*
X137368717Y-96519481D01*
X137368709Y-96519475D01*
X137266392Y-96460403D01*
X137231788Y-96440424D01*
X137231787Y-96440423D01*
X137170693Y-96424053D01*
X137079057Y-96399499D01*
X136920943Y-96399499D01*
X136913347Y-96399499D01*
X136913331Y-96399500D01*
X113880097Y-96399500D01*
X113813058Y-96379815D01*
X113792416Y-96363181D01*
X90913757Y-73484522D01*
X90880272Y-73423199D01*
X90883507Y-73358523D01*
X90897246Y-73316243D01*
X90930500Y-73106287D01*
X90930500Y-72893713D01*
X90897246Y-72683757D01*
X90831557Y-72481588D01*
X90735051Y-72292184D01*
X90735049Y-72292181D01*
X90735048Y-72292179D01*
X90610109Y-72120213D01*
X90459786Y-71969890D01*
X90287820Y-71844951D01*
X90098414Y-71748444D01*
X90098413Y-71748443D01*
X90098412Y-71748443D01*
X89896243Y-71682754D01*
X89896241Y-71682753D01*
X89896240Y-71682753D01*
X89734957Y-71657208D01*
X89686287Y-71649500D01*
X89473713Y-71649500D01*
X89425042Y-71657208D01*
X89263760Y-71682753D01*
X89061585Y-71748444D01*
X88872179Y-71844951D01*
X88700213Y-71969890D01*
X88549890Y-72120213D01*
X88424949Y-72292182D01*
X88420202Y-72301499D01*
X88372227Y-72352293D01*
X88304405Y-72369087D01*
X88238271Y-72346548D01*
X88199234Y-72301495D01*
X88194626Y-72292452D01*
X88155270Y-72238282D01*
X88155269Y-72238282D01*
X87522962Y-72870590D01*
X87505925Y-72807007D01*
X87440099Y-72692993D01*
X87347007Y-72599901D01*
X87232993Y-72534075D01*
X87169409Y-72517037D01*
X87801716Y-71884728D01*
X87747550Y-71845375D01*
X87558217Y-71748904D01*
X87356129Y-71683242D01*
X87146246Y-71650000D01*
X86933754Y-71650000D01*
X86723872Y-71683242D01*
X86723869Y-71683242D01*
X86521782Y-71748904D01*
X86332439Y-71845380D01*
X86278282Y-71884727D01*
X86278282Y-71884728D01*
X86910591Y-72517037D01*
X86847007Y-72534075D01*
X86732993Y-72599901D01*
X86639901Y-72692993D01*
X86574075Y-72807007D01*
X86557037Y-72870591D01*
X85886818Y-72200372D01*
X85853333Y-72139049D01*
X85853330Y-72139036D01*
X85850499Y-72126015D01*
X85850499Y-72102128D01*
X85844091Y-72042517D01*
X85815926Y-71967002D01*
X85793798Y-71907673D01*
X85793793Y-71907664D01*
X85707547Y-71792455D01*
X85707544Y-71792452D01*
X85592335Y-71706206D01*
X85592328Y-71706202D01*
X85457482Y-71655908D01*
X85457483Y-71655908D01*
X85397883Y-71649501D01*
X85397881Y-71649500D01*
X85397873Y-71649500D01*
X85397864Y-71649500D01*
X83602129Y-71649500D01*
X83602123Y-71649501D01*
X83542516Y-71655908D01*
X83407671Y-71706202D01*
X83407664Y-71706206D01*
X83292455Y-71792452D01*
X83292452Y-71792455D01*
X83206206Y-71907664D01*
X83206202Y-71907671D01*
X83155908Y-72042517D01*
X83149501Y-72102116D01*
X83149500Y-72102135D01*
X71685026Y-72102135D01*
X71902055Y-71467195D01*
X71904216Y-71461358D01*
X72174420Y-70784917D01*
X72176874Y-70779198D01*
X72480969Y-70117364D01*
X72483729Y-70111736D01*
X72820957Y-69466147D01*
X72824006Y-69460654D01*
X73179045Y-68857530D01*
X73193501Y-68832972D01*
X73196801Y-68827678D01*
X73597625Y-68219497D01*
X73601176Y-68214396D01*
X74032312Y-67627266D01*
X74036114Y-67622355D01*
X74496403Y-67057858D01*
X74500490Y-67053097D01*
X74988789Y-66512623D01*
X74993079Y-66508111D01*
X75508111Y-65993079D01*
X75512623Y-65988789D01*
X76053102Y-65500484D01*
X76057864Y-65496398D01*
X76334996Y-65270426D01*
X76622355Y-65036114D01*
X76627266Y-65032312D01*
X77214396Y-64601176D01*
X77219497Y-64597625D01*
X77827678Y-64196801D01*
X77832972Y-64193501D01*
X78460662Y-63824001D01*
X78466138Y-63820961D01*
X79111748Y-63483722D01*
X79117364Y-63480969D01*
X79779198Y-63176874D01*
X79784917Y-63174420D01*
X80461358Y-62904216D01*
X80467195Y-62902055D01*
X81156425Y-62666469D01*
X81162376Y-62664601D01*
X81862681Y-62464219D01*
X81868713Y-62462658D01*
X82578239Y-62298009D01*
X82584324Y-62296758D01*
X83301296Y-62168255D01*
X83307486Y-62167307D01*
X84029988Y-62075289D01*
X84036230Y-62074654D01*
X84762494Y-62019347D01*
X84768747Y-62019030D01*
X85498422Y-62000540D01*
X85501563Y-62000500D01*
X85565892Y-62000500D01*
X389934108Y-62000500D01*
X389998437Y-62000500D01*
X390001578Y-62000540D01*
G37*
%TD.AperFunction*%
%TD*%
M02*
