<svg xmlns="http://www.w3.org/2000/svg" width="512" height="512" version="1.1"><path fill="#A2E52E" d="M0 0 C11.37196783 8.4318981 19.15308495 19.90557754 21.71484375 33.96875 C22.36373527 38.62014999 22.58270987 43.09173099 22.40234375 47.78125 C25.34292398 48.7773933 28.27813713 49.74544727 31.26171875 50.60546875 C45.41290481 54.83170134 55.79112774 63.76669221 63.2734375 76.38671875 C64.44035265 78.86187095 64.98578609 81.08559529 65.40234375 83.78125 C66.41296875 83.183125 67.42359375 82.585 68.46484375 81.96875 C82.82752031 74.87607022 98.57510322 75.96996175 113.40234375 80.78125 C113.75425781 80.1521875 114.10617187 79.523125 114.46875 78.875 C122.66793162 64.66023083 133.27026715 55.82989897 149.25415039 51.25073242 C163.35582247 48.16884637 177.93065272 50.75484812 190.15234375 58.03125 C202.81447512 66.6123491 210.96992112 78.63524562 213.9921875 93.7265625 C215.81319993 107.28876934 213.59425203 118.87512661 206.609375 130.6015625 C205.24086227 132.6575943 205.24086227 132.6575943 205.40234375 134.78125 C206.54810971 135.82880745 207.74627935 136.81934717 208.96484375 137.78125 C217.65082923 145.20661458 223.70461447 155.40487713 225.40234375 166.78125 C226.60868105 184.4511593 224.2435333 198.68725803 212.78125 212.7734375 C206.97839701 219.03550907 199.38437654 223.82760971 191.40234375 226.78125 C191.3883252 227.64121582 191.3883252 227.64121582 191.37402344 228.51855469 C191.00797267 246.41197768 188.56157455 261.32505361 176.16796875 275.12109375 C170.87153815 280.10114465 162.90504167 286.78125 155.40234375 286.78125 C155.43376465 287.68665527 155.43376465 287.68665527 155.46582031 288.61035156 C156.04461616 307.82783901 153.73178412 321.68269432 140.46484375 336.46875 C129.34598115 347.05451644 114.74148104 351.3139923 99.703125 351.03125 C88.27528319 350.16570932 79.05929837 345.59361138 69.40234375 339.78125 C68.74637207 340.17505859 68.09040039 340.56886719 67.41455078 340.97460938 C64.45483766 342.74802373 61.49116455 344.51470997 58.52734375 346.28125 C57.49480469 346.90128906 56.46226562 347.52132813 55.3984375 348.16015625 C54.41230469 348.74667969 53.42617188 349.33320313 52.41015625 349.9375 C51.4989502 350.48212891 50.58774414 351.02675781 49.64892578 351.58789062 C47.40234375 352.78125 47.40234375 352.78125 45.40234375 352.78125 C45.42329102 353.69712891 45.44423828 354.61300781 45.46582031 355.55664062 C45.53503408 359.03835615 45.58463589 362.5193147 45.62207031 366.00146484 C45.6418738 367.49279498 45.66892441 368.98405094 45.70410156 370.47509766 C46.18539137 391.43951565 40.74354132 409.93328495 26.40234375 425.78125 C25.72558594 426.55082031 25.04882812 427.32039063 24.3515625 428.11328125 C11.53125754 441.87108566 -7.28880202 450.09486285 -25.99609375 451.06640625 C-47.6171125 451.71236072 -67.33813635 445.01411505 -83.21484375 430.1328125 C-97.11831439 416.41168246 -106.49731311 399.69885147 -106.78442383 379.76934814 C-106.79892328 376.06442789 -106.76486304 372.36089084 -106.72265625 368.65625 C-106.71260329 367.11198499 -106.70348154 365.56771362 -106.6953125 364.0234375 C-106.67348961 360.27590751 -106.63908831 356.52862054 -106.59765625 352.78125 C-107.32686279 352.50490723 -108.05606934 352.22856445 -108.80737305 351.94384766 C-111.43305452 350.84983286 -113.78971296 349.61446852 -116.2421875 348.1796875 C-117.08330078 347.68984375 -117.92441406 347.2 -118.79101562 346.6953125 C-119.65533203 346.18742187 -120.51964844 345.67953125 -121.41015625 345.15625 C-122.29380859 344.640625 -123.17746094 344.125 -124.08789062 343.59375 C-126.25960414 342.32593886 -128.42943805 341.05502652 -130.59765625 339.78125 C-131.56457397 340.41075562 -131.56457397 340.41075562 -132.55102539 341.05297852 C-146.19299557 349.83390011 -161.14018907 352.87538489 -177.09765625 349.71875 C-191.67550473 345.92042036 -202.67401547 337.565861 -210.53515625 324.78125 C-217.04847964 312.75075855 -218.65693391 300.28095909 -216.59765625 286.78125 C-217.68433594 286.61689453 -217.68433594 286.61689453 -218.79296875 286.44921875 C-229.339317 283.937484 -238.09773119 275.28789536 -243.95703125 266.578125 C-248.27941595 259.20948823 -251.54801402 251.37286802 -251.9140625 242.796875 C-251.95595703 241.86230469 -251.99785156 240.92773438 -252.04101562 239.96484375 C-252.08033203 238.99675781 -252.11964844 238.02867187 -252.16015625 237.03125 C-252.20333984 236.04769531 -252.24652344 235.06414062 -252.29101562 234.05078125 C-252.39687677 231.62773725 -252.49895796 229.2045946 -252.59765625 226.78125 C-253.70560547 226.30558594 -253.70560547 226.30558594 -254.8359375 225.8203125 C-268.34877231 219.60475189 -277.74406719 210.44181169 -283.91015625 196.8984375 C-288.84747977 183.49223267 -288.56394779 166.78425597 -282.59765625 153.78125 C-278.89332764 146.76686537 -273.95680914 138.46082645 -266.59765625 134.78125 C-267.95611169 131.28448507 -269.47605805 127.91287551 -271.09765625 124.53125 C-277.07683892 111.30296975 -277.14634148 97.5823745 -272.59765625 83.78125 C-266.82038433 69.98616159 -256.0582297 59.09488519 -242.22265625 53.40625 C-235.82037878 51.00800274 -230.276596 50.56926084 -223.47265625 50.53125 C-222.57289063 50.510625 -221.673125 50.49 -220.74609375 50.46875 C-206.91509847 50.38926152 -194.75025376 56.13366398 -184.671875 65.48828125 C-181.62431315 68.85724322 -179.30869335 72.55542344 -177.0078125 76.4609375 C-175.67282178 78.86410209 -175.67282178 78.86410209 -173.59765625 80.78125 C-173.02660156 80.57628906 -172.45554687 80.37132813 -171.8671875 80.16015625 C-155.78450582 74.81630812 -141.75134821 76.74176898 -126.59765625 83.78125 C-126.48292969 83.05292969 -126.36820313 82.32460937 -126.25 81.57421875 C-124.00034609 71.94246696 -115.92875511 62.77966498 -107.72509766 57.59863281 C-100.34096369 53.37043295 -93.04466266 50.11498785 -84.59765625 48.78125 C-82.88074158 47.06433533 -83.43093957 44.85806887 -83.35864258 42.56298828 C-82.86257581 28.00400558 -77.73988086 15.47749921 -67.59765625 4.78125 C-47.69780316 -11.52923966 -21.85219883 -14.81505005 0 0 Z" transform="translate(286.59765625,35.21875)"/><path fill="#9FE12C" d="M0 0 C12.66213137 8.5810991 20.81757737 20.60399562 23.83984375 35.6953125 C25.66085618 49.25751934 23.44190828 60.84387661 16.45703125 72.5703125 C15.08851852 74.6263443 15.08851852 74.6263443 15.25 76.75 C16.39576596 77.79755745 17.5939356 78.78809717 18.8125 79.75 C27.49848548 87.17536458 33.55227072 97.37362713 35.25 108.75 C36.4563373 126.4199093 34.09118955 140.65600803 22.62890625 154.7421875 C16.82605326 161.00425907 9.23203279 165.79635971 1.25 168.75 C1.23598145 169.60996582 1.23598145 169.60996582 1.22167969 170.48730469 C0.85562892 188.38072768 -1.5907692 203.29380361 -13.984375 217.08984375 C-19.2808056 222.06989465 -27.24730208 228.75 -34.75 228.75 C-34.72905273 229.35360352 -34.70810547 229.95720703 -34.68652344 230.57910156 C-34.10772759 249.79658901 -36.42055963 263.65144432 -49.6875 278.4375 C-60.8063626 289.02326644 -75.41086271 293.2827423 -90.44921875 293 C-101.87706056 292.13445932 -111.09304538 287.56236138 -120.75 281.75 C-121.34312988 282.10715088 -121.93625977 282.46430176 -122.54736328 282.83227539 C-132.68539822 288.9215712 -142.75167743 294.93044551 -153.41796875 300.05078125 C-158.07933277 302.42791296 -162.51724165 305.1383729 -166.95483398 307.90722656 C-171.55048581 310.75 -171.55048581 310.75 -173.75 310.75 C-173.976875 311.41 -174.20375 312.07 -174.4375 312.75 C-176.50768015 317.48184033 -179.08266546 322.08266546 -182.75 325.75 C-186.64201406 326.18244601 -188.88230302 326.32846465 -192.1875 324.125 C-194.21868707 321.03759565 -194.10890244 319.40586851 -193.75 315.75 C-192.24676514 313.06750488 -192.24676514 313.06750488 -190.29980469 310.31445312 C-185.93491439 303.16710678 -185.80530898 296.89593812 -185.953125 288.71875 C-185.95135255 287.31057897 -185.9460555 285.90240848 -185.93743896 284.4942627 C-185.92233141 280.82605486 -185.94580713 277.15924631 -185.98065186 273.49121094 C-186.03155489 267.59480842 -186.02947236 261.69844575 -186.01424408 255.80189514 C-186.015603 253.75193472 -186.03789063 251.70299054 -186.06280518 249.65319824 C-186.06560486 248.41090454 -186.06840454 247.16861084 -186.07128906 245.88867188 C-186.08129944 244.79679565 -186.09130981 243.70491943 -186.10162354 242.57995605 C-185.70242296 239.36708785 -185.06593602 237.99191599 -182.75 235.75 C-180.06672216 235.41609435 -177.68152017 235.29526887 -175 235.3125 C-159.99999871 234.89271787 -146.08834846 229.59977499 -135.5 218.6875 C-125.50410302 206.67596947 -121.69155773 193.1465157 -122.54589844 177.77197266 C-123.56679517 167.65825641 -128.07360226 157.38016885 -134.75 149.75 C-133.47143242 146.27960227 -131.9437448 143.42988222 -129.875 140.375 C-122.71334423 128.50911936 -120.69598536 113.98361139 -123.41015625 100.4609375 C-125.34448111 93.97969316 -128.44870414 88.58764985 -132.26171875 83.02734375 C-133.75 80.75 -133.75 80.75 -134.75 77.75 C-133.45703125 75.40234375 -133.45703125 75.40234375 -131.5625 72.6875 C-125.18418112 63.07546256 -122.5719354 54.36377262 -122.5625 42.9375 C-122.55025391 42.16857422 -122.53800781 41.39964844 -122.52539062 40.60742188 C-122.51202986 35.32991802 -123.28673011 30.82228336 -124.75 25.75 C-112.42908552 18.45803021 -98.22877222 17.39535824 -84.4296875 20.49609375 C-81.84514623 21.18684711 -79.29424169 21.92441953 -76.75 22.75 C-76.22212891 21.80640625 -76.22212891 21.80640625 -75.68359375 20.84375 C-67.48441213 6.62898083 -56.8820766 -2.20135103 -40.89819336 -6.78051758 C-26.79652128 -9.86240363 -12.22169103 -7.27640188 0 0 Z" transform="translate(476.75,93.25)"/><path fill="#BAEB6B" d="M0 0 C9.99594283 0.65190932 18.87017154 6.17904497 26 13 C36.61016672 25.29553616 41.62401205 38.77568671 41 55 C43.94058023 55.9961433 46.87579338 56.96419727 49.859375 57.82421875 C63.52175551 61.90447023 74.72041356 70.73122277 81.6796875 83.26171875 C87.88169358 96.12445917 89.24535741 110.20981898 85.375 124 C83.61340447 128.98279878 81.27794786 133.37740531 78.3671875 137.78125 C76.8651575 140.21883011 75.69436642 142.20951497 75 145 C76.152375 147.43902074 76.152375 147.43902074 78.125 149.6875 C86.29910025 160.45221076 88.09329551 171.74639856 87 185 C85.77430556 193.37258915 83.11194402 200.84505676 78.3671875 207.8515625 C76.8346938 210.25976688 75.69137429 212.21721848 75 215 C76.15494785 217.40487472 76.15494785 217.40487472 78.125 219.625 C86.47605318 230.62274523 88.17283877 243.50756047 87 257 C84.42155866 270.52576658 77.13690146 282.92430302 66.0546875 291.19921875 C55.05059612 298.37176506 44.57976912 301.4516536 31.55957031 301.58569336 C29.22616676 301.60340459 29.22616676 301.60340459 26 302 C23.65979608 305.51030588 23.76271014 306.87810019 23.79223633 311.02514648 C23.79496048 312.26751572 23.79768463 313.50988495 23.80049133 314.78990173 C23.80881202 315.78635869 23.80881202 315.78635869 23.8173008 316.80294609 C23.83219718 318.8943898 23.83054039 320.98519607 23.82365417 323.07667542 C23.80486863 329.02324146 23.79799534 334.9693248 23.84545898 340.91577148 C23.87331878 344.55719615 23.8664943 348.19723589 23.83844566 351.83864021 C23.83422868 353.21591241 23.84244247 354.59328888 23.8641758 355.97039604 C24.00095273 365.01977434 22.77206727 370.86565183 17.5019989 378.31874084 C15.72756637 381.4863287 15.63687973 383.42219909 16 387 C16.93597315 389.01951062 16.93597315 389.01951062 19 390 C22.45749949 390.66676878 22.45749949 390.66676878 26 390 C28.30036585 387.90260761 29.63332958 385.89329258 30.81542969 383.01342773 C34.35501978 375.06167695 40.72815243 371.96567119 48.125 368 C49.3305996 367.32892505 50.5350389 366.65576116 51.73828125 365.98046875 C60.2867905 361.2377365 60.2867905 361.2377365 64 360 C64.1007862 364.4066827 64.17234423 368.81271055 64.21972656 373.22021484 C64.23953005 374.71154498 64.26658066 376.20280094 64.30175781 377.69384766 C64.78304762 398.65826565 59.34119757 417.15203495 45 433 C44.32324219 433.76957031 43.64648438 434.53914063 42.94921875 435.33203125 C30.12891379 449.08983566 11.30885423 457.31361285 -7.3984375 458.28515625 C-29.01945625 458.93111072 -48.7404801 452.23286505 -64.6171875 437.3515625 C-78.52065814 423.63043246 -87.89965686 406.91760147 -88.18676758 386.98809814 C-88.20126703 383.28317789 -88.16720679 379.57964084 -88.125 375.875 C-88.11494704 374.33073499 -88.10582529 372.78646362 -88.09765625 371.2421875 C-88.07583336 367.49465751 -88.04143206 363.74737054 -88 360 C-74.09570019 365.312974 -58.66975978 372.70117581 -52.00390625 386.55078125 C-51.67261719 387.35902344 -51.34132812 388.16726563 -51 389 C-49.83524938 390.37771762 -49.83524938 390.37771762 -46.625 390.3125 C-43.05642819 390.33700049 -43.05642819 390.33700049 -41 388.4375 C-39.51481664 384.81736557 -40.00707439 382.78552889 -41 379 C-41.82587425 377.70514122 -42.67180928 376.42296715 -43.53198242 375.15063477 C-47.05136963 368.91984941 -46.62837981 362.76884938 -46.48828125 355.77734375 C-46.47893605 354.4225852 -46.47182802 353.06780956 -46.46684265 351.71302795 C-46.44790609 348.17644193 -46.39892613 344.6409105 -46.34332275 341.10473633 C-46.29183782 337.48468282 -46.26926682 333.86445605 -46.24414062 330.24414062 C-46.19078999 323.16233343 -46.10564433 316.08123618 -46 309 C-43.14302158 311.7260268 -41.40076408 314.54502751 -39.453125 317.99609375 C-38.95168976 318.87927025 -38.95168976 318.87927025 -38.44012451 319.7802887 C-37.3721372 321.6634587 -36.31086493 323.55031018 -35.25 325.4375 C-34.2060872 327.28447862 -33.1607898 329.13066281 -32.11459351 330.97634888 C-31.42345277 332.19813136 -30.73483206 333.4213428 -30.04873657 334.64596558 C-28.40633124 337.5688953 -26.72660925 340.43942227 -24.95458984 343.28759766 C-21.23439203 349.29131226 -19.13897266 353.40189038 -19.125 360.5 C-19.14920167 366.32269381 -19.14920167 366.32269381 -18 372 C-16.56359829 372.19573608 -15.12580496 372.38127816 -13.6875 372.5625 C-12.88699219 372.66691406 -12.08648437 372.77132813 -11.26171875 372.87890625 C-8.83182884 373.14755178 -8.83182884 373.14755178 -6 372 C-4.48273122 368.43563977 -4.95240389 364.45410665 -4.91796875 360.6484375 C-4.54652688 351.49673099 -1.10630302 345.23115335 3.6875 337.625 C4.40588416 336.43533372 5.12139004 335.24392456 5.83398438 334.05078125 C8.45267215 329.69289377 11.08841976 325.35409716 13.92822266 321.13574219 C14.49460449 320.27368164 15.06098633 319.41162109 15.64453125 318.5234375 C16.14960205 317.78786621 16.65467285 317.05229492 17.17504883 316.29443359 C18.37770863 312.94948041 17.39066425 311.20393861 16 308 C14.089032 304.15130763 11.91105589 300.46295508 9.75 296.75 C9.18925781 295.74453125 8.62851562 294.7390625 8.05078125 293.703125 C7.49261719 292.7440625 6.93445313 291.785 6.359375 290.796875 C5.85889648 289.92385742 5.35841797 289.05083984 4.84277344 288.15136719 C2.50962211 285.42750266 0.42798677 284.86029629 -3 284 C-1.23598301 279.9346505 1.45888024 276.56395754 4.125 273.0625 C4.64707031 272.3715625 5.16914063 271.680625 5.70703125 270.96875 C7.46706836 268.64254711 9.23275588 266.32073192 11 264 C11.9585791 262.74098877 11.9585791 262.74098877 12.93652344 261.45654297 C15.6392737 257.90827284 18.3433054 254.3609822 21.04833984 250.81445312 C25.29733613 245.24179791 29.53688456 239.66234438 33.75 234.0625 C34.22695313 233.43085938 34.70390625 232.79921875 35.1953125 232.1484375 C40.88137774 225.38721046 40.88137774 225.38721046 42.9375 217.25 C42.30251758 213.73533048 42.30251758 213.73533048 39 212 C35.50292516 211.88356945 33.07245894 212.04742123 30.37939453 214.43945312 C28.66442003 216.47749218 27.10675492 218.57966503 25.5625 220.75 C24.34638959 222.38674507 23.13024219 224.02346266 21.9140625 225.66015625 C21.28145508 226.52656738 20.64884766 227.39297852 19.99707031 228.28564453 C16.54806176 232.97342902 12.98143229 237.57134717 9.4375 242.1875 C5.92367779 246.7842303 2.41769032 251.37394154 -0.90234375 256.11328125 C-1.59457031 257.06589844 -2.28679687 258.01851563 -3 259 C-3.33 259 -3.66 259 -4 259 C-6.18822397 225.87085021 -6.18822397 225.87085021 -0.41943359 218.20996094 C1.70269313 215.94626965 3.91463899 213.82057491 6.22070312 211.74511719 C9.58539617 208.44505875 12.16010706 204.52307993 14.875 200.6875 C20.70128094 192.67778416 26.73031587 184.84253811 32.84375 177.05078125 C33.8964082 175.70096895 34.94849128 174.35070794 36 173 C36.56130615 172.28602051 37.1226123 171.57204102 37.70092773 170.83642578 C38.24177002 170.13630371 38.7826123 169.43618164 39.33984375 168.71484375 C39.82573975 168.09085693 40.31163574 167.46687012 40.81225586 166.82397461 C42.71262902 163.90564206 43.06606313 161.4352826 43 158 C42.18547684 155.44148975 42.18547684 155.44148975 40 154 C36.67405245 152.99765814 36.67405245 152.99765814 33 154 C30.13503071 156.22439876 28.14867123 159.10093404 26 162 C25.15190587 163.11914501 24.30287992 164.23758424 23.453125 165.35546875 C21.45009864 168.00411869 19.46147824 170.66297297 17.48046875 173.328125 C13.47125248 178.71760178 9.42997151 184.08238474 5.375 189.4375 C4.67576416 190.36780029 3.97652832 191.29810059 3.25610352 192.2565918 C2.27468384 193.55077026 2.27468384 193.55077026 1.2734375 194.87109375 C0.68997559 195.64380615 0.10651367 196.41651855 -0.49462891 197.21264648 C-2 199 -2 199 -4 200 C-6.55261511 168.47660592 -6.55261511 168.47660592 0.29638672 159.20654297 C2.77542642 156.38460805 5.34657379 153.68941398 8.02441406 151.05566406 C11.4285006 147.51359675 14.16480061 143.50023937 17 139.5 C22.27285223 132.25159872 27.71168333 125.14881316 33.29492188 118.13671875 C39.80865444 110.36613914 39.80865444 110.36613914 43.5 101.1875 C43.11110737 98.98127928 43.11110737 98.98127928 41.9375 97.1875 C38.81712449 95.27501179 36.57305585 95.50716471 33 96 C28.40524238 99.93064139 25.07678079 104.80173208 21.5625 109.6875 C16.03697314 117.29037612 10.36675163 124.75591682 4.53149414 132.1237793 C2.24326093 135.02953073 0.109206 137.81437391 -1.76953125 141.0078125 C-2.17558594 141.66523438 -2.58164062 142.32265625 -3 143 C-3.66 143 -4.32 143 -5 143 C-5.00586624 142.20486496 -5.01173248 141.40972992 -5.01777649 140.59049988 C-5.07565652 133.10070404 -5.14770558 125.61124267 -5.23571491 118.12174511 C-5.28046171 114.27120744 -5.31970798 110.42077662 -5.34643555 106.57006836 C-5.37242607 102.85458435 -5.41279735 99.1395106 -5.46318626 95.42428017 C-5.47988396 94.00614839 -5.49138017 92.58794561 -5.49761391 91.16972923 C-5.50722254 89.1848976 -5.53696284 87.20019418 -5.56762695 85.21557617 C-5.57873001 84.08528488 -5.58983307 82.95499359 -5.60127258 81.79045105 C-5.78007429 79.00272096 -5.78007429 79.00272096 -7.33952332 77.13496399 C-9.93727934 75.35935367 -11.94619662 75.61827458 -15 76 C-16.7808773 77.07865405 -16.7808773 77.07865405 -18 79 C-18.47486576 81.88581617 -18.47486576 81.88581617 -18.43237305 85.21557617 C-18.45216721 86.4966777 -18.47196136 87.77777924 -18.49235535 89.09770203 C-18.49912514 90.49612278 -18.50557201 91.89454512 -18.51171875 93.29296875 C-18.52856354 94.72359261 -18.54671351 96.15420164 -18.56611633 97.58479309 C-18.61364482 101.34780242 -18.64343541 105.11075169 -18.66955566 108.8739624 C-18.69934705 112.71492377 -18.74588218 116.55567807 -18.79101562 120.39648438 C-18.877081 127.93088691 -18.94441153 135.46530445 -19 143 C-19.66 143 -20.32 143 -21 143 C-22.49918871 141.07335666 -23.88076829 139.14190004 -25.25 137.125 C-29.87663134 130.4681752 -34.78690831 124.0779206 -39.80322266 117.71142578 C-44.00383617 112.35337124 -48.01598773 106.89624018 -51.8046875 101.23828125 C-53.88020098 98.22001693 -55.50675953 96.26452144 -59 95 C-59.74550281 80.3384447 -55.24952782 67.87753877 -45.75 56.75 C-37.48324199 48.07059184 -26.48484136 40.41900906 -14.08203125 39.87109375 C-13.39496094 39.91363281 -12.70789063 39.95617187 -12 40 C-12.03480469 39.20078125 -12.06960937 38.4015625 -12.10546875 37.578125 C-12.46109623 23.14981025 -8.91078412 11.45672244 0 0 Z" transform="translate(268,28)"/><path fill="#A2E62E" d="M0 0 C0.89976563 -0.020625 1.79953125 -0.04125 2.7265625 -0.0625 C16.55755778 -0.14198848 28.72240249 5.60241398 38.80078125 14.95703125 C41.8483431 18.32599322 44.1639629 22.02417344 46.46484375 25.9296875 C47.79983447 28.33285209 47.79983447 28.33285209 49.875 30.25 C50.44605469 30.04503906 51.01710938 29.84007813 51.60546875 29.62890625 C67.68815043 24.28505812 81.72130804 26.21051898 96.875 33.25 C96.6584375 34.03697266 96.6584375 34.03697266 96.4375 34.83984375 C92.60048372 50.85405754 94.38438458 65.02298954 102.609375 79.25 C103.96515841 81.31595567 105.35181436 83.30550769 106.875 85.25 C105.42961777 88.27907854 103.74565408 91.0500468 101.9375 93.875 C98.52991737 99.5128496 96.73499705 105.13180276 95.39453125 111.55078125 C94.9832955 113.47339625 94.43692247 115.365907 93.875 117.25 C93.22402344 117.64574219 92.57304687 118.04148437 91.90234375 118.44921875 C88.76846461 121.23287633 88.82285629 124.65657042 88.375 128.625 C88.2061731 129.9411731 88.2061731 129.9411731 88.03393555 131.28393555 C87.6205698 134.60327075 87.24533815 137.9255792 86.875 141.25 C86.75128021 142.35320587 86.75128021 142.35320587 86.62506104 143.47869873 C85.32685615 155.06407247 84.08467228 166.65507406 82.875 178.25 C78.24778051 173.8844968 75.29019806 168.87566085 72.0625 163.4375 C71.45212891 162.48423828 70.84175781 161.53097656 70.21289062 160.54882812 C65.69952187 152.88068076 65.35689142 147.24658726 66.56973267 138.53347778 C66.90972714 135.99023209 67.17666755 133.44522066 67.43432617 130.89233398 C68.04291335 124.88214229 68.70685313 118.87881762 69.375 112.875 C69.60315643 110.80341754 69.83102277 108.73180311 70.05859375 106.66015625 C70.47674644 102.85868858 70.89633867 99.05738788 71.31835938 95.25634766 C71.45736664 94.00318253 71.45736664 94.00318253 71.59918213 92.72470093 C71.78535541 91.05431177 71.97301289 89.38408745 72.16204834 87.71401978 C72.25198059 86.91668427 72.34191284 86.11934875 72.43457031 85.29785156 C72.5145929 84.59339905 72.59461548 83.88894653 72.67706299 83.16314697 C72.94586321 80.56507633 73.07958753 77.98621696 73.125 75.375 C73.15078125 74.47007812 73.1765625 73.56515625 73.203125 72.6328125 C73.06328503 70.20300757 73.06328503 70.20300757 71.54296875 68.45703125 C68.91684729 66.55662954 67.01874938 66.80089295 63.875 67.25 C60.59110013 69.59153045 59.92614762 71.00716741 59.08544922 74.99853516 C58.93200215 76.51030811 58.79795089 78.02413107 58.6796875 79.5390625 C58.60130646 80.35635834 58.52292542 81.17365417 58.44216919 82.01571655 C58.1946526 84.63424367 57.97170279 87.25417352 57.75 89.875 C57.59412324 91.58348701 57.43658609 93.2918234 57.27734375 95 C57.04061712 97.54595198 56.80554623 100.09195887 56.57781982 102.63873291 C55.8109301 111.19110859 54.85895345 119.72024844 53.875 128.25 C51.21934213 125.85030318 49.59501447 123.28555811 47.828125 120.18359375 C47.23749268 119.15266602 46.64686035 118.12173828 46.03833008 117.05957031 C45.40693115 115.94678711 44.77553223 114.83400391 44.125 113.6875 C43.12402441 111.93834655 42.12304214 110.18919688 41.12165833 108.4402771 C40.07678786 106.61389772 39.03400175 104.78634203 37.99169922 102.95849609 C35.22414815 98.10693899 32.44366677 93.26284882 29.65722656 88.42211914 C28.36917553 86.18431406 27.08327768 83.9452679 25.79980469 81.70483398 C24.17354749 78.87717147 22.53239199 76.05950488 20.875 73.25 C20.48368896 72.580896 20.09237793 71.91179199 19.68920898 71.22241211 C17.68351724 67.97297007 17.19212333 67.33345351 13.3125 66.3125 C9.89164712 66.05921682 9.89164712 66.05921682 6.875 67.25 C5.04745388 74.07283884 6.59034731 77.60031187 10.0546875 83.62475586 C10.67601563 84.65608643 11.29734375 85.68741699 11.9375 86.75 C12.56785156 87.8335376 13.19820313 88.9170752 13.84765625 90.03344727 C15.17211511 92.30509788 16.50579367 94.57139548 17.84814453 96.83251953 C19.82549712 100.16653321 21.77474578 103.51528914 23.71484375 106.87109375 C26.03980998 110.8872495 28.37102878 114.89944239 30.71875 118.90234375 C31.49605469 120.23048096 31.49605469 120.23048096 32.2890625 121.58544922 C33.38852259 123.43266402 34.50994006 125.26691804 35.6484375 127.09033203 C36.20789063 127.98993652 36.76734375 128.88954102 37.34375 129.81640625 C37.85357422 130.62150635 38.36339844 131.42660645 38.88867188 132.25610352 C39.21416016 132.91408936 39.53964844 133.5720752 39.875 134.25 C39.545 134.91 39.215 135.57 38.875 136.25 C37.607771 135.67668945 37.607771 135.67668945 36.31494141 135.09179688 C35.13077637 134.55619141 33.94661133 134.02058594 32.7265625 133.46875 C32.08665878 133.17924469 31.44675507 132.88973938 30.78746033 132.59146118 C27.26335293 130.99760744 23.73808775 129.40639138 20.21069336 127.81982422 C8.03960468 122.34315978 8.03960468 122.34315978 2.08984375 119.5390625 C1.28401855 119.16458984 0.47819336 118.79011719 -0.35205078 118.40429688 C-1.77153062 117.74331532 -3.1858402 117.07104859 -4.59326172 116.38476562 C-9.38491171 114.17645067 -12.95455755 113.78648115 -18.125 114.25 C-20.45833333 116.25 -20.45833333 116.25 -21.125 119.25 C-20.38413944 122.72070319 -19.89441441 124.67227238 -17.01220703 126.83642578 C-15.64878174 127.44719971 -15.64878174 127.44719971 -14.2578125 128.0703125 C-13.17661133 128.56563477 -12.09541016 129.06095703 -10.98144531 129.57128906 C-9.69626697 130.13155591 -8.41076118 130.69107201 -7.125 131.25 C-5.61241025 131.92553775 -4.10039797 132.60236952 -2.58886719 133.28027344 C2.59394855 135.59294545 7.79616362 137.86012273 13 140.125 C14.76836173 140.89683177 16.53659161 141.66896569 18.3046875 142.44140625 C19.61164581 143.01208832 19.61164581 143.01208832 20.94500732 143.59429932 C22.68785891 144.35634358 24.43009356 145.11980045 26.17169189 145.88470459 C30.45189682 147.76343169 34.7392224 149.61869836 39.04980469 151.42675781 C39.87197479 151.77739288 40.6941449 152.12802795 41.54122925 152.48928833 C43.0846447 153.14745597 44.63254186 153.79525436 46.18557739 154.4303894 C54.75829571 158.12157178 58.06331885 165.67261637 62.625 173.4375 C63.22699219 174.44748047 63.82898438 175.45746094 64.44921875 176.49804688 C65.01769531 177.46162109 65.58617187 178.42519531 66.171875 179.41796875 C66.69104492 180.29735107 67.21021484 181.1767334 67.74511719 182.08276367 C68.875 184.25 68.875 184.25 68.875 186.25 C63.42294454 184.58634994 58.34198733 182.28773993 53.1640625 179.93359375 C51.2606284 179.07830468 49.35697572 178.22350192 47.453125 177.36914062 C44.47330944 176.0287638 41.49506682 174.68525775 38.52050781 173.33325195 C35.63515841 172.02357457 32.74396342 170.7276088 29.8515625 169.43359375 C28.9711026 169.02942734 28.0906427 168.62526093 27.1835022 168.20884705 C22.00177607 165.90511643 17.56156416 164.52126089 11.875 164.25 C9.76449898 165.23455293 9.76449898 165.23455293 8.875 167.25 C8.51353543 169.53330101 8.51353543 169.53330101 8.6875 171.9375 C8.72810547 173.14986328 8.72810547 173.14986328 8.76953125 174.38671875 C8.80433594 175.00160156 8.83914062 175.61648438 8.875 176.25 C9.58213135 176.529646 10.2892627 176.80929199 11.01782227 177.09741211 C13.89308208 178.25729433 16.74243315 179.46479011 19.58984375 180.69140625 C20.73308105 181.18382812 21.87631836 181.67625 23.05419922 182.18359375 C25.6176476 183.29220337 28.17732782 184.40907009 30.73486328 185.53125 C32.11615979 186.13683543 33.49750881 186.7423011 34.87890625 187.34765625 C35.58958252 187.65929718 36.30025879 187.97093811 37.0324707 188.29202271 C41.81172767 190.37777656 46.61678123 192.39053631 51.44172668 194.3681488 C54.87991934 195.78491119 58.3035009 197.23505294 61.72561646 198.69015503 C63.391368 199.38950929 65.06314683 200.07469886 66.74093628 200.74465942 C78.53548011 205.46675756 84.33688639 209.42052951 89.875 221.25 C90.70349921 222.70281424 91.54474342 224.1485437 92.40625 225.58203125 C93.0559375 226.73058594 93.705625 227.87914062 94.375 229.0625 C94.72046875 229.67158203 95.0659375 230.28066406 95.421875 230.90820312 C96.24169462 232.35427384 97.05870157 233.80193868 97.875 235.25 C93.74828862 236.62557046 92.27379241 235.34287211 88.36328125 233.53125 C87.72210861 233.23759552 87.08093597 232.94394104 86.42033386 232.64138794 C85.04876794 232.01186726 83.67921842 231.37793826 82.31152344 230.74005127 C80.18722643 229.74987248 78.05753822 228.77234278 75.92578125 227.79833984 C70.93045666 225.51360965 65.94317108 223.2117949 60.96240234 220.89550781 C58.77116592 219.87825719 56.57420298 218.87486345 54.375 217.875 C53.2509375 217.35164062 52.126875 216.82828125 50.96875 216.2890625 C47.41910496 215.09688374 44.59633721 214.9786996 40.875 215.25 C38.81097315 216.23048938 38.81097315 216.23048938 37.875 218.25 C37.45021414 222.32794425 37.56217413 223.78076119 39.875 227.25 C42.74792111 228.81032561 42.74792111 228.81032561 46.2421875 230.26171875 C46.896996 230.54721085 47.5518045 230.83270294 48.22645569 231.12684631 C49.65065056 231.74655115 51.07662094 232.36218769 52.50411987 232.97424316 C54.76887513 233.94559553 57.02865395 234.92774133 59.28735352 235.91308594 C62.48279726 237.30623696 65.67988541 238.6954983 68.87841797 240.08154297 C76.402168 243.34411945 83.91405012 246.63331924 91.4163208 249.94497681 C93.78593127 250.98830195 96.15920714 252.02295111 98.53271484 253.05737305 C99.98945681 253.69925559 101.44600983 254.34156719 102.90234375 254.984375 C103.56645767 255.27127701 104.23057159 255.55817902 104.91481018 255.85377502 C110.64971537 258.40486055 112.85943278 260.9399598 115.921875 266.31640625 C116.51266846 267.34741455 117.10346191 268.37842285 117.7121582 269.44067383 C118.343396 270.55337646 118.97463379 271.6660791 119.625 272.8125 C120.62381077 274.56063425 121.62263116 276.30876309 122.62202454 278.05656433 C123.31397522 279.26731151 124.00528085 280.47842756 124.69596863 281.68989563 C127.15308382 285.99804115 129.63437928 290.29154864 132.12890625 294.578125 C132.81613538 295.76095458 133.50331065 296.94381545 134.19042969 298.12670898 C135.5001896 300.38004043 136.81196962 302.63219916 138.12597656 304.88305664 C139.01687988 306.42014282 139.01687988 306.42014282 139.92578125 307.98828125 C140.44825439 308.88587158 140.97072754 309.78346191 141.5090332 310.70825195 C142.8331544 313.17213502 143.89206574 315.63364731 144.875 318.25 C142.79124029 317.06324336 140.70796871 315.87564374 138.625 314.6875 C137.99327881 314.32760986 137.36155762 313.96771973 136.71069336 313.59692383 C131.6698718 310.71943118 126.67113467 307.77513897 121.69140625 304.79296875 C119.13325673 303.39148601 116.55141573 302.28213089 113.86254883 301.1628418 C109.72862562 299.26421278 105.85279072 296.86999073 101.9375 294.5625 C100.62555664 293.79583008 100.62555664 293.79583008 99.28710938 293.01367188 C97.14760176 291.76270294 95.01032837 290.50808478 92.875 289.25 C91.90808228 289.87950562 91.90808228 289.87950562 90.92163086 290.52172852 C77.27966068 299.30265011 62.33246718 302.34413489 46.375 299.1875 C31.79715152 295.38917036 20.79864078 287.034611 12.9375 274.25 C6.42417661 262.21950855 4.81572234 249.74970909 6.875 236.25 C6.15054688 236.14042969 5.42609375 236.03085937 4.6796875 235.91796875 C-5.86666075 233.406234 -14.62507494 224.75664536 -20.484375 216.046875 C-24.8067597 208.67823823 -28.07535777 200.84161802 -28.44140625 192.265625 C-28.48330078 191.33105469 -28.52519531 190.39648438 -28.56835938 189.43359375 C-28.60767578 188.46550781 -28.64699219 187.49742187 -28.6875 186.5 C-28.73068359 185.51644531 -28.77386719 184.53289062 -28.81835938 183.51953125 C-28.92422052 181.09648725 -29.02630171 178.6733446 -29.125 176.25 C-30.23294922 175.77433594 -30.23294922 175.77433594 -31.36328125 175.2890625 C-44.87611606 169.07350189 -54.27141094 159.91056169 -60.4375 146.3671875 C-65.37482352 132.96098267 -65.09129154 116.25300597 -59.125 103.25 C-55.42067139 96.23561537 -50.48415289 87.92957645 -43.125 84.25 C-44.48345544 80.75323507 -46.0034018 77.38162551 -47.625 74 C-53.60418267 60.77171975 -53.67368523 47.0511245 -49.125 33.25 C-43.34772808 19.45491159 -32.58557345 8.56363519 -18.75 2.875 C-12.34772253 0.47675274 -6.80393975 0.03801084 0 0 Z" transform="translate(63.125,85.75)"/><path fill="#DAF3B1" d="M0 0 C0.33 0 0.66 0 1 0 C1.13979909 7.89368191 1.24601991 15.78683587 1.31087303 23.68145466 C1.34201966 27.34838796 1.38417811 31.01446663 1.45263672 34.6809082 C1.51843747 38.22771123 1.55383095 41.77369902 1.56926346 45.3210659 C1.58554006 47.31460372 1.63228034 49.3078192 1.67977905 51.30085754 C1.68260279 59.02996926 0.64085485 64.06303113 -3.70809937 70.52238464 C-5.29106046 73.55819762 -5.30296553 75.61995922 -5 79 C-4.06402685 81.01951062 -4.06402685 81.01951062 -2 82 C1.45749949 82.66676878 1.45749949 82.66676878 5 82 C7.30036585 79.90260761 8.63332958 77.89329258 9.81542969 75.01342773 C13.35501978 67.06167695 19.72815243 63.96567119 27.125 60 C28.3305996 59.32892505 29.5350389 58.65576116 30.73828125 57.98046875 C39.2867905 53.2377365 39.2867905 53.2377365 43 52 C43.1007862 56.4066827 43.17234423 60.81271055 43.21972656 65.22021484 C43.23953005 66.71154498 43.26658066 68.20280094 43.30175781 69.69384766 C43.78304762 90.65826565 38.34119757 109.15203495 24 125 C23.32324219 125.76957031 22.64648438 126.53914063 21.94921875 127.33203125 C9.12891379 141.08983566 -9.69114577 149.31361285 -28.3984375 150.28515625 C-50.01945625 150.93111072 -69.7404801 144.23286505 -85.6171875 129.3515625 C-99.52065814 115.63043246 -108.89965686 98.91760147 -109.18676758 78.98809814 C-109.20126703 75.28317789 -109.16720679 71.57964084 -109.125 67.875 C-109.11494704 66.33073499 -109.10582529 64.78646362 -109.09765625 63.2421875 C-109.07583336 59.49465751 -109.04143206 55.74737054 -109 52 C-95.09570019 57.312974 -79.66975978 64.70117581 -73.00390625 78.55078125 C-72.67261719 79.35902344 -72.34132812 80.16726563 -72 81 C-70.83524938 82.37771762 -70.83524938 82.37771762 -67.625 82.3125 C-64.05642819 82.33700049 -64.05642819 82.33700049 -62 80.4375 C-60.51481664 76.81736557 -61.00707439 74.78552889 -62 71 C-62.82587425 69.70514122 -63.67180928 68.42296715 -64.53198242 67.15063477 C-68.05136963 60.91984941 -67.62837981 54.76884938 -67.48828125 47.77734375 C-67.47893605 46.4225852 -67.47182802 45.06780956 -67.46684265 43.71302795 C-67.44790609 40.17644193 -67.39892613 36.6409105 -67.34332275 33.10473633 C-67.29183782 29.48468282 -67.26926682 25.86445605 -67.24414062 22.24414062 C-67.19078999 15.16233343 -67.10564433 8.08123618 -67 1 C-64.14302158 3.7260268 -62.40076408 6.54502751 -60.453125 9.99609375 C-60.11883484 10.58487808 -59.78454468 11.17366241 -59.44012451 11.7802887 C-58.3721372 13.6634587 -57.31086493 15.55031018 -56.25 17.4375 C-55.2060872 19.28447862 -54.1607898 21.13066281 -53.11459351 22.97634888 C-52.42345277 24.19813136 -51.73483206 25.4213428 -51.04873657 26.64596558 C-49.40633124 29.5688953 -47.72660925 32.43942227 -45.95458984 35.28759766 C-42.23439203 41.29131226 -40.13897266 45.40189038 -40.125 52.5 C-40.14920167 58.32269381 -40.14920167 58.32269381 -39 64 C-37.56359829 64.19573608 -36.12580496 64.38127816 -34.6875 64.5625 C-33.88699219 64.66691406 -33.08648437 64.77132812 -32.26171875 64.87890625 C-29.83182884 65.14755178 -29.83182884 65.14755178 -27 64 C-25.48100938 60.4310249 -25.94555466 56.43568015 -25.90625 52.625 C-25.53952283 43.76503307 -22.20613278 37.43995763 -17.5 30 C-16.76571471 28.78804504 -16.03461859 27.57415243 -15.30664062 26.35839844 C-13.87826208 23.97960062 -12.43610828 21.61025422 -10.98046875 19.24804688 C-8.37525191 14.97538849 -5.9219409 10.62828103 -3.5 6.25 C-2.80268031 5.00487381 -2.10484302 3.76003722 -1.40625 2.515625 C-0.9421875 1.68546875 -0.478125 0.8553125 0 0 Z" transform="translate(289,336)"/><path fill="#97D72A" d="M0 0 C3.73526584 0.62254431 4.69394098 1.53823454 7 4.5 C7.48101807 7.41070557 7.48101807 7.41070557 7.45410156 10.82910156 C7.45379944 12.11012756 7.45349731 13.39115356 7.45318604 14.71099854 C7.43276095 16.10421371 7.41189699 17.4974225 7.390625 18.890625 C7.38316131 20.31979582 7.37746898 21.7489769 7.37347412 23.17816162 C7.3582275 26.93327262 7.31895516 30.68776125 7.2746582 34.44262695 C7.23368387 38.27676983 7.21545856 42.11101362 7.1953125 45.9453125 C7.15245903 53.4638249 7.08422067 60.98182512 7 68.5 C7.66 68.5 8.32 68.5 9 68.5 C9.20367187 67.84 9.40734375 67.18 9.6171875 66.5 C11.53501768 62.33928368 14.27071432 59.06258007 17.125 55.5 C18.38660641 53.90458593 19.64697052 52.30818888 20.90625 50.7109375 C21.90205078 49.44975098 21.90205078 49.44975098 22.91796875 48.16308594 C27.24096813 42.63362097 31.45147994 37.01679443 35.66845703 31.40625 C36.30638184 30.56320313 36.94430664 29.72015625 37.6015625 28.8515625 C38.16182129 28.10729004 38.72208008 27.36301758 39.29931641 26.59619141 C44.14634146 20.62195122 44.14634146 20.62195122 48.5 20 C52 20.5 52 20.5 54.5 22.0625 C56.20621152 24.83509371 56.20201756 26.31874491 55.65576172 29.48168945 C54.30541763 33.63779317 51.46619015 36.90157177 48.8125 40.3125 C48.18682129 41.13854736 47.56114258 41.96459473 46.91650391 42.81567383 C44.95980893 45.38943511 42.98318282 47.94660907 41 50.5 C40.3930127 51.2847168 39.78602539 52.06943359 39.16064453 52.87792969 C36.25089537 56.63692053 33.32856868 60.38579069 30.3984375 64.12890625 C25.63019038 70.23711532 20.91867647 76.40348792 16.39306641 82.69433594 C15 84.5 15 84.5 13.33740234 86.15722656 C8.1836568 91.66771149 8.32128962 97.42731157 8.47265625 104.578125 C8.52277161 106.05210612 8.57356107 107.52606447 8.625 109 C8.65514199 110.5051549 8.68251034 112.01036803 8.70703125 113.515625 C8.7726827 117.1783068 8.87596618 120.83877611 9 124.5 C17.0538087 114.23228585 25.01512399 103.90690017 32.76000977 93.40332031 C35.65021598 89.51138356 38.59761366 85.68162398 41.7109375 81.96484375 C42.52570557 80.99212524 42.52570557 80.99212524 43.35693359 79.99975586 C45 78.5 45 78.5 48.6875 77.6875 C52 78.5 52 78.5 54.5 80.5625 C56.51491325 84.50837178 56.09006178 86.21417479 55 90.5 C53.24892112 93.43404823 51.11880953 96.00130641 48.9375 98.625 C47.66011054 100.21245807 46.38412624 101.80104762 45.109375 103.390625 C44.43841797 104.22013672 43.76746094 105.04964844 43.07617188 105.90429688 C39.53346534 110.33351322 36.11406637 114.85572888 32.6875 119.375 C32.00945312 120.26622559 31.33140625 121.15745117 30.6328125 122.07568359 C26.42501735 127.60872795 22.23813882 133.15654062 18.08984375 138.734375 C16 141.5 16 141.5 14.21508789 143.22631836 C8.45214871 149.29191916 8.19586549 155.06085666 8.38476562 163.02148438 C8.44323059 164.53518657 8.50248493 166.04885847 8.5625 167.5625 C8.59767324 169.11125727 8.62960165 170.66009181 8.65820312 172.20898438 C8.73472884 175.97458974 8.85516155 179.73642846 9 183.5 C9.35078613 183.01869629 9.70157227 182.53739258 10.06298828 182.04150391 C18.3044999 170.75114025 26.68411115 159.58773764 35.34960938 148.61865234 C36.53100491 147.10206204 37.69151 145.56910702 38.83789062 144.02587891 C39.44697266 143.21296387 40.05605469 142.40004883 40.68359375 141.5625 C41.23200928 140.81871094 41.7804248 140.07492188 42.34545898 139.30859375 C44 137.5 44 137.5 47.625 136.125 C51 136.5 51 136.5 54 138.5 C56 141.5 56 141.5 55.87890625 144.8359375 C54.89453257 148.93968198 53.60956381 150.88640513 50.9375 154.125 C50.02593438 155.25537531 49.11588838 156.38697708 48.20703125 157.51953125 C47.69994629 158.14424316 47.19286133 158.76895508 46.67041016 159.41259766 C43.41094284 163.48574083 40.27851297 167.65717733 37.125 171.8125 C36.09524048 173.16504883 36.09524048 173.16504883 35.04467773 174.54492188 C26.24223429 186.10832533 17.49441653 197.70775117 9 209.5 C10.11375 209.3453125 10.11375 209.3453125 11.25 209.1875 C14 209.5 14 209.5 15.96533203 211.68554688 C19.27565972 216.26455546 22.05419795 221.10938865 24.875 226 C25.49375 227.03253906 26.1125 228.06507813 26.75 229.12890625 C27.32492187 230.12792969 27.89984375 231.12695312 28.4921875 232.15625 C29.02183105 233.06181641 29.55147461 233.96738281 30.09716797 234.90039062 C31 237.5 31 237.5 30.34716797 239.98364258 C29.90260254 240.81404053 29.45803711 241.64443848 29 242.5 C28.29858887 243.83840942 28.29858887 243.83840942 27.58300781 245.20385742 C27.04514648 246.16138916 26.50728516 247.1189209 25.953125 248.10546875 C25.355 249.17216797 24.756875 250.23886719 24.140625 251.33789062 C23.51671875 252.44326172 22.8928125 253.54863281 22.25 254.6875 C21.6415625 255.77353516 21.033125 256.85957031 20.40625 257.97851562 C19.80296875 259.05166016 19.1996875 260.12480469 18.578125 261.23046875 C17.98225586 262.29104492 17.38638672 263.35162109 16.77246094 264.44433594 C15.12607246 267.28265525 13.37334602 270.02166948 11.59375 272.77734375 C8.901756 277.22793357 8.15967661 280.72656663 8.25 285.875 C8.20182049 294.4027725 8.20182049 294.4027725 6 297.5 C2.50875983 299.82749345 1.10777749 300.00299316 -3 299.5 C-5.16720581 297.97972107 -5.16720581 297.97972107 -7 295.5 C-7.3518282 292.67996661 -7.46394007 290.26120068 -7.38720703 287.44946289 C-7.38148178 286.64070709 -7.37575653 285.83195129 -7.36985779 284.99868774 C-7.3557588 283.24329628 -7.33295064 281.48795806 -7.30246353 279.73277473 C-7.25734153 276.94354319 -7.24222703 274.15564781 -7.23605347 271.36607361 C-7.21517922 263.43573083 -7.15724242 255.50640352 -7.03808594 247.5769043 C-6.9672657 242.72187462 -6.94604751 237.86862838 -6.95479965 233.01312065 C-6.94854426 231.17321543 -6.92394849 229.33326839 -6.87976456 227.49388313 C-6.5640732 214.05818477 -8.6377102 207.32030472 -18 197.5 C-19.40882491 195.70331436 -20.79966167 193.89214806 -22.16015625 192.05859375 C-22.8037207 191.21449951 -23.44728516 190.37040527 -24.11035156 189.50073242 C-24.75456055 188.65486572 -25.39876953 187.80899902 -26.0625 186.9375 C-26.7544043 186.02911377 -27.44630859 185.12072754 -28.15917969 184.18481445 C-32.38609138 178.63116076 -36.60902169 173.0753312 -40.765625 167.46875 C-42.54064352 165.11033378 -44.34433425 162.7860803 -46.171875 160.46875 C-46.99800293 159.40587769 -46.99800293 159.40587769 -47.84082031 158.3215332 C-48.91770775 156.93644298 -50.00506011 155.55940258 -51.10449219 154.19213867 C-54.30712399 150.04079283 -55.94707044 146.93189612 -56 141.5 C-54 138.5 -54 138.5 -51 136.5 C-46.92667066 136.58855064 -44.74266296 136.83806127 -41.6640625 139.58203125 C-40.99117187 140.48308594 -40.31828125 141.38414062 -39.625 142.3125 C-38.85542969 143.32183594 -38.08585937 144.33117187 -37.29296875 145.37109375 C-36.15794922 146.91990234 -36.15794922 146.91990234 -35 148.5 C-34.33613281 149.37785156 -33.67226562 150.25570312 -32.98828125 151.16015625 C-31.5658489 153.04318574 -30.15238757 154.93301247 -28.74609375 156.828125 C-26.49176008 159.8573036 -24.20365038 162.85974941 -21.91015625 165.859375 C-21.18513916 166.8076416 -20.46012207 167.7559082 -19.71313477 168.73291016 C-18.24996818 170.64495333 -16.78563222 172.55610228 -15.32006836 174.46630859 C-14.6472583 175.34625488 -13.97444824 176.22620117 -13.28125 177.1328125 C-12.36956055 178.32221436 -12.36956055 178.32221436 -11.43945312 179.53564453 C-10 181.5 -10 181.5 -9 183.5 C-6.57976197 162.72214086 -6.57976197 162.72214086 -12.58154297 143.77905273 C-14.69967317 141.50914889 -16.90762995 139.37301776 -19.203125 137.28320312 C-22.64956303 133.86298799 -25.31988767 129.82230916 -28.125 125.875 C-29.30718998 124.25323244 -30.49203001 122.63339286 -31.6796875 121.015625 C-32.24397461 120.24541016 -32.80826172 119.47519531 -33.38964844 118.68164062 C-35.63938587 115.6337853 -37.93468183 112.62320045 -40.25 109.625 C-41.02730469 108.614375 -41.80460938 107.60375 -42.60546875 106.5625 C-44.31626278 104.37446979 -46.04405449 102.21275765 -47.80078125 100.0625 C-48.26258789 99.48741699 -48.72439453 98.91233398 -49.20019531 98.31982422 C-50.47912751 96.72872255 -51.77229243 95.14909098 -53.06640625 93.5703125 C-55.27219372 90.06778936 -55.83929748 87.61495841 -56 83.5 C-54.5 80.5625 -54.5 80.5625 -52 78.5 C-48.75 77.625 -48.75 77.625 -45 78.5 C-41.81297809 81.07439783 -39.47066467 84.25113975 -37 87.5 C-36.58153809 88.04720703 -36.16307617 88.59441406 -35.73193359 89.15820312 C-33.2798665 92.37303665 -30.85899045 95.60985525 -28.453125 98.859375 C-24.43571158 104.27787922 -20.34261606 109.63820088 -16.25 115 C-15.53392578 115.93875977 -14.81785156 116.87751953 -14.08007812 117.84472656 C-12.38725611 120.06356205 -10.69391248 122.28199695 -9 124.5 C-6.59732236 103.68523422 -6.59732236 103.68523422 -13.29638672 84.77685547 C-15.77822778 81.94112839 -18.35051112 79.2269047 -21.02441406 76.57177734 C-24.41653675 73.01449199 -27.16119393 69.00169535 -30 65 C-35.27321594 57.75184428 -40.71166783 50.64883262 -46.29492188 43.63671875 C-56 31.34131728 -56 31.34131728 -56 26.1875 C-54.97044758 23.42057786 -54.42764243 22.14732879 -52 20.5 C-49.05878545 19.41639464 -47.64419454 19.22741336 -44.73828125 20.45703125 C-40.80948145 23.38821854 -38.36831222 27.07964817 -35.5625 31.0625 C-34.32769517 32.77891008 -33.09065326 34.49371265 -31.8515625 36.20703125 C-31.21895508 37.08311035 -30.58634766 37.95918945 -29.93457031 38.86181641 C-26.30522194 43.81117765 -22.50363482 48.6258601 -18.70727539 53.44750977 C-9 65.80836584 -9 65.80836584 -9 68.5 C-8.34 68.5 -7.68 68.5 -7 68.5 C-7.00888245 67.70708557 -7.01776489 66.91417114 -7.0269165 66.097229 C-7.10708335 58.62270816 -7.16797462 51.14839592 -7.20724869 43.67355728 C-7.22811884 39.83068748 -7.25642506 35.98817307 -7.30175781 32.14550781 C-7.34523745 28.43668885 -7.36914142 24.72821158 -7.37950897 21.01915741 C-7.38689667 19.60453665 -7.40132343 18.18993448 -7.42292023 16.77545929 C-7.45197615 14.79352577 -7.45363408 12.811248 -7.45410156 10.82910156 C-7.46298401 9.70103088 -7.47186646 8.57296021 -7.48101807 7.41070557 C-6.71413037 2.77016409 -4.59334236 0.76555706 0 0 Z" transform="translate(256,102.5)"/><path fill="#BAEB6B" d="M0 0 C11.96209767 2.25699956 22.96920202 8.89147284 30.04296875 18.88671875 C31.25531763 20.79898038 32.44055045 22.7288776 33.58984375 24.6796875 C34.92483447 27.08285209 34.92483447 27.08285209 37 29 C37.57105469 28.79503906 38.14210938 28.59007813 38.73046875 28.37890625 C54.81315043 23.03505812 68.84630804 24.96051898 84 32 C83.7834375 32.78697266 83.7834375 32.78697266 83.5625 33.58984375 C79.72548372 49.60405754 81.50938458 63.77298954 89.734375 78 C91.09015841 80.06595567 92.47681436 82.05550769 94 84 C92.55461777 87.02907854 90.87065408 89.8000468 89.0625 92.625 C85.65491737 98.2628496 83.85999705 103.88180276 82.51953125 110.30078125 C82.1082955 112.22339625 81.56192247 114.115907 81 116 C80.34902344 116.39574219 79.69804687 116.79148437 79.02734375 117.19921875 C75.89346461 119.98287633 75.94785629 123.40657042 75.5 127.375 C75.3311731 128.6911731 75.3311731 128.6911731 75.15893555 130.03393555 C74.7455698 133.35327075 74.37033815 136.6755792 74 140 C73.91752014 140.73547058 73.83504028 141.47094116 73.75006104 142.22869873 C72.45185615 153.81407247 71.20967228 165.40507406 70 177 C65.37278051 172.6344968 62.41519806 167.62566085 59.1875 162.1875 C58.57712891 161.23423828 57.96675781 160.28097656 57.33789062 159.29882812 C52.82452187 151.63068076 52.48189142 145.99658726 53.69473267 137.28347778 C54.03472714 134.74023209 54.30166755 132.19522066 54.55932617 129.64233398 C55.16791335 123.63214229 55.83185313 117.62881762 56.5 111.625 C56.72815643 109.55341754 56.95602277 107.48180311 57.18359375 105.41015625 C57.60174644 101.60868858 58.02133867 97.80738788 58.44335938 94.00634766 C58.53603088 93.17090424 58.62870239 92.33546082 58.72418213 91.47470093 C58.91035541 89.80431177 59.09801289 88.13408745 59.28704834 86.46401978 C59.42194672 85.26801651 59.42194672 85.26801651 59.55957031 84.04785156 C59.6395929 83.34339905 59.71961548 82.63894653 59.80206299 81.91314697 C60.07086321 79.31507633 60.20458753 76.73621696 60.25 74.125 C60.27578125 73.22007812 60.3015625 72.31515625 60.328125 71.3828125 C60.18828503 68.95300757 60.18828503 68.95300757 58.66796875 67.20703125 C56.04184729 65.30662954 54.14374938 65.55089295 51 66 C47.71610013 68.34153045 47.05114762 69.75716741 46.21044922 73.74853516 C46.05700215 75.26030811 45.92295089 76.77413107 45.8046875 78.2890625 C45.72630646 79.10635834 45.64792542 79.92365417 45.56716919 80.76571655 C45.3196526 83.38424367 45.09670279 86.00417352 44.875 88.625 C44.71912324 90.33348701 44.56158609 92.0418234 44.40234375 93.75 C44.16561712 96.29595198 43.93054623 98.84195887 43.70281982 101.38873291 C42.9359301 109.94110859 41.98395345 118.47024844 41 127 C38.34434213 124.60030318 36.72001447 122.03555811 34.953125 118.93359375 C34.36249268 117.90266602 33.77186035 116.87173828 33.16333008 115.80957031 C32.21623169 114.14039551 32.21623169 114.14039551 31.25 112.4375 C30.24902441 110.68834655 29.24804214 108.93919688 28.24665833 107.1902771 C27.20178786 105.36389772 26.15900175 103.53634203 25.11669922 101.70849609 C22.34914815 96.85693899 19.56866677 92.01284882 16.78222656 87.17211914 C15.49417553 84.93431406 14.20827768 82.6952679 12.92480469 80.45483398 C11.29854749 77.62717147 9.65739199 74.80950488 8 72 C7.60868896 71.330896 7.21737793 70.66179199 6.81420898 69.97241211 C4.80851724 66.72297007 4.31712333 66.08345351 0.4375 65.0625 C-2.98335288 64.80921682 -2.98335288 64.80921682 -6 66 C-7.82754612 72.82283884 -6.28465269 76.35031187 -2.8203125 82.37475586 C-2.19898437 83.40608643 -1.57765625 84.43741699 -0.9375 85.5 C-0.30714844 86.5835376 0.32320312 87.6670752 0.97265625 88.78344727 C2.29711511 91.05509788 3.63079367 93.32139548 4.97314453 95.58251953 C6.95049712 98.91653321 8.89974578 102.26528914 10.83984375 105.62109375 C13.16480998 109.6372495 15.49602878 113.64944239 17.84375 117.65234375 C18.62105469 118.98048096 18.62105469 118.98048096 19.4140625 120.33544922 C20.51352259 122.18266402 21.63494006 124.01691804 22.7734375 125.84033203 C23.33289063 126.73993652 23.89234375 127.63954102 24.46875 128.56640625 C24.97857422 129.37150635 25.48839844 130.17660645 26.01367188 131.00610352 C26.33916016 131.66408936 26.66464844 132.3220752 27 133 C26.67 133.66 26.34 134.32 26 135 C24.732771 134.42668945 24.732771 134.42668945 23.43994141 133.84179688 C22.25577637 133.30619141 21.07161133 132.77058594 19.8515625 132.21875 C18.8917749 131.78449203 18.8917749 131.78449203 17.91259766 131.34146118 C14.38787295 129.7472441 10.86186927 128.15595154 7.33349609 126.56982422 C-4.83291522 121.09772279 -4.83291522 121.09772279 -10.75 118.2890625 C-11.55131348 117.91458984 -12.35262695 117.54011719 -13.17822266 117.15429688 C-14.58548966 116.49492394 -15.98691374 115.82284245 -17.38037109 115.13476562 C-22.36753037 112.82449014 -26.63185238 112.65322044 -32 113 C-32.49880767 100.71686125 -26.97005966 90.06782259 -19 81 C-16.74954338 78.81323555 -14.49052352 76.91977855 -12 75 C-12.7050732 71.62515523 -13.96844001 68.73748912 -15.4375 65.625 C-21.15840107 53.5001052 -22.83888439 37.72747242 -18.4375 24.75 C-17.328125 22.34375 -17.328125 22.34375 -16 20 C-15.47921875 19.0615625 -14.9584375 18.123125 -14.421875 17.15625 C-11.04420256 11.49636645 -7.26419347 6.06967991 -2 2 C-1.34 2 -0.68 2 0 2 C0 1.34 0 0.68 0 0 Z" transform="translate(76,87)"/><path fill="#97D729" d="M0 0 C3.81601713 1.47284872 4.27285106 1.94887823 6.3515625 5.21484375 C6.87000732 6.02888672 7.38845215 6.84292969 7.92260742 7.68164062 C10.86393848 12.5124824 13.69726833 17.40017334 16.5 22.3125 C17.47662503 24.01497334 18.45325562 25.71744352 19.43019104 27.41973877 C20.44656065 29.19157669 21.46161631 30.96416281 22.4765625 32.73681641 C25.63491313 38.24959755 28.81381281 43.75053215 31.99099731 49.25247192 C33.59763112 52.03505886 35.20306223 54.81833945 36.80859375 57.6015625 C37.34154053 58.52533691 37.8744873 59.44911133 38.42358398 60.40087891 C38.79942627 61.05233887 39.17526855 61.70379883 39.5625 62.375 C40.25864288 56.32872098 40.95231062 50.28216469 41.64379883 44.23535156 C41.87881455 42.18319238 42.11447771 40.13110723 42.35083008 38.07910156 C42.69267021 35.11022359 43.03236351 32.14110929 43.37109375 29.171875 C43.48083023 28.21589417 43.59056671 27.25991333 43.70362854 26.27496338 C44.37177797 20.36284543 44.9177361 14.4615604 45.22021484 8.51757812 C45.5625 6.375 45.5625 6.375 47.75 3.125 C51.10153654 1.03959949 52.68933545 0.63333019 56.5625 1.375 C58.9375 2.6875 58.9375 2.6875 60.5625 5.375 C61.16876059 12.53603151 60.36038526 19.76504124 59.5390625 26.87890625 C59.43282562 27.84166977 59.32658875 28.80443329 59.21713257 29.79637146 C58.8795317 32.84407059 58.53370309 35.89076737 58.1875 38.9375 C57.96299046 40.95111049 57.73902841 42.96478211 57.515625 44.97851562 C56.67517586 52.5340102 55.82925268 60.0888007 54.95214844 67.64013672 C54.85831879 68.45796127 54.76448914 69.27578583 54.66781616 70.11839294 C54.4947279 71.62609624 54.3190247 73.13350289 54.14004517 74.64051819 C53.30887879 81.92083906 53.02500683 86.22021983 56.84375 92.6484375 C57.17669067 93.21704498 57.50963135 93.78565247 57.85266113 94.37149048 C58.91054435 96.17178213 59.98606249 97.96075376 61.0625 99.75 C61.78635095 100.974555 62.50902013 102.19980938 63.23046875 103.42578125 C64.99421239 106.41706774 66.77392363 109.39847911 68.5625 112.375 C68.66796143 111.39442627 68.77342285 110.41385254 68.88208008 109.40356445 C72.40796359 76.72040692 72.40796359 76.72040692 74.125 63.8125 C74.22723877 62.9769458 74.32947754 62.1413916 74.43481445 61.28051758 C74.99145044 57.29548094 75.39823076 54.93477556 78.5625 52.375 C79.2225 52.375 79.8825 52.375 80.5625 52.375 C80.58828125 53.24640625 80.6140625 54.1178125 80.640625 55.015625 C81.06141162 63.85214401 82.16981722 72.43645178 86.63354492 80.24975586 C87.72022663 82.73584371 87.69923134 84.21442267 87.4609375 86.90234375 C87.34661377 88.20389404 87.34661377 88.20389404 87.22998047 89.53173828 C87.13346191 90.44938965 87.03694336 91.36704102 86.9375 92.3125 C86.84484863 93.26108887 86.75219727 94.20967773 86.65673828 95.18701172 C86.08886743 100.38289716 85.2261187 105.0621348 83.4375 110 C79.22844854 122.18409634 80.28189395 136.70782026 85.5625 148.375 C90.62628975 158.07952871 96.76493144 165.43726059 106.5 170.5 C109.19311523 172.12939453 109.19311523 172.12939453 111.5625 174.375 C112.05810547 177.3984375 112.05810547 177.3984375 111.9921875 180.875 C112.29307707 188.70824281 114.69244386 193.66498079 118.75 200.25 C119.37567871 201.31444336 120.00135742 202.37888672 120.64599609 203.47558594 C121.95097614 205.69114626 123.26715569 207.90014667 124.59423828 210.10253906 C126.48603135 213.24786209 128.34179996 216.41112716 130.18359375 219.5859375 C130.7652832 220.58842529 131.34697266 221.59091309 131.94628906 222.6237793 C132.52088867 223.61418213 133.09548828 224.60458496 133.6875 225.625 C137.13143331 231.54298422 140.59803698 237.44358943 144.14453125 243.30078125 C145.2631989 245.17958149 146.38169594 247.05848332 147.5 248.9375 C148.02674316 249.78795898 148.55348633 250.63841797 149.09619141 251.51464844 C151.45146042 255.50840039 152.58438359 257.60831967 152.44921875 262.34375 C151.10665324 266.93331317 151.10665324 266.93331317 148.5625 268.375 C145.25 269.0625 145.25 269.0625 141.5625 268.375 C136.16652881 263.16603179 132.69424674 255.64170008 129.07125854 249.17529297 C127.33068376 246.06895542 125.57181739 242.97296899 123.81640625 239.875 C123.461194 239.24682373 123.10598175 238.61864746 122.74000549 237.97143555 C119.2138788 231.74115004 115.61551058 225.55380474 112 219.375 C111.18015625 217.97314453 111.18015625 217.97314453 110.34375 216.54296875 C109.81652344 215.64191406 109.28929687 214.74085938 108.74609375 213.8125 C108.2341748 212.9359375 107.72225586 212.059375 107.19482422 211.15625 C106.0061549 209.1309253 104.80866504 207.11076967 103.60595703 205.09375 C102.96384277 204.0109375 102.32172852 202.928125 101.66015625 201.8125 C101.06855713 200.82121094 100.47695801 199.82992187 99.86743164 198.80859375 C98.5625 196.375 98.5625 196.375 98.5625 194.375 C97.72887939 194.11323975 96.89525879 193.85147949 96.03637695 193.58178711 C92.25553087 192.26836226 88.62652636 190.70729348 84.98046875 189.06640625 C84.25689682 188.74358673 83.53332489 188.42076721 82.78782654 188.08816528 C80.44074586 187.04047073 78.09537918 185.98899724 75.75 184.9375 C73.3157227 183.84964379 70.88100802 182.76277123 68.44622803 181.67604065 C66.81804319 180.94931847 65.18999138 180.22229819 63.56207275 179.49497986 C55.44318605 175.86956083 47.30268536 172.29434892 39.15307617 168.73852539 C25.95050481 162.95700721 25.95050481 162.95700721 23.5625 159.375 C23.10582937 155.7977467 23.12472569 154.04041695 25.125 151 C28.46362961 148.77424692 30.59087296 149.09761488 34.5625 149.375 C37.73364258 150.44140625 37.73364258 150.44140625 40.95703125 151.9375 C42.15223389 152.4838208 43.34743652 153.0301416 44.57885742 153.59301758 C45.84429874 154.18688291 47.10967852 154.78087938 48.375 155.375 C49.67294664 155.9723341 50.97153544 156.56827477 52.27075195 157.1628418 C54.84511426 158.34261442 57.41653528 159.5284156 59.98535156 160.72021484 C64.72420226 162.91240226 69.48213909 165.05932167 74.25 167.1875 C74.97872314 167.51814453 75.70744629 167.84878906 76.45825195 168.18945312 C79.87538536 169.82431046 79.87538536 169.82431046 83.5625 170.375 C78.75170237 156.25506097 72.49668197 145.56222367 58.953125 138.734375 C50.15341249 134.51376273 41.06687843 130.93614379 31.95214844 127.46044922 C26.36299276 125.32122738 20.85207445 123.01685547 15.3515625 120.66015625 C14.51644135 120.30529648 13.68132019 119.95043671 12.82089233 119.58482361 C-3.93696711 112.37606579 -3.93696711 112.37606579 -5.4375 109.375 C-5.79155722 105.55118202 -5.93808897 103.20931495 -3.9375 99.875 C-0.36174297 97.72954578 2.66154748 98.50265782 6.5625 99.375 C9.55696777 100.400464 12.40070348 101.68259221 15.26953125 103.015625 C16.07557297 103.37968445 16.88161469 103.7437439 17.71208191 104.11883545 C20.27111504 105.27746895 22.82303687 106.45088911 25.375 107.625 C27.07572075 108.39812856 28.77688942 109.1702726 30.47851562 109.94140625 C34.47703051 111.75598337 38.47032433 113.58167073 42.46148682 115.41235352 C45.39208102 116.75509912 48.32663006 118.08898284 51.26171875 119.421875 C52.10951904 119.80698242 52.95731934 120.19208984 53.83081055 120.58886719 C54.40226807 120.84829102 54.97372559 121.10771484 55.5625 121.375 C53.59827745 117.74924467 51.60784982 114.13928541 49.59326172 110.54125977 C48.91326024 109.3183201 48.24023282 108.09147298 47.57470703 106.8605957 C43.63817369 99.59246855 40.36441585 93.76056754 32.5625 90.375 C31.59699219 89.92825928 30.63148437 89.48151855 29.63671875 89.02124023 C26.76032534 87.72315255 23.86967245 86.46916212 20.96286011 85.24093628 C19.01931753 84.41924327 17.07969691 83.58885592 15.14086914 82.75610352 C12.38559381 81.57329118 9.62917779 80.39321291 6.87158203 79.21582031 C0.28124722 76.40125105 -6.30503502 73.57769638 -12.88037109 70.72824097 C-14.28416187 70.12176277 -15.68926178 69.5183051 -17.09570312 68.91799927 C-19.06822332 68.0760692 -21.03638982 67.22463896 -23.00390625 66.37109375 C-24.68915405 65.64684204 -24.68915405 65.64684204 -26.40844727 64.90795898 C-30.3205279 62.92811258 -33.73165948 61.09548626 -35.4375 56.9375 C-35.4375 53.34641911 -33.96416067 50.90166067 -31.4375 48.375 C-25.60486829 47.99520803 -21.88309434 48.63580468 -16.5078125 51.15625 C-15.87886581 51.44575531 -15.24991913 51.73526062 -14.60191345 52.03353882 C-12.58202348 52.96689702 -10.57254186 53.92064597 -8.5625 54.875 C-7.1757734 55.51995213 -5.78831744 56.16333832 -4.40014648 56.80517578 C-1.66500603 58.07123384 1.06689476 59.34388321 3.79638672 60.62207031 C8.66823432 62.897739 13.57901066 65.08299655 18.5 67.25 C19.90500583 67.87226509 21.30996127 68.49464397 22.71484375 69.1171875 C23.65457031 69.53226562 24.59429687 69.94734375 25.5625 70.375 C20.9033953 61.34617599 15.94919608 52.51594458 10.8125 43.75 C10.21791992 42.73317139 9.62333984 41.71634277 9.01074219 40.66870117 C6.60012964 36.54932871 4.18757272 32.43126811 1.75683594 28.32373047 C0.05758716 25.45042961 -1.62844622 22.56972498 -3.3125 19.6875 C-3.83038086 18.82108887 -4.34826172 17.95467773 -4.88183594 17.06201172 C-5.35137695 16.25393066 -5.82091797 15.44584961 -6.3046875 14.61328125 C-6.71831543 13.91243408 -7.13194336 13.21158691 -7.55810547 12.48950195 C-8.62573538 9.92238851 -8.73685641 8.13192199 -8.4375 5.375 C-5.82924717 1.73925363 -4.49287945 0.4901323 0 0 Z" transform="translate(76.4375,150.625)"/><path fill="#ECF8D8" d="M0 0 C0.33 0 0.66 0 1 0 C1.13979909 7.89368191 1.24601991 15.78683587 1.31087303 23.68145466 C1.34201966 27.34838796 1.38417811 31.01446663 1.45263672 34.6809082 C1.51843747 38.22771123 1.55383095 41.77369902 1.56926346 45.3210659 C1.58554006 47.31460372 1.63228034 49.3078192 1.67977905 51.30085754 C1.68260279 59.02996926 0.64085485 64.06303113 -3.70809937 70.52238464 C-5.29106046 73.55819762 -5.30296553 75.61995922 -5 79 C-4.06402685 81.01951062 -4.06402685 81.01951062 -2 82 C1.45749949 82.66676878 1.45749949 82.66676878 5 82 C7.30036585 79.90260761 8.63332958 77.89329258 9.81542969 75.01342773 C13.35501978 67.06167695 19.72815243 63.96567119 27.125 60 C28.3305996 59.32892505 29.5350389 58.65576116 30.73828125 57.98046875 C39.2867905 53.2377365 39.2867905 53.2377365 43 52 C43.1007862 56.4066827 43.17234423 60.81271055 43.21972656 65.22021484 C43.23953005 66.71154498 43.26658066 68.20280094 43.30175781 69.69384766 C43.78304762 90.65826565 38.34119757 109.15203495 24 125 C23.32324219 125.76957031 22.64648438 126.53914063 21.94921875 127.33203125 C9.99434091 140.16112319 -6.76814696 147.64759387 -24 150 C-26.97 150 -29.94 150 -33 150 C-33 122.28 -33 94.56 -33 66 C-30.03 65.01 -30.03 65.01 -27 64 C-25.25305684 60.65529085 -25.94436159 56.32000975 -25.90625 52.625 C-25.53952283 43.76503307 -22.20613278 37.43995763 -17.5 30 C-16.76571471 28.78804504 -16.03461859 27.57415243 -15.30664062 26.35839844 C-13.87826208 23.97960062 -12.43610828 21.61025422 -10.98046875 19.24804688 C-8.37525191 14.97538849 -5.9219409 10.62828103 -3.5 6.25 C-2.80268031 5.00487381 -2.10484302 3.76003722 -1.40625 2.515625 C-0.9421875 1.68546875 -0.478125 0.8553125 0 0 Z" transform="translate(289,336)"/><path fill="#97D729" d="M0 0 C11.84440154 8.02692536 19.6090813 18.84659542 23.25 32.75 C25.12438377 44.03734754 25.12438377 44.03734754 22.25 48.75 C20.87437146 47.46034824 19.54233607 46.12310707 18.25 44.75 C18.25 44.09 18.25 43.43 18.25 42.75 C17.68539062 42.48960937 17.12078125 42.22921875 16.5390625 41.9609375 C14.03383934 40.6356488 11.89613155 39.06910139 9.625 37.375 C-2.16382026 29.01660454 -14.63401055 27.62963492 -28.75 28.75 C-42.39119589 31.25757277 -52.85661065 38.26741393 -61.75 48.75 C-63.9616672 51.98379227 -65.93373356 55.27989744 -67.75 58.75 C-68.38421875 58.5334375 -69.0184375 58.316875 -69.671875 58.09375 C-83.04758485 54.10320673 -99.04186993 53.41445994 -111.75 59.75 C-117.75471347 63.05807975 -123.20740326 66.58083819 -127.75 71.75 C-128.41 71.42 -129.07 71.09 -129.75 70.75 C-129.41226562 70.04875 -129.07453125 69.3475 -128.7265625 68.625 C-128.28054688 67.67625 -127.83453125 66.7275 -127.375 65.75 C-126.93414062 64.821875 -126.49328125 63.89375 -126.0390625 62.9375 C-123.27961013 56.11412687 -122.42545986 50.03008706 -122.5 42.75 C-122.49226563 41.99460938 -122.48453125 41.23921875 -122.4765625 40.4609375 C-122.49446117 35.2524251 -123.31610897 30.75723853 -124.75 25.75 C-112.42908552 18.45803021 -98.22877222 17.39535824 -84.4296875 20.49609375 C-81.84514623 21.18684711 -79.29424169 21.92441953 -76.75 22.75 C-76.22212891 21.80640625 -76.22212891 21.80640625 -75.68359375 20.84375 C-67.48441213 6.62898083 -56.8820766 -2.20135103 -40.89819336 -6.78051758 C-26.79652128 -9.86240363 -12.22169103 -7.27640188 0 0 Z" transform="translate(476.75,93.25)"/><path fill="#BAEB6B" d="M0 0 C3.32752255 0.5815289 6.22420428 1.39130911 9.30859375 2.76245117 C10.53642578 3.30388008 10.53642578 3.30388008 11.7890625 3.85624695 C12.66304687 4.24786514 13.53703125 4.63948334 14.4375 5.04296875 C15.35402344 5.44904861 16.27054688 5.85512848 17.21484375 6.27351379 C20.14535395 7.57345176 23.07264247 8.88048041 26 10.1875 C28.89206212 11.47116968 31.78470205 12.75352829 34.67752075 14.03549194 C36.55335458 14.87121732 38.4264994 15.71300567 40.29684448 16.5609436 C44.16466632 18.3141512 48.00818856 20.04158422 51.99658203 21.50341797 C61.13749026 25.04774417 64.56983172 30.18391732 68.875 38.75 C69.53330624 39.98917556 70.19565767 41.22620969 70.86181641 42.46118164 C72.23513578 45.013015 73.59123421 47.57296348 74.9375 50.13916016 C76.96064072 53.96376882 79.09902692 57.71353603 81.28125 61.44921875 C81.62753448 62.04205658 81.97381897 62.63489441 82.33059692 63.24569702 C83.34406477 64.97707908 84.35951299 66.70730144 85.375 68.4375 C86.61597166 70.5588674 87.85325726 72.68239768 89.0859375 74.80859375 C89.6020459 75.69345459 90.1181543 76.57831543 90.64990234 77.48999023 C91.96903825 79.94243802 93.02084683 82.39545256 94 85 C91.91624029 83.81324336 89.83296871 82.62564374 87.75 81.4375 C87.11827881 81.07760986 86.48655762 80.71771973 85.83569336 80.34692383 C80.7948718 77.46943118 75.79613467 74.52513897 70.81640625 71.54296875 C67.98231719 69.92399164 67.98231719 69.92399164 64.76171875 68.66015625 C59.07752051 66.29749879 53.91456986 62.8794714 48.67578125 59.67578125 C47.85980469 59.18980469 47.04382813 58.70382812 46.203125 58.203125 C45.46739258 57.75614258 44.73166016 57.30916016 43.97363281 56.84863281 C41.85550005 55.67858022 41.85550005 55.67858022 39 57 C24.7431595 52.69725985 12.58571501 43.74153135 5.3203125 30.6796875 C0.21031867 20.30851658 -0.51744068 11.32620155 0 0 Z" transform="translate(114,319)"/><path fill="#D1F19E" d="M0 0 C5.92356234 2.25972437 11.34557342 5.29422442 16.875 8.375 C17.93847656 8.93316406 19.00195312 9.49132812 20.09765625 10.06640625 C28.00564509 14.51649189 32.76144836 19.41886955 36 28 C36.63335993 31.5319281 36.54474614 34.74862736 36.25 38.3125 C36.18066245 40.14545844 36.12211789 41.97885608 36.07421875 43.8125 C36.05020996 44.69679688 36.02620117 45.58109375 36.00146484 46.4921875 C35.99138753 63.74454412 44.43325042 79.02291243 55 92 C55.99 93.485 55.99 93.485 57 95 C51.36177681 94.48743426 47.13381476 92.96655653 42.125 90.375 C41.07010376 89.83540649 41.07010376 89.83540649 39.99389648 89.28491211 C34.48879167 86.39795711 29.61285784 83.19023734 25 79 C24.26652344 78.35804688 23.53304687 77.71609375 22.77734375 77.0546875 C9.55995286 64.76682153 0.57452644 47.25325948 -0.15698242 29.10546875 C-0.21987141 24.69465933 -0.17525098 20.28570827 -0.125 15.875 C-0.11494704 14.33073499 -0.10582529 12.78646362 -0.09765625 11.2421875 C-0.07583336 7.49465751 -0.04143206 3.74737054 0 0 Z" transform="translate(180,388)"/><path fill="#BAEB6A" d="M0 0 C4.14679758 0.65506262 7.63391288 2.01102773 11.46875 3.703125 C12.40624084 4.11387016 12.40624084 4.11387016 13.3626709 4.53291321 C16.8404086 6.06002417 20.30807543 7.60977563 23.77734375 9.15600586 C25.23693627 9.80592316 26.6965721 10.45574321 28.15625 11.10546875 C28.88932373 11.43252304 29.62239746 11.75957733 30.37768555 12.09654236 C34.64438239 13.99009694 38.9318351 15.80907094 43.26306152 17.54989624 C45.89469625 18.61051682 48.5132586 19.70139014 51.13110352 20.79553223 C52.94521755 21.54001808 54.77623461 22.24289306 56.60742188 22.94433594 C65.87959652 26.86512596 69.50829209 32.17262198 74 41 C74.834734 42.44924094 75.67683744 43.89430411 76.53125 45.33203125 C77.1809375 46.48058594 77.830625 47.62914062 78.5 48.8125 C78.84546875 49.42158203 79.1909375 50.03066406 79.546875 50.65820312 C80.36669462 52.10427384 81.18370157 53.55193868 82 55 C77.87328862 56.37557046 76.39879241 55.09287211 72.48828125 53.28125 C71.84710861 52.98759552 71.20593597 52.69394104 70.54533386 52.39138794 C69.17376794 51.76186726 67.80421842 51.12793826 66.43652344 50.49005127 C64.31222643 49.49987248 62.18253822 48.52234278 60.05078125 47.54833984 C55.05545666 45.26360965 50.06817108 42.9617949 45.08740234 40.64550781 C42.89616592 39.62825719 40.69920298 38.62486345 38.5 37.625 C37.3759375 37.10164063 36.251875 36.57828125 35.09375 36.0390625 C31.5408985 34.84580682 28.72448411 34.70966263 25 35 C23.14397385 36.27159652 23.14397385 36.27159652 22 38 C21.34 38.66 20.68 39.32 20 40 C9.95486787 32.71727921 4.8237221 22.55322042 1 11 C0.67 10.01 0.34 9.02 0 8 C-0.12781786 5.32605036 -0.04391871 2.67904143 0 0 Z" transform="translate(79,266)"/><path fill="#BAEB6A" d="M0 0 C9.00977133 2.7029314 17.4407343 6.64357037 26 10.5 C29.21808033 11.9455055 32.437034 13.38905695 35.65625 14.83203125 C36.45236694 15.18936844 37.24848389 15.54670563 38.06872559 15.91487122 C42.95236808 18.10155481 47.85438054 20.23693181 52.78125 22.32421875 C53.92851563 22.8140625 55.07578125 23.30390625 56.2578125 23.80859375 C58.36253243 24.70373367 60.47171229 25.58848507 62.5859375 26.4609375 C63.51664063 26.85925781 64.44734375 27.25757813 65.40625 27.66796875 C66.20353516 28.00078857 67.00082031 28.3336084 67.82226562 28.67651367 C73.95041841 32.40080921 77.21959116 40.17804584 80.75 46.1875 C81.35199219 47.19748047 81.95398438 48.20746094 82.57421875 49.24804688 C83.14269531 50.21162109 83.71117187 51.17519531 84.296875 52.16796875 C84.81604492 53.04735107 85.33521484 53.9267334 85.87011719 54.83276367 C87 57 87 57 87 59 C81.54794454 57.33634994 76.46698733 55.03773993 71.2890625 52.68359375 C69.3856284 51.82830468 67.48197572 50.97350192 65.578125 50.11914062 C62.59830944 48.7787638 59.62006682 47.43525775 56.64550781 46.08325195 C53.76015841 44.77357457 50.86896342 43.4776088 47.9765625 42.18359375 C47.0961026 41.77942734 46.2156427 41.37526093 45.3085022 40.95884705 C40.09997593 38.64320143 35.68845202 37.42323743 30 37 C21.66681387 35.76015543 15.31791693 30.11076322 9.99609375 23.8359375 C7.49866854 20.28773651 5.46720847 16.61254745 3.5 12.75 C3.14929443 12.06437988 2.79858887 11.37875977 2.43725586 10.67236328 C0.65462859 6.99027408 -0.44607375 4.11025094 0 0 Z" transform="translate(45,213)"/><path fill="#BBEC6C" d="M0 0 C0.98613281 0.30744141 0.98613281 0.30744141 1.9921875 0.62109375 C11.2980354 3.2564897 20.39470683 3.69049611 30 4 C34.62345845 11.27678341 34.45490316 17.44490117 34.171875 25.90625 C34.14192294 27.2399914 34.11381613 28.5737754 34.08746338 29.90759277 C34.01369485 33.39338444 33.91510969 36.87803435 33.81109619 40.36303711 C33.7091397 43.9291715 33.63100518 47.49582226 33.55078125 51.0625 C33.39031538 58.0423485 33.2035891 65.02127967 33 72 C30.74704278 69.04163202 28.80294969 66.06477479 26.953125 62.8359375 C26.36225098 61.80791016 25.77137695 60.77988281 25.16259766 59.72070312 C24.53144043 58.61662109 23.9002832 57.51253906 23.25 56.375 C22.25213926 54.63680686 21.25427385 52.89861639 20.25613403 51.1605835 C19.2133229 49.34412563 18.1716006 47.52704599 17.12988281 45.70996094 C14.99737827 41.99260944 12.85537812 38.28078827 10.7109375 34.5703125 C10.36595215 33.97326508 10.0209668 33.37621765 9.66552734 32.76107788 C7.99771397 29.87487701 6.32951961 26.9888968 4.66113281 24.10302734 C4.06397461 23.06871582 3.46681641 22.0344043 2.8515625 20.96875 C2.32385254 20.05544922 1.79614258 19.14214844 1.25244141 18.20117188 C-0.65574296 14.84752855 -1.13646755 12.98956423 -1.125 9.125 C-1.12757813 8.26132812 -1.13015625 7.39765625 -1.1328125 6.5078125 C-1.01023921 4.19334029 -0.64966445 2.21710884 0 0 Z" transform="translate(189,325)"/><path fill="#BAEB6A" d="M0 0 C0.66 0 1.32 0 2 0 C3.3059082 1.47436523 3.3059082 1.47436523 4.80078125 3.55859375 C5.63971924 4.71125732 5.63971924 4.71125732 6.49560547 5.88720703 C7.72690086 7.61552088 8.95365532 9.34707718 10.17626953 11.08154297 C13.17688476 15.2964924 16.11711892 19.25829533 19.81640625 22.88671875 C28.35198439 31.61733026 29.9730809 39.30863364 29.86187744 51.25872803 C29.73485704 57.18503854 29.44195167 63.08830803 29 69 C26.16205669 66.21567061 23.44112193 63.4612046 21.01171875 60.3125 C20.47780518 59.62357666 19.9438916 58.93465332 19.39379883 58.22485352 C18.83072021 57.49065186 18.2676416 56.7564502 17.6875 56 C17.09155029 55.22906006 16.49560059 54.45812012 15.8815918 53.66381836 C12.44491587 49.20932861 9.03506707 44.73472225 5.6328125 40.25390625 C4.91262939 39.30580078 4.19244629 38.35769531 3.45043945 37.38085938 C2.04538019 35.5286264 0.64279631 33.67451256 -0.75708008 31.81835938 C-1.39798584 30.97208984 -2.0388916 30.12582031 -2.69921875 29.25390625 C-3.26471436 28.50439697 -3.83020996 27.7548877 -4.4128418 26.98266602 C-5.94056614 24.98613377 -5.94056614 24.98613377 -7.70214844 23.36499023 C-9 22 -9 22 -9.06640625 19.90625 C-7.63306247 13.06175566 -5.07745203 5.07745203 0 0 Z" transform="translate(219,159)"/><path fill="#BAEB6A" d="M0 0 C4.40865375 4.1683324 8.06066048 8.75462966 11.75 13.5625 C12.36689697 14.36099365 12.98379395 15.1594873 13.61938477 15.98217773 C17.74129248 21.32854242 21.81975104 26.70549576 25.83984375 32.12890625 C27.81715731 34.9164422 27.81715731 34.9164422 29.79370117 36.72192383 C35.05670453 42.22291572 35.7182661 47.24045009 35.6681366 54.57929993 C35.61451164 56.90834316 35.52695175 59.23458454 35.4375 61.5625 C35.40232947 63.15943655 35.37040058 64.75644796 35.34179688 66.35351562 C35.26524481 70.23754888 35.14479375 74.11793627 35 78 C32.05976292 75.13562396 29.33856983 72.32152306 26.94140625 68.98828125 C26.39709961 68.23869141 25.85279297 67.48910156 25.29199219 66.71679688 C24.72125977 65.92337891 24.15052734 65.12996094 23.5625 64.3125 C17.99771118 56.65979525 12.28855472 49.14112 6.44360352 41.70043945 C5.88987061 40.99491943 5.3361377 40.28939941 4.765625 39.5625 C4.27868164 38.94503906 3.79173828 38.32757813 3.29003906 37.69140625 C-0.02212357 33.3487373 -0.02212357 33.3487373 0.1484375 30.66015625 C1.49364279 26.45793238 4.08535795 23.2064366 6.6015625 19.62109375 C8.17260359 17.20232722 8.17260359 17.20232722 7.93359375 15.01171875 C6.66960418 12.28805921 5.10351947 9.87234636 3.4375 7.375 C0 2.21529175 0 2.21529175 0 0 Z" transform="translate(213,209)"/><path fill="#A2E530" d="M0 0 C3.51110045 0.49155406 5.94514563 0.9053398 8.44921875 3.50390625 C10.10917582 5.93438781 11.54851463 8.4381766 13 11 C13.8882533 12.47460317 14.77767655 13.94850192 15.66796875 15.421875 C16.61439316 17.02983159 17.55838267 18.63922368 18.5 20.25 C18.97026611 21.03052734 19.44053223 21.81105469 19.92504883 22.61523438 C20.35197021 23.36611328 20.7788916 24.11699219 21.21875 24.890625 C21.60998047 25.56125977 22.00121094 26.23189453 22.40429688 26.92285156 C23.4799037 30.67336912 21.30758447 33.41307753 19.58300781 36.70385742 C19.04514648 37.66138916 18.50728516 38.6189209 17.953125 39.60546875 C17.355 40.67216797 16.756875 41.73886719 16.140625 42.83789062 C15.51671875 43.94326172 14.8928125 45.04863281 14.25 46.1875 C13.33734375 47.81655273 13.33734375 47.81655273 12.40625 49.47851562 C11.80296875 50.55166016 11.1996875 51.62480469 10.578125 52.73046875 C9.98209473 53.79136719 9.38606445 54.85226562 8.77197266 55.9453125 C7.12854272 58.77840638 5.37865353 61.51159755 3.6015625 64.26171875 C0.87511352 68.76864084 0.10520223 72.40828681 0.125 77.625 C0.104375 78.34300781 0.08375 79.06101562 0.0625 79.80078125 C0.01629781 81.53336346 0.00430073 83.2668072 0 85 C-0.33 85 -0.66 85 -1 85 C-1.02313567 74.21268989 -1.04092136 63.42538564 -1.05181217 52.6380558 C-1.05703831 47.6294632 -1.0641311 42.62088754 -1.07543945 37.61230469 C-1.08627786 32.78182178 -1.09227887 27.95135518 -1.09487724 23.12086105 C-1.09672976 21.27481199 -1.10034709 19.42876385 -1.10573006 17.58272171 C-1.11295312 15.00385839 -1.1139904 12.42506315 -1.11352539 9.84619141 C-1.11712067 9.07727066 -1.12071594 8.30834991 -1.12442017 7.51612854 C-1.11405216 2.22810432 -1.11405216 2.22810432 0 0 Z" transform="translate(264,311)"/><path fill="#B9EB69" d="M0 0 C4.3290471 4.10248015 7.9345758 8.58655169 11.5625 13.3125 C12.1702124 14.09923096 12.7779248 14.88596191 13.40405273 15.6965332 C21.09592945 25.67926669 28.70463168 35.72316108 36 46 C35.01 46.495 35.01 46.495 34 47 C19.75942714 41.69033243 10.08450106 31.7715008 3.6484375 18.13671875 C1.29738023 12.15759108 0.2779025 6.40565261 0 0 Z" transform="translate(209,262)"/><path fill="#B7EA64" d="M0 0 C5.71109752 5.27178233 5.71109752 5.27178233 6 9 C4.85546875 11.2890625 4.85546875 11.2890625 3.1875 13.625 C2.37345703 14.78902344 2.37345703 14.78902344 1.54296875 15.9765625 C0 18 0 18 -2 20 C-1.85919445 17.22882696 -1.71256882 14.45817359 -1.5625 11.6875 C-1.52318359 10.90181641 -1.48386719 10.11613281 -1.44335938 9.30664062 C-1.40146484 8.54931641 -1.35957031 7.79199219 -1.31640625 7.01171875 C-1.27974854 6.31522217 -1.24309082 5.61872559 -1.20532227 4.90112305 C-1 3 -1 3 0 0 Z" transform="translate(164,234)"/><path fill="#ABE93A" d="M0 0 C0.66 0.33 1.32 0.66 2 1 C-1.96 4.96 -5.92 8.92 -10 13 C-10 8.83248505 -7.76127698 6.85829482 -5 4 C-3.36927384 2.62294236 -1.7133562 1.27277889 0 0 Z" transform="translate(224,36)"/></svg>